<?xml version="1.0" standalone="no"?>
<!DOCTYPE svg PUBLIC "-//W3C//DTD SVG 20010904//EN"
 "http://www.w3.org/TR/2001/REC-SVG-20010904/DTD/svg10.dtd">
<svg version="1.0" xmlns="http://www.w3.org/2000/svg"
 width="306.000000pt" height="306.000000pt" viewBox="0 0 306.000000 306.000000"
 preserveAspectRatio="xMidYMid meet">
<metadata>
Created by potrace 1.14, written by Peter Selinger 2001-2017
</metadata>
<g transform="translate(0.000000,306.000000) scale(0.100000,-0.100000)"
fill="#000000" stroke="none">
<path d="M146 3049 c-15 -4 -37 -16 -48 -26 -50 -45 -48 15 -48 -1497 1 -1305
2 -1414 18 -1445 9 -19 30 -44 45 -55 27 -20 41 -21 282 -21 242 0 255 1 282
21 15 12 36 35 46 52 17 28 18 84 17 964 0 829 -2 940 -16 989 -9 29 -49 119
-90 198 -41 80 -74 152 -74 161 0 27 22 40 66 40 54 0 81 -23 127 -110 19 -36
60 -114 92 -175 32 -60 70 -132 85 -160 46 -84 96 -178 153 -287 30 -56 70
-132 89 -168 19 -36 59 -110 88 -165 29 -55 65 -122 80 -150 28 -52 89 -168
180 -340 29 -55 56 -104 60 -110 4 -5 47 -86 95 -180 49 -93 98 -188 110 -210
12 -22 50 -94 85 -160 68 -131 115 -184 176 -203 27 -8 165 -11 446 -10 456 1
468 3 505 70 17 31 18 100 18 1458 0 1358 -1 1427 -18 1458 -35 64 -69 71
-336 69 -225 -2 -238 -3 -272 -24 -66 -42 -64 -8 -64 -1019 1 -717 4 -921 14
-964 7 -30 41 -109 74 -175 93 -184 97 -193 97 -208 0 -23 -45 -40 -89 -34
-48 6 -58 15 -95 87 -29 56 -92 176 -151 285 -85 159 -115 215 -149 280 -20
39 -41 77 -46 85 -5 8 -50 94 -101 190 -50 96 -109 207 -129 245 -21 39 -58
108 -83 155 -24 47 -82 155 -127 240 -46 85 -103 193 -128 240 -24 47 -61 117
-82 155 -30 57 -103 194 -174 330 -25 46 -58 85 -94 107 l-37 23 -425 1 c-234
1 -438 -2 -454 -7z"/>
</g>
</svg>
