<svg width="189" height="46" viewBox="0 0 189 46" fill="none" xmlns="http://www.w3.org/2000/svg">
<g filter="url(#filter0_dd_149_154)">
<mask id="path-1-outside-1_149_154" maskUnits="userSpaceOnUse" x="3" y="-1" width="183" height="40" fill="black">
<rect fill="white" x="3" y="-1" width="183" height="40"/>
<path d="M8.89703 28H4.57612L16.6747 0.222726H20.0079L32.0653 28H27.7856L25.2342 22.0742H11.4484L8.89703 28ZM23.5881 18.2882L18.3619 6.06624L13.0945 18.2882H23.5881ZM40.8123 28H37.5202L31.3474 9.48182H35.1334L39.1662 22.2388L43.1579 9.48182H46.4912L50.524 22.2388L54.5157 9.48182H58.2605L52.1289 28H48.7957L44.8451 15.6545L40.8123 28ZM78.9691 20.0989H63.6607C63.9625 21.5255 64.662 22.7052 65.7594 23.6379C66.8842 24.5433 68.2148 24.9959 69.7511 24.9959C71.8087 24.9959 73.441 24.2278 74.6482 22.6915L78.2695 23.8025C77.4465 25.2291 76.2668 26.3677 74.7305 27.2181C73.2216 28.0686 71.5618 28.4938 69.7511 28.4938C66.9528 28.4938 64.5935 27.5611 62.6731 25.6955C60.7801 23.83 59.8336 21.5118 59.8336 18.7409C59.8336 15.9426 60.7527 13.6244 62.5908 11.7863C64.4563 9.92077 66.7471 8.988 69.4631 8.988C72.1516 8.988 74.4287 9.92077 76.2942 11.7863C78.1323 13.6244 79.0514 15.9426 79.0514 18.7409C79.0514 19.2622 79.0239 19.7148 78.9691 20.0989ZM63.7018 17.136H75.2243C74.8951 15.7368 74.1955 14.612 73.1255 13.7616C72.0556 12.9111 70.8073 12.4859 69.3808 12.4859C68.009 12.4859 66.7882 12.9248 65.7183 13.8027C64.6758 14.6532 64.0036 15.7643 63.7018 17.136ZM91.2415 28.4938C88.6901 28.4938 86.5228 27.5611 84.7396 25.6955C83.0112 23.8574 82.1471 21.5392 82.1471 18.7409C82.1471 15.97 83.0112 13.6518 84.7396 11.7863C86.5228 9.92077 88.6901 8.988 91.2415 8.988C93.6283 8.988 95.6722 9.79731 97.3731 11.4159V9.48182H101.077V28.4527C101.077 31.1138 100.171 33.3223 98.3607 35.0781C96.5775 36.8613 94.3553 37.7529 91.6942 37.7529C89.7464 37.7529 87.9494 37.2591 86.3034 36.2715C84.6573 35.2838 83.5051 34.0081 82.8466 32.4444L86.5914 31.3333C86.9755 32.1289 87.6339 32.7736 88.5667 33.2674C89.4995 33.7886 90.5008 34.0493 91.5707 34.0493C93.1894 34.0493 94.5611 33.5143 95.6859 32.4444C96.8107 31.3744 97.3731 30.0439 97.3731 28.4527V26.0659C95.6722 27.6845 93.6283 28.4938 91.2415 28.4938ZM91.6531 12.7328C90.0344 12.7328 88.6764 13.3089 87.5791 14.4612C86.5091 15.6134 85.9741 17.04 85.9741 18.7409C85.9741 20.4418 86.5091 21.8684 87.5791 23.0207C88.6764 24.1729 90.0344 24.749 91.6531 24.749C93.2442 24.749 94.5748 24.1729 95.6447 23.0207C96.7421 21.8959 97.2908 20.4693 97.2908 18.7409C97.2908 17.0125 96.7421 15.586 95.6447 14.4612C94.5748 13.3089 93.2442 12.7328 91.6531 12.7328ZM114.359 8.988C116.746 8.988 118.789 9.79731 120.49 11.4159V9.48182H124.194V28H120.49V26.0659C118.789 27.6845 116.746 28.4938 114.359 28.4938C111.807 28.4938 109.64 27.5611 107.857 25.6955C106.128 23.8574 105.264 21.5392 105.264 18.7409C105.264 15.97 106.128 13.6518 107.857 11.7863C109.64 9.92077 111.807 8.988 114.359 8.988ZM118.762 14.4612C117.692 13.3089 116.361 12.7328 114.77 12.7328C113.206 12.7328 111.862 13.3089 110.737 14.4612C109.667 15.6134 109.132 17.04 109.132 18.7409C109.132 20.4418 109.667 21.8684 110.737 23.0207C111.862 24.1729 113.206 24.749 114.77 24.749C116.361 24.749 117.692 24.1729 118.762 23.0207C119.859 21.8959 120.408 20.4693 120.408 18.7409C120.408 17.0125 119.859 15.586 118.762 14.4612ZM129.204 28V9.48182H132.908V12.1567C134.307 10.0442 136.324 8.988 138.957 8.988C141.097 8.988 142.867 9.68757 144.266 11.0867C145.665 12.431 146.365 14.1594 146.365 16.2718V28H142.62V17.3418C142.62 15.97 142.167 14.8315 141.262 13.9262C140.357 13.0208 139.232 12.5682 137.887 12.5682C136.488 12.5682 135.309 13.0346 134.348 13.9673C133.388 14.8727 132.908 16.0112 132.908 17.3829V28H129.204ZM154.995 30.181L156.065 27.5062L148.822 9.48182H152.69L157.958 22.8972L163.349 9.48182H167.217L158.205 31.4567C157.382 33.4594 156.353 34.9272 155.118 35.8599C153.884 36.7927 152.347 37.2591 150.509 37.2591H149.851V33.6789H150.509C152.567 33.6789 154.062 32.5129 154.995 30.181ZM169.47 28V25.1605L179.429 12.8974H169.635V9.48182H184.531V12.3213L174.532 24.5844H184.696V28H169.47Z"/>
</mask>
<path d="M8.89703 28H4.57612L16.6747 0.222726H20.0079L32.0653 28H27.7856L25.2342 22.0742H11.4484L8.89703 28ZM23.5881 18.2882L18.3619 6.06624L13.0945 18.2882H23.5881ZM40.8123 28H37.5202L31.3474 9.48182H35.1334L39.1662 22.2388L43.1579 9.48182H46.4912L50.524 22.2388L54.5157 9.48182H58.2605L52.1289 28H48.7957L44.8451 15.6545L40.8123 28ZM78.9691 20.0989H63.6607C63.9625 21.5255 64.662 22.7052 65.7594 23.6379C66.8842 24.5433 68.2148 24.9959 69.7511 24.9959C71.8087 24.9959 73.441 24.2278 74.6482 22.6915L78.2695 23.8025C77.4465 25.2291 76.2668 26.3677 74.7305 27.2181C73.2216 28.0686 71.5618 28.4938 69.7511 28.4938C66.9528 28.4938 64.5935 27.5611 62.6731 25.6955C60.7801 23.83 59.8336 21.5118 59.8336 18.7409C59.8336 15.9426 60.7527 13.6244 62.5908 11.7863C64.4563 9.92077 66.7471 8.988 69.4631 8.988C72.1516 8.988 74.4287 9.92077 76.2942 11.7863C78.1323 13.6244 79.0514 15.9426 79.0514 18.7409C79.0514 19.2622 79.0239 19.7148 78.9691 20.0989ZM63.7018 17.136H75.2243C74.8951 15.7368 74.1955 14.612 73.1255 13.7616C72.0556 12.9111 70.8073 12.4859 69.3808 12.4859C68.009 12.4859 66.7882 12.9248 65.7183 13.8027C64.6758 14.6532 64.0036 15.7643 63.7018 17.136ZM91.2415 28.4938C88.6901 28.4938 86.5228 27.5611 84.7396 25.6955C83.0112 23.8574 82.1471 21.5392 82.1471 18.7409C82.1471 15.97 83.0112 13.6518 84.7396 11.7863C86.5228 9.92077 88.6901 8.988 91.2415 8.988C93.6283 8.988 95.6722 9.79731 97.3731 11.4159V9.48182H101.077V28.4527C101.077 31.1138 100.171 33.3223 98.3607 35.0781C96.5775 36.8613 94.3553 37.7529 91.6942 37.7529C89.7464 37.7529 87.9494 37.2591 86.3034 36.2715C84.6573 35.2838 83.5051 34.0081 82.8466 32.4444L86.5914 31.3333C86.9755 32.1289 87.6339 32.7736 88.5667 33.2674C89.4995 33.7886 90.5008 34.0493 91.5707 34.0493C93.1894 34.0493 94.5611 33.5143 95.6859 32.4444C96.8107 31.3744 97.3731 30.0439 97.3731 28.4527V26.0659C95.6722 27.6845 93.6283 28.4938 91.2415 28.4938ZM91.6531 12.7328C90.0344 12.7328 88.6764 13.3089 87.5791 14.4612C86.5091 15.6134 85.9741 17.04 85.9741 18.7409C85.9741 20.4418 86.5091 21.8684 87.5791 23.0207C88.6764 24.1729 90.0344 24.749 91.6531 24.749C93.2442 24.749 94.5748 24.1729 95.6447 23.0207C96.7421 21.8959 97.2908 20.4693 97.2908 18.7409C97.2908 17.0125 96.7421 15.586 95.6447 14.4612C94.5748 13.3089 93.2442 12.7328 91.6531 12.7328ZM114.359 8.988C116.746 8.988 118.789 9.79731 120.49 11.4159V9.48182H124.194V28H120.49V26.0659C118.789 27.6845 116.746 28.4938 114.359 28.4938C111.807 28.4938 109.64 27.5611 107.857 25.6955C106.128 23.8574 105.264 21.5392 105.264 18.7409C105.264 15.97 106.128 13.6518 107.857 11.7863C109.64 9.92077 111.807 8.988 114.359 8.988ZM118.762 14.4612C117.692 13.3089 116.361 12.7328 114.77 12.7328C113.206 12.7328 111.862 13.3089 110.737 14.4612C109.667 15.6134 109.132 17.04 109.132 18.7409C109.132 20.4418 109.667 21.8684 110.737 23.0207C111.862 24.1729 113.206 24.749 114.77 24.749C116.361 24.749 117.692 24.1729 118.762 23.0207C119.859 21.8959 120.408 20.4693 120.408 18.7409C120.408 17.0125 119.859 15.586 118.762 14.4612ZM129.204 28V9.48182H132.908V12.1567C134.307 10.0442 136.324 8.988 138.957 8.988C141.097 8.988 142.867 9.68757 144.266 11.0867C145.665 12.431 146.365 14.1594 146.365 16.2718V28H142.62V17.3418C142.62 15.97 142.167 14.8315 141.262 13.9262C140.357 13.0208 139.232 12.5682 137.887 12.5682C136.488 12.5682 135.309 13.0346 134.348 13.9673C133.388 14.8727 132.908 16.0112 132.908 17.3829V28H129.204ZM154.995 30.181L156.065 27.5062L148.822 9.48182H152.69L157.958 22.8972L163.349 9.48182H167.217L158.205 31.4567C157.382 33.4594 156.353 34.9272 155.118 35.8599C153.884 36.7927 152.347 37.2591 150.509 37.2591H149.851V33.6789H150.509C152.567 33.6789 154.062 32.5129 154.995 30.181ZM169.47 28V25.1605L179.429 12.8974H169.635V9.48182H184.531V12.3213L174.532 24.5844H184.696V28H169.47Z" fill="#1E1E1E"/>
<path d="M8.89703 28V29H9.55523L9.81551 28.3955L8.89703 28ZM4.57612 28L3.65931 27.6007L3.04983 29H4.57612V28ZM16.6747 0.222726V-0.777274H16.0195L15.7579 -0.176596L16.6747 0.222726ZM20.0079 0.222726L20.9252 -0.175453L20.664 -0.777274H20.0079V0.222726ZM32.0653 28V29H33.5896L32.9826 27.6018L32.0653 28ZM27.7856 28L26.8671 28.3955L27.1274 29H27.7856V28ZM25.2342 22.0742L26.1527 21.6787L25.8924 21.0742H25.2342V22.0742ZM11.4484 22.0742V21.0742H10.7902L10.5299 21.6787L11.4484 22.0742ZM23.5881 18.2882V19.2882H25.1033L24.5076 17.8951L23.5881 18.2882ZM18.3619 6.06624L19.2813 5.67307L18.3655 3.53125L17.4435 5.67046L18.3619 6.06624ZM13.0945 18.2882L12.1761 17.8925L11.5746 19.2882H13.0945V18.2882ZM8.89703 27H4.57612V29H8.89703V27ZM5.49293 28.3993L17.5915 0.622048L15.7579 -0.176596L3.65931 27.6007L5.49293 28.3993ZM16.6747 1.22273H20.0079V-0.777274H16.6747V1.22273ZM19.0906 0.620906L31.148 28.3982L32.9826 27.6018L20.9252 -0.175453L19.0906 0.620906ZM32.0653 27H27.7856V29H32.0653V27ZM28.7041 27.6045L26.1527 21.6787L24.3157 22.4696L26.8671 28.3955L28.7041 27.6045ZM25.2342 21.0742H11.4484V23.0742H25.2342V21.0742ZM10.5299 21.6787L7.97855 27.6045L9.81551 28.3955L12.3669 22.4696L10.5299 21.6787ZM24.5076 17.8951L19.2813 5.67307L17.4424 6.45941L22.6687 18.6814L24.5076 17.8951ZM17.4435 5.67046L12.1761 17.8925L14.0128 18.684L19.2802 6.46202L17.4435 5.67046ZM13.0945 19.2882H23.5881V17.2882H13.0945V19.2882ZM40.8123 28V29H41.5376L41.7628 28.3105L40.8123 28ZM37.5202 28L36.5715 28.3162L36.7994 29H37.5202V28ZM31.3474 9.48182V8.48182H29.96L30.3987 9.79804L31.3474 9.48182ZM35.1334 9.48182L36.0869 9.18039L35.866 8.48182H35.1334V9.48182ZM39.1662 22.2388L38.2127 22.5402L39.1711 25.5718L40.1206 22.5374L39.1662 22.2388ZM43.1579 9.48182V8.48182H42.423L42.2035 9.18319L43.1579 9.48182ZM46.4912 9.48182L47.4447 9.18039L47.2238 8.48182H46.4912V9.48182ZM50.524 22.2388L49.5706 22.5402L50.5289 25.5718L51.4784 22.5374L50.524 22.2388ZM54.5157 9.48182V8.48182H53.7808L53.5614 9.18319L54.5157 9.48182ZM58.2605 9.48182L59.2098 9.79615L59.645 8.48182H58.2605V9.48182ZM52.1289 28V29H52.8512L53.0783 28.3143L52.1289 28ZM48.7957 28L47.8433 28.3048L48.0657 29H48.7957V28ZM44.8451 15.6545L45.7976 15.3498L44.8549 12.4041L43.8946 15.344L44.8451 15.6545ZM40.8123 27H37.5202V29H40.8123V27ZM38.4688 27.6838L32.2961 9.16559L30.3987 9.79804L36.5715 28.3162L38.4688 27.6838ZM31.3474 10.4818H35.1334V8.48182H31.3474V10.4818ZM34.1799 9.78324L38.2127 22.5402L40.1197 21.9374L36.0869 9.18039L34.1799 9.78324ZM40.1206 22.5374L44.1123 9.78044L42.2035 9.18319L38.2119 21.9402L40.1206 22.5374ZM43.1579 10.4818H46.4912V8.48182H43.1579V10.4818ZM45.5377 9.78324L49.5706 22.5402L51.4775 21.9374L47.4447 9.18039L45.5377 9.78324ZM51.4784 22.5374L55.4701 9.78044L53.5614 9.18319L49.5697 21.9402L51.4784 22.5374ZM54.5157 10.4818H58.2605V8.48182H54.5157V10.4818ZM57.3112 9.16749L51.1796 27.6857L53.0783 28.3143L59.2098 9.79615L57.3112 9.16749ZM52.1289 27H48.7957V29H52.1289V27ZM49.7481 27.6952L45.7976 15.3498L43.8927 15.9593L47.8433 28.3048L49.7481 27.6952ZM43.8946 15.344L39.8617 27.6895L41.7628 28.3105L45.7957 15.9651L43.8946 15.344ZM78.9691 20.0989V21.0989H79.8364L79.959 20.2403L78.9691 20.0989ZM63.6607 20.0989V19.0989H62.427L62.6823 20.3059L63.6607 20.0989ZM65.7594 23.6379L65.1118 24.3999L65.122 24.4086L65.1324 24.417L65.7594 23.6379ZM74.6482 22.6915L74.9415 21.7354L74.2857 21.5342L73.8618 22.0736L74.6482 22.6915ZM78.2695 23.8025L79.1357 24.3023L79.7631 23.2148L78.5628 22.8465L78.2695 23.8025ZM74.7305 27.2181L74.2461 26.3432L74.2394 26.347L74.7305 27.2181ZM62.6731 25.6955L61.9711 26.4078L61.9763 26.4128L62.6731 25.6955ZM62.5908 11.7863L61.8836 11.0792L61.8836 11.0792L62.5908 11.7863ZM63.7018 17.136L62.7252 16.9211L62.4579 18.136H63.7018V17.136ZM75.2243 17.136V18.136H76.4869L76.1977 16.907L75.2243 17.136ZM65.7183 13.8027L66.3504 14.5776L66.3526 14.5758L65.7183 13.8027ZM78.9691 19.0989H63.6607V21.0989H78.9691V19.0989ZM62.6823 20.3059C63.0293 21.946 63.8435 23.3219 65.1118 24.3999L66.4071 22.876C65.4806 22.0885 64.8956 21.105 64.639 19.892L62.6823 20.3059ZM65.1324 24.417C66.4468 25.4748 68.0024 25.9959 69.7511 25.9959V23.9959C68.4272 23.9959 67.3217 23.6117 66.3864 22.8589L65.1324 24.417ZM69.7511 25.9959C72.0967 25.9959 74.0264 25.1014 75.4345 23.3093L73.8618 22.0736C72.8557 23.3542 71.5207 23.9959 69.7511 23.9959V25.9959ZM74.3548 23.6475L77.9762 24.7586L78.5628 22.8465L74.9415 21.7354L74.3548 23.6475ZM77.4033 23.3028C76.6772 24.5615 75.6344 25.5747 74.2461 26.3432L75.2148 28.093C76.8992 27.1606 78.2158 25.8968 79.1357 24.3023L77.4033 23.3028ZM74.2394 26.347C72.8873 27.1091 71.3979 27.4938 69.7511 27.4938V29.4938C71.7257 29.4938 73.5558 29.0281 75.2215 28.0893L74.2394 26.347ZM69.7511 27.4938C67.2 27.4938 65.0945 26.6536 63.3698 24.9782L61.9763 26.4128C64.0925 28.4685 66.7057 29.4938 69.7511 29.4938V27.4938ZM63.375 24.9833C61.6816 23.3144 60.8336 21.2568 60.8336 18.7409H58.8336C58.8336 21.7668 59.8786 24.3455 61.9711 26.4078L63.375 24.9833ZM60.8336 18.7409C60.8336 16.1854 61.6626 14.1287 63.2979 12.4934L61.8836 11.0792C59.8427 13.1201 58.8336 15.6998 58.8336 18.7409H60.8336ZM63.2979 12.4934C64.9698 10.8215 67.0035 9.988 69.4631 9.988V7.988C66.4906 7.988 63.9428 9.02003 61.8836 11.0792L63.2979 12.4934ZM69.4631 9.988C71.8921 9.988 73.9131 10.8194 75.5871 12.4934L77.0013 11.0792C74.9443 9.02215 72.4112 7.988 69.4631 7.988V9.988ZM75.5871 12.4934C77.2224 14.1287 78.0514 16.1854 78.0514 18.7409H80.0514C80.0514 15.6998 79.0422 13.1201 77.0013 11.0792L75.5871 12.4934ZM78.0514 18.7409C78.0514 19.2298 78.0255 19.633 77.9791 19.9575L79.959 20.2403C80.0224 19.7966 80.0514 19.2945 80.0514 18.7409H78.0514ZM63.7018 18.136H75.2243V16.136H63.7018V18.136ZM76.1977 16.907C75.8199 15.3011 75.0032 13.9767 73.7478 12.9788L72.5033 14.5444C73.3877 15.2474 73.9703 16.1726 74.2509 17.365L76.1977 16.907ZM73.7478 12.9788C72.4928 11.9812 71.0227 11.4859 69.3808 11.4859V13.4859C70.592 13.4859 71.6185 13.8411 72.5033 14.5444L73.7478 12.9788ZM69.3808 11.4859C67.7755 11.4859 66.331 12.0065 65.084 13.0297L66.3526 14.5758C67.2454 13.8432 68.2426 13.4859 69.3808 13.4859V11.4859ZM65.0861 13.0279C63.8609 14.0274 63.0731 15.3397 62.7252 16.9211L64.6785 17.3509C64.9341 16.1889 65.4907 15.2789 66.3504 14.5776L65.0861 13.0279ZM84.7396 25.6955L84.0111 26.3806L84.0167 26.3865L84.7396 25.6955ZM84.7396 11.7863L84.0167 11.0953L84.0113 11.101L84.006 11.1067L84.7396 11.7863ZM97.3731 11.4159L96.6837 12.1404L98.3731 13.748V11.4159H97.3731ZM97.3731 9.48182V8.48182H96.3731V9.48182H97.3731ZM101.077 9.48182H102.077V8.48182H101.077V9.48182ZM98.3607 35.0781L97.6646 34.3602L97.6591 34.3655L97.6536 34.371L98.3607 35.0781ZM86.3034 36.2715L86.8178 35.414L86.8178 35.414L86.3034 36.2715ZM82.8466 32.4444L82.5622 31.4857L81.4917 31.8033L81.925 32.8324L82.8466 32.4444ZM86.5914 31.3333L87.492 30.8985L87.1223 30.1327L86.307 30.3746L86.5914 31.3333ZM88.5667 33.2674L89.0545 32.3945L89.0446 32.3889L89.0346 32.3836L88.5667 33.2674ZM95.6859 32.4444L94.9967 31.7198L95.6859 32.4444ZM97.3731 26.0659H98.3731V23.7338L96.6837 25.3415L97.3731 26.0659ZM87.5791 14.4612L86.8549 13.7714L86.8463 13.7807L87.5791 14.4612ZM87.5791 23.0207L86.8462 23.7012L86.8549 23.7103L87.5791 23.0207ZM95.6447 23.0207L94.929 22.3223L94.9204 22.3312L94.912 22.3402L95.6447 23.0207ZM95.6447 14.4612L94.912 15.1416L94.9204 15.1506L94.929 15.1595L95.6447 14.4612ZM91.2415 27.4938C88.9667 27.4938 87.0595 26.6753 85.4625 25.0045L84.0167 26.3865C85.9862 28.4468 88.4136 29.4938 91.2415 29.4938V27.4938ZM85.4681 25.0105C83.9338 23.3787 83.1471 21.3148 83.1471 18.7409H81.1471C81.1471 21.7636 82.0887 24.3361 84.0111 26.3805L85.4681 25.0105ZM83.1471 18.7409C83.1471 16.1975 83.9321 14.1293 85.4732 12.4659L84.006 11.1067C82.0904 13.1744 81.1471 15.7426 81.1471 18.7409H83.1471ZM85.4625 12.4773C87.0595 10.8066 88.9667 9.988 91.2415 9.988V7.988C88.4136 7.988 85.9862 9.03498 84.0167 11.0953L85.4625 12.4773ZM91.2415 9.988C93.3764 9.988 95.1721 10.7019 96.6837 12.1404L98.0625 10.6915C96.1722 8.89275 93.8802 7.988 91.2415 7.988V9.988ZM98.3731 11.4159V9.48182H96.3731V11.4159H98.3731ZM97.3731 10.4818H101.077V8.48182H97.3731V10.4818ZM100.077 9.48182V28.4527H102.077V9.48182H100.077ZM100.077 28.4527C100.077 30.8599 99.2694 32.804 97.6646 34.3602L99.0569 35.796C101.073 33.8405 102.077 31.3677 102.077 28.4527H100.077ZM97.6536 34.371C96.0691 35.9554 94.1064 36.7529 91.6942 36.7529V38.7529C94.6043 38.7529 97.0859 37.7671 99.0679 35.7852L97.6536 34.371ZM91.6942 36.7529C89.9248 36.7529 88.3061 36.3069 86.8178 35.414L85.7889 37.1289C87.5927 38.2113 89.5679 38.7529 91.6942 38.7529V36.7529ZM86.8178 35.414C85.3289 34.5206 84.3336 33.3991 83.7683 32.0563L81.925 32.8324C82.6765 34.6172 83.9857 36.047 85.7889 37.1289L86.8178 35.414ZM83.1311 33.4031L86.8759 32.292L86.307 30.3746L82.5622 31.4857L83.1311 33.4031ZM85.6909 31.768C86.1846 32.7907 87.0153 33.5776 88.0988 34.1512L89.0346 32.3836C88.2525 31.9696 87.7664 31.467 87.492 30.8985L85.6909 31.768ZM88.0789 34.1403C89.1609 34.745 90.3303 35.0493 91.5707 35.0493V33.0493C90.6714 33.0493 89.838 32.8323 89.0545 32.3945L88.0789 34.1403ZM91.5707 35.0493C93.4338 35.0493 95.0558 34.4239 96.3751 33.1689L94.9967 31.7198C94.0664 32.6047 92.9449 33.0493 91.5707 33.0493V35.0493ZM96.3751 33.1689C97.7039 31.905 98.3731 30.31 98.3731 28.4527H96.3731C96.3731 29.7777 95.9175 30.8439 94.9967 31.7198L96.3751 33.1689ZM98.3731 28.4527V26.0659H96.3731V28.4527H98.3731ZM96.6837 25.3415C95.1721 26.7799 93.3764 27.4938 91.2415 27.4938V29.4938C93.8802 29.4938 96.1722 28.5891 98.0625 26.7903L96.6837 25.3415ZM91.6531 11.7328C89.7661 11.7328 88.1447 12.4172 86.8549 13.7715L88.3032 15.1508C89.2082 14.2006 90.3028 13.7328 91.6531 13.7328V11.7328ZM86.8463 13.7807C85.5898 15.1338 84.9741 16.8101 84.9741 18.7409H86.9741C86.9741 17.2699 87.4284 16.093 88.3118 15.1416L86.8463 13.7807ZM84.9741 18.7409C84.9741 20.6717 85.5898 22.348 86.8463 23.7011L88.3118 22.3402C87.4284 21.3888 86.9741 20.2119 86.9741 18.7409H84.9741ZM86.8549 23.7103C88.1447 25.0646 89.7661 25.749 91.6531 25.749V23.749C90.3028 23.749 89.2082 23.2812 88.3032 22.331L86.8549 23.7103ZM91.6531 25.749C93.5185 25.749 95.1158 25.0599 96.3775 23.7011L94.912 22.3402C94.0338 23.2859 92.97 23.749 91.6531 23.749V25.749ZM96.3605 23.719C97.6591 22.3879 98.2908 20.7017 98.2908 18.7409H96.2908C96.2908 20.2369 95.8251 21.4038 94.929 22.3223L96.3605 23.719ZM98.2908 18.7409C98.2908 16.7801 97.6591 15.0939 96.3605 13.7628L94.929 15.1595C95.8251 16.078 96.2908 17.245 96.2908 18.7409H98.2908ZM96.3775 13.7807C95.1158 12.4219 93.5185 11.7328 91.6531 11.7328V13.7328C92.97 13.7328 94.0338 14.1959 94.912 15.1416L96.3775 13.7807ZM120.49 11.4159L119.801 12.1404L121.49 13.748V11.4159H120.49ZM120.49 9.48182V8.48182H119.49V9.48182H120.49ZM124.194 9.48182H125.194V8.48182H124.194V9.48182ZM124.194 28V29H125.194V28H124.194ZM120.49 28H119.49V29H120.49V28ZM120.49 26.0659H121.49V23.7338L119.801 25.3415L120.49 26.0659ZM107.857 25.6955L107.128 26.3806L107.134 26.3865L107.857 25.6955ZM107.857 11.7863L107.134 11.0953L107.129 11.101L107.123 11.1067L107.857 11.7863ZM118.762 14.4612L118.029 15.1416L118.038 15.1506L118.046 15.1595L118.762 14.4612ZM110.737 14.4612L110.022 13.7626L110.013 13.7715L110.005 13.7807L110.737 14.4612ZM110.737 23.0207L110.005 23.7011L110.013 23.7103L110.022 23.7192L110.737 23.0207ZM118.762 23.0207L118.046 22.3223L118.038 22.3312L118.029 22.3402L118.762 23.0207ZM114.359 9.988C116.494 9.988 118.289 10.7019 119.801 12.1404L121.18 10.6915C119.289 8.89275 116.997 7.988 114.359 7.988V9.988ZM121.49 11.4159V9.48182H119.49V11.4159H121.49ZM120.49 10.4818H124.194V8.48182H120.49V10.4818ZM123.194 9.48182V28H125.194V9.48182H123.194ZM124.194 27H120.49V29H124.194V27ZM121.49 28V26.0659H119.49V28H121.49ZM119.801 25.3415C118.289 26.7799 116.494 27.4938 114.359 27.4938V29.4938C116.997 29.4938 119.289 28.5891 121.18 26.7903L119.801 25.3415ZM114.359 27.4938C112.084 27.4938 110.177 26.6753 108.58 25.0045L107.134 26.3865C109.103 28.4468 111.531 29.4938 114.359 29.4938V27.4938ZM108.585 25.0105C107.051 23.3787 106.264 21.3148 106.264 18.7409H104.264C104.264 21.7636 105.206 24.3361 107.128 26.3805L108.585 25.0105ZM106.264 18.7409C106.264 16.1975 107.049 14.1293 108.59 12.4659L107.123 11.1067C105.208 13.1744 104.264 15.7426 104.264 18.7409H106.264ZM108.58 12.4773C110.177 10.8066 112.084 9.988 114.359 9.988V7.988C111.531 7.988 109.103 9.03498 107.134 11.0953L108.58 12.4773ZM119.495 13.7807C118.233 12.4219 116.636 11.7328 114.77 11.7328V13.7328C116.087 13.7328 117.151 14.1959 118.029 15.1416L119.495 13.7807ZM114.77 11.7328C112.928 11.7328 111.329 12.424 110.022 13.7626L111.453 15.1597C112.396 14.1938 113.485 13.7328 114.77 13.7328V11.7328ZM110.005 13.7807C108.748 15.1338 108.132 16.8101 108.132 18.7409H110.132C110.132 17.2699 110.587 16.093 111.47 15.1416L110.005 13.7807ZM108.132 18.7409C108.132 20.6717 108.748 22.348 110.005 23.7011L111.47 22.3402C110.587 21.3888 110.132 20.2119 110.132 18.7409H108.132ZM110.022 23.7192C111.329 25.0578 112.928 25.749 114.77 25.749V23.749C113.485 23.749 112.396 23.288 111.453 22.3221L110.022 23.7192ZM114.77 25.749C116.636 25.749 118.233 25.0599 119.495 23.7011L118.029 22.3402C117.151 23.2859 116.087 23.749 114.77 23.749V25.749ZM119.478 23.719C120.776 22.3879 121.408 20.7017 121.408 18.7409H119.408C119.408 20.2369 118.942 21.4038 118.046 22.3223L119.478 23.719ZM121.408 18.7409C121.408 16.7801 120.776 15.0939 119.478 13.7628L118.046 15.1595C118.942 16.078 119.408 17.245 119.408 18.7409H121.408ZM129.204 28H128.204V29H129.204V28ZM129.204 9.48182V8.48182H128.204V9.48182H129.204ZM132.908 9.48182H133.908V8.48182H132.908V9.48182ZM132.908 12.1567H131.908V15.4774L133.742 12.7089L132.908 12.1567ZM144.266 11.0867L143.559 11.7938L143.566 11.8009L143.573 11.8078L144.266 11.0867ZM146.365 28V29H147.365V28H146.365ZM142.62 28H141.62V29H142.62V28ZM141.262 13.9262L140.555 14.6333L140.555 14.6333L141.262 13.9262ZM134.348 13.9673L135.034 14.6949L135.04 14.6898L135.045 14.6846L134.348 13.9673ZM132.908 28V29H133.908V28H132.908ZM130.204 28V9.48182H128.204V28H130.204ZM129.204 10.4818H132.908V8.48182H129.204V10.4818ZM131.908 9.48182V12.1567H133.908V9.48182H131.908ZM133.742 12.7089C134.947 10.889 136.643 9.988 138.957 9.988V7.988C136.004 7.988 133.667 9.1994 132.074 11.6045L133.742 12.7089ZM138.957 9.988C140.856 9.988 142.363 10.5984 143.559 11.7938L144.973 10.3796C143.37 8.77672 141.339 7.988 138.957 7.988V9.988ZM143.573 11.8078C144.757 12.9458 145.365 14.4047 145.365 16.2718H147.365C147.365 13.914 146.573 11.9162 144.959 10.3656L143.573 11.8078ZM145.365 16.2718V28H147.365V16.2718H145.365ZM146.365 27H142.62V29H146.365V27ZM143.62 28V17.3418H141.62V28H143.62ZM143.62 17.3418C143.62 15.7258 143.076 14.3263 141.969 13.2191L140.555 14.6333C141.258 15.3368 141.62 16.2143 141.62 17.3418H143.62ZM141.969 13.2191C140.866 12.116 139.482 11.5682 137.887 11.5682V13.5682C138.981 13.5682 139.847 13.9257 140.555 14.6333L141.969 13.2191ZM137.887 11.5682C136.241 11.5682 134.808 12.1271 133.652 13.2501L135.045 14.6846C135.81 13.942 136.735 13.5682 137.887 13.5682V11.5682ZM133.662 13.2397C132.493 14.3422 131.908 15.748 131.908 17.3829H133.908C133.908 16.2744 134.283 15.4031 135.034 14.6949L133.662 13.2397ZM131.908 17.3829V28H133.908V17.3829H131.908ZM132.908 27H129.204V29H132.908V27ZM154.995 30.181L155.923 30.5524L155.923 30.5524L154.995 30.181ZM156.065 27.5062L156.993 27.8776L157.142 27.5053L156.993 27.1333L156.065 27.5062ZM148.822 9.48182V8.48182H147.343L147.894 9.85467L148.822 9.48182ZM152.69 9.48182L153.621 9.11634L153.372 8.48182H152.69V9.48182ZM157.958 22.8972L157.027 23.2627L157.947 25.606L158.886 23.2701L157.958 22.8972ZM163.349 9.48182V8.48182H162.673L162.421 9.10895L163.349 9.48182ZM167.217 9.48182L168.142 9.86126L168.708 8.48182H167.217V9.48182ZM158.205 31.4567L159.13 31.8368L159.13 31.8362L158.205 31.4567ZM155.118 35.8599L155.721 36.6578L155.721 36.6578L155.118 35.8599ZM149.851 37.2591H148.851V38.2591H149.851V37.2591ZM149.851 33.6789V32.6789H148.851V33.6789H149.851ZM155.923 30.5524L156.993 27.8776L155.136 27.1348L154.066 29.8096L155.923 30.5524ZM156.993 27.1333L149.75 9.10897L147.894 9.85467L155.137 27.879L156.993 27.1333ZM148.822 10.4818H152.69V8.48182H148.822V10.4818ZM151.76 9.84729L157.027 23.2627L158.889 22.5317L153.621 9.11634L151.76 9.84729ZM158.886 23.2701L164.277 9.85468L162.421 9.10895L157.03 22.5243L158.886 23.2701ZM163.349 10.4818H167.217V8.48182H163.349V10.4818ZM166.292 9.10237L157.279 31.0773L159.13 31.8362L168.142 9.86126L166.292 9.10237ZM157.28 31.0766C156.499 32.9767 155.561 34.272 154.516 35.0621L155.721 36.6578C157.145 35.5824 158.264 33.9422 159.13 31.8368L157.28 31.0766ZM154.516 35.0621C153.485 35.8403 152.172 36.2591 150.509 36.2591V38.2591C152.523 38.2591 154.282 37.7451 155.721 36.6578L154.516 35.0621ZM150.509 36.2591H149.851V38.2591H150.509V36.2591ZM150.851 37.2591V33.6789H148.851V37.2591H150.851ZM149.851 34.6789H150.509V32.6789H149.851V34.6789ZM150.509 34.6789C151.741 34.6789 152.85 34.3249 153.789 33.593C154.714 32.8714 155.412 31.831 155.923 30.5524L154.066 29.8096C153.645 30.863 153.129 31.5715 152.559 32.0159C152.002 32.4499 151.336 32.6789 150.509 32.6789V34.6789ZM169.47 28H168.47V29H169.47V28ZM169.47 25.1605L168.694 24.5301L168.47 24.8056V25.1605H169.47ZM179.429 12.8974L180.205 13.5278L181.529 11.8974H179.429V12.8974ZM169.635 12.8974H168.635V13.8974H169.635V12.8974ZM169.635 9.48182V8.48182H168.635V9.48182H169.635ZM184.531 9.48182H185.531V8.48182H184.531V9.48182ZM184.531 12.3213L185.306 12.9532L185.531 12.6773V12.3213H184.531ZM174.532 24.5844L173.757 23.9525L172.426 25.5844H174.532V24.5844ZM184.696 24.5844H185.696V23.5844H184.696V24.5844ZM184.696 28V29H185.696V28H184.696ZM170.47 28V25.1605H168.47V28H170.47ZM170.246 25.7909L180.205 13.5278L178.652 12.267L168.694 24.5301L170.246 25.7909ZM179.429 11.8974H169.635V13.8974H179.429V11.8974ZM170.635 12.8974V9.48182H168.635V12.8974H170.635ZM169.635 10.4818H184.531V8.48182H169.635V10.4818ZM183.531 9.48182V12.3213H185.531V9.48182H183.531ZM183.756 11.6893L173.757 23.9525L175.307 25.2164L185.306 12.9532L183.756 11.6893ZM174.532 25.5844H184.696V23.5844H174.532V25.5844ZM183.696 24.5844V28H185.696V24.5844H183.696ZM184.696 27H169.47V29H184.696V27Z" fill="black" mask="url(#path-1-outside-1_149_154)"/>
<path d="M8.89703 28V29H9.55523L9.81551 28.3955L8.89703 28ZM4.57612 28L3.65931 27.6007L3.04983 29H4.57612V28ZM16.6747 0.222726V-0.777274H16.0195L15.7579 -0.176596L16.6747 0.222726ZM20.0079 0.222726L20.9252 -0.175453L20.664 -0.777274H20.0079V0.222726ZM32.0653 28V29H33.5896L32.9826 27.6018L32.0653 28ZM27.7856 28L26.8671 28.3955L27.1274 29H27.7856V28ZM25.2342 22.0742L26.1527 21.6787L25.8924 21.0742H25.2342V22.0742ZM11.4484 22.0742V21.0742H10.7902L10.5299 21.6787L11.4484 22.0742ZM23.5881 18.2882V19.2882H25.1033L24.5076 17.8951L23.5881 18.2882ZM18.3619 6.06624L19.2813 5.67307L18.3655 3.53125L17.4435 5.67046L18.3619 6.06624ZM13.0945 18.2882L12.1761 17.8925L11.5746 19.2882H13.0945V18.2882ZM8.89703 27H4.57612V29H8.89703V27ZM5.49293 28.3993L17.5915 0.622048L15.7579 -0.176596L3.65931 27.6007L5.49293 28.3993ZM16.6747 1.22273H20.0079V-0.777274H16.6747V1.22273ZM19.0906 0.620906L31.148 28.3982L32.9826 27.6018L20.9252 -0.175453L19.0906 0.620906ZM32.0653 27H27.7856V29H32.0653V27ZM28.7041 27.6045L26.1527 21.6787L24.3157 22.4696L26.8671 28.3955L28.7041 27.6045ZM25.2342 21.0742H11.4484V23.0742H25.2342V21.0742ZM10.5299 21.6787L7.97855 27.6045L9.81551 28.3955L12.3669 22.4696L10.5299 21.6787ZM24.5076 17.8951L19.2813 5.67307L17.4424 6.45941L22.6687 18.6814L24.5076 17.8951ZM17.4435 5.67046L12.1761 17.8925L14.0128 18.684L19.2802 6.46202L17.4435 5.67046ZM13.0945 19.2882H23.5881V17.2882H13.0945V19.2882ZM40.8123 28V29H41.5376L41.7628 28.3105L40.8123 28ZM37.5202 28L36.5715 28.3162L36.7994 29H37.5202V28ZM31.3474 9.48182V8.48182H29.96L30.3987 9.79804L31.3474 9.48182ZM35.1334 9.48182L36.0869 9.18039L35.866 8.48182H35.1334V9.48182ZM39.1662 22.2388L38.2127 22.5402L39.1711 25.5718L40.1206 22.5374L39.1662 22.2388ZM43.1579 9.48182V8.48182H42.423L42.2035 9.18319L43.1579 9.48182ZM46.4912 9.48182L47.4447 9.18039L47.2238 8.48182H46.4912V9.48182ZM50.524 22.2388L49.5706 22.5402L50.5289 25.5718L51.4784 22.5374L50.524 22.2388ZM54.5157 9.48182V8.48182H53.7808L53.5614 9.18319L54.5157 9.48182ZM58.2605 9.48182L59.2098 9.79615L59.645 8.48182H58.2605V9.48182ZM52.1289 28V29H52.8512L53.0783 28.3143L52.1289 28ZM48.7957 28L47.8433 28.3048L48.0657 29H48.7957V28ZM44.8451 15.6545L45.7976 15.3498L44.8549 12.4041L43.8946 15.344L44.8451 15.6545ZM40.8123 27H37.5202V29H40.8123V27ZM38.4688 27.6838L32.2961 9.16559L30.3987 9.79804L36.5715 28.3162L38.4688 27.6838ZM31.3474 10.4818H35.1334V8.48182H31.3474V10.4818ZM34.1799 9.78324L38.2127 22.5402L40.1197 21.9374L36.0869 9.18039L34.1799 9.78324ZM40.1206 22.5374L44.1123 9.78044L42.2035 9.18319L38.2119 21.9402L40.1206 22.5374ZM43.1579 10.4818H46.4912V8.48182H43.1579V10.4818ZM45.5377 9.78324L49.5706 22.5402L51.4775 21.9374L47.4447 9.18039L45.5377 9.78324ZM51.4784 22.5374L55.4701 9.78044L53.5614 9.18319L49.5697 21.9402L51.4784 22.5374ZM54.5157 10.4818H58.2605V8.48182H54.5157V10.4818ZM57.3112 9.16749L51.1796 27.6857L53.0783 28.3143L59.2098 9.79615L57.3112 9.16749ZM52.1289 27H48.7957V29H52.1289V27ZM49.7481 27.6952L45.7976 15.3498L43.8927 15.9593L47.8433 28.3048L49.7481 27.6952ZM43.8946 15.344L39.8617 27.6895L41.7628 28.3105L45.7957 15.9651L43.8946 15.344ZM78.9691 20.0989V21.0989H79.8364L79.959 20.2403L78.9691 20.0989ZM63.6607 20.0989V19.0989H62.427L62.6823 20.3059L63.6607 20.0989ZM65.7594 23.6379L65.1118 24.3999L65.122 24.4086L65.1324 24.417L65.7594 23.6379ZM74.6482 22.6915L74.9415 21.7354L74.2857 21.5342L73.8618 22.0736L74.6482 22.6915ZM78.2695 23.8025L79.1357 24.3023L79.7631 23.2148L78.5628 22.8465L78.2695 23.8025ZM74.7305 27.2181L74.2461 26.3432L74.2394 26.347L74.7305 27.2181ZM62.6731 25.6955L61.9711 26.4078L61.9763 26.4128L62.6731 25.6955ZM62.5908 11.7863L61.8836 11.0792L61.8836 11.0792L62.5908 11.7863ZM63.7018 17.136L62.7252 16.9211L62.4579 18.136H63.7018V17.136ZM75.2243 17.136V18.136H76.4869L76.1977 16.907L75.2243 17.136ZM65.7183 13.8027L66.3504 14.5776L66.3526 14.5758L65.7183 13.8027ZM78.9691 19.0989H63.6607V21.0989H78.9691V19.0989ZM62.6823 20.3059C63.0293 21.946 63.8435 23.3219 65.1118 24.3999L66.4071 22.876C65.4806 22.0885 64.8956 21.105 64.639 19.892L62.6823 20.3059ZM65.1324 24.417C66.4468 25.4748 68.0024 25.9959 69.7511 25.9959V23.9959C68.4272 23.9959 67.3217 23.6117 66.3864 22.8589L65.1324 24.417ZM69.7511 25.9959C72.0967 25.9959 74.0264 25.1014 75.4345 23.3093L73.8618 22.0736C72.8557 23.3542 71.5207 23.9959 69.7511 23.9959V25.9959ZM74.3548 23.6475L77.9762 24.7586L78.5628 22.8465L74.9415 21.7354L74.3548 23.6475ZM77.4033 23.3028C76.6772 24.5615 75.6344 25.5747 74.2461 26.3432L75.2148 28.093C76.8992 27.1606 78.2158 25.8968 79.1357 24.3023L77.4033 23.3028ZM74.2394 26.347C72.8873 27.1091 71.3979 27.4938 69.7511 27.4938V29.4938C71.7257 29.4938 73.5558 29.0281 75.2215 28.0893L74.2394 26.347ZM69.7511 27.4938C67.2 27.4938 65.0945 26.6536 63.3698 24.9782L61.9763 26.4128C64.0925 28.4685 66.7057 29.4938 69.7511 29.4938V27.4938ZM63.375 24.9833C61.6816 23.3144 60.8336 21.2568 60.8336 18.7409H58.8336C58.8336 21.7668 59.8786 24.3455 61.9711 26.4078L63.375 24.9833ZM60.8336 18.7409C60.8336 16.1854 61.6626 14.1287 63.2979 12.4934L61.8836 11.0792C59.8427 13.1201 58.8336 15.6998 58.8336 18.7409H60.8336ZM63.2979 12.4934C64.9698 10.8215 67.0035 9.988 69.4631 9.988V7.988C66.4906 7.988 63.9428 9.02003 61.8836 11.0792L63.2979 12.4934ZM69.4631 9.988C71.8921 9.988 73.9131 10.8194 75.5871 12.4934L77.0013 11.0792C74.9443 9.02215 72.4112 7.988 69.4631 7.988V9.988ZM75.5871 12.4934C77.2224 14.1287 78.0514 16.1854 78.0514 18.7409H80.0514C80.0514 15.6998 79.0422 13.1201 77.0013 11.0792L75.5871 12.4934ZM78.0514 18.7409C78.0514 19.2298 78.0255 19.633 77.9791 19.9575L79.959 20.2403C80.0224 19.7966 80.0514 19.2945 80.0514 18.7409H78.0514ZM63.7018 18.136H75.2243V16.136H63.7018V18.136ZM76.1977 16.907C75.8199 15.3011 75.0032 13.9767 73.7478 12.9788L72.5033 14.5444C73.3877 15.2474 73.9703 16.1726 74.2509 17.365L76.1977 16.907ZM73.7478 12.9788C72.4928 11.9812 71.0227 11.4859 69.3808 11.4859V13.4859C70.592 13.4859 71.6185 13.8411 72.5033 14.5444L73.7478 12.9788ZM69.3808 11.4859C67.7755 11.4859 66.331 12.0065 65.084 13.0297L66.3526 14.5758C67.2454 13.8432 68.2426 13.4859 69.3808 13.4859V11.4859ZM65.0861 13.0279C63.8609 14.0274 63.0731 15.3397 62.7252 16.9211L64.6785 17.3509C64.9341 16.1889 65.4907 15.2789 66.3504 14.5776L65.0861 13.0279ZM84.7396 25.6955L84.0111 26.3806L84.0167 26.3865L84.7396 25.6955ZM84.7396 11.7863L84.0167 11.0953L84.0113 11.101L84.006 11.1067L84.7396 11.7863ZM97.3731 11.4159L96.6837 12.1404L98.3731 13.748V11.4159H97.3731ZM97.3731 9.48182V8.48182H96.3731V9.48182H97.3731ZM101.077 9.48182H102.077V8.48182H101.077V9.48182ZM98.3607 35.0781L97.6646 34.3602L97.6591 34.3655L97.6536 34.371L98.3607 35.0781ZM86.3034 36.2715L86.8178 35.414L86.8178 35.414L86.3034 36.2715ZM82.8466 32.4444L82.5622 31.4857L81.4917 31.8033L81.925 32.8324L82.8466 32.4444ZM86.5914 31.3333L87.492 30.8985L87.1223 30.1327L86.307 30.3746L86.5914 31.3333ZM88.5667 33.2674L89.0545 32.3945L89.0446 32.3889L89.0346 32.3836L88.5667 33.2674ZM95.6859 32.4444L94.9967 31.7198L95.6859 32.4444ZM97.3731 26.0659H98.3731V23.7338L96.6837 25.3415L97.3731 26.0659ZM87.5791 14.4612L86.8549 13.7714L86.8463 13.7807L87.5791 14.4612ZM87.5791 23.0207L86.8462 23.7012L86.8549 23.7103L87.5791 23.0207ZM95.6447 23.0207L94.929 22.3223L94.9204 22.3312L94.912 22.3402L95.6447 23.0207ZM95.6447 14.4612L94.912 15.1416L94.9204 15.1506L94.929 15.1595L95.6447 14.4612ZM91.2415 27.4938C88.9667 27.4938 87.0595 26.6753 85.4625 25.0045L84.0167 26.3865C85.9862 28.4468 88.4136 29.4938 91.2415 29.4938V27.4938ZM85.4681 25.0105C83.9338 23.3787 83.1471 21.3148 83.1471 18.7409H81.1471C81.1471 21.7636 82.0887 24.3361 84.0111 26.3805L85.4681 25.0105ZM83.1471 18.7409C83.1471 16.1975 83.9321 14.1293 85.4732 12.4659L84.006 11.1067C82.0904 13.1744 81.1471 15.7426 81.1471 18.7409H83.1471ZM85.4625 12.4773C87.0595 10.8066 88.9667 9.988 91.2415 9.988V7.988C88.4136 7.988 85.9862 9.03498 84.0167 11.0953L85.4625 12.4773ZM91.2415 9.988C93.3764 9.988 95.1721 10.7019 96.6837 12.1404L98.0625 10.6915C96.1722 8.89275 93.8802 7.988 91.2415 7.988V9.988ZM98.3731 11.4159V9.48182H96.3731V11.4159H98.3731ZM97.3731 10.4818H101.077V8.48182H97.3731V10.4818ZM100.077 9.48182V28.4527H102.077V9.48182H100.077ZM100.077 28.4527C100.077 30.8599 99.2694 32.804 97.6646 34.3602L99.0569 35.796C101.073 33.8405 102.077 31.3677 102.077 28.4527H100.077ZM97.6536 34.371C96.0691 35.9554 94.1064 36.7529 91.6942 36.7529V38.7529C94.6043 38.7529 97.0859 37.7671 99.0679 35.7852L97.6536 34.371ZM91.6942 36.7529C89.9248 36.7529 88.3061 36.3069 86.8178 35.414L85.7889 37.1289C87.5927 38.2113 89.5679 38.7529 91.6942 38.7529V36.7529ZM86.8178 35.414C85.3289 34.5206 84.3336 33.3991 83.7683 32.0563L81.925 32.8324C82.6765 34.6172 83.9857 36.047 85.7889 37.1289L86.8178 35.414ZM83.1311 33.4031L86.8759 32.292L86.307 30.3746L82.5622 31.4857L83.1311 33.4031ZM85.6909 31.768C86.1846 32.7907 87.0153 33.5776 88.0988 34.1512L89.0346 32.3836C88.2525 31.9696 87.7664 31.467 87.492 30.8985L85.6909 31.768ZM88.0789 34.1403C89.1609 34.745 90.3303 35.0493 91.5707 35.0493V33.0493C90.6714 33.0493 89.838 32.8323 89.0545 32.3945L88.0789 34.1403ZM91.5707 35.0493C93.4338 35.0493 95.0558 34.4239 96.3751 33.1689L94.9967 31.7198C94.0664 32.6047 92.9449 33.0493 91.5707 33.0493V35.0493ZM96.3751 33.1689C97.7039 31.905 98.3731 30.31 98.3731 28.4527H96.3731C96.3731 29.7777 95.9175 30.8439 94.9967 31.7198L96.3751 33.1689ZM98.3731 28.4527V26.0659H96.3731V28.4527H98.3731ZM96.6837 25.3415C95.1721 26.7799 93.3764 27.4938 91.2415 27.4938V29.4938C93.8802 29.4938 96.1722 28.5891 98.0625 26.7903L96.6837 25.3415ZM91.6531 11.7328C89.7661 11.7328 88.1447 12.4172 86.8549 13.7715L88.3032 15.1508C89.2082 14.2006 90.3028 13.7328 91.6531 13.7328V11.7328ZM86.8463 13.7807C85.5898 15.1338 84.9741 16.8101 84.9741 18.7409H86.9741C86.9741 17.2699 87.4284 16.093 88.3118 15.1416L86.8463 13.7807ZM84.9741 18.7409C84.9741 20.6717 85.5898 22.348 86.8463 23.7011L88.3118 22.3402C87.4284 21.3888 86.9741 20.2119 86.9741 18.7409H84.9741ZM86.8549 23.7103C88.1447 25.0646 89.7661 25.749 91.6531 25.749V23.749C90.3028 23.749 89.2082 23.2812 88.3032 22.331L86.8549 23.7103ZM91.6531 25.749C93.5185 25.749 95.1158 25.0599 96.3775 23.7011L94.912 22.3402C94.0338 23.2859 92.97 23.749 91.6531 23.749V25.749ZM96.3605 23.719C97.6591 22.3879 98.2908 20.7017 98.2908 18.7409H96.2908C96.2908 20.2369 95.8251 21.4038 94.929 22.3223L96.3605 23.719ZM98.2908 18.7409C98.2908 16.7801 97.6591 15.0939 96.3605 13.7628L94.929 15.1595C95.8251 16.078 96.2908 17.245 96.2908 18.7409H98.2908ZM96.3775 13.7807C95.1158 12.4219 93.5185 11.7328 91.6531 11.7328V13.7328C92.97 13.7328 94.0338 14.1959 94.912 15.1416L96.3775 13.7807ZM120.49 11.4159L119.801 12.1404L121.49 13.748V11.4159H120.49ZM120.49 9.48182V8.48182H119.49V9.48182H120.49ZM124.194 9.48182H125.194V8.48182H124.194V9.48182ZM124.194 28V29H125.194V28H124.194ZM120.49 28H119.49V29H120.49V28ZM120.49 26.0659H121.49V23.7338L119.801 25.3415L120.49 26.0659ZM107.857 25.6955L107.128 26.3806L107.134 26.3865L107.857 25.6955ZM107.857 11.7863L107.134 11.0953L107.129 11.101L107.123 11.1067L107.857 11.7863ZM118.762 14.4612L118.029 15.1416L118.038 15.1506L118.046 15.1595L118.762 14.4612ZM110.737 14.4612L110.022 13.7626L110.013 13.7715L110.005 13.7807L110.737 14.4612ZM110.737 23.0207L110.005 23.7011L110.013 23.7103L110.022 23.7192L110.737 23.0207ZM118.762 23.0207L118.046 22.3223L118.038 22.3312L118.029 22.3402L118.762 23.0207ZM114.359 9.988C116.494 9.988 118.289 10.7019 119.801 12.1404L121.18 10.6915C119.289 8.89275 116.997 7.988 114.359 7.988V9.988ZM121.49 11.4159V9.48182H119.49V11.4159H121.49ZM120.49 10.4818H124.194V8.48182H120.49V10.4818ZM123.194 9.48182V28H125.194V9.48182H123.194ZM124.194 27H120.49V29H124.194V27ZM121.49 28V26.0659H119.49V28H121.49ZM119.801 25.3415C118.289 26.7799 116.494 27.4938 114.359 27.4938V29.4938C116.997 29.4938 119.289 28.5891 121.18 26.7903L119.801 25.3415ZM114.359 27.4938C112.084 27.4938 110.177 26.6753 108.58 25.0045L107.134 26.3865C109.103 28.4468 111.531 29.4938 114.359 29.4938V27.4938ZM108.585 25.0105C107.051 23.3787 106.264 21.3148 106.264 18.7409H104.264C104.264 21.7636 105.206 24.3361 107.128 26.3805L108.585 25.0105ZM106.264 18.7409C106.264 16.1975 107.049 14.1293 108.59 12.4659L107.123 11.1067C105.208 13.1744 104.264 15.7426 104.264 18.7409H106.264ZM108.58 12.4773C110.177 10.8066 112.084 9.988 114.359 9.988V7.988C111.531 7.988 109.103 9.03498 107.134 11.0953L108.58 12.4773ZM119.495 13.7807C118.233 12.4219 116.636 11.7328 114.77 11.7328V13.7328C116.087 13.7328 117.151 14.1959 118.029 15.1416L119.495 13.7807ZM114.77 11.7328C112.928 11.7328 111.329 12.424 110.022 13.7626L111.453 15.1597C112.396 14.1938 113.485 13.7328 114.77 13.7328V11.7328ZM110.005 13.7807C108.748 15.1338 108.132 16.8101 108.132 18.7409H110.132C110.132 17.2699 110.587 16.093 111.47 15.1416L110.005 13.7807ZM108.132 18.7409C108.132 20.6717 108.748 22.348 110.005 23.7011L111.47 22.3402C110.587 21.3888 110.132 20.2119 110.132 18.7409H108.132ZM110.022 23.7192C111.329 25.0578 112.928 25.749 114.77 25.749V23.749C113.485 23.749 112.396 23.288 111.453 22.3221L110.022 23.7192ZM114.77 25.749C116.636 25.749 118.233 25.0599 119.495 23.7011L118.029 22.3402C117.151 23.2859 116.087 23.749 114.77 23.749V25.749ZM119.478 23.719C120.776 22.3879 121.408 20.7017 121.408 18.7409H119.408C119.408 20.2369 118.942 21.4038 118.046 22.3223L119.478 23.719ZM121.408 18.7409C121.408 16.7801 120.776 15.0939 119.478 13.7628L118.046 15.1595C118.942 16.078 119.408 17.245 119.408 18.7409H121.408ZM129.204 28H128.204V29H129.204V28ZM129.204 9.48182V8.48182H128.204V9.48182H129.204ZM132.908 9.48182H133.908V8.48182H132.908V9.48182ZM132.908 12.1567H131.908V15.4774L133.742 12.7089L132.908 12.1567ZM144.266 11.0867L143.559 11.7938L143.566 11.8009L143.573 11.8078L144.266 11.0867ZM146.365 28V29H147.365V28H146.365ZM142.62 28H141.62V29H142.62V28ZM141.262 13.9262L140.555 14.6333L140.555 14.6333L141.262 13.9262ZM134.348 13.9673L135.034 14.6949L135.04 14.6898L135.045 14.6846L134.348 13.9673ZM132.908 28V29H133.908V28H132.908ZM130.204 28V9.48182H128.204V28H130.204ZM129.204 10.4818H132.908V8.48182H129.204V10.4818ZM131.908 9.48182V12.1567H133.908V9.48182H131.908ZM133.742 12.7089C134.947 10.889 136.643 9.988 138.957 9.988V7.988C136.004 7.988 133.667 9.1994 132.074 11.6045L133.742 12.7089ZM138.957 9.988C140.856 9.988 142.363 10.5984 143.559 11.7938L144.973 10.3796C143.37 8.77672 141.339 7.988 138.957 7.988V9.988ZM143.573 11.8078C144.757 12.9458 145.365 14.4047 145.365 16.2718H147.365C147.365 13.914 146.573 11.9162 144.959 10.3656L143.573 11.8078ZM145.365 16.2718V28H147.365V16.2718H145.365ZM146.365 27H142.62V29H146.365V27ZM143.62 28V17.3418H141.62V28H143.62ZM143.62 17.3418C143.62 15.7258 143.076 14.3263 141.969 13.2191L140.555 14.6333C141.258 15.3368 141.62 16.2143 141.62 17.3418H143.62ZM141.969 13.2191C140.866 12.116 139.482 11.5682 137.887 11.5682V13.5682C138.981 13.5682 139.847 13.9257 140.555 14.6333L141.969 13.2191ZM137.887 11.5682C136.241 11.5682 134.808 12.1271 133.652 13.2501L135.045 14.6846C135.81 13.942 136.735 13.5682 137.887 13.5682V11.5682ZM133.662 13.2397C132.493 14.3422 131.908 15.748 131.908 17.3829H133.908C133.908 16.2744 134.283 15.4031 135.034 14.6949L133.662 13.2397ZM131.908 17.3829V28H133.908V17.3829H131.908ZM132.908 27H129.204V29H132.908V27ZM154.995 30.181L155.923 30.5524L155.923 30.5524L154.995 30.181ZM156.065 27.5062L156.993 27.8776L157.142 27.5053L156.993 27.1333L156.065 27.5062ZM148.822 9.48182V8.48182H147.343L147.894 9.85467L148.822 9.48182ZM152.69 9.48182L153.621 9.11634L153.372 8.48182H152.69V9.48182ZM157.958 22.8972L157.027 23.2627L157.947 25.606L158.886 23.2701L157.958 22.8972ZM163.349 9.48182V8.48182H162.673L162.421 9.10895L163.349 9.48182ZM167.217 9.48182L168.142 9.86126L168.708 8.48182H167.217V9.48182ZM158.205 31.4567L159.13 31.8368L159.13 31.8362L158.205 31.4567ZM155.118 35.8599L155.721 36.6578L155.721 36.6578L155.118 35.8599ZM149.851 37.2591H148.851V38.2591H149.851V37.2591ZM149.851 33.6789V32.6789H148.851V33.6789H149.851ZM155.923 30.5524L156.993 27.8776L155.136 27.1348L154.066 29.8096L155.923 30.5524ZM156.993 27.1333L149.75 9.10897L147.894 9.85467L155.137 27.879L156.993 27.1333ZM148.822 10.4818H152.69V8.48182H148.822V10.4818ZM151.76 9.84729L157.027 23.2627L158.889 22.5317L153.621 9.11634L151.76 9.84729ZM158.886 23.2701L164.277 9.85468L162.421 9.10895L157.03 22.5243L158.886 23.2701ZM163.349 10.4818H167.217V8.48182H163.349V10.4818ZM166.292 9.10237L157.279 31.0773L159.13 31.8362L168.142 9.86126L166.292 9.10237ZM157.28 31.0766C156.499 32.9767 155.561 34.272 154.516 35.0621L155.721 36.6578C157.145 35.5824 158.264 33.9422 159.13 31.8368L157.28 31.0766ZM154.516 35.0621C153.485 35.8403 152.172 36.2591 150.509 36.2591V38.2591C152.523 38.2591 154.282 37.7451 155.721 36.6578L154.516 35.0621ZM150.509 36.2591H149.851V38.2591H150.509V36.2591ZM150.851 37.2591V33.6789H148.851V37.2591H150.851ZM149.851 34.6789H150.509V32.6789H149.851V34.6789ZM150.509 34.6789C151.741 34.6789 152.85 34.3249 153.789 33.593C154.714 32.8714 155.412 31.831 155.923 30.5524L154.066 29.8096C153.645 30.863 153.129 31.5715 152.559 32.0159C152.002 32.4499 151.336 32.6789 150.509 32.6789V34.6789ZM169.47 28H168.47V29H169.47V28ZM169.47 25.1605L168.694 24.5301L168.47 24.8056V25.1605H169.47ZM179.429 12.8974L180.205 13.5278L181.529 11.8974H179.429V12.8974ZM169.635 12.8974H168.635V13.8974H169.635V12.8974ZM169.635 9.48182V8.48182H168.635V9.48182H169.635ZM184.531 9.48182H185.531V8.48182H184.531V9.48182ZM184.531 12.3213L185.306 12.9532L185.531 12.6773V12.3213H184.531ZM174.532 24.5844L173.757 23.9525L172.426 25.5844H174.532V24.5844ZM184.696 24.5844H185.696V23.5844H184.696V24.5844ZM184.696 28V29H185.696V28H184.696ZM170.47 28V25.1605H168.47V28H170.47ZM170.246 25.7909L180.205 13.5278L178.652 12.267L168.694 24.5301L170.246 25.7909ZM179.429 11.8974H169.635V13.8974H179.429V11.8974ZM170.635 12.8974V9.48182H168.635V12.8974H170.635ZM169.635 10.4818H184.531V8.48182H169.635V10.4818ZM183.531 9.48182V12.3213H185.531V9.48182H183.531ZM183.756 11.6893L173.757 23.9525L175.307 25.2164L185.306 12.9532L183.756 11.6893ZM174.532 25.5844H184.696V23.5844H174.532V25.5844ZM183.696 24.5844V28H185.696V24.5844H183.696ZM184.696 27H169.47V29H184.696V27Z" fill="black" fill-opacity="0.2" mask="url(#path-1-outside-1_149_154)"/>
</g>
<defs>
<filter id="filter0_dd_149_154" x="0.576172" y="0.222778" width="188.12" height="45.5302" filterUnits="userSpaceOnUse" color-interpolation-filters="sRGB">
<feFlood flood-opacity="0" result="BackgroundImageFix"/>
<feColorMatrix in="SourceAlpha" type="matrix" values="0 0 0 0 0 0 0 0 0 0 0 0 0 0 0 0 0 0 127 0" result="hardAlpha"/>
<feOffset dy="4"/>
<feGaussianBlur stdDeviation="2"/>
<feComposite in2="hardAlpha" operator="out"/>
<feColorMatrix type="matrix" values="0 0 0 0 0 0 0 0 0 0 0 0 0 0 0 0 0 0 0.25 0"/>
<feBlend mode="normal" in2="BackgroundImageFix" result="effect1_dropShadow_149_154"/>
<feColorMatrix in="SourceAlpha" type="matrix" values="0 0 0 0 0 0 0 0 0 0 0 0 0 0 0 0 0 0 127 0" result="hardAlpha"/>
<feOffset dy="4"/>
<feGaussianBlur stdDeviation="2"/>
<feComposite in2="hardAlpha" operator="out"/>
<feColorMatrix type="matrix" values="0 0 0 0 0 0 0 0 0 0 0 0 0 0 0 0 0 0 0.25 0"/>
<feBlend mode="normal" in2="effect1_dropShadow_149_154" result="effect2_dropShadow_149_154"/>
<feBlend mode="normal" in="SourceGraphic" in2="effect2_dropShadow_149_154" result="shape"/>
</filter>
</defs>
</svg>
