<svg width="24" height="25" viewBox="0 0 24 25" fill="none" xmlns="http://www.w3.org/2000/svg">
<path d="M17.318 0.71909C18.536 0.77509 19.378 0.95409 20.156 1.25609C20.8937 1.5319 21.5615 1.96688 22.112 2.53009C22.6752 3.08058 23.1102 3.74841 23.386 4.48609C23.688 5.26509 23.867 6.10609 23.923 7.32409C23.992 8.83409 24 9.36609 24 12.6421C24 15.9181 23.992 16.4501 23.923 17.9601C23.867 19.1781 23.688 20.0201 23.386 20.7991C23.1101 21.5364 22.6751 22.2039 22.112 22.7541C21.5615 23.3173 20.8937 23.7523 20.156 24.0281C19.377 24.3301 18.536 24.5091 17.318 24.5651C15.808 24.6341 15.277 24.6421 12 24.6421C8.723 24.6421 8.191 24.6341 6.682 24.5651C5.464 24.5091 4.622 24.3301 3.843 24.0281C3.10567 23.7522 2.43818 23.3172 1.888 22.7541C1.32479 22.2036 0.889811 21.5358 0.614 20.7981C0.312 20.0191 0.133 19.1781 0.077 17.9601C0.008 16.4521 0 15.9201 0 12.6421C0 9.36509 0.008 8.83209 0.077 7.32409C0.133 6.10609 0.312 5.26409 0.614 4.48609C0.889811 3.74841 1.32479 3.08058 1.888 2.53009C2.4382 1.967 3.10568 1.53203 3.843 1.25609C4.623 0.95409 5.464 0.77509 6.682 0.71909C8.19 0.65009 8.722 0.64209 12 0.64209C15.277 0.64209 15.81 0.65009 17.318 0.71909ZM12 3.30909C8.76 3.30909 8.264 3.31609 6.803 3.38309C5.876 3.42509 5.32 3.54309 4.809 3.74209C4.41678 3.88431 4.06237 4.11454 3.773 4.41509C3.47181 4.70393 3.24148 5.0585 3.1 5.45109C2.902 5.96109 2.783 6.51809 2.741 7.44509C2.674 8.90609 2.667 9.40209 2.667 12.6421C2.667 15.8821 2.674 16.3781 2.741 17.8391C2.783 18.7661 2.901 19.3221 3.1 19.8321C3.27 20.2681 3.45 20.5451 3.773 20.8691C4.097 21.1931 4.374 21.3731 4.809 21.5421C5.319 21.7401 5.876 21.8591 6.803 21.9011C8.265 21.9681 8.761 21.9751 12 21.9751C15.24 21.9751 15.735 21.9681 17.197 21.9011C18.124 21.8591 18.68 21.7411 19.191 21.5421C19.5832 21.3999 19.9376 21.1696 20.227 20.8691C20.551 20.5451 20.731 20.2681 20.9 19.8331C21.098 19.3231 21.217 18.7661 21.259 17.8391C21.326 16.3771 21.333 15.8811 21.333 12.6421C21.333 9.40309 21.326 8.90709 21.259 7.44509C21.217 6.51809 21.099 5.96209 20.9 5.45209C20.7586 5.05917 20.5283 4.70427 20.227 4.41509C19.9378 4.1138 19.5829 3.88347 19.19 3.74209C18.68 3.54409 18.123 3.42509 17.196 3.38309C15.735 3.31609 15.239 3.30909 11.999 3.30909M11.999 18.8641C10.3488 18.8641 8.76623 18.2086 7.59938 17.0417C6.43253 15.8749 5.777 14.2923 5.777 12.6421C5.777 10.9919 6.43253 9.40932 7.59938 8.24247C8.76623 7.07562 10.3488 6.42009 11.999 6.42009C13.6492 6.42009 15.2318 7.07562 16.3986 8.24247C17.5655 9.40932 18.221 10.9919 18.221 12.6421C18.221 14.2923 17.5655 15.8749 16.3986 17.0417C15.2318 18.2086 13.6492 18.8641 11.999 18.8641ZM11.999 16.1981C12.9421 16.1981 13.8466 15.8234 14.5135 15.1566C15.1804 14.4897 15.555 13.5852 15.555 12.6421C15.555 11.699 15.1804 10.7945 14.5135 10.1276C13.8466 9.46074 12.9421 9.08609 11.999 9.08609C11.0559 9.08609 10.1514 9.46074 9.48453 10.1276C8.81765 10.7945 8.443 11.699 8.443 12.6421C8.443 13.5852 8.81765 14.4897 9.48453 15.1566C10.1514 15.8234 11.0559 16.1981 11.999 16.1981ZM18.221 7.75309C17.8673 7.75309 17.5282 7.6126 17.2781 7.36252C17.028 7.11244 16.8875 6.77326 16.8875 6.41959C16.8875 6.06592 17.028 5.72674 17.2781 5.47666C17.5282 5.22658 17.8673 5.08609 18.221 5.08609C18.5747 5.08609 18.9138 5.22658 19.1639 5.47666C19.414 5.72674 19.5545 6.06592 19.5545 6.41959C19.5545 6.77326 19.414 7.11244 19.1639 7.36252C18.9138 7.6126 18.5747 7.75309 18.221 7.75309Z" fill="black"/>
</svg>
