<svg width="181" height="39" viewBox="0 0 181 39" fill="none" xmlns="http://www.w3.org/2000/svg">
<path d="M4.89703 28.3579H0.576121L12.6747 0.580636H16.0079L28.0653 28.3579H23.7856L21.2342 22.4321H7.44842L4.89703 28.3579ZM19.5881 18.6462L14.3619 6.42415L9.09449 18.6462H19.5881ZM36.8123 28.3579H33.5202L27.3474 9.83973H31.1334L35.1662 22.5967L39.1579 9.83973H42.4912L46.524 22.5967L50.5157 9.83973H54.2605L48.1289 28.3579H44.7957L40.8451 16.0125L36.8123 28.3579ZM74.9691 20.4568H59.6607C59.9625 21.8834 60.662 23.0631 61.7594 23.9958C62.8842 24.9012 64.2148 25.3538 65.7511 25.3538C67.8087 25.3538 69.441 24.5857 70.6482 23.0494L74.2695 24.1605C73.4465 25.587 72.2668 26.7256 70.7305 27.576C69.2216 28.4265 67.5618 28.8517 65.7511 28.8517C62.9528 28.8517 60.5935 27.919 58.6731 26.0534C56.7801 24.1879 55.8336 21.8697 55.8336 19.0988C55.8336 16.3005 56.7527 13.9823 58.5908 12.1442C60.4563 10.2787 62.7471 9.34591 65.4631 9.34591C68.1516 9.34591 70.4287 10.2787 72.2942 12.1442C74.1323 13.9823 75.0514 16.3005 75.0514 19.0988C75.0514 19.6201 75.0239 20.0727 74.9691 20.4568ZM59.7018 17.4939H71.2243C70.8951 16.0948 70.1955 14.9699 69.1255 14.1195C68.0556 13.269 66.8073 12.8438 65.3808 12.8438C64.009 12.8438 62.7882 13.2827 61.7183 14.1606C60.6758 15.0111 60.0036 16.1222 59.7018 17.4939ZM87.2415 28.8517C84.6901 28.8517 82.5228 27.919 80.7396 26.0534C79.0112 24.2153 78.1471 21.8971 78.1471 19.0988C78.1471 16.328 79.0112 14.0097 80.7396 12.1442C82.5228 10.2787 84.6901 9.34591 87.2415 9.34591C89.6283 9.34591 91.6722 10.1552 93.3731 11.7738V9.83973H97.0767V28.8106C97.0767 31.4717 96.1714 33.6802 94.3607 35.436C92.5775 37.2192 90.3553 38.1108 87.6942 38.1108C85.7464 38.1108 83.9494 37.617 82.3034 36.6294C80.6573 35.6417 79.5051 34.366 78.8466 32.8023L82.5914 31.6912C82.9755 32.4868 83.6339 33.1315 84.5667 33.6253C85.4995 34.1466 86.5008 34.4072 87.5707 34.4072C89.1894 34.4072 90.5611 33.8722 91.6859 32.8023C92.8107 31.7323 93.3731 30.4018 93.3731 28.8106V26.4238C91.6722 28.0424 89.6283 28.8517 87.2415 28.8517ZM87.6531 13.0907C86.0344 13.0907 84.6764 13.6668 83.5791 14.8191C82.5091 15.9713 81.9741 17.3979 81.9741 19.0988C81.9741 20.7997 82.5091 22.2263 83.5791 23.3786C84.6764 24.5308 86.0344 25.1069 87.6531 25.1069C89.2442 25.1069 90.5748 24.5308 91.6447 23.3786C92.7421 22.2538 93.2908 20.8272 93.2908 19.0988C93.2908 17.3705 92.7421 15.9439 91.6447 14.8191C90.5748 13.6668 89.2442 13.0907 87.6531 13.0907ZM110.359 9.34591C112.746 9.34591 114.789 10.1552 116.49 11.7738V9.83973H120.194V28.3579H116.49V26.4238C114.789 28.0424 112.746 28.8517 110.359 28.8517C107.807 28.8517 105.64 27.919 103.857 26.0534C102.128 24.2153 101.264 21.8971 101.264 19.0988C101.264 16.328 102.128 14.0097 103.857 12.1442C105.64 10.2787 107.807 9.34591 110.359 9.34591ZM114.762 14.8191C113.692 13.6668 112.361 13.0907 110.77 13.0907C109.206 13.0907 107.862 13.6668 106.737 14.8191C105.667 15.9713 105.132 17.3979 105.132 19.0988C105.132 20.7997 105.667 22.2263 106.737 23.3786C107.862 24.5308 109.206 25.1069 110.77 25.1069C112.361 25.1069 113.692 24.5308 114.762 23.3786C115.859 22.2538 116.408 20.8272 116.408 19.0988C116.408 17.3705 115.859 15.9439 114.762 14.8191ZM125.204 28.3579V9.83973H128.908V12.5146C130.307 10.4021 132.324 9.34591 134.957 9.34591C137.097 9.34591 138.867 10.0455 140.266 11.4446C141.665 12.7889 142.365 14.5173 142.365 16.6297V28.3579H138.62V17.6997C138.62 16.3279 138.167 15.1894 137.262 14.2841C136.357 13.3788 135.232 12.9261 133.887 12.9261C132.488 12.9261 131.309 13.3925 130.348 14.3252C129.388 15.2306 128.908 16.3691 128.908 17.7408V28.3579H125.204ZM150.995 30.5389L152.065 27.8641L144.822 9.83973H148.69L153.958 23.2551L159.349 9.83973H163.217L154.205 31.8146C153.382 33.8173 152.353 35.2851 151.118 36.2179C149.884 37.1506 148.347 37.617 146.509 37.617H145.851V34.0368H146.509C148.567 34.0368 150.062 32.8709 150.995 30.5389ZM165.47 28.3579V25.5185L175.429 13.2553H165.635V9.83973H180.531V12.6792L170.532 24.9423H180.696V28.3579H165.47Z" fill="#1E1E1E"/>
</svg>
