<svg width="162" height="34" viewBox="0 0 162 34" fill="none" xmlns="http://www.w3.org/2000/svg">
<g opacity="0.7">
<path d="M51.321 12.1245C51.321 10.0839 51.3499 8.03504 51.3086 5.99029C51.2838 4.80714 51.2218 3.62399 50.9037 2.46146C50.664 1.59161 50.3252 0.783616 49.7425 0.0333252H56.3332C56.3415 0.0992848 56.358 0.173489 56.358 0.251816C56.358 5.28536 56.358 10.3189 56.3456 15.3524C56.3456 15.7152 56.2671 16.1027 56.1349 16.4408C55.5853 17.8589 54.1184 17.7764 53.2796 17.1457C52.8044 16.7871 52.4986 16.2924 52.2425 15.7729C51.8375 14.9567 51.4698 14.1157 51.0194 13.3242C50.7218 12.8006 50.3417 12.3059 49.9285 11.8689C48.9946 10.8754 47.8211 10.5786 46.4947 10.8713C44.4369 11.3289 43.0568 12.6151 42.1436 14.4373C41.3957 15.9296 41.0238 17.5332 40.7883 19.1781C40.5858 20.5797 40.499 21.9855 40.6065 23.3954C40.718 24.8877 40.9288 26.3594 41.6395 27.7116C41.7635 27.9466 41.8998 28.1733 42.0486 28.3877C43.2014 30.0614 44.7138 30.3005 46.4906 29.4802C47.441 29.0391 48.2013 28.3671 48.7674 27.5014C49.3128 26.6727 49.788 25.7988 50.288 24.9413C50.7797 24.1003 51.2177 23.2305 51.759 22.4266C52.2053 21.7629 52.8705 21.3259 53.6928 21.1981C55.011 20.9961 56.1803 21.9402 56.4159 23.3253C56.5688 24.2199 56.5026 25.1021 56.4117 25.9925C56.1432 28.5856 56.6886 31.0096 57.9819 33.2728C58.0439 33.3841 58.0935 33.4996 58.1596 33.6397C57.7877 33.6397 57.4654 33.6397 57.1431 33.6397C55.4985 33.6397 53.854 33.6397 52.2135 33.6562C51.9656 33.6562 51.8003 33.5573 51.7673 33.3347C51.6557 32.6256 51.4904 31.9165 51.4987 31.2075C51.5152 29.4224 52.0111 27.7281 52.6309 26.0709C52.8086 25.5968 52.7631 25.1804 52.4325 24.7929C52.1929 24.5126 51.9656 24.4755 51.6557 24.6651C51.2466 24.9166 51.0276 25.3123 50.8251 25.7287C50.2136 26.9861 49.6144 28.2517 48.9533 29.4843C48.3666 30.5726 47.6104 31.5455 46.6187 32.3123C45.3997 33.2563 44.0196 33.6851 42.4659 33.6603C40.6726 33.6315 39.2718 32.8688 38.1231 31.5661C37.0487 30.3459 36.3917 28.8989 35.9496 27.353C35.2885 25.0567 35.1356 22.744 35.5653 20.3777C35.9579 18.2258 36.586 16.1646 37.6975 14.2682C38.6933 12.5698 39.9329 11.0774 41.7345 10.1705C44.3997 8.82656 47.0567 8.65754 49.6516 10.3725C50.2962 10.7971 50.8086 11.3619 51.2177 12.0173C51.2384 12.0503 51.2632 12.0833 51.2921 12.108C51.3045 12.1204 51.3293 12.1163 51.3251 12.1163L51.321 12.1245Z" fill="#1E1E1E"/>
<path d="M60.4498 9.33358C61.0572 10.0385 61.3547 10.8919 61.5613 11.77C61.8836 13.1386 61.9828 14.532 61.9828 15.9378C61.9828 19.8335 61.9952 23.7293 61.9745 27.625C61.9704 28.5319 62.0778 29.4018 62.3671 30.2551C62.8671 31.7227 63.7844 32.7987 65.2843 33.3594C66.1479 33.6809 67.0281 33.6397 67.9124 33.6397C68.6975 33.6397 69.4164 33.3676 70.09 33.0089C71.5321 32.238 72.5486 31.0343 73.3213 29.6409C74.0237 28.3753 74.6146 27.0479 75.2757 25.7575C75.4741 25.3741 75.7344 25.0196 76.003 24.6815C76.1765 24.4672 76.4699 24.4218 76.7013 24.5579C76.8501 24.6444 77.0071 24.8547 77.0195 25.0196C77.0443 25.3535 77.0278 25.7122 76.9368 26.0378C76.6889 26.9242 76.3749 27.7899 76.1187 28.6721C75.7675 29.8965 75.7096 31.1497 75.8418 32.4112C75.879 32.7781 76.0113 33.1367 76.1352 33.483C76.1683 33.5737 76.3501 33.6685 76.4617 33.6685C78.35 33.6768 80.2384 33.6685 82.1268 33.6603C82.1805 33.6603 82.2301 33.6314 82.3086 33.6108C81.5607 32.7204 81.2136 31.6815 81.0111 30.6014C80.7342 29.1132 80.6888 27.6003 80.6888 26.0873C80.7012 20.5673 80.6888 15.0473 80.7012 9.52734C80.7012 9.24701 80.6351 9.14395 80.3293 9.14807C78.2963 9.16044 76.2674 9.14807 74.2345 9.14807C74.1931 9.14807 74.1477 9.17693 74.0774 9.20166C74.8419 10.1416 75.2303 11.2134 75.408 12.3554C75.6559 13.9425 75.7427 15.5379 75.7055 17.1457C75.6766 18.3123 75.7633 19.4831 75.6724 20.6457C75.4576 23.4737 74.4411 26.0007 72.6105 28.1856C71.875 29.0637 71.0403 29.8388 69.9288 30.2428C69.3586 30.4489 68.8049 30.486 68.2512 30.1727C67.5405 29.7728 67.2595 29.0885 67.1355 28.3712C67.0033 27.5961 66.9702 26.7964 66.9661 26.009C66.9496 20.5096 66.9496 15.0102 66.9496 9.51085C66.9496 9.23464 66.8752 9.14807 66.5901 9.15219C64.5984 9.16456 62.6067 9.15631 60.6192 9.16043C60.5448 9.16043 60.4663 9.17692 60.3589 9.18517C60.3961 9.25525 60.4085 9.30472 60.4374 9.3377L60.4498 9.33358Z" fill="#1E1E1E"/>
<path d="M10.8105 9.92685C11.422 10.9863 11.6741 12.1612 11.7939 13.3526C11.9014 14.4203 11.9138 15.5004 11.9179 16.5723C11.9303 21.4327 11.9179 26.2931 11.9179 31.1535C11.9179 31.9038 11.9262 32.654 11.9179 33.4043C11.9179 33.594 11.9633 33.6764 12.1741 33.6723C13.6327 33.6558 15.0913 33.6517 16.5541 33.6434C16.9549 33.6434 16.9508 33.6434 16.9508 33.2477C16.9467 30.0322 16.926 26.8166 16.9508 23.6011C16.959 22.3767 17.0128 21.1647 17.3516 19.9568C17.9384 17.875 18.9259 16.0322 20.3846 14.4368C20.9837 13.7814 21.6655 13.2125 22.4795 12.825C22.9878 12.5858 23.5208 12.3797 24.0993 12.458C25.0001 12.5776 25.5579 13.1589 25.7852 13.9792C25.9959 14.7337 26.1612 15.5293 26.1695 16.3084C26.2025 20.0516 26.1695 23.7949 26.1695 27.5381C26.1695 29.4756 26.1695 31.4132 26.1695 33.3507C26.1695 33.5115 26.1282 33.6723 26.4009 33.6723C27.9008 33.6558 29.4008 33.6476 30.9007 33.6517C31.1197 33.6517 31.1569 33.5692 31.1569 33.3837C31.1487 32.5098 31.1404 31.6399 31.1404 30.766C31.1404 25.5799 31.1404 20.3979 31.1404 15.2119C31.1404 14.037 31.033 12.8827 30.4875 11.8108C29.9586 10.7802 29.1942 9.98868 28.0909 9.57231C25.872 8.73133 23.8225 9.11885 21.9382 10.4916C20.5416 11.5099 19.5829 12.9033 18.7565 14.3791C18.2772 15.2366 17.8764 16.1353 17.4218 17.0093C17.24 17.3597 17.0252 17.6895 16.7979 18.011C16.5996 18.2913 16.2979 18.3614 15.9797 18.2707C15.6905 18.1883 15.6079 17.9121 15.5996 17.6689C15.5872 17.3927 15.612 17.0917 15.7153 16.8402C16.145 15.7973 16.4797 14.7295 16.6946 13.6206C16.9508 12.289 16.9756 10.9616 16.6533 9.63828C16.5376 9.16831 16.5004 9.13533 16.0128 9.13533C14.2071 9.13533 12.3972 9.13533 10.5915 9.13533C10.5047 9.13533 10.4138 9.14358 10.3022 9.15183C10.4965 9.43215 10.6783 9.66302 10.827 9.91449L10.8105 9.92685Z" fill="#1E1E1E"/>
<path d="M141.452 12.0789C141.972 13.3445 142.514 14.6019 143.001 15.8798C143.121 16.1931 143.249 16.2838 143.563 16.2591C144.613 16.1849 145.58 15.8675 146.472 15.3233C147.513 14.6884 148.344 13.831 149.146 12.9281C149.865 12.1119 150.563 11.2709 151.365 10.5412C152.699 9.32509 154.811 9.79093 155.265 11.8068C155.377 12.2974 155.451 12.8086 155.472 13.3115C155.546 15.3192 154.852 17.0382 153.455 18.4893C152.493 19.4911 151.278 20.0806 150.022 20.6001C148.451 21.2473 146.856 21.8492 145.311 22.55C143.133 23.5394 141.534 25.0647 140.828 27.4392C140.27 29.3232 141.063 31.6359 142.815 32.7696C143.873 33.4539 145.034 33.6848 146.278 33.6683C147.451 33.6559 148.534 33.3756 149.542 32.7902C150.823 32.044 151.757 30.9557 152.451 29.686C153.183 28.3421 153.802 26.9404 154.501 25.5759C154.662 25.2585 154.906 24.974 155.162 24.7225C155.406 24.4875 155.782 24.5494 156.005 24.805C156.298 25.1389 156.414 25.5017 156.253 25.951C155.819 27.1713 155.455 28.4121 155.257 29.7025C155.071 30.9021 155.067 32.0811 155.335 33.2643C155.397 33.5405 155.513 33.6436 155.807 33.6436C157.604 33.6312 159.401 33.6436 161.199 33.6436C161.368 33.6436 161.538 33.6436 161.765 33.6436C161.637 33.4045 161.542 33.2189 161.443 33.0334C160.662 31.5493 160.03 30.0117 160.021 28.305C160.017 27.1094 160.075 25.9139 160.096 24.7143C160.108 23.8774 160.067 23.0529 159.637 22.2985C159.133 21.4122 157.992 20.9587 157.001 21.2473C156.121 21.5029 155.509 22.0924 155.055 22.8262C154.596 23.5641 154.187 24.3391 153.823 25.1306C153.154 26.5818 152.224 27.8144 150.906 28.7378C149.955 29.4057 148.939 29.8797 147.732 29.5994C146.555 29.3232 145.732 28.6595 145.505 27.4186C145.332 26.4869 145.555 25.6212 146.113 24.8874C146.563 24.2938 147.092 23.7373 147.666 23.2632C149.274 21.9275 151.133 20.9917 153.022 20.1136C154.678 19.3427 156.302 18.5223 157.736 17.3763C158.658 16.6425 159.443 15.7974 159.901 14.7049C160.587 13.0642 160.182 11.4523 158.744 10.4052C157.711 9.65076 156.501 9.35807 155.257 9.21378C153.526 9.0159 151.807 9.1808 150.129 9.6219C148.592 10.0259 147.084 10.5206 145.555 10.9493C144.753 11.172 143.935 11.3575 143.117 11.5141C142.551 11.6213 141.968 11.6543 141.348 11.7244C141.386 11.8604 141.406 11.98 141.452 12.083V12.0789Z" fill="#1E1E1E"/>
<path d="M115.749 33.4458C115.137 32.4111 114.658 31.3186 114.356 30.152C113.96 28.6308 113.935 27.0848 114.104 25.5306C114.199 24.6897 114.22 23.8569 114.005 23.0242C113.542 21.2268 111.646 20.5713 110.162 21.7009C109.361 22.311 108.865 23.1479 108.419 24.0177C107.993 24.8463 107.625 25.712 107.125 26.4953C106.249 27.8681 105.088 28.9523 103.505 29.4965C102.138 29.9706 100.563 29.4388 99.8858 28.2762C99.4767 27.5795 99.4726 26.8169 99.642 26.0625C99.8444 25.1349 100.431 24.4258 101.109 23.7951C102.58 22.4306 104.319 21.4741 106.096 20.5796C107.369 19.9406 108.654 19.3222 109.91 18.6544C111.084 18.0277 112.137 17.2239 113.022 16.2221C113.728 15.4265 114.191 14.5072 114.299 13.4477C114.443 12.0007 113.559 10.6403 112.047 9.93946C110.166 9.0655 108.175 9.0119 106.171 9.251C104.415 9.46125 102.729 9.98068 101.047 10.5166C99.6585 10.9577 98.2701 11.3906 96.8156 11.5596C96.3528 11.6132 95.89 11.675 95.39 11.7369C95.4892 11.9718 95.5884 12.1903 95.6793 12.4129C96.1503 13.5672 96.6255 14.7174 97.0801 15.8799C97.2082 16.2056 97.4024 16.3004 97.7329 16.2674C98.799 16.1603 99.7825 15.8305 100.679 15.2533C101.861 14.4907 102.762 13.4436 103.679 12.4047C104.262 11.741 104.869 11.0979 105.505 10.4836C105.989 10.0178 106.6 9.88999 107.282 9.90236C108.208 9.92297 108.972 10.6815 109.2 11.37C109.629 12.6809 109.728 13.9918 109.34 15.344C108.745 17.4135 107.518 18.9718 105.584 19.9035C104.092 20.6208 102.534 21.2062 101.014 21.8616C100.154 22.2327 99.2701 22.5666 98.4685 23.0407C96.4644 24.2197 95.0429 25.8522 94.8033 28.2638C94.6256 30.0489 95.2248 31.5371 96.6958 32.6254C97.7701 33.4211 98.9974 33.689 100.324 33.6725C101.344 33.656 102.307 33.4623 103.216 33.0088C104.592 32.3204 105.621 31.2526 106.365 29.9417C107.096 28.6472 107.708 27.2827 108.39 25.9594C108.596 25.5595 108.844 25.1761 109.117 24.8175C109.282 24.599 109.542 24.4464 109.848 24.6072C110.15 24.7639 110.402 24.9865 110.39 25.3534C110.377 25.642 110.34 25.9429 110.245 26.2109C109.679 27.7939 109.257 29.4099 109.195 31.0919C109.166 31.8587 109.15 32.6337 109.472 33.3675C109.567 33.5818 109.699 33.6602 109.939 33.6561C111.786 33.6478 113.633 33.6561 115.484 33.6561C115.596 33.6561 115.703 33.6561 115.873 33.6561C115.811 33.553 115.782 33.4994 115.753 33.4499L115.749 33.4458Z" fill="#1E1E1E"/>
<path d="M135.443 9.28818C135.212 9.36238 134.984 9.46132 134.749 9.51079C133.022 9.87769 131.29 9.6963 129.571 9.46544C128.286 9.2923 127.005 9.11916 125.704 9.15214C123.766 9.19749 122.005 9.72104 120.567 11.0815C118.72 12.8294 118.522 15.6574 120.125 17.5826C120.931 18.5473 121.927 19.2563 123.034 19.8211C124.803 20.7239 126.596 21.569 128.361 22.4842C129.77 23.2139 131.183 23.9518 132.534 24.7804C134.03 25.6998 135.059 27.0025 135.228 28.8081C135.336 29.9665 134.943 30.7951 134.059 31.2568C133.418 31.5908 132.72 31.6815 132.005 31.5866C130.608 31.4052 129.327 30.8817 128.125 30.1768C127.109 29.579 126.138 28.9029 125.113 28.3134C123.807 27.559 122.398 27.1426 120.869 27.357C120.183 27.4518 119.506 27.6043 118.832 27.7527C118.774 27.7651 118.704 27.9176 118.716 27.996C118.898 29.4718 119.088 30.9518 119.291 32.4235C119.344 32.8151 119.439 33.2027 119.522 33.6273C119.72 33.5077 119.865 33.4129 120.018 33.3304C120.171 33.248 120.332 33.1862 120.489 33.112C122.1 32.3328 123.762 32.1762 125.485 32.6956C126.224 32.9182 126.964 33.1408 127.708 33.3634C128.956 33.7386 130.241 33.7963 131.497 33.5737C133.617 33.1903 135.195 31.9494 136.356 30.1685C137.216 28.8411 137.736 27.3735 137.695 25.8111C137.637 23.5849 136.72 21.7051 134.741 20.5467C132.431 19.1986 130.051 17.966 127.687 16.7086C126.6 16.1315 125.472 15.6285 124.386 15.0473C123.58 14.6185 122.935 14.0002 122.53 13.1633C121.77 11.5844 122.791 10.2611 124.071 9.92304C124.956 9.69218 125.828 9.81174 126.683 10.1168C127.852 10.529 128.856 11.2216 129.852 11.9307C131.237 12.916 132.683 13.7858 134.385 14.1156C134.988 14.231 135.6 14.2805 136.302 14.3753C136.137 12.5862 135.976 10.9083 135.815 9.18512C135.654 9.23459 135.55 9.26757 135.451 9.30467L135.443 9.28818Z" fill="#1E1E1E"/>
<path d="M0.579066 33.6647C2.09141 33.6647 3.59963 33.6523 5.11197 33.6564C5.88881 33.6564 5.88881 33.6688 5.88881 32.8897C5.88881 22.0269 5.88881 11.1601 5.89294 0.297377C5.89294 0.210805 5.88054 0.120113 5.87641 0.0294189H0.240234V33.6688C0.360065 33.6688 0.471632 33.6688 0.579066 33.6688V33.6647Z" fill="#1E1E1E"/>
<path d="M85.3526 3.39292C85.5261 4.57195 85.6336 5.7757 85.6377 6.9671C85.6584 15.7438 85.6501 24.5206 85.6377 33.2932C85.6377 33.6065 85.7451 33.656 86.0261 33.6519C87.3938 33.6395 88.7616 33.6436 90.1293 33.6519C90.588 33.6519 90.588 33.6725 90.588 33.219C90.588 22.2615 90.588 11.3039 90.6004 0.346408C90.6004 0.0495902 90.5012 0.00012207 90.2326 0.00012207C88.2616 0.00836702 86.2906 0.00424857 84.3196 0.00424857C84.2204 0.00424857 84.1212 0.00424857 83.9312 0.00424857C84.7865 1.04311 85.1749 2.18503 85.3526 3.38467V3.39292Z" fill="#1E1E1E"/>
</g>
</svg>
