<svg width="163" height="38" viewBox="0 0 163 38" fill="none" xmlns="http://www.w3.org/2000/svg">
<g opacity="0.7">
<path d="M36.537 26.2128C36.4018 26.1488 36.3306 26.0705 36.3235 25.9779C36.3163 25.8854 36.3128 25.8285 36.3128 25.8071C36.3128 25.6292 36.3733 25.3551 36.4943 24.985C36.6295 24.5721 36.8538 23.9707 37.1669 23.1806C38.6404 19.4223 40.0284 16.3509 41.331 13.9664C41.452 13.7457 41.5516 13.5535 41.6299 13.3898C41.7153 13.219 41.758 13.1229 41.758 13.1015C41.758 13.009 41.7296 12.9592 41.6726 12.9521C41.6157 12.9378 41.5658 12.9307 41.5231 12.9307C41.4377 12.9307 41.3167 12.9449 41.1601 12.9734C40.2277 13.1442 39.2169 13.3649 38.1279 13.6354C37.0388 13.8988 36.2594 14.1194 35.7896 14.2974C35.6259 14.3543 35.4871 14.3828 35.3732 14.3828C35.1597 14.3828 35.0529 14.2724 35.0529 14.0518C35.0529 13.8881 35.1383 13.7528 35.3092 13.6461C35.4729 13.5322 35.7932 13.4041 36.2701 13.2617C37.4232 12.9272 38.7792 12.6104 40.338 12.3114C41.8968 12.0054 43.324 11.7812 44.6194 11.6388C45.2601 11.5747 45.8224 11.5285 46.3064 11.5C46.7975 11.4715 47.3456 11.4573 47.9507 11.4573C48.5984 11.4573 49.0611 11.4715 49.3387 11.5C49.6234 11.5285 49.844 11.5854 50.0006 11.6708C50.1572 11.7562 50.2533 11.8523 50.2889 11.9591C50.3316 12.0588 50.353 12.1371 50.353 12.194C50.353 12.2794 50.3281 12.3613 50.2782 12.4396C50.2426 12.5036 50.1821 12.5357 50.0967 12.5357C50.0113 12.5357 49.901 12.5001 49.7657 12.4289C49.6091 12.3364 49.4063 12.2794 49.1572 12.2581C48.9151 12.2367 48.6553 12.226 48.3777 12.226C48.1713 12.226 47.9364 12.2296 47.6731 12.2367C47.1036 12.2509 46.4772 12.2865 45.7939 12.3435C45.1177 12.3933 44.5127 12.4538 43.9788 12.525C43.4521 12.589 43.1282 12.646 43.0072 12.6958C42.9574 12.7172 42.9183 12.7563 42.8898 12.8133C42.8613 12.8631 42.8328 12.9414 42.8044 13.0482C42.7759 13.1336 42.7225 13.2653 42.6442 13.4432C42.5659 13.614 42.4769 13.792 42.3773 13.9771C42.1139 14.4682 41.7651 15.1515 41.331 16.027C40.8968 16.8954 40.5515 17.5965 40.2953 18.1304C39.7401 19.3333 39.1457 20.7 38.5122 22.2303C37.8787 23.7536 37.4552 24.8497 37.2417 25.5188C37.1349 25.8676 37.0424 26.0811 36.9641 26.1594C36.8858 26.2377 36.8146 26.2769 36.7505 26.2769C36.6865 26.2769 36.6153 26.2555 36.537 26.2128ZM40.3 24.0454C40.2217 24.0098 40.1576 23.9564 40.1078 23.8853C40.0509 23.807 40.0224 23.7287 40.0224 23.6504C40.0224 23.4439 40.6666 22.0061 41.9549 19.3369C43.0867 16.9951 44.0654 15.148 44.8911 13.7955C45.005 13.6105 45.1188 13.4218 45.2327 13.2297C45.3537 13.0304 45.4463 12.8702 45.5103 12.7492C45.6598 12.493 45.7773 12.3221 45.8627 12.2367C45.9481 12.1442 46.0442 12.0979 46.151 12.0979C46.3218 12.0979 46.4321 12.1549 46.4819 12.2687C46.5318 12.3826 46.5567 12.4787 46.5567 12.557C46.5567 12.6567 46.5353 12.7599 46.4926 12.8666C46.4713 12.9165 46.4036 13.041 46.2898 13.2403C46.183 13.4396 46.0549 13.6674 45.9054 13.9237C45.1011 15.2832 44.3537 16.6285 43.6632 17.9596C43.35 18.5575 43.0475 19.1518 42.7557 19.7426C42.4638 20.3263 42.2254 20.8174 42.0403 21.216C41.8624 21.6075 41.7734 21.8282 41.7734 21.878V21.8887C41.7805 21.9029 41.7912 21.9171 41.8054 21.9314C41.8268 21.9456 41.8481 21.9527 41.8695 21.9527C41.8837 21.9527 41.9585 21.9065 42.0937 21.8139C42.2361 21.7143 42.3998 21.5968 42.5849 21.4616C43.0973 21.0701 43.5565 20.732 43.9622 20.4473C44.3679 20.1554 44.6419 19.9704 44.7843 19.8921C44.948 19.8209 45.0868 19.7853 45.2007 19.7853C45.3929 19.7853 45.521 19.885 45.5851 20.0843C45.5993 20.127 45.6064 20.1732 45.6064 20.2231C45.6064 20.2942 45.5957 20.3725 45.5744 20.458C45.5317 20.6074 45.4463 20.8281 45.3181 21.1199C45.2612 21.2481 45.2114 21.3762 45.1687 21.5043C45.1331 21.6253 45.1082 21.7214 45.0939 21.7926V22.0061C45.1082 22.0488 45.1438 22.0951 45.2007 22.1449C45.2363 22.1805 45.2719 22.2054 45.3075 22.2197C45.3431 22.2339 45.3929 22.2446 45.4569 22.2517C45.5281 22.2517 45.6313 22.2517 45.7666 22.2517H45.8093C46.1723 22.2517 46.5958 22.1627 47.0798 21.9848C47.5852 21.7997 48.3219 21.4616 49.29 20.9704C49.6957 20.7711 50.0374 20.6074 50.315 20.4793C50.5926 20.3512 50.7492 20.2871 50.7847 20.2871C50.8702 20.2871 50.952 20.3263 51.0303 20.4046C51.1086 20.4829 51.1478 20.5647 51.1478 20.6501C51.1478 20.764 51.0659 20.885 50.9022 21.0132C50.7385 21.1342 50.4253 21.3157 49.9626 21.5577C48.1475 22.5471 46.8022 23.0418 45.9267 23.0418C45.7061 23.0418 45.5175 23.0097 45.3609 22.9457C45.1402 22.8745 44.9373 22.7321 44.7523 22.5186C44.5743 22.2979 44.4533 22.0524 44.3893 21.7819C44.375 21.7178 44.3608 21.6573 44.3465 21.6004C44.3323 21.5363 44.3216 21.4901 44.3145 21.4616C44.3003 21.3904 44.2611 21.3548 44.1971 21.3548C44.1117 21.3548 43.9729 21.426 43.7807 21.5684C43.56 21.7321 43.2575 21.9705 42.8731 22.2837C42.4888 22.5969 42.0973 22.9208 41.6987 23.2553C41.5136 23.4119 41.3428 23.5543 41.1862 23.6824C41.0296 23.8105 40.9264 23.8924 40.8765 23.928C40.7769 23.992 40.6915 24.0312 40.6203 24.0454C40.542 24.0596 40.4815 24.0668 40.4388 24.0668C40.389 24.0668 40.3427 24.0596 40.3 24.0454ZM51.6009 23.5329C51.067 23.3834 50.6898 23.0702 50.4691 22.5933C50.3624 22.394 50.309 22.1841 50.309 21.9634C50.309 21.7 50.3837 21.4224 50.5332 21.1306C50.6969 20.8032 50.9389 20.4651 51.2592 20.1163C51.5795 19.7604 51.8785 19.5006 52.1561 19.3369C52.3056 19.2586 52.4479 19.2194 52.5832 19.2194C52.7042 19.2194 52.8181 19.2515 52.9248 19.3155C53.1526 19.4436 53.3021 19.6785 53.3733 20.0202C53.3804 20.0629 53.3839 20.1092 53.3839 20.159C53.3839 20.2729 53.3661 20.401 53.3306 20.5434C53.2878 20.7356 53.2167 20.9064 53.117 21.0559C52.8109 21.5328 52.3483 21.7712 51.729 21.7712C51.5084 21.7712 51.3518 21.789 51.2592 21.8246C51.1667 21.8602 51.0991 21.9278 51.0564 22.0275C51.0137 22.1342 50.9923 22.2268 50.9923 22.3051C50.9923 22.4901 51.092 22.6289 51.2913 22.7215C51.5475 22.8069 51.85 22.8496 52.1988 22.8496C53.0743 22.8496 54.2417 22.5756 55.7008 22.0275C56.1849 21.8353 56.7223 21.5968 57.3131 21.3121C57.9038 21.0203 58.4306 20.7534 58.8932 20.5113C59.0071 20.4615 59.1032 20.4366 59.1815 20.4366C59.2527 20.4366 59.3132 20.458 59.363 20.5007C59.4556 20.5861 59.5018 20.6964 59.5018 20.8316V20.8637C59.4947 21.0132 59.4342 21.1235 59.3203 21.1947C58.9573 21.4011 58.516 21.636 57.9964 21.8993C57.4839 22.1556 56.9785 22.3905 56.4803 22.604C56.0745 22.7749 55.6225 22.9421 55.1243 23.1058C54.6331 23.2624 54.2096 23.3799 53.8537 23.4582C53.448 23.5436 53.117 23.5899 52.8608 23.597C52.6045 23.6041 52.4408 23.6077 52.3696 23.6077C52.0493 23.6077 51.7931 23.5827 51.6009 23.5329ZM52.2629 20.7249C52.2985 20.6964 52.334 20.6608 52.3696 20.6181C52.4052 20.5683 52.4373 20.522 52.4657 20.4793C52.4942 20.4295 52.5084 20.3903 52.5084 20.3619C52.5084 20.3334 52.4942 20.3192 52.4657 20.3192C52.4515 20.3192 52.4301 20.3263 52.4017 20.3405C52.3305 20.369 52.2557 20.4188 52.1774 20.49C52.0707 20.5968 52.0173 20.6822 52.0173 20.7462V20.7676C52.0244 20.7889 52.0422 20.7996 52.0707 20.7996C52.1134 20.7996 52.1774 20.7747 52.2629 20.7249ZM78.9006 26.4691C78.4592 26.3125 78.1745 25.9993 78.0464 25.5295C78.0108 25.437 77.9859 25.3195 77.9717 25.1772C77.9645 25.0277 77.961 24.8248 77.961 24.5686C77.9681 23.5365 78.1745 22.1627 78.5802 20.4473C78.6514 20.1697 78.7048 19.9383 78.7404 19.7533C78.776 19.5682 78.7938 19.4543 78.7938 19.4116V19.3903C78.7867 19.3689 78.7724 19.3511 78.7511 19.3369C78.7297 19.3226 78.7119 19.3155 78.6977 19.3155C78.6407 19.3155 78.3418 19.6038 77.8008 20.1804C77.2599 20.7498 76.6086 21.458 75.8469 22.3051C75.0924 23.1521 74.3344 24.0169 73.5728 24.8996C73.103 25.4548 72.7542 25.8285 72.5264 26.0206C72.2986 26.2057 72.0815 26.2982 71.8751 26.2982C71.8039 26.2982 71.7434 26.2876 71.6936 26.2662C71.6438 26.2449 71.5904 26.2093 71.5335 26.1594C71.3626 26.0242 71.2772 25.8356 71.2772 25.5936C71.2772 25.5153 71.2879 25.4263 71.3092 25.3266C71.4445 24.6148 71.9819 23.0987 72.9215 20.7783C73.2916 19.8672 73.5763 19.1625 73.7756 18.6642C73.9749 18.166 74.1351 17.7638 74.2561 17.4577C74.3842 17.1445 74.5159 16.81 74.6511 16.4541C75.4199 14.4611 75.8042 13.1051 75.8042 12.3862C75.8042 12.1157 75.7509 11.9342 75.6441 11.8417C75.5587 11.7705 75.4412 11.7349 75.2917 11.7349C75.1565 11.7349 74.9964 11.7634 74.8113 11.8203C74.4127 11.9342 73.9536 12.162 73.434 12.5036C72.1029 13.4147 70.7327 14.6782 69.3233 16.2939C67.9211 17.9097 66.978 19.3013 66.4939 20.4686C66.4228 20.6466 66.3587 20.7605 66.3018 20.8103C66.2448 20.8601 66.1843 20.885 66.1203 20.885C66.0918 20.885 66.0597 20.8815 66.0242 20.8744C65.832 20.8032 65.7359 20.6181 65.7359 20.3192V20.2871C65.7857 19.8102 66.2235 18.9917 67.0491 17.8314C67.9745 16.5573 68.9603 15.4006 70.0067 14.3614C71.0601 13.3151 72.0246 12.5036 72.9001 11.9271C73.7827 11.3434 74.4839 11.0516 75.0035 11.0516C75.0533 11.0516 75.0996 11.0551 75.1423 11.0622C75.6904 11.1548 76.0996 11.4537 76.3701 11.9591C76.4199 12.0516 76.4555 12.1299 76.4769 12.194C76.4982 12.2581 76.5089 12.3364 76.5089 12.4289C76.516 12.5214 76.5196 12.6602 76.5196 12.8453C76.5196 13.0802 76.5089 13.2759 76.4876 13.4325C76.4733 13.582 76.4413 13.7635 76.3915 13.9771C76.1495 15.0661 75.2846 17.4649 73.797 21.1733C73.5336 21.821 73.3165 22.3549 73.1457 22.7749C72.982 23.1948 72.8574 23.5222 72.772 23.7571C72.6866 23.992 72.6367 24.1451 72.6225 24.2162C72.6083 24.2874 72.6012 24.3372 72.6012 24.3657C72.6012 24.3942 72.6083 24.412 72.6225 24.4191C72.6296 24.4262 72.6367 24.4298 72.6439 24.4298C72.6723 24.4298 72.7079 24.4155 72.7506 24.3871C72.7862 24.3657 72.8254 24.3372 72.8681 24.3017C72.9108 24.2661 72.9464 24.2305 72.9749 24.1949C73.0674 24.0881 73.3485 23.7749 73.8183 23.2553C74.2952 22.7286 74.8148 22.1591 75.3772 21.547C75.9466 20.9277 76.4128 20.4259 76.7758 20.0416C78.3276 18.3973 79.2244 17.5254 79.4664 17.4257C79.5376 17.4044 79.6052 17.3937 79.6693 17.3937C79.8117 17.3937 79.9398 17.4471 80.0537 17.5538C80.1391 17.625 80.1889 17.6926 80.2031 17.7567C80.2174 17.8136 80.2245 17.8599 80.2245 17.8955C80.2245 17.988 80.2067 18.109 80.1711 18.2585C80.1284 18.472 80.0465 18.7995 79.9255 19.2408C79.6693 20.1875 79.4736 20.9527 79.3383 21.5363C79.2102 22.12 79.0963 22.7215 78.9966 23.3407C78.9539 23.6041 78.9219 23.8781 78.9006 24.1629C78.8863 24.4405 78.8792 24.686 78.8792 24.8996V25.1024C78.8863 25.3729 78.9077 25.5509 78.9433 25.6363C78.986 25.7573 79.0572 25.8178 79.1568 25.8178C79.3134 25.8178 79.5447 25.6683 79.8508 25.3694C80.2067 25.049 80.6089 24.5935 81.0573 24.0027C81.5057 23.4119 82.1997 22.4296 83.1393 21.0559C86.442 16.2584 89.0864 12.7136 91.0723 10.4216C91.2645 10.2081 91.4139 10.0479 91.5207 9.94117C91.6346 9.82728 91.7307 9.75254 91.809 9.71695C91.8873 9.67424 91.9656 9.65289 92.0439 9.65289C92.2574 9.66001 92.3642 9.77389 92.3642 9.99455C92.3642 10.0373 92.3571 10.08 92.3428 10.1227C92.3286 10.1583 92.293 10.2116 92.2361 10.2828C92.1862 10.354 92.1008 10.4608 91.9798 10.6031C91.8588 10.7455 91.6915 10.9412 91.478 11.1904C89.67 13.283 87.0328 16.8491 83.5664 21.8887C82.5129 23.4333 81.7193 24.5294 81.1854 25.1772C80.6587 25.8178 80.2174 26.2164 79.8615 26.373C79.712 26.4513 79.5768 26.4975 79.4558 26.5118C79.3419 26.5189 79.26 26.5225 79.2102 26.5225C79.0963 26.5225 78.9931 26.5047 78.9006 26.4691ZM87.1585 23.5329C86.6247 23.3834 86.2474 23.0702 86.0268 22.5933C85.92 22.394 85.8666 22.1841 85.8666 21.9634C85.8666 21.7 85.9414 21.4224 86.0908 21.1306C86.2545 20.8032 86.4966 20.4651 86.8169 20.1163C87.1372 19.7604 87.4361 19.5006 87.7137 19.3369C87.8632 19.2586 88.0056 19.2194 88.1408 19.2194C88.2618 19.2194 88.3757 19.2515 88.4825 19.3155C88.7102 19.4436 88.8597 19.6785 88.9309 20.0202C88.938 20.0629 88.9416 20.1092 88.9416 20.159C88.9416 20.2729 88.9238 20.401 88.8882 20.5434C88.8455 20.7356 88.7743 20.9064 88.6747 21.0559C88.3686 21.5328 87.9059 21.7712 87.2867 21.7712C87.066 21.7712 86.9094 21.789 86.8169 21.8246C86.7243 21.8602 86.6567 21.9278 86.614 22.0275C86.5713 22.1342 86.5499 22.2268 86.5499 22.3051C86.5499 22.4901 86.6496 22.6289 86.8489 22.7215C87.1051 22.8069 87.4077 22.8496 87.7564 22.8496C88.6319 22.8496 89.7993 22.5756 91.2585 22.0275C91.7425 21.8353 92.2799 21.5968 92.8707 21.3121C93.4615 21.0203 93.9882 20.7534 94.4509 20.5113C94.5648 20.4615 94.6609 20.4366 94.7392 20.4366C94.8103 20.4366 94.8708 20.458 94.9207 20.5007C95.0132 20.5861 95.0595 20.6964 95.0595 20.8316V20.8637C95.0524 21.0132 94.9918 21.1235 94.878 21.1947C94.5149 21.4011 94.0736 21.636 93.554 21.8993C93.0415 22.1556 92.5362 22.3905 92.0379 22.604C91.6322 22.7749 91.1802 22.9421 90.6819 23.1058C90.1908 23.2624 89.7673 23.3799 89.4114 23.4582C89.0056 23.5436 88.6747 23.5899 88.4184 23.597C88.1622 23.6041 87.9984 23.6077 87.9273 23.6077C87.607 23.6077 87.3507 23.5827 87.1585 23.5329ZM87.8205 20.7249C87.8561 20.6964 87.8917 20.6608 87.9273 20.6181C87.9629 20.5683 87.9949 20.522 88.0234 20.4793C88.0518 20.4295 88.0661 20.3903 88.0661 20.3619C88.0661 20.3334 88.0518 20.3192 88.0234 20.3192C88.0091 20.3192 87.9878 20.3263 87.9593 20.3405C87.8881 20.369 87.8134 20.4188 87.7351 20.49C87.6283 20.5968 87.5749 20.6822 87.5749 20.7462V20.7676C87.582 20.7889 87.5998 20.7996 87.6283 20.7996C87.671 20.7996 87.7351 20.7747 87.8205 20.7249ZM92.9715 27.1524C92.8434 27.1097 92.7402 27.0563 92.6619 26.9922C92.5764 26.9353 92.4981 26.857 92.427 26.7574C92.3415 26.6363 92.2846 26.5118 92.2561 26.3837C92.2205 26.2555 92.2027 26.1452 92.2027 26.0527C92.2027 26.0028 92.2063 25.9566 92.2134 25.9139C92.4056 24.9316 93.6904 23.75 96.0678 22.3691C96.3169 22.2339 96.4415 22.1236 96.4415 22.0381C96.4415 21.9527 96.3169 21.8922 96.0678 21.8566C95.719 21.7997 95.4592 21.7107 95.2884 21.5897C95.1176 21.4687 95.0037 21.3014 94.9467 21.0879C94.9182 20.9954 94.904 20.9064 94.904 20.821C94.904 20.6715 94.9503 20.5256 95.0428 20.3832C95.1923 20.1626 95.4877 19.9063 95.929 19.6145C96.5269 19.2301 96.9184 19.0379 97.1035 19.0379C97.2316 19.0379 97.3384 19.0806 97.4238 19.166C97.5163 19.2443 97.5626 19.344 97.5626 19.465C97.5626 19.5219 97.5555 19.5789 97.5412 19.6358C97.527 19.6928 97.5092 19.7355 97.4878 19.764C97.4594 19.7995 97.3811 19.8672 97.2529 19.9668C97.1248 20.0594 96.9718 20.1661 96.7938 20.2871C96.381 20.5505 96.1675 20.7106 96.1532 20.7676C96.1461 20.8174 96.1425 20.8459 96.1425 20.853C96.1425 20.9527 96.2885 21.031 96.5803 21.0879C96.6657 21.1164 96.7725 21.152 96.9006 21.1947C97.0287 21.2374 97.1426 21.2836 97.2423 21.3335C97.4416 21.426 97.5875 21.4723 97.68 21.4723C97.7014 21.4723 97.7192 21.4687 97.7334 21.4616C97.7761 21.4545 97.8722 21.4189 98.0217 21.3548C98.1783 21.2908 98.3562 21.216 98.5555 21.1306C99.0253 20.9242 99.4631 20.7534 99.8688 20.6181C100.282 20.4829 100.591 20.4046 100.798 20.3832C100.862 20.3761 100.915 20.3725 100.958 20.3725C101.001 20.3725 101.036 20.3761 101.065 20.3832C101.122 20.3975 101.175 20.4259 101.225 20.4686C101.303 20.5398 101.342 20.6003 101.342 20.6501C101.349 20.7 101.353 20.7284 101.353 20.7356C101.353 20.821 101.317 20.8957 101.246 20.9598C101.211 20.9882 101.125 21.031 100.99 21.0879C100.855 21.1448 100.698 21.2018 100.52 21.2587C100.171 21.3655 99.7798 21.5079 99.3456 21.6858C98.9185 21.8638 98.6054 22.0061 98.4061 22.1129C98.221 22.2197 98.1285 22.3727 98.1285 22.572C98.1285 22.6076 98.132 22.6467 98.1391 22.6894C98.1462 22.7321 98.1498 22.7749 98.1498 22.8176C98.1498 22.9172 98.1356 23.0275 98.1071 23.1485C98.0644 23.3336 98.0003 23.5116 97.9149 23.6824C97.5448 24.3586 96.9291 25.0526 96.0678 25.7644C95.2065 26.4691 94.4164 26.9317 93.6975 27.1524C93.5338 27.1951 93.3986 27.2165 93.2918 27.2165C93.185 27.2165 93.0783 27.1951 92.9715 27.1524ZM93.484 26.2022C93.9395 26.0456 94.5125 25.7039 95.203 25.1772C95.9005 24.6433 96.4557 24.1237 96.8686 23.6183C97.1533 23.2411 97.2956 22.992 97.2956 22.8709C97.2956 22.8069 97.2636 22.7749 97.1996 22.7749C97.107 22.7749 96.9504 22.8318 96.7298 22.9457C95.5197 23.6361 94.5446 24.3372 93.8043 25.049C93.2847 25.5615 93.0249 25.9174 93.0249 26.1167C93.0249 26.1737 93.0427 26.2164 93.0783 26.2449C93.0996 26.2662 93.1174 26.2805 93.1316 26.2876C93.1459 26.2876 93.1566 26.2876 93.1637 26.2876C93.185 26.2876 93.2099 26.284 93.2384 26.2769C93.2882 26.2698 93.3665 26.2484 93.4733 26.2128C93.4804 26.2128 93.484 26.2093 93.484 26.2022ZM101.24 21.0238C101.425 20.3049 101.785 19.4152 102.319 18.3546C102.447 18.0984 102.553 17.8706 102.639 17.6713C102.731 17.472 102.778 17.3581 102.778 17.3296C102.778 17.2798 102.763 17.2406 102.735 17.2122C102.706 17.1837 102.642 17.1695 102.543 17.1695C102.436 17.1695 102.272 17.1873 102.052 17.2228C101.838 17.2513 101.55 17.2976 101.187 17.3616C100.817 17.4186 100.354 17.5004 99.7988 17.6072C99.692 17.6214 99.6101 17.6286 99.5532 17.6286C99.4891 17.6286 99.4322 17.6143 99.3824 17.5859C99.2186 17.4933 99.1368 17.3794 99.1368 17.2442C99.1368 17.2228 99.1403 17.1979 99.1475 17.1695C99.1759 16.9986 99.3041 16.8776 99.5318 16.8064C99.6955 16.7637 100.009 16.7032 100.471 16.6249C100.934 16.5466 101.457 16.4612 102.041 16.3687C102.077 16.3616 102.109 16.3545 102.137 16.3473C102.443 16.3046 102.682 16.269 102.852 16.2406C103.023 16.2121 103.148 16.1907 103.226 16.1765C103.311 16.1551 103.372 16.1374 103.408 16.1231C103.443 16.1018 103.475 16.0769 103.504 16.0484C103.511 16.0413 103.518 16.0377 103.525 16.0377C103.596 15.9736 103.692 15.8455 103.813 15.6533C103.941 15.4611 104.062 15.2618 104.176 15.0554C104.29 14.849 104.368 14.6853 104.411 14.5643C104.433 14.4789 104.461 14.4006 104.497 14.3294C104.539 14.2582 104.578 14.2048 104.614 14.1692C104.699 14.0981 104.788 14.0625 104.881 14.0625C104.938 14.0625 104.998 14.0767 105.062 14.1052C105.226 14.1906 105.326 14.3365 105.361 14.5429V14.5856C105.361 14.6568 105.351 14.728 105.329 14.7992C105.308 14.8846 105.248 15.027 105.148 15.2263C105.055 15.3971 104.991 15.5252 104.956 15.6106C104.927 15.6889 104.913 15.7494 104.913 15.7921C104.913 15.8064 104.917 15.8206 104.924 15.8348C104.931 15.8775 104.963 15.906 105.02 15.9203C105.041 15.9274 105.084 15.9309 105.148 15.9309C105.219 15.9309 105.312 15.9274 105.426 15.9203C105.66 15.906 105.959 15.8847 106.322 15.8562C107.91 15.7138 109.337 15.6391 110.604 15.632C110.924 15.632 111.17 15.6355 111.341 15.6427C111.518 15.6427 111.65 15.6498 111.736 15.664C111.828 15.6711 111.906 15.6854 111.97 15.7067C112.17 15.785 112.291 15.8704 112.333 15.963C112.383 16.0484 112.408 16.116 112.408 16.1658C112.408 16.237 112.376 16.3046 112.312 16.3687C112.277 16.3972 112.237 16.4185 112.195 16.4327C112.159 16.4399 112.109 16.4434 112.045 16.4434H111.938C111.817 16.4434 111.632 16.4327 111.383 16.4114C111.269 16.4043 111.134 16.4007 110.978 16.4007C110.515 16.4007 109.881 16.4256 109.077 16.4755C108.016 16.5324 106.999 16.6107 106.023 16.7103C105.048 16.8029 104.465 16.8883 104.272 16.9666C104.215 16.9951 104.151 17.052 104.08 17.1374C104.016 17.2157 103.931 17.3474 103.824 17.5325C103.717 17.7175 103.575 17.9773 103.397 18.3119C102.771 19.5006 102.333 20.49 102.084 21.2801C101.927 21.7712 101.849 22.1627 101.849 22.4545C101.849 22.7179 101.916 22.8923 102.052 22.9777C102.13 23.0275 102.233 23.0525 102.361 23.0525C102.674 23.0525 103.126 22.8959 103.717 22.5827C104.258 22.3122 105.006 21.878 105.959 21.2801C106.351 21.031 106.65 20.8459 106.856 20.7249C107.063 20.6039 107.216 20.5256 107.315 20.49C107.415 20.4544 107.504 20.4366 107.582 20.4366C107.76 20.4366 107.867 20.4758 107.903 20.554C107.938 20.6323 107.956 20.6928 107.956 20.7356C107.956 20.821 107.917 20.9099 107.838 21.0025C107.639 21.1804 106.792 21.7285 105.297 22.6467C104.906 22.8887 104.546 23.0916 104.219 23.2553C103.593 23.5472 103.052 23.6931 102.596 23.6931C102.24 23.6931 101.934 23.6041 101.678 23.4261C101.286 23.1557 101.091 22.7108 101.091 22.0915C101.091 21.7783 101.14 21.4224 101.24 21.0238ZM127.429 26.4691C126.988 26.3125 126.703 25.9993 126.575 25.5295C126.54 25.437 126.515 25.3195 126.501 25.1772C126.493 25.0277 126.49 24.8248 126.49 24.5686C126.497 23.5365 126.703 22.1627 127.109 20.4473C127.18 20.1697 127.234 19.9383 127.269 19.7533C127.305 19.5682 127.323 19.4543 127.323 19.4116V19.3903C127.316 19.3689 127.301 19.3511 127.28 19.3369C127.259 19.3226 127.241 19.3155 127.227 19.3155C127.17 19.3155 126.871 19.6038 126.33 20.1804C125.789 20.7498 125.137 21.458 124.376 22.3051C123.621 23.1521 122.863 24.0169 122.102 24.8996C121.632 25.4548 121.283 25.8285 121.055 26.0206C120.827 26.2057 120.61 26.2982 120.404 26.2982C120.333 26.2982 120.272 26.2876 120.222 26.2662C120.173 26.2449 120.119 26.2093 120.062 26.1594C119.891 26.0242 119.806 25.8356 119.806 25.5936C119.806 25.5153 119.817 25.4263 119.838 25.3266C119.973 24.6148 120.511 23.0987 121.45 20.7783C121.82 19.8672 122.105 19.1625 122.304 18.6642C122.504 18.166 122.664 17.7638 122.785 17.4577C122.913 17.1445 123.045 16.81 123.18 16.4541C123.949 14.4611 124.333 13.1051 124.333 12.3862C124.333 12.1157 124.28 11.9342 124.173 11.8417C124.088 11.7705 123.97 11.7349 123.821 11.7349C123.685 11.7349 123.525 11.7634 123.34 11.8203C122.942 11.9342 122.482 12.162 121.963 12.5036C120.632 13.4147 119.262 14.6782 117.852 16.2939C116.45 17.9097 115.507 19.3013 115.023 20.4686C114.952 20.6466 114.888 20.7605 114.831 20.8103C114.774 20.8601 114.713 20.885 114.649 20.885C114.621 20.885 114.589 20.8815 114.553 20.8744C114.361 20.8032 114.265 20.6181 114.265 20.3192V20.2871C114.315 19.8102 114.752 18.9917 115.578 17.8314C116.503 16.5573 117.489 15.4006 118.536 14.3614C119.589 13.3151 120.553 12.5036 121.429 11.9271C122.312 11.3434 123.013 11.0516 123.532 11.0516C123.582 11.0516 123.628 11.0551 123.671 11.0622C124.219 11.1548 124.628 11.4537 124.899 11.9591C124.949 12.0516 124.984 12.1299 125.006 12.194C125.027 12.2581 125.038 12.3364 125.038 12.4289C125.045 12.5214 125.048 12.6602 125.048 12.8453C125.048 13.0802 125.038 13.2759 125.016 13.4325C125.002 13.582 124.97 13.7635 124.92 13.9771C124.678 15.0661 123.813 17.4649 122.326 21.1733C122.062 21.821 121.845 22.3549 121.675 22.7749C121.511 23.1948 121.386 23.5222 121.301 23.7571C121.215 23.992 121.166 24.1451 121.151 24.2162C121.137 24.2874 121.13 24.3372 121.13 24.3657C121.13 24.3942 121.137 24.412 121.151 24.4191C121.158 24.4262 121.166 24.4298 121.173 24.4298C121.201 24.4298 121.237 24.4155 121.279 24.3871C121.315 24.3657 121.354 24.3372 121.397 24.3017C121.44 24.2661 121.475 24.2305 121.504 24.1949C121.596 24.0881 121.877 23.7749 122.347 23.2553C122.824 22.7286 123.344 22.1591 123.906 21.547C124.475 20.9277 124.942 20.4259 125.305 20.0416C126.856 18.3973 127.753 17.5254 127.995 17.4257C128.066 17.4044 128.134 17.3937 128.198 17.3937C128.341 17.3937 128.469 17.4471 128.583 17.5538C128.668 17.625 128.718 17.6926 128.732 17.7567C128.746 17.8136 128.753 17.8599 128.753 17.8955C128.753 17.988 128.736 18.109 128.7 18.2585C128.657 18.472 128.575 18.7995 128.454 19.2408C128.198 20.1875 128.002 20.9527 127.867 21.5363C127.739 22.12 127.625 22.7215 127.525 23.3407C127.483 23.6041 127.451 23.8781 127.429 24.1629C127.415 24.4405 127.408 24.686 127.408 24.8996V25.1024C127.415 25.3729 127.437 25.5509 127.472 25.6363C127.515 25.7573 127.586 25.8178 127.686 25.8178C127.842 25.8178 128.074 25.6683 128.38 25.3694C128.736 25.049 129.138 24.5935 129.586 24.0027C130.035 23.4119 130.729 22.4296 131.668 21.0559C134.971 16.2584 137.615 12.7136 139.601 10.4216C139.793 10.2081 139.943 10.0479 140.05 9.94117C140.163 9.82728 140.26 9.75254 140.338 9.71695C140.416 9.67424 140.494 9.65289 140.573 9.65289C140.786 9.66001 140.893 9.77389 140.893 9.99455C140.893 10.0373 140.886 10.08 140.872 10.1227C140.857 10.1583 140.822 10.2116 140.765 10.2828C140.715 10.354 140.63 10.4608 140.509 10.6031C140.388 10.7455 140.22 10.9412 140.007 11.1904C138.199 13.283 135.562 16.8491 132.095 21.8887C131.042 23.4333 130.248 24.5294 129.714 25.1772C129.188 25.8178 128.746 26.2164 128.39 26.373C128.241 26.4513 128.106 26.4975 127.985 26.5118C127.871 26.5189 127.789 26.5225 127.739 26.5225C127.625 26.5225 127.522 26.5047 127.429 26.4691ZM136.435 18.8671C136.378 18.7959 136.349 18.7283 136.349 18.6642C136.349 18.6002 136.381 18.5005 136.445 18.3653C136.552 18.1446 136.655 18.0094 136.755 17.9596C136.855 17.9097 136.929 17.8848 136.979 17.8848C137.065 17.8848 137.143 17.9204 137.214 17.9916C137.278 18.0628 137.31 18.1446 137.31 18.2372C137.31 18.408 137.211 18.6037 137.011 18.8244C136.89 18.9383 136.78 18.9952 136.68 18.9952C136.595 18.9952 136.513 18.9525 136.435 18.8671ZM135.303 23.629C135.139 23.5721 134.976 23.4653 134.812 23.3087C134.648 23.145 134.534 22.9777 134.47 22.8069C134.42 22.6716 134.395 22.5257 134.395 22.3691C134.395 21.9919 134.531 21.5577 134.801 21.0665C135.015 20.6537 135.182 20.3868 135.303 20.2658C135.431 20.1448 135.549 20.0843 135.655 20.0843C135.691 20.0843 135.73 20.0914 135.773 20.1056C135.965 20.1768 136.061 20.3298 136.061 20.5647C136.061 20.643 136.04 20.732 135.997 20.8316C135.961 20.9242 135.89 21.063 135.783 21.2481C135.499 21.7605 135.328 22.1022 135.271 22.273C135.214 22.4439 135.186 22.5684 135.186 22.6467C135.186 22.7464 135.218 22.8211 135.282 22.8709C135.31 22.9065 135.339 22.9314 135.367 22.9457C135.396 22.9599 135.438 22.967 135.495 22.967C135.552 22.967 135.638 22.9635 135.751 22.9564C136.157 22.935 136.673 22.8069 137.3 22.572C137.933 22.3371 138.848 21.9349 140.044 21.3655C140.52 21.1306 140.937 20.9277 141.293 20.7569C141.656 20.5861 141.876 20.4864 141.955 20.458C142.069 20.4224 142.168 20.4046 142.254 20.4046C142.474 20.4046 142.585 20.5185 142.585 20.7462C142.585 20.8174 142.574 20.8744 142.553 20.9171C142.531 20.9598 142.492 21.006 142.435 21.0559C142.35 21.1128 142.065 21.2658 141.581 21.515C141.097 21.757 140.567 22.0168 139.99 22.2944C139.421 22.572 138.958 22.7891 138.602 22.9457C137.428 23.4511 136.51 23.7037 135.848 23.7037C135.641 23.7037 135.46 23.6788 135.303 23.629ZM141.628 23.0952C141.5 22.9813 141.436 22.8532 141.436 22.7108C141.436 22.6823 141.44 22.6538 141.447 22.6254C141.475 22.4474 141.604 22.1627 141.831 21.7712C142.009 21.4651 142.266 21.063 142.6 20.5647C142.935 20.0665 143.258 19.6038 143.572 19.1767C143.885 18.7425 144.102 18.4649 144.223 18.3439C144.315 18.2656 144.408 18.2265 144.501 18.2265C144.543 18.2265 144.582 18.2336 144.618 18.2478C144.753 18.2905 144.839 18.3937 144.874 18.5575C144.881 18.5788 144.885 18.6002 144.885 18.6215C144.885 18.6713 144.874 18.7283 144.853 18.7924C144.824 18.8778 144.76 18.9988 144.661 19.1554C144.568 19.3048 144.426 19.5113 144.234 19.7746C143.885 20.2587 143.646 20.5968 143.518 20.7889C143.39 20.9811 143.326 21.0986 143.326 21.1413C143.326 21.1911 143.344 21.216 143.379 21.216C143.422 21.216 143.508 21.1733 143.636 21.0879C143.764 20.9954 143.96 20.853 144.223 20.6608C144.572 20.3975 144.835 20.2053 145.013 20.0843C145.198 19.9561 145.333 19.8743 145.419 19.8387C145.504 19.8031 145.582 19.7853 145.654 19.7853C145.903 19.7853 146.067 19.9063 146.145 20.1483C146.159 20.1982 146.166 20.2551 146.166 20.3192V20.3832C146.159 20.4758 146.131 20.6252 146.081 20.8316C146.038 21.0167 146.006 21.152 145.985 21.2374C145.97 21.3228 145.963 21.394 145.963 21.4509V21.4936C145.97 21.5506 145.985 21.6039 146.006 21.6538C146.077 21.7819 146.248 21.846 146.518 21.846C146.583 21.846 146.657 21.8424 146.743 21.8353C147.177 21.7855 147.714 21.6538 148.355 21.4402C148.996 21.2267 149.633 20.9669 150.266 20.6608C150.522 20.5398 150.722 20.4793 150.864 20.4793C150.914 20.4793 150.957 20.4864 150.992 20.5007C151.113 20.5505 151.174 20.6323 151.174 20.7462V20.7996C151.159 20.942 151.07 21.0701 150.907 21.184C150.444 21.4758 149.796 21.7677 148.964 22.0595C148.138 22.3513 147.458 22.5257 146.924 22.5827H146.817C146.042 22.5827 145.533 22.2161 145.291 21.4829C145.248 21.3335 145.205 21.2374 145.163 21.1947C145.127 21.152 145.084 21.1306 145.034 21.1306C145.013 21.1306 144.992 21.1342 144.97 21.1413C144.885 21.1484 144.223 21.6502 142.984 22.6467C142.764 22.8176 142.593 22.9492 142.472 23.0418C142.344 23.1272 142.248 23.1841 142.184 23.2126C142.112 23.2411 142.038 23.2553 141.959 23.2553C141.888 23.2553 141.831 23.2446 141.789 23.2233C141.739 23.1948 141.685 23.1521 141.628 23.0952ZM151.968 27.0563C151.847 26.9709 151.762 26.8534 151.712 26.704C151.662 26.5545 151.634 26.3374 151.627 26.0527V25.8605C151.627 25.6256 151.645 25.38 151.68 25.1238C151.723 24.7892 151.812 24.3515 151.947 23.8105C151.99 23.6397 152.022 23.5009 152.043 23.3941C152.072 23.2873 152.089 23.209 152.097 23.1592C152.104 23.1023 152.104 23.0596 152.097 23.0311C152.097 23.0026 152.086 22.9813 152.065 22.967C152.05 22.9457 152.036 22.935 152.022 22.935C152.008 22.9279 151.993 22.9243 151.979 22.9243C151.958 22.9243 151.933 22.9279 151.904 22.935C151.862 22.9492 151.798 22.9777 151.712 23.0204C151.52 23.0916 151.346 23.1272 151.189 23.1272C150.954 23.1272 150.755 23.0453 150.591 22.8816C150.42 22.7108 150.335 22.4795 150.335 22.1876C150.335 22.0381 150.356 21.8744 150.399 21.6965C150.499 21.3762 150.673 21.0238 150.922 20.6395C151.164 20.248 151.392 19.9597 151.605 19.7746C151.897 19.5184 152.218 19.3903 152.566 19.3903C152.68 19.3903 152.794 19.4045 152.908 19.433C153.029 19.4543 153.125 19.465 153.196 19.465H153.25C153.335 19.4508 153.41 19.4009 153.474 19.3155C153.538 19.223 153.62 19.0735 153.719 18.8671C155.236 15.9203 157.022 13.76 159.079 12.3862C159.848 11.8879 160.506 11.6174 161.055 11.5747H161.193C161.279 11.5747 161.346 11.5783 161.396 11.5854C161.474 11.5997 161.563 11.6281 161.663 11.6708C162.047 11.863 162.272 12.1904 162.336 12.6531V12.6958C162.336 13.6425 161.467 15.002 159.731 16.7744C158.848 17.6499 157.951 18.4187 157.04 19.0806C156.136 19.7355 155.382 20.1697 154.776 20.3832C154.563 20.4473 154.403 20.5185 154.296 20.5968C154.189 20.6679 154.075 20.7925 153.954 20.9704C153.848 21.1199 153.741 21.3192 153.634 21.5684C153.527 21.8175 153.388 22.209 153.218 22.7428C152.705 24.2945 152.449 25.4975 152.449 26.3516V26.4157C152.449 26.6506 152.442 26.8107 152.428 26.8962C152.42 26.9887 152.403 27.0456 152.374 27.067C152.317 27.1239 152.257 27.1524 152.193 27.1524C152.121 27.1524 152.047 27.1204 151.968 27.0563ZM155.065 19.3582C155.236 19.2657 155.495 19.102 155.844 18.8671C156.2 18.6251 156.51 18.408 156.773 18.2158C158.602 16.8064 159.994 15.4184 160.948 14.0518C161.403 13.3685 161.631 12.8951 161.631 12.6318C161.631 12.589 161.624 12.5499 161.61 12.5143C161.595 12.4716 161.578 12.4431 161.556 12.4289C161.542 12.4147 161.514 12.4075 161.471 12.4075C161.428 12.4075 161.368 12.4111 161.289 12.4182C161.104 12.4325 160.877 12.5036 160.606 12.6318C158.627 13.614 156.784 15.5572 155.075 18.4614C154.947 18.6963 154.848 18.8813 154.776 19.0166C154.712 19.1447 154.673 19.2301 154.659 19.2728C154.652 19.3155 154.648 19.344 154.648 19.3582C154.648 19.3867 154.659 19.4116 154.68 19.433C154.702 19.4543 154.72 19.465 154.734 19.465C154.755 19.465 154.769 19.465 154.776 19.465C154.805 19.465 154.837 19.4579 154.873 19.4436C154.915 19.4294 154.979 19.4009 155.065 19.3582ZM151.648 22.0702C151.705 22.0275 151.794 21.9527 151.915 21.846C152.036 21.7392 152.161 21.6253 152.289 21.5043C152.445 21.3548 152.566 21.2267 152.652 21.1199C152.744 21.0132 152.815 20.9064 152.865 20.7996C152.951 20.6288 152.993 20.4971 152.993 20.4046C152.993 20.2978 152.94 20.2373 152.833 20.2231H152.791C152.62 20.2231 152.406 20.3405 152.15 20.5754C151.951 20.7747 151.769 20.9989 151.605 21.2481C151.449 21.4972 151.349 21.6894 151.306 21.8246C151.264 21.9598 151.242 22.0488 151.242 22.0915C151.242 22.1698 151.274 22.209 151.338 22.209C151.367 22.209 151.41 22.1947 151.467 22.1663C151.524 22.1378 151.584 22.1058 151.648 22.0702Z" fill="#1E1E1E"/>
<path fill-rule="evenodd" clip-rule="evenodd" d="M5.28064 12.7079C5.98303 15.2365 10.8997 14.2531 11.7858 14.8151C10.7701 15.3013 7.61473 15.82 6.31802 15.7444C6.2856 15.7768 6.25318 15.7876 6.24237 15.8416C6.24237 15.8957 6.17754 15.9173 6.16673 15.9281C4.21086 17.8948 7.377 17.7002 8.74935 17.8191C8.05777 18.4783 7.60392 18.0676 6.45849 18.4891C4.76196 19.1158 4.87002 18.4459 3.81104 18.9321C3.9299 19.386 3.41122 19.4508 5.46435 19.7966C7.04201 20.0559 11.3212 20.2504 12.6719 20.0343C14.0335 19.8182 15.5355 19.4184 16.843 19.1374C18.4747 18.7916 19.6093 18.77 20.182 17.4301H19.2311L19.5337 16.7385L17.5778 16.6737C17.9344 16.1982 18.237 16.0361 18.5287 15.4094C17.0807 15.4742 15.3626 16.3711 13.839 16.5008C12.5963 16.6088 8.86822 16.8034 8.03616 16.3279C9.89478 15.9281 11.9047 16.1334 13.7741 15.6903C14.5846 15.4958 15.3734 15.2041 16.1514 14.8799C16.5837 14.6962 16.9078 14.5557 17.2752 14.3288L18.2046 13.4427C17.7075 13.5075 17.2969 13.7129 16.8754 13.6696C15.395 13.4967 17.6967 13.4859 16.0974 13.3022L12.9529 13.2158L15.4815 12.2757C14.8223 11.8326 10.0569 12.8916 7.98213 13.0429C6.59897 13.1509 6.44769 12.87 5.29145 12.7187" fill="#1E1E1E"/>
<path fill-rule="evenodd" clip-rule="evenodd" d="M12.5215 22.5304C12.997 23.0059 13.0726 23.1031 13.7102 23.3949C13.0186 23.9676 11.0195 24.0216 9.52827 24.4215C10.3603 24.9185 12.0244 24.7564 13.0186 25.0806L3.77951 25.9451C2.80697 26.0315 1.32656 25.8694 0.764648 26.3449C2.02894 27.4579 4.50351 26.842 6.32971 26.842C9.02039 26.842 7.85335 27.1986 10.933 26.7555C11.8732 26.6259 11.8083 26.4422 12.0353 27.0257L10.6845 27.3391C12.1757 27.9226 16.2496 27.3607 17.9245 27.177C20.8421 26.8636 20.6476 26.9717 22.2793 26.0099C22.7656 25.729 23.187 25.7938 23.7057 25.5129C22.9601 25.1779 15.1149 26.4746 13.2347 26.4746C13.8506 25.9559 14.499 26.0856 15.4283 25.837C15.7309 25.7506 16.0875 25.6533 16.4333 25.5345L17.4274 24.9185L15.4175 24.8753C16.7358 24.8537 16.8655 24 19.3833 23.7623C20.6908 23.6434 23.5976 23.8379 24.3216 23.276C24.0947 21.5795 22.0308 22.1738 19.0699 22.3143C16.8979 22.4115 14.7043 22.4548 12.5107 22.552" fill="#1E1E1E"/>
<path fill-rule="evenodd" clip-rule="evenodd" d="M10.8882 1.30752C11.2232 2.08555 11.8391 3.90095 11.8715 4.78703C11.6338 4.50608 11.5365 4.52769 11.2448 4.08465L10.7369 3.23098C10.7369 3.23098 10.6829 3.15534 10.6505 3.11211C10.7261 4.28996 11.1151 4.44124 11.2448 5.457C11.0395 5.54345 10.8233 5.55426 10.6288 5.6299C10.5856 5.6407 10.5316 5.66232 10.4776 5.68393C10.4343 5.70554 10.3803 5.72715 10.3371 5.73796C10.2939 5.74876 10.229 5.79199 10.1966 5.80279C10.1642 5.8136 10.0993 5.83521 10.0669 5.86763L10.6937 6.94822C10.1318 6.93742 9.69953 6.87258 9.18084 6.80775C9.00795 6.78613 8.75941 6.74291 8.5541 6.76452C7.35464 6.87258 9.23487 6.59163 8.26234 6.82936L7.98138 6.93742C8.77022 8.60153 10.953 7.32643 11.7419 9.02296L8.59732 8.9041C8.60813 9.83341 9.00795 9.94147 9.94806 10.1576C9.92645 10.2008 9.86162 10.2008 9.85081 10.2656L9.24568 11.0653C8.87828 11.3246 8.00299 11.1733 7.45189 11.2058C7.43028 12.1027 7.19255 12.2431 7.99219 12.4268C8.26234 12.4917 9.35374 12.3944 9.67792 12.3512C10.7693 12.2107 11.3528 11.8649 12.3362 11.6596C13.2655 11.4651 14.3137 11.357 15.2754 11.2166C17.4474 10.8924 17.2637 11.2274 18.1282 10.7843C18.1606 10.7735 18.2146 10.7303 18.2578 10.6979C18.0633 10.5898 18.2254 10.6114 17.7608 10.5034C17.415 10.4169 17.3717 10.4277 17.026 10.4169C16.5181 10.3953 16.1831 10.4385 15.632 10.3845C15.6428 9.95228 16.3344 9.4444 16.799 9.15264C17.6311 8.62315 17.9661 9.06619 18.3227 8.07204C17.0584 7.54255 15.967 9.71455 12.4767 9.9955C12.5199 9.96308 12.5739 9.86583 12.5955 9.89825L13.8814 9.23908C14.4325 9.01216 14.9188 8.74201 15.4807 8.5475C15.4159 8.5367 15.1781 8.48267 15.1349 8.47186C14.7783 8.30977 15.0052 8.43944 14.7567 8.24494C15.0917 8.02882 15.7941 7.56416 15.8373 7.07789C15.9346 5.85682 15.0269 6.92661 13.9355 6.82936C14.3893 5.95408 14.7675 6.02972 14.2596 5.03557C13.4168 5.34894 13.8382 5.48942 13.1034 5.94327L12.4875 5.6407C12.79 4.63575 13.2007 5.02477 13.2655 3.96578L12.4334 4.23593C12.8873 3.43629 13.4816 1.98829 13.2979 1.01576C12.4334 1.59928 12.8224 2.05313 11.9796 2.43134C12.2173 1.41558 12.1309 0.832058 11.7527 0C11.5798 0.410626 11.731 0.497074 11.5257 0.85367L10.9098 1.29671L10.8882 1.30752Z" fill="#1E1E1E"/>
<path fill-rule="evenodd" clip-rule="evenodd" d="M3.42275 27.4687C3.86579 28.0198 4.11433 27.9766 4.83833 28.0954C5.41104 28.1819 5.84328 28.3548 6.31874 28.5277C9.62536 29.7271 13.8073 28.2899 17.0166 28.5277C16.5087 28.7978 11.3867 29.8352 10.4358 29.9973C7.52901 30.4943 6.21068 30.6024 3.10938 30.7213C3.27146 30.8942 3.19582 30.8509 3.45516 31.0022L4.74107 31.4129C5.40024 31.5533 6.00537 31.6614 6.69695 31.6938C8.0585 31.7478 17.7514 31.8883 18.0108 30.2998L17.9567 30.0189C20.1612 29.3705 23.6839 29.2517 23.9324 27.004C23.0355 27.004 22.6249 27.3174 21.8253 27.4903C20.9932 27.6632 20.1504 27.5443 19.1886 27.674C17.5137 27.9117 15.7847 27.9441 14.0234 27.9441C12.2944 27.9441 10.3061 28.0414 8.6096 27.8685C7.09677 27.7172 4.9788 27.5335 3.43355 27.4795" fill="#1E1E1E"/>
<path fill-rule="evenodd" clip-rule="evenodd" d="M6.93457 32.8717C7.66937 34.471 10.1439 33.1743 11.5271 33.4444C13.5694 33.8551 11.1273 36.4593 13.3641 37.2373C13.8072 36.0595 13.4506 35.5516 13.3209 34.3737L16.2709 34.3197C16.0332 33.6389 15.7846 33.6065 15.7414 32.8825C17.8594 32.5583 21.7819 32.4611 22.2898 29.9541C19.6964 30.5808 18.9184 31.132 15.1579 31.8776C12.3808 32.4179 9.83056 32.5799 6.93457 32.8609" fill="#1E1E1E"/>
<path fill-rule="evenodd" clip-rule="evenodd" d="M1.53163 20.1423C1.97468 20.6934 2.22321 20.6501 2.94721 20.769C3.51993 20.8555 3.95217 21.0284 4.42763 21.2013C7.73425 22.4007 11.9161 20.9635 15.1255 21.2013C14.6176 21.4714 9.49562 22.5088 8.54469 22.6709C5.63789 23.1679 4.31957 23.276 1.21826 23.3949C1.38035 23.5678 1.30471 23.5245 1.56405 23.6758L2.84996 24.0864C3.50912 24.2269 4.11425 24.335 4.80584 24.3674C6.16738 24.4214 15.8603 24.5619 16.1197 22.9734L16.0656 22.6925C18.27 22.0441 21.7928 21.9252 22.0413 19.6776C21.1444 19.6776 20.7338 19.991 19.9342 20.1639C19.1021 20.3368 18.2592 20.2179 17.2975 20.3476C15.6226 20.5853 13.8936 20.6177 12.1323 20.6177C10.4033 20.6177 8.41502 20.715 6.71849 20.5421C5.20566 20.3908 3.08769 20.2071 1.54244 20.1531" fill="#1E1E1E"/>
</g>
</svg>
