<svg width="18" height="14" viewBox="0 0 18 14" fill="none" xmlns="http://www.w3.org/2000/svg">
<path opacity="0.5" fill-rule="evenodd" clip-rule="evenodd" d="M-3.27835e-08 7.25067C-4.14783e-08 7.05176 0.0790175 6.86099 0.21967 6.72034C0.360322 6.57969 0.551088 6.50067 0.75 6.50067L10 6.50067L10 8.00067L0.75 8.00067C0.551088 8.00067 0.360322 7.92165 0.21967 7.781C0.0790175 7.64035 -2.40888e-08 7.44958 -3.27835e-08 7.25067Z" fill="#1E1E1E"/>
<path d="M10 13.2507C10.0001 13.3989 10.0442 13.5438 10.1266 13.667C10.209 13.7902 10.3261 13.8862 10.4631 13.9429C10.6 13.9997 10.7507 14.0145 10.8961 13.9856C11.0415 13.9567 11.1751 13.8854 11.28 13.7807L17.28 7.78066C17.4205 7.64003 17.4993 7.44941 17.4993 7.25066C17.4993 7.05191 17.4205 6.86128 17.28 6.72066L11.28 0.720658C11.1751 0.615902 11.0415 0.544579 10.8961 0.515695C10.7507 0.486811 10.6 0.50166 10.4631 0.558372C10.3261 0.615083 10.209 0.711111 10.1266 0.834327C10.0442 0.957542 10.0001 1.10242 10 1.25066L10 13.2507Z" fill="#1E1E1E"/>
</svg>
