<svg width="181" height="38" viewBox="0 0 181 38" fill="none" xmlns="http://www.w3.org/2000/svg">
<path d="M4.89703 28H0.576121L12.6747 0.222726H16.0079L28.0653 28H23.7856L21.2342 22.0742H7.44842L4.89703 28ZM19.5881 18.2882L14.3619 6.06624L9.09449 18.2882H19.5881ZM36.8123 28H33.5202L27.3474 9.48182H31.1334L35.1662 22.2388L39.1579 9.48182H42.4912L46.524 22.2388L50.5157 9.48182H54.2605L48.1289 28H44.7957L40.8451 15.6545L36.8123 28ZM74.9691 20.0989H59.6607C59.9625 21.5255 60.662 22.7052 61.7594 23.6379C62.8842 24.5433 64.2148 24.9959 65.7511 24.9959C67.8087 24.9959 69.441 24.2278 70.6482 22.6915L74.2695 23.8025C73.4465 25.2291 72.2668 26.3677 70.7305 27.2181C69.2216 28.0686 67.5618 28.4938 65.7511 28.4938C62.9528 28.4938 60.5935 27.5611 58.6731 25.6955C56.7801 23.83 55.8336 21.5118 55.8336 18.7409C55.8336 15.9426 56.7527 13.6244 58.5908 11.7863C60.4563 9.92077 62.7471 8.988 65.4631 8.988C68.1516 8.988 70.4287 9.92077 72.2942 11.7863C74.1323 13.6244 75.0514 15.9426 75.0514 18.7409C75.0514 19.2622 75.0239 19.7148 74.9691 20.0989ZM59.7018 17.136H71.2243C70.8951 15.7368 70.1955 14.612 69.1255 13.7616C68.0556 12.9111 66.8073 12.4859 65.3808 12.4859C64.009 12.4859 62.7882 12.9248 61.7183 13.8027C60.6758 14.6532 60.0036 15.7643 59.7018 17.136ZM87.2415 28.4938C84.6901 28.4938 82.5228 27.5611 80.7396 25.6955C79.0112 23.8574 78.1471 21.5392 78.1471 18.7409C78.1471 15.97 79.0112 13.6518 80.7396 11.7863C82.5228 9.92077 84.6901 8.988 87.2415 8.988C89.6283 8.988 91.6722 9.79731 93.3731 11.4159V9.48182H97.0767V28.4527C97.0767 31.1138 96.1714 33.3223 94.3607 35.0781C92.5775 36.8613 90.3553 37.7529 87.6942 37.7529C85.7464 37.7529 83.9494 37.2591 82.3034 36.2715C80.6573 35.2838 79.5051 34.0081 78.8466 32.4444L82.5914 31.3333C82.9755 32.1289 83.6339 32.7736 84.5667 33.2674C85.4995 33.7886 86.5008 34.0493 87.5707 34.0493C89.1894 34.0493 90.5611 33.5143 91.6859 32.4444C92.8107 31.3744 93.3731 30.0439 93.3731 28.4527V26.0659C91.6722 27.6845 89.6283 28.4938 87.2415 28.4938ZM87.6531 12.7328C86.0344 12.7328 84.6764 13.3089 83.5791 14.4612C82.5091 15.6134 81.9741 17.04 81.9741 18.7409C81.9741 20.4418 82.5091 21.8684 83.5791 23.0207C84.6764 24.1729 86.0344 24.749 87.6531 24.749C89.2442 24.749 90.5748 24.1729 91.6447 23.0207C92.7421 21.8959 93.2908 20.4693 93.2908 18.7409C93.2908 17.0125 92.7421 15.586 91.6447 14.4612C90.5748 13.3089 89.2442 12.7328 87.6531 12.7328ZM110.359 8.988C112.746 8.988 114.789 9.79731 116.49 11.4159V9.48182H120.194V28H116.49V26.0659C114.789 27.6845 112.746 28.4938 110.359 28.4938C107.807 28.4938 105.64 27.5611 103.857 25.6955C102.128 23.8574 101.264 21.5392 101.264 18.7409C101.264 15.97 102.128 13.6518 103.857 11.7863C105.64 9.92077 107.807 8.988 110.359 8.988ZM114.762 14.4612C113.692 13.3089 112.361 12.7328 110.77 12.7328C109.206 12.7328 107.862 13.3089 106.737 14.4612C105.667 15.6134 105.132 17.04 105.132 18.7409C105.132 20.4418 105.667 21.8684 106.737 23.0207C107.862 24.1729 109.206 24.749 110.77 24.749C112.361 24.749 113.692 24.1729 114.762 23.0207C115.859 21.8959 116.408 20.4693 116.408 18.7409C116.408 17.0125 115.859 15.586 114.762 14.4612ZM125.204 28V9.48182H128.908V12.1567C130.307 10.0442 132.324 8.988 134.957 8.988C137.097 8.988 138.867 9.68757 140.266 11.0867C141.665 12.431 142.365 14.1594 142.365 16.2718V28H138.62V17.3418C138.62 15.97 138.167 14.8315 137.262 13.9262C136.357 13.0208 135.232 12.5682 133.887 12.5682C132.488 12.5682 131.309 13.0346 130.348 13.9673C129.388 14.8727 128.908 16.0112 128.908 17.3829V28H125.204ZM150.995 30.181L152.065 27.5062L144.822 9.48182H148.69L153.958 22.8972L159.349 9.48182H163.217L154.205 31.4567C153.382 33.4594 152.353 34.9272 151.118 35.8599C149.884 36.7927 148.347 37.2591 146.509 37.2591H145.851V33.6789H146.509C148.567 33.6789 150.062 32.5129 150.995 30.181ZM165.47 28V25.1605L175.429 12.8974H165.635V9.48182H180.531V12.3213L170.532 24.5844H180.696V28H165.47Z" fill="#1E1E1E"/>
</svg>
