<svg width="148" height="31" viewBox="0 0 148 31" fill="none" xmlns="http://www.w3.org/2000/svg">
<g opacity="0.7">
<path d="M47.4381 11.0397C47.4381 9.18164 47.4644 7.31608 47.4268 5.45428C47.4042 4.37698 47.3478 3.29969 47.0581 2.24116C46.8399 1.44914 46.5313 0.713436 46.0008 0.0302734H52.0019C52.0094 0.0903317 52.0244 0.157897 52.0244 0.229216C52.0244 4.81241 52.0244 9.39559 52.0132 13.9788C52.0132 14.3091 51.9417 14.662 51.8213 14.9698C51.3209 16.261 49.9852 16.1859 49.2215 15.6116C48.7888 15.2851 48.5104 14.8346 48.2771 14.3617C47.9084 13.6184 47.5735 12.8527 47.1634 12.132C46.8925 11.6553 46.5464 11.2049 46.1701 10.807C45.3198 9.90234 44.2513 9.63208 43.0436 9.89858C41.1699 10.3152 39.9133 11.4864 39.0818 13.1455C38.4008 14.5043 38.0622 15.9645 37.8477 17.4622C37.6634 18.7384 37.5844 20.0184 37.6822 21.3021C37.7838 22.661 37.9756 24.001 38.6228 25.2322C38.7357 25.4462 38.8598 25.6526 38.9953 25.8478C40.045 27.3718 41.422 27.5895 43.0398 26.8425C43.9052 26.4409 44.5975 25.829 45.1129 25.0408C45.6096 24.2863 46.0422 23.4905 46.4975 22.7098C46.9452 21.944 47.344 21.152 47.8369 20.42C48.2432 19.8157 48.849 19.4178 49.5977 19.3015C50.7979 19.1175 51.8627 19.9771 52.0771 21.2383C52.2163 22.0529 52.1561 22.8562 52.0734 23.6669C51.8288 26.028 52.3254 28.2351 53.5031 30.2959C53.5595 30.3972 53.6046 30.5023 53.6648 30.6299C53.3262 30.6299 53.0328 30.6299 52.7393 30.6299C51.2419 30.6299 49.7444 30.6299 48.2508 30.645C48.025 30.645 47.8745 30.5549 47.8444 30.3522C47.7428 29.7065 47.5923 29.0609 47.5999 28.4153C47.6149 26.79 48.0664 25.2472 48.6308 23.7383C48.7925 23.3066 48.7512 22.9275 48.4502 22.5746C48.2319 22.3194 48.025 22.2856 47.7428 22.4583C47.3704 22.6872 47.1709 23.0476 46.9866 23.4267C46.4298 24.5716 45.8842 25.7239 45.2822 26.8463C44.748 27.8372 44.0594 28.7231 43.1565 29.4213C42.0466 30.2809 40.7899 30.6712 39.3753 30.6487C37.7424 30.6224 36.4669 29.928 35.421 28.7419C34.4428 27.6308 33.8445 26.3133 33.442 24.9056C32.84 22.8149 32.7008 20.7091 33.0921 18.5545C33.4495 16.5951 34.0214 14.7183 35.0335 12.9916C35.9402 11.4451 37.0689 10.0863 38.7093 9.26047C41.1361 8.03679 43.5553 7.88288 45.9181 9.4444C46.505 9.83102 46.9715 10.3453 47.344 10.9421C47.3628 10.9721 47.3854 11.0022 47.4117 11.0247C47.423 11.0359 47.4456 11.0322 47.4418 11.0322L47.4381 11.0397Z" fill="#1E1E1E"/>
<path d="M55.7498 8.49849C56.3028 9.14037 56.5737 9.91737 56.7618 10.7169C57.0553 11.9631 57.1456 13.2318 57.1456 14.5118C57.1456 18.059 57.1569 21.6062 57.1381 25.1534C57.1343 25.9792 57.2322 26.7712 57.4955 27.5482C57.9508 28.8845 58.786 29.8642 60.1518 30.3747C60.9381 30.6675 61.7395 30.6299 62.5447 30.6299C63.2595 30.6299 63.9142 30.3822 64.5274 30.0556C65.8405 29.3537 66.7661 28.2576 67.4696 26.9889C68.1092 25.8365 68.6473 24.6279 69.2492 23.453C69.4298 23.1039 69.6669 22.7811 69.9114 22.4733C70.0695 22.2781 70.3366 22.2368 70.5473 22.3607C70.6827 22.4395 70.8257 22.6309 70.837 22.7811C70.8596 23.0851 70.8445 23.4117 70.7617 23.7082C70.536 24.5153 70.2501 25.3035 70.0168 26.1068C69.697 27.2216 69.6443 28.3627 69.7647 29.5114C69.7986 29.8454 69.919 30.172 70.0318 30.4873C70.0619 30.5699 70.2275 30.6562 70.3291 30.6562C72.0485 30.6637 73.7679 30.6562 75.4873 30.6487C75.5362 30.6487 75.5814 30.6224 75.6529 30.6037C74.9719 29.7929 74.6558 28.847 74.4715 27.8635C74.2194 26.5085 74.178 25.1309 74.178 23.7533C74.1893 18.7272 74.178 13.701 74.1893 8.67492C74.1893 8.41967 74.1291 8.32582 73.8507 8.32958C71.9996 8.34084 70.1522 8.32958 68.3011 8.32958C68.2635 8.32958 68.2221 8.35585 68.1582 8.37837C68.8542 9.2342 69.2079 10.2101 69.3696 11.2499C69.5954 12.6951 69.6744 14.1477 69.6405 15.6116C69.6142 16.6739 69.6932 17.74 69.6104 18.7985C69.4148 21.3735 68.4892 23.6745 66.8225 25.6639C66.1528 26.4634 65.3928 27.1691 64.3807 27.537C63.8615 27.7246 63.3573 27.7584 62.8532 27.4731C62.206 27.109 61.9502 26.4859 61.8373 25.8328C61.7169 25.1271 61.6868 24.3989 61.6831 23.682C61.668 18.6746 61.668 13.6673 61.668 8.6599C61.668 8.4084 61.6003 8.32958 61.3407 8.33333C59.5272 8.34459 57.7137 8.33708 55.904 8.34084C55.8363 8.34084 55.7648 8.35585 55.667 8.36336C55.7009 8.42717 55.7121 8.47221 55.7385 8.50224L55.7498 8.49849Z" fill="#1E1E1E"/>
<path d="M10.5516 9.03869C11.1085 10.0034 11.338 11.0732 11.4471 12.158C11.5449 13.1302 11.5562 14.1136 11.56 15.0896C11.5713 19.5151 11.56 23.9406 11.56 28.3662C11.56 29.0493 11.5675 29.7325 11.56 30.4157C11.56 30.5883 11.6014 30.6634 11.7932 30.6596C13.1214 30.6446 14.4495 30.6409 15.7814 30.6334C16.1463 30.6334 16.1426 30.6334 16.1426 30.273C16.1388 27.3452 16.12 24.4173 16.1426 21.4895C16.1501 20.3747 16.199 19.2711 16.5075 18.1713C17.0418 16.2757 17.941 14.5978 19.2691 13.1452C19.8147 12.5483 20.4355 12.0303 21.1767 11.6775C21.6394 11.4598 22.1248 11.2721 22.6515 11.3434C23.4717 11.4523 23.9796 11.9815 24.1866 12.7285C24.3785 13.4154 24.529 14.1399 24.5365 14.8493C24.5666 18.2576 24.5365 21.6659 24.5365 25.0742C24.5365 26.8384 24.5365 28.6026 24.5365 30.3669C24.5365 30.5133 24.4989 30.6596 24.7472 30.6596C26.1129 30.6446 27.4787 30.6371 28.8444 30.6409C29.0438 30.6409 29.0777 30.5658 29.0777 30.3969C29.0702 29.6011 29.0626 28.8091 29.0626 28.0133C29.0626 23.2913 29.0626 18.5729 29.0626 13.8508C29.0626 12.7811 28.9648 11.73 28.4682 10.7541C27.9866 9.81568 27.2906 9.09499 26.286 8.71587C24.2656 7.95013 22.3994 8.30297 20.6838 9.55293C19.4121 10.4801 18.5392 11.7488 17.7867 13.0926C17.3503 13.8734 16.9853 14.6917 16.5715 15.4874C16.4059 15.8065 16.2103 16.1068 16.0034 16.3996C15.8228 16.6548 15.5481 16.7186 15.2584 16.6361C14.995 16.561 14.9198 16.3095 14.9123 16.088C14.901 15.8365 14.9235 15.5625 15.0176 15.3335C15.4089 14.3839 15.7137 13.4117 15.9093 12.4019C16.1426 11.1895 16.1651 9.98085 15.8717 8.77593C15.7663 8.34801 15.7325 8.31798 15.2885 8.31798C13.6443 8.31798 11.9964 8.31798 10.3522 8.31798C10.2732 8.31798 10.1905 8.32549 10.0889 8.333C10.2657 8.58825 10.4312 8.79845 10.5667 9.02743L10.5516 9.03869Z" fill="#1E1E1E"/>
<path d="M129.505 10.9981C129.979 12.1505 130.471 13.2954 130.915 14.459C131.025 14.7443 131.141 14.8268 131.427 14.8043C132.383 14.7368 133.263 14.4477 134.076 13.9523C135.024 13.3742 135.78 12.5934 136.51 11.7714C137.165 11.0282 137.801 10.2624 138.531 9.59803C139.746 8.4907 141.668 8.91487 142.082 10.7504C142.184 11.1971 142.252 11.6625 142.27 12.1205C142.338 13.9485 141.706 15.5138 140.434 16.835C139.558 17.7472 138.452 18.2839 137.308 18.7569C135.878 19.3462 134.426 19.8943 133.019 20.5324C131.036 21.4333 129.58 22.8221 128.936 24.9842C128.429 26.6996 129.151 28.8054 130.746 29.8376C131.709 30.4608 132.767 30.671 133.899 30.656C134.968 30.6447 135.953 30.3894 136.871 29.8564C138.038 29.177 138.888 28.1861 139.52 27.0299C140.186 25.8062 140.75 24.53 141.386 23.2876C141.533 22.9985 141.755 22.7395 141.988 22.5105C142.21 22.2966 142.553 22.3529 142.756 22.5856C143.023 22.8897 143.128 23.22 142.981 23.6291C142.586 24.7402 142.255 25.8701 142.075 27.045C141.905 28.1373 141.902 29.2108 142.146 30.2881C142.203 30.5396 142.308 30.6334 142.575 30.6334C144.212 30.6222 145.848 30.6334 147.485 30.6334C147.639 30.6334 147.794 30.6334 148.001 30.6334C147.884 30.4157 147.797 30.2468 147.707 30.0779C146.996 28.7266 146.42 27.3265 146.413 25.7725C146.409 24.6839 146.462 23.5954 146.48 22.503C146.492 21.7411 146.454 20.9903 146.063 20.3034C145.604 19.4964 144.565 19.0835 143.662 19.3462C142.861 19.579 142.304 20.1157 141.89 20.7839C141.473 21.4558 141.1 22.1615 140.769 22.8822C140.16 24.2034 139.313 25.3258 138.113 26.1666C137.248 26.7747 136.322 27.2064 135.223 26.9511C134.151 26.6996 133.402 26.0953 133.195 24.9654C133.037 24.1171 133.241 23.3288 133.749 22.6607C134.159 22.1202 134.64 21.6134 135.163 21.1818C136.627 19.9656 138.32 19.1135 140.039 18.314C141.548 17.6121 143.027 16.8651 144.332 15.8216C145.171 15.1534 145.886 14.3839 146.304 13.3892C146.928 11.8953 146.56 10.4276 145.25 9.47415C144.31 8.78724 143.207 8.52073 142.075 8.38936C140.498 8.20918 138.933 8.35932 137.406 8.76096C136.006 9.12882 134.633 9.57926 133.241 9.96964C132.511 10.1723 131.766 10.3412 131.021 10.4839C130.505 10.5815 129.975 10.6115 129.41 10.6753C129.444 10.7992 129.463 10.908 129.505 11.0019V10.9981Z" fill="#1E1E1E"/>
<path d="M106.101 30.4534C105.544 29.5112 105.108 28.5165 104.833 27.4542C104.472 26.0691 104.449 24.6615 104.604 23.2464C104.69 22.4807 104.709 21.7224 104.513 20.9642C104.092 19.3276 102.365 18.7308 101.014 19.7593C100.285 20.3148 99.833 21.0768 99.4267 21.8688C99.0391 22.6233 98.7043 23.4116 98.2491 24.1248C97.4514 25.3747 96.3942 26.3619 94.9532 26.8574C93.7078 27.2891 92.2744 26.8049 91.6573 25.7463C91.2848 25.112 91.2811 24.4175 91.4353 23.7306C91.6197 22.8861 92.154 22.2404 92.771 21.6661C94.1104 20.4237 95.6944 19.5528 97.3122 18.7383C98.471 18.1565 99.6411 17.5934 100.785 16.9853C101.853 16.4148 102.813 15.6828 103.618 14.7707C104.261 14.0462 104.683 13.2092 104.781 12.2445C104.912 10.927 104.107 9.68826 102.73 9.05015C101.018 8.25437 99.2047 8.20557 97.3799 8.42328C95.7809 8.61472 94.2459 9.08768 92.7146 9.57565C91.4504 9.97729 90.1862 10.3714 88.8619 10.5253C88.4405 10.5741 88.0191 10.6304 87.5638 10.6867C87.6541 10.9007 87.7444 11.0996 87.8272 11.3023C88.2561 12.3533 88.6888 13.4006 89.1027 14.4591C89.2193 14.7557 89.3961 14.842 89.6971 14.812C90.6678 14.7144 91.5633 14.4141 92.3797 13.8886C93.4558 13.1942 94.276 12.2407 95.1112 11.2948C95.6417 10.6905 96.1948 10.1049 96.7742 9.54562C97.2144 9.12146 97.7712 9.0051 98.392 9.01636C99.2348 9.03513 99.9308 9.7258 100.138 10.3527C100.529 11.5463 100.619 12.74 100.266 13.9712C99.7239 15.8555 98.6065 17.2744 96.8457 18.1227C95.4874 18.7758 94.069 19.3088 92.6845 19.9057C91.9019 20.2435 91.0967 20.5475 90.3668 20.9792C88.5421 22.0528 87.2478 23.5392 87.0296 25.7351C86.8678 27.3604 87.4133 28.7155 88.7528 29.7064C89.731 30.4309 90.8484 30.6749 92.0561 30.6598C92.9855 30.6448 93.8621 30.4684 94.6898 30.0555C95.9427 29.4287 96.8795 28.4565 97.5568 27.2628C98.2227 26.0842 98.7795 24.8417 99.4003 23.6368C99.5885 23.2727 99.8142 22.9236 100.063 22.597C100.213 22.3981 100.45 22.2592 100.728 22.4056C101.003 22.5482 101.233 22.7509 101.221 23.085C101.21 23.3478 101.176 23.6218 101.09 23.8658C100.574 25.3072 100.19 26.7786 100.134 28.3101C100.108 29.0082 100.093 29.7139 100.386 30.3821C100.473 30.5773 100.593 30.6486 100.811 30.6448C102.493 30.6373 104.175 30.6448 105.86 30.6448C105.962 30.6448 106.06 30.6448 106.214 30.6448C106.158 30.551 106.131 30.5022 106.105 30.4572L106.101 30.4534Z" fill="#1E1E1E"/>
<path d="M124.034 8.45716C123.823 8.52473 123.616 8.61482 123.402 8.65986C121.829 8.99393 120.253 8.82877 118.687 8.61856C117.517 8.46091 116.351 8.30327 115.166 8.3333C113.401 8.37459 111.798 8.8513 110.489 10.09C108.807 11.6815 108.627 14.2565 110.087 16.0095C110.82 16.8878 111.727 17.5335 112.735 18.0477C114.346 18.8698 115.978 19.6393 117.585 20.4726C118.868 21.137 120.155 21.8089 121.385 22.5633C122.747 23.4004 123.684 24.5866 123.838 26.2306C123.936 27.2854 123.578 28.0399 122.773 28.4603C122.19 28.7644 121.554 28.8469 120.903 28.7606C119.632 28.5954 118.465 28.1187 117.371 27.4769C116.445 26.9326 115.561 26.317 114.628 25.7802C113.439 25.0933 112.156 24.7142 110.764 24.9094C110.139 24.9957 109.522 25.1346 108.909 25.2697C108.856 25.281 108.792 25.4199 108.804 25.4912C108.969 26.835 109.142 28.1825 109.327 29.5226C109.375 29.8792 109.462 30.232 109.537 30.6187C109.718 30.5098 109.849 30.4235 109.989 30.3484C110.128 30.2733 110.275 30.217 110.418 30.1494C111.885 29.44 113.397 29.2974 114.966 29.7703C115.64 29.973 116.313 30.1757 116.991 30.3784C118.127 30.72 119.297 30.7725 120.441 30.5699C122.371 30.2208 123.808 29.0909 124.865 27.4693C125.648 26.2607 126.122 24.9244 126.084 23.5018C126.032 21.4748 125.196 19.7631 123.394 18.7083C121.291 17.4809 119.124 16.3586 116.972 15.2137C115.982 14.6882 114.955 14.2303 113.966 13.701C113.232 13.3106 112.645 12.7476 112.276 11.9856C111.584 10.5479 112.513 9.34302 113.68 9.03522C114.485 8.82502 115.279 8.93388 116.057 9.21165C117.122 9.58701 118.036 10.2176 118.943 10.8632C120.204 11.7604 121.52 12.5524 123.071 12.8527C123.62 12.9578 124.177 13.0028 124.816 13.0892C124.666 11.4601 124.519 9.93234 124.372 8.36332C124.226 8.40836 124.132 8.4384 124.041 8.47218L124.034 8.45716Z" fill="#1E1E1E"/>
<path d="M1.23576 30.6527C2.6128 30.6527 3.98608 30.6414 5.36311 30.6452C6.07044 30.6452 6.07044 30.6564 6.07044 29.947C6.07044 20.0562 6.07044 10.1616 6.07421 0.270718C6.07421 0.191891 6.06292 0.109313 6.05916 0.0267334H0.927246V30.6564C1.03636 30.6564 1.13794 30.6564 1.23576 30.6564V30.6527Z" fill="#1E1E1E"/>
<path d="M78.4246 3.08925C78.5827 4.16279 78.6805 5.25885 78.6842 6.34365C78.7031 14.3351 78.6955 22.3267 78.6842 30.3144C78.6842 30.5997 78.7821 30.6447 79.0379 30.641C80.2833 30.6297 81.5286 30.6335 82.774 30.641C83.1916 30.641 83.1916 30.6597 83.1916 30.2468C83.1916 20.2697 83.1916 10.2925 83.2029 0.315304C83.2029 0.0450423 83.1126 0 82.868 0C81.0734 0.00750728 79.2787 0.00375731 77.484 0.00375731C77.3937 0.00375731 77.3034 0.00375731 77.1304 0.00375731C77.9092 0.949674 78.2629 1.98943 78.4246 3.08173V3.08925Z" fill="#1E1E1E"/>
</g>
</svg>
