<svg width="148" height="35" viewBox="0 0 148 35" fill="none" xmlns="http://www.w3.org/2000/svg">
<g opacity="0.7">
<path d="M32.5717 24.0521C32.4485 23.9937 32.3837 23.9224 32.3772 23.8382C32.3708 23.7539 32.3675 23.7021 32.3675 23.6826C32.3675 23.5206 32.4226 23.2711 32.5328 22.9341C32.6559 22.5582 32.8601 22.0105 33.1453 21.2911C34.4868 17.8691 35.7507 15.0725 36.9367 12.9013C37.0469 12.7004 37.1376 12.5254 37.2089 12.3763C37.2867 12.2208 37.3256 12.1333 37.3256 12.1138C37.3256 12.0296 37.2997 11.9842 37.2478 11.9777C37.196 11.9648 37.1506 11.9583 37.1117 11.9583C37.0339 11.9583 36.9238 11.9712 36.7812 11.9972C35.9321 12.1527 35.0118 12.3536 34.0202 12.5999C33.0286 12.8397 32.3189 13.0406 31.8912 13.2027C31.7421 13.2545 31.6157 13.2804 31.512 13.2804C31.3176 13.2804 31.2204 13.18 31.2204 12.9791C31.2204 12.83 31.2981 12.7068 31.4537 12.6096C31.6027 12.5059 31.8944 12.3893 32.3286 12.2596C33.3786 11.955 34.6132 11.6666 36.0326 11.3944C37.452 11.1157 38.7514 10.9116 39.931 10.782C40.5143 10.7236 41.0263 10.6815 41.467 10.6556C41.9142 10.6296 42.4133 10.6167 42.9642 10.6167C43.5539 10.6167 43.9752 10.6296 44.228 10.6556C44.4872 10.6815 44.6881 10.7333 44.8307 10.8111C44.9733 10.8889 45.0608 10.9764 45.0932 11.0736C45.1321 11.1643 45.1515 11.2356 45.1515 11.2875C45.1515 11.3653 45.1289 11.4398 45.0835 11.5111C45.0511 11.5694 44.996 11.5986 44.9182 11.5986C44.8404 11.5986 44.74 11.5662 44.6168 11.5014C44.4743 11.4171 44.2895 11.3653 44.0627 11.3458C43.8424 11.3264 43.6058 11.3166 43.353 11.3166C43.1651 11.3166 42.9512 11.3199 42.7114 11.3264C42.1929 11.3393 41.6226 11.3717 41.0004 11.4236C40.3847 11.469 39.8338 11.524 39.3477 11.5889C38.8681 11.6472 38.5732 11.699 38.463 11.7444C38.4176 11.7638 38.382 11.7995 38.3561 11.8513C38.3302 11.8967 38.3042 11.968 38.2783 12.0652C38.2524 12.143 38.2038 12.2629 38.1325 12.4249C38.0612 12.5805 37.9802 12.7425 37.8894 12.911C37.6496 13.3582 37.3321 13.9804 36.9367 14.7776C36.5414 15.5683 36.227 16.2067 35.9937 16.6927C35.4882 17.788 34.947 19.0324 34.3702 20.4259C33.7934 21.8128 33.4077 22.8109 33.2133 23.4201C33.1161 23.7377 33.0318 23.9322 32.9605 24.0034C32.8893 24.0747 32.8244 24.1104 32.7661 24.1104C32.7078 24.1104 32.643 24.0909 32.5717 24.0521ZM35.998 22.0786C35.9267 22.0461 35.8684 21.9975 35.823 21.9327C35.7711 21.8614 35.7452 21.7901 35.7452 21.7189C35.7452 21.5309 36.3318 20.2217 37.5048 17.7913C38.5353 15.659 39.4265 13.9771 40.1783 12.7457C40.282 12.5772 40.3857 12.4055 40.4894 12.2305C40.5996 12.049 40.6838 11.9032 40.7422 11.793C40.8783 11.5597 40.9852 11.4041 41.063 11.3264C41.1408 11.2421 41.2283 11.2 41.3255 11.2C41.481 11.2 41.5815 11.2518 41.6268 11.3555C41.6722 11.4592 41.6949 11.5467 41.6949 11.618C41.6949 11.7088 41.6755 11.8027 41.6366 11.8999C41.6171 11.9453 41.5556 12.0587 41.4519 12.2402C41.3546 12.4217 41.238 12.6291 41.1019 12.8624C40.3695 14.1003 39.689 15.3252 39.0603 16.5372C38.7751 17.0816 38.4997 17.6228 38.234 18.1607C37.9682 18.6922 37.7511 19.1394 37.5826 19.5023C37.4206 19.8588 37.3396 20.0597 37.3396 20.1051V20.1148C37.3461 20.1277 37.3558 20.1407 37.3687 20.1537C37.3882 20.1666 37.4076 20.1731 37.4271 20.1731C37.44 20.1731 37.5081 20.131 37.6312 20.0467C37.7609 19.956 37.9099 19.849 38.0784 19.7259C38.5451 19.3694 38.9631 19.0616 39.3325 18.8023C39.7019 18.5366 39.9515 18.3681 40.0811 18.2968C40.2302 18.232 40.3565 18.1996 40.4602 18.1996C40.6352 18.1996 40.7519 18.2903 40.8102 18.4718C40.8232 18.5107 40.8297 18.5528 40.8297 18.5982C40.8297 18.663 40.8199 18.7343 40.8005 18.8121C40.7616 18.9482 40.6838 19.1491 40.5672 19.4148C40.5153 19.5315 40.47 19.6481 40.4311 19.7648C40.3987 19.875 40.376 19.9625 40.363 20.0273V20.2217C40.376 20.2606 40.4084 20.3027 40.4602 20.3481C40.4926 20.3805 40.5251 20.4032 40.5575 20.4161C40.5899 20.4291 40.6352 20.4388 40.6936 20.4453C40.7584 20.4453 40.8523 20.4453 40.9755 20.4453H41.0144C41.3449 20.4453 41.7305 20.3643 42.1713 20.2023C42.6314 20.0338 43.3022 19.7259 44.1836 19.2787C44.5531 19.0972 44.8642 18.9482 45.1169 18.8315C45.3697 18.7148 45.5123 18.6565 45.5447 18.6565C45.6225 18.6565 45.697 18.6922 45.7683 18.7635C45.8396 18.8348 45.8752 18.9093 45.8752 18.9871C45.8752 19.0908 45.8007 19.2009 45.6516 19.3176C45.5026 19.4278 45.2174 19.593 44.7961 19.8134C43.1434 20.7143 41.9185 21.1647 41.1213 21.1647C40.9204 21.1647 40.7487 21.1355 40.6061 21.0772C40.4052 21.0124 40.2204 20.8828 40.0519 20.6884C39.8899 20.4874 39.7797 20.2638 39.7214 20.0176C39.7084 19.9592 39.6955 19.9041 39.6825 19.8523C39.6695 19.794 39.6598 19.7518 39.6533 19.7259C39.6404 19.6611 39.6047 19.6287 39.5464 19.6287C39.4686 19.6287 39.3422 19.6935 39.1673 19.8231C38.9663 19.9722 38.6909 20.1893 38.3409 20.4745C37.9909 20.7596 37.6345 21.0545 37.2715 21.3591C37.103 21.5017 36.9475 21.6314 36.8049 21.748C36.6623 21.8647 36.5683 21.9392 36.523 21.9716C36.4322 22.0299 36.3544 22.0656 36.2896 22.0786C36.2183 22.0915 36.1633 22.098 36.1244 22.098C36.079 22.098 36.0369 22.0915 35.998 22.0786ZM46.2878 21.6119C45.8017 21.4758 45.4582 21.1906 45.2573 20.7564C45.1601 20.5749 45.1115 20.3837 45.1115 20.1828C45.1115 19.943 45.1795 19.6903 45.3156 19.4245C45.4647 19.1264 45.6851 18.8185 45.9767 18.501C46.2684 18.1769 46.5406 17.9404 46.7933 17.7913C46.9294 17.72 47.0591 17.6844 47.1822 17.6844C47.2924 17.6844 47.3961 17.7135 47.4933 17.7718C47.7007 17.8885 47.8368 18.1024 47.9016 18.4135C47.9081 18.4524 47.9113 18.4945 47.9113 18.5399C47.9113 18.6436 47.8951 18.7602 47.8627 18.8898C47.8238 19.0648 47.759 19.2204 47.6683 19.3565C47.3896 19.7907 46.9683 20.0078 46.4045 20.0078C46.2036 20.0078 46.061 20.024 45.9767 20.0564C45.8925 20.0888 45.8309 20.1504 45.792 20.2412C45.7531 20.3384 45.7337 20.4226 45.7337 20.4939C45.7337 20.6624 45.8244 20.7888 46.0059 20.8731C46.2392 20.9508 46.5146 20.9897 46.8322 20.9897C47.6294 20.9897 48.6923 20.7402 50.0209 20.2412C50.4617 20.0662 50.951 19.849 51.4889 19.5898C52.0268 19.3241 52.5064 19.081 52.9277 18.8607C53.0314 18.8153 53.1189 18.7926 53.1902 18.7926C53.255 18.7926 53.3101 18.8121 53.3555 18.851C53.4397 18.9287 53.4819 19.0292 53.4819 19.1523V19.1815C53.4754 19.3176 53.4203 19.4181 53.3166 19.4829C52.9861 19.6708 52.5842 19.8847 52.1111 20.1245C51.6445 20.3578 51.1843 20.5717 50.7306 20.7661C50.3612 20.9217 49.9496 21.074 49.496 21.223C49.0488 21.3656 48.6631 21.4726 48.3391 21.5439C47.9697 21.6216 47.6683 21.6638 47.435 21.6702C47.2016 21.6767 47.0526 21.68 46.9878 21.68C46.6961 21.68 46.4628 21.6573 46.2878 21.6119ZM46.8906 19.0551C46.923 19.0292 46.9554 18.9968 46.9878 18.9579C47.0202 18.9125 47.0493 18.8704 47.0753 18.8315C47.1012 18.7861 47.1142 18.7505 47.1142 18.7246C47.1142 18.6986 47.1012 18.6857 47.0753 18.6857C47.0623 18.6857 47.0429 18.6922 47.0169 18.7051C46.9521 18.7311 46.8841 18.7764 46.8128 18.8412C46.7156 18.9384 46.667 19.0162 46.667 19.0746V19.094C46.6734 19.1134 46.6896 19.1232 46.7156 19.1232C46.7544 19.1232 46.8128 19.1005 46.8906 19.0551ZM71.145 24.2854C70.7432 24.1428 70.4839 23.8576 70.3673 23.4299C70.3349 23.3456 70.3122 23.2387 70.2992 23.1091C70.2927 22.9729 70.2895 22.7882 70.2895 22.5549C70.296 21.6152 70.4839 20.3643 70.8533 18.8023C70.9182 18.5496 70.9668 18.3389 70.9992 18.1704C71.0316 18.0019 71.0478 17.8982 71.0478 17.8593V17.8399C71.0413 17.8205 71.0283 17.8043 71.0089 17.7913C70.9894 17.7783 70.9732 17.7718 70.9603 17.7718C70.9084 17.7718 70.6362 18.0343 70.1437 18.5593C69.6511 19.0778 69.0581 19.7227 68.3646 20.4939C67.6776 21.2652 66.9874 22.0526 66.2939 22.8563C65.8661 23.3618 65.5485 23.7021 65.3411 23.8771C65.1338 24.0456 64.9361 24.1298 64.7481 24.1298C64.6833 24.1298 64.6282 24.1201 64.5829 24.1007C64.5375 24.0812 64.4889 24.0488 64.437 24.0034C64.2815 23.8803 64.2037 23.7086 64.2037 23.4882C64.2037 23.4169 64.2134 23.3359 64.2329 23.2452C64.356 22.597 64.8453 21.2166 65.7009 19.1037C66.0379 18.2741 66.2971 17.6325 66.4786 17.1788C66.6601 16.7251 66.8059 16.359 66.9161 16.0803C67.0327 15.7951 67.1526 15.4905 67.2758 15.1664C67.9757 13.3517 68.3257 12.1171 68.3257 11.4625C68.3257 11.2162 68.2771 11.0509 68.1799 10.9667C68.1021 10.9019 67.9952 10.8694 67.8591 10.8694C67.7359 10.8694 67.5901 10.8954 67.4216 10.9472C67.0586 11.0509 66.6406 11.2583 66.1675 11.5694C64.9555 12.399 63.7079 13.5494 62.4246 15.0206C61.1479 16.4918 60.2891 17.7589 59.8484 18.8218C59.7836 18.9838 59.7253 19.0875 59.6734 19.1329C59.6216 19.1782 59.5665 19.2009 59.5081 19.2009C59.4822 19.2009 59.453 19.1977 59.4206 19.1912C59.2457 19.1264 59.1582 18.9579 59.1582 18.6857V18.6565C59.2035 18.2223 59.6021 17.477 60.3539 16.4205C61.1965 15.2604 62.0941 14.2072 63.0468 13.261C64.006 12.3083 64.8842 11.5694 65.6814 11.0444C66.4851 10.513 67.1235 10.2473 67.5966 10.2473C67.6419 10.2473 67.6841 10.2505 67.723 10.257C68.222 10.3412 68.5947 10.6134 68.841 11.0736C68.8863 11.1579 68.9187 11.2292 68.9382 11.2875C68.9576 11.3458 68.9673 11.4171 68.9673 11.5014C68.9738 11.5856 68.9771 11.712 68.9771 11.8805C68.9771 12.0944 68.9673 12.2726 68.9479 12.4152C68.9349 12.5513 68.9058 12.7166 68.8604 12.911C68.64 13.9026 67.8526 16.0868 66.498 19.4634C66.2582 20.0532 66.0606 20.5393 65.905 20.9217C65.7559 21.3041 65.6425 21.6022 65.5647 21.8161C65.487 22.0299 65.4416 22.1693 65.4286 22.2341C65.4157 22.2989 65.4092 22.3443 65.4092 22.3702C65.4092 22.3961 65.4157 22.4123 65.4286 22.4188C65.4351 22.4253 65.4416 22.4285 65.4481 22.4285C65.474 22.4285 65.5064 22.4156 65.5453 22.3896C65.5777 22.3702 65.6134 22.3443 65.6522 22.3119C65.6911 22.2795 65.7235 22.2471 65.7495 22.2147C65.8337 22.1174 66.0897 21.8323 66.5175 21.3591C66.9517 20.8795 67.4248 20.3611 67.9368 19.8037C68.4553 19.2398 68.8798 18.7829 69.2104 18.4329C70.6233 16.9358 71.4399 16.1418 71.6602 16.0511C71.7251 16.0317 71.7866 16.0219 71.845 16.0219C71.9746 16.0219 72.0912 16.0706 72.1949 16.1678C72.2727 16.2326 72.3181 16.2941 72.331 16.3525C72.344 16.4043 72.3505 16.4465 72.3505 16.4789C72.3505 16.5631 72.3343 16.6733 72.3019 16.8094C72.263 17.0038 72.1885 17.302 72.0783 17.7038C71.845 18.5658 71.6667 19.2625 71.5436 19.794C71.4269 20.3254 71.3232 20.8731 71.2325 21.4369C71.1936 21.6767 71.1644 21.9262 71.145 22.1855C71.132 22.4383 71.1256 22.6619 71.1256 22.8563V23.041C71.132 23.2873 71.1515 23.4493 71.1839 23.5271C71.2228 23.6373 71.2876 23.6924 71.3783 23.6924C71.5209 23.6924 71.7315 23.5562 72.0102 23.284C72.3343 22.9924 72.7005 22.5776 73.1088 22.0397C73.5171 21.5017 74.149 20.6073 75.0045 19.3565C78.0117 14.9882 80.4195 11.7606 82.2277 9.67368C82.4027 9.47925 82.5388 9.33342 82.636 9.2362C82.7397 9.13251 82.8272 9.06445 82.8985 9.03205C82.9698 8.99316 83.0411 8.97372 83.1124 8.97372C83.3068 8.9802 83.404 9.0839 83.404 9.28481C83.404 9.3237 83.3976 9.36259 83.3846 9.40147C83.3716 9.43388 83.3392 9.48249 83.2874 9.5473C83.242 9.61211 83.1642 9.70933 83.0541 9.83895C82.9439 9.96857 82.7916 10.1468 82.5971 10.3736C80.9509 12.2791 78.5497 15.5261 75.3934 20.1148C74.4342 21.5212 73.7115 22.5193 73.2254 23.1091C72.7458 23.6924 72.344 24.0553 72.0199 24.1979C71.8838 24.2692 71.7607 24.3113 71.6505 24.3243C71.5468 24.3307 71.4723 24.334 71.4269 24.334C71.3232 24.334 71.2293 24.3178 71.145 24.2854ZM78.6641 21.6119C78.1781 21.4758 77.8346 21.1906 77.6336 20.7564C77.5364 20.5749 77.4878 20.3837 77.4878 20.1828C77.4878 19.943 77.5559 19.6903 77.692 19.4245C77.841 19.1264 78.0614 18.8185 78.353 18.501C78.6447 18.1769 78.9169 17.9404 79.1697 17.7913C79.3058 17.72 79.4354 17.6844 79.5585 17.6844C79.6687 17.6844 79.7724 17.7135 79.8696 17.7718C80.077 17.8885 80.2131 18.1024 80.2779 18.4135C80.2844 18.4524 80.2877 18.4945 80.2877 18.5399C80.2877 18.6436 80.2715 18.7602 80.2391 18.8898C80.2002 19.0648 80.1354 19.2204 80.0446 19.3565C79.7659 19.7907 79.3447 20.0078 78.7808 20.0078C78.5799 20.0078 78.4373 20.024 78.353 20.0564C78.2688 20.0888 78.2072 20.1504 78.1683 20.2412C78.1294 20.3384 78.11 20.4226 78.11 20.4939C78.11 20.6624 78.2007 20.7888 78.3822 20.8731C78.6155 20.9508 78.891 20.9897 79.2086 20.9897C80.0057 20.9897 81.0686 20.7402 82.3973 20.2412C82.838 20.0662 83.3273 19.849 83.8652 19.5898C84.4032 19.3241 84.8828 19.081 85.304 18.8607C85.4077 18.8153 85.4952 18.7926 85.5665 18.7926C85.6313 18.7926 85.6864 18.8121 85.7318 18.851C85.8161 18.9287 85.8582 19.0292 85.8582 19.1523V19.1815C85.8517 19.3176 85.7966 19.4181 85.6929 19.4829C85.3624 19.6708 84.9605 19.8847 84.4874 20.1245C84.0208 20.3578 83.5606 20.5717 83.1069 20.7661C82.7375 20.9217 82.326 21.074 81.8723 21.223C81.4251 21.3656 81.0395 21.4726 80.7154 21.5439C80.346 21.6216 80.0446 21.6638 79.8113 21.6702C79.578 21.6767 79.4289 21.68 79.3641 21.68C79.0724 21.68 78.8391 21.6573 78.6641 21.6119ZM79.2669 19.0551C79.2993 19.0292 79.3317 18.9968 79.3641 18.9579C79.3965 18.9125 79.4257 18.8704 79.4516 18.8315C79.4775 18.7861 79.4905 18.7505 79.4905 18.7246C79.4905 18.6986 79.4775 18.6857 79.4516 18.6857C79.4386 18.6857 79.4192 18.6922 79.3933 18.7051C79.3285 18.7311 79.2604 18.7764 79.1891 18.8412C79.0919 18.9384 79.0433 19.0162 79.0433 19.0746V19.094C79.0498 19.1134 79.066 19.1232 79.0919 19.1232C79.1308 19.1232 79.1891 19.1005 79.2669 19.0551ZM83.957 24.9076C83.8404 24.8687 83.7464 24.8201 83.6751 24.7617C83.5973 24.7099 83.526 24.6386 83.4612 24.5479C83.3834 24.4377 83.3316 24.3243 83.3057 24.2076C83.2733 24.0909 83.2571 23.9905 83.2571 23.9062C83.2571 23.8609 83.2603 23.8187 83.2668 23.7798C83.4418 22.8855 84.6116 21.8096 86.7763 20.5522C87.0031 20.4291 87.1166 20.3286 87.1166 20.2509C87.1166 20.1731 87.0031 20.118 86.7763 20.0856C86.4587 20.0338 86.2222 19.9527 86.0666 19.8426C85.9111 19.7324 85.8074 19.5801 85.7555 19.3856C85.7296 19.3014 85.7166 19.2204 85.7166 19.1426C85.7166 19.0065 85.7588 18.8736 85.843 18.744C85.9791 18.5431 86.2481 18.3098 86.6499 18.0441C87.1943 17.6941 87.5508 17.5191 87.7193 17.5191C87.836 17.5191 87.9332 17.558 88.011 17.6357C88.0952 17.707 88.1373 17.7978 88.1373 17.9079C88.1373 17.9598 88.1309 18.0116 88.1179 18.0635C88.1049 18.1153 88.0887 18.1542 88.0693 18.1802C88.0434 18.2126 87.9721 18.2741 87.8554 18.3649C87.7387 18.4491 87.5994 18.5463 87.4374 18.6565C87.0615 18.8963 86.867 19.0421 86.8541 19.094C86.8476 19.1394 86.8444 19.1653 86.8444 19.1718C86.8444 19.2625 86.9772 19.3338 87.2429 19.3856C87.3207 19.4116 87.4179 19.444 87.5346 19.4829C87.6513 19.5217 87.755 19.5639 87.8457 19.6092C88.0272 19.6935 88.16 19.7356 88.2443 19.7356C88.2637 19.7356 88.2799 19.7324 88.2929 19.7259C88.3318 19.7194 88.4193 19.687 88.5554 19.6287C88.698 19.5704 88.86 19.5023 89.0415 19.4245C89.4692 19.2366 89.8678 19.081 90.2372 18.9579C90.6131 18.8348 90.8951 18.7635 91.083 18.744C91.1413 18.7375 91.1899 18.7343 91.2288 18.7343C91.2677 18.7343 91.3001 18.7375 91.3261 18.744C91.3779 18.757 91.4265 18.7829 91.4719 18.8218C91.5432 18.8866 91.5788 18.9417 91.5788 18.9871C91.5853 19.0324 91.5885 19.0583 91.5885 19.0648C91.5885 19.1426 91.5561 19.2107 91.4913 19.269C91.4589 19.2949 91.3811 19.3338 91.258 19.3856C91.1349 19.4375 90.9923 19.4893 90.8302 19.5412C90.5127 19.6384 90.1562 19.768 89.7609 19.9301C89.372 20.0921 89.0868 20.2217 88.9054 20.3189C88.7368 20.4161 88.6526 20.5555 88.6526 20.737C88.6526 20.7694 88.6558 20.805 88.6623 20.8439C88.6688 20.8828 88.672 20.9217 88.672 20.9606C88.672 21.0513 88.6591 21.1518 88.6331 21.2619C88.5943 21.4304 88.5359 21.5925 88.4582 21.748C88.1211 22.3637 87.5605 22.9956 86.7763 23.6437C85.9921 24.2854 85.2727 24.7066 84.6181 24.9076C84.469 24.9465 84.3459 24.9659 84.2487 24.9659C84.1514 24.9659 84.0542 24.9465 83.957 24.9076ZM84.4237 24.0423C84.8384 23.8997 85.3602 23.5887 85.9888 23.1091C86.624 22.623 87.1295 22.1498 87.5054 21.6897C87.7647 21.3462 87.8943 21.1193 87.8943 21.0092C87.8943 20.9508 87.8651 20.9217 87.8068 20.9217C87.7225 20.9217 87.58 20.9735 87.379 21.0772C86.2773 21.7059 85.3893 22.3443 84.7153 22.9924C84.2422 23.459 84.0056 23.7831 84.0056 23.9646C84.0056 24.0164 84.0218 24.0553 84.0542 24.0812C84.0737 24.1007 84.0899 24.1136 84.1028 24.1201C84.1158 24.1201 84.1255 24.1201 84.132 24.1201C84.1514 24.1201 84.1741 24.1169 84.2001 24.1104C84.2454 24.1039 84.3167 24.0845 84.4139 24.0521C84.4204 24.0521 84.4237 24.0488 84.4237 24.0423ZM91.4859 19.3273C91.6544 18.6727 91.9817 17.8626 92.4678 16.8969C92.5844 16.6636 92.6816 16.4562 92.7594 16.2747C92.8437 16.0932 92.8858 15.9895 92.8858 15.9636C92.8858 15.9182 92.8728 15.8826 92.8469 15.8567C92.821 15.8307 92.7627 15.8178 92.6719 15.8178C92.5747 15.8178 92.4256 15.834 92.2247 15.8664C92.0303 15.8923 91.7678 15.9344 91.4373 15.9928C91.1002 16.0446 90.679 16.1192 90.1734 16.2164C90.0762 16.2293 90.0017 16.2358 89.9498 16.2358C89.8915 16.2358 89.8397 16.2229 89.7943 16.1969C89.6452 16.1127 89.5707 16.009 89.5707 15.8858C89.5707 15.8664 89.5739 15.8437 89.5804 15.8178C89.6064 15.6622 89.723 15.5521 89.9304 15.4872C90.0795 15.4484 90.3646 15.3933 90.7859 15.322C91.2072 15.2507 91.6836 15.1729 92.215 15.0887C92.2474 15.0822 92.2766 15.0757 92.3025 15.0692C92.5812 15.0303 92.7983 14.9979 92.9539 14.972C93.1094 14.9461 93.2228 14.9266 93.2941 14.9137C93.3719 14.8942 93.427 14.878 93.4594 14.8651C93.4918 14.8456 93.5209 14.8229 93.5469 14.797C93.5534 14.7905 93.5598 14.7873 93.5663 14.7873C93.6311 14.729 93.7186 14.6123 93.8288 14.4373C93.9455 14.2623 94.0556 14.0808 94.1593 13.8929C94.263 13.7049 94.3343 13.5559 94.3732 13.4457C94.3927 13.3679 94.4186 13.2966 94.451 13.2318C94.4899 13.167 94.5255 13.1184 94.5579 13.086C94.6357 13.0212 94.7167 12.9888 94.801 12.9888C94.8528 12.9888 94.9079 13.0017 94.9662 13.0277C95.1153 13.1054 95.206 13.2383 95.2384 13.4263V13.4651C95.2384 13.5299 95.2287 13.5948 95.2093 13.6596C95.1898 13.7373 95.1347 13.867 95.044 14.0484C94.9598 14.204 94.9014 14.3206 94.869 14.3984C94.8431 14.4697 94.8301 14.5248 94.8301 14.5637C94.8301 14.5767 94.8334 14.5896 94.8399 14.6026C94.8463 14.6415 94.8755 14.6674 94.9274 14.6803C94.9468 14.6868 94.9857 14.6901 95.044 14.6901C95.1088 14.6901 95.1931 14.6868 95.2968 14.6803C95.5107 14.6674 95.7829 14.6479 96.1134 14.622C97.5587 14.4924 98.8582 14.4243 100.012 14.4179C100.303 14.4179 100.527 14.4211 100.683 14.4276C100.845 14.4276 100.965 14.4341 101.042 14.447C101.127 14.4535 101.198 14.4665 101.256 14.4859C101.438 14.5572 101.548 14.635 101.587 14.7192C101.632 14.797 101.655 14.8586 101.655 14.9039C101.655 14.9688 101.626 15.0303 101.567 15.0887C101.535 15.1146 101.499 15.134 101.46 15.147C101.428 15.1535 101.383 15.1567 101.324 15.1567H101.227C101.117 15.1567 100.948 15.147 100.721 15.1275C100.618 15.1211 100.495 15.1178 100.352 15.1178C99.9308 15.1178 99.354 15.1405 98.6216 15.1859C97.6559 15.2377 96.7291 15.309 95.8412 15.3998C94.9533 15.484 94.4218 15.5618 94.2468 15.6331C94.195 15.659 94.1367 15.7108 94.0718 15.7886C94.0135 15.8599 93.9357 15.9798 93.8385 16.1483C93.7413 16.3168 93.6117 16.5534 93.4497 16.858C92.8793 17.9404 92.4807 18.8412 92.2539 19.5606C92.1113 20.0078 92.04 20.3643 92.04 20.63C92.04 20.8698 92.1016 21.0286 92.2247 21.1064C92.296 21.1518 92.39 21.1744 92.5067 21.1744C92.7918 21.1744 93.2034 21.0319 93.7413 20.7467C94.2339 20.5004 94.9144 20.1051 95.7829 19.5606C96.1393 19.3338 96.4115 19.1653 96.5995 19.0551C96.7874 18.9449 96.9268 18.8736 97.0175 18.8412C97.1083 18.8088 97.1893 18.7926 97.2606 18.7926C97.4226 18.7926 97.5198 18.8283 97.5522 18.8996C97.5846 18.9709 97.6008 19.0259 97.6008 19.0648C97.6008 19.1426 97.5652 19.2236 97.4939 19.3079C97.3124 19.4699 96.5412 19.9689 95.1801 20.805C94.8237 21.0254 94.4964 21.2101 94.1982 21.3591C93.6279 21.6249 93.1353 21.7577 92.7205 21.7577C92.3965 21.7577 92.1178 21.6767 91.8845 21.5147C91.528 21.2684 91.3498 20.8633 91.3498 20.2995C91.3498 20.0143 91.3951 19.6903 91.4859 19.3273ZM115.332 24.2854C114.93 24.1428 114.671 23.8576 114.554 23.4299C114.522 23.3456 114.499 23.2387 114.486 23.1091C114.48 22.9729 114.477 22.7882 114.477 22.5549C114.483 21.6152 114.671 20.3643 115.04 18.8023C115.105 18.5496 115.154 18.3389 115.186 18.1704C115.219 18.0019 115.235 17.8982 115.235 17.8593V17.8399C115.228 17.8205 115.215 17.8043 115.196 17.7913C115.176 17.7783 115.16 17.7718 115.147 17.7718C115.095 17.7718 114.823 18.0343 114.331 18.5593C113.838 19.0778 113.245 19.7227 112.552 20.4939C111.865 21.2652 111.174 22.0526 110.481 22.8563C110.053 23.3618 109.736 23.7021 109.528 23.8771C109.321 24.0456 109.123 24.1298 108.935 24.1298C108.87 24.1298 108.815 24.1201 108.77 24.1007C108.725 24.0812 108.676 24.0488 108.624 24.0034C108.468 23.8803 108.391 23.7086 108.391 23.4882C108.391 23.4169 108.4 23.3359 108.42 23.2452C108.543 22.597 109.032 21.2166 109.888 19.1037C110.225 18.2741 110.484 17.6325 110.666 17.1788C110.847 16.7251 110.993 16.359 111.103 16.0803C111.22 15.7951 111.34 15.4905 111.463 15.1664C112.163 13.3517 112.513 12.1171 112.513 11.4625C112.513 11.2162 112.464 11.0509 112.367 10.9667C112.289 10.9019 112.182 10.8694 112.046 10.8694C111.923 10.8694 111.777 10.8954 111.609 10.9472C111.246 11.0509 110.828 11.2583 110.355 11.5694C109.143 12.399 107.895 13.5494 106.612 15.0206C105.335 16.4918 104.476 17.7589 104.035 18.8218C103.971 18.9838 103.912 19.0875 103.86 19.1329C103.809 19.1782 103.753 19.2009 103.695 19.2009C103.669 19.2009 103.64 19.1977 103.608 19.1912C103.433 19.1264 103.345 18.9579 103.345 18.6857V18.6565C103.391 18.2223 103.789 17.477 104.541 16.4205C105.383 15.2604 106.281 14.2072 107.234 13.261C108.193 12.3083 109.071 11.5694 109.868 11.0444C110.672 10.513 111.31 10.2473 111.784 10.2473C111.829 10.2473 111.871 10.2505 111.91 10.257C112.409 10.3412 112.782 10.6134 113.028 11.0736C113.073 11.1579 113.106 11.2292 113.125 11.2875C113.145 11.3458 113.154 11.4171 113.154 11.5014C113.161 11.5856 113.164 11.712 113.164 11.8805C113.164 12.0944 113.154 12.2726 113.135 12.4152C113.122 12.5513 113.093 12.7166 113.047 12.911C112.827 13.9026 112.04 16.0868 110.685 19.4634C110.445 20.0532 110.248 20.5393 110.092 20.9217C109.943 21.3041 109.83 21.6022 109.752 21.8161C109.674 22.0299 109.629 22.1693 109.616 22.2341C109.603 22.2989 109.596 22.3443 109.596 22.3702C109.596 22.3961 109.603 22.4123 109.616 22.4188C109.622 22.4253 109.629 22.4285 109.635 22.4285C109.661 22.4285 109.693 22.4156 109.732 22.3896C109.765 22.3702 109.8 22.3443 109.839 22.3119C109.878 22.2795 109.911 22.2471 109.936 22.2147C110.021 22.1174 110.277 21.8323 110.704 21.3591C111.139 20.8795 111.612 20.3611 112.124 19.8037C112.642 19.2398 113.067 18.7829 113.397 18.4329C114.81 16.9358 115.627 16.1418 115.847 16.0511C115.912 16.0317 115.974 16.0219 116.032 16.0219C116.162 16.0219 116.278 16.0706 116.382 16.1678C116.46 16.2326 116.505 16.2941 116.518 16.3525C116.531 16.4043 116.537 16.4465 116.537 16.4789C116.537 16.5631 116.521 16.6733 116.489 16.8094C116.45 17.0038 116.375 17.302 116.265 17.7038C116.032 18.5658 115.854 19.2625 115.731 19.794C115.614 20.3254 115.51 20.8731 115.42 21.4369C115.381 21.6767 115.351 21.9262 115.332 22.1855C115.319 22.4383 115.313 22.6619 115.313 22.8563V23.041C115.319 23.2873 115.338 23.4493 115.371 23.5271C115.41 23.6373 115.475 23.6924 115.565 23.6924C115.708 23.6924 115.919 23.5562 116.197 23.284C116.521 22.9924 116.887 22.5776 117.296 22.0397C117.704 21.5017 118.336 20.6073 119.192 19.3565C122.199 14.9882 124.606 11.7606 126.415 9.67368C126.59 9.47925 126.726 9.33342 126.823 9.2362C126.927 9.13251 127.014 9.06445 127.086 9.03205C127.157 8.99316 127.228 8.97372 127.299 8.97372C127.494 8.9802 127.591 9.0839 127.591 9.28481C127.591 9.3237 127.585 9.36259 127.572 9.40147C127.559 9.43388 127.526 9.48249 127.474 9.5473C127.429 9.61211 127.351 9.70933 127.241 9.83895C127.131 9.96857 126.979 10.1468 126.784 10.3736C125.138 12.2791 122.737 15.5261 119.58 20.1148C118.621 21.5212 117.899 22.5193 117.412 23.1091C116.933 23.6924 116.531 24.0553 116.207 24.1979C116.071 24.2692 115.948 24.3113 115.838 24.3243C115.734 24.3307 115.659 24.334 115.614 24.334C115.51 24.334 115.416 24.3178 115.332 24.2854ZM123.532 17.3635C123.48 17.2987 123.454 17.2372 123.454 17.1788C123.454 17.1205 123.483 17.0298 123.541 16.9066C123.639 16.7057 123.733 16.5826 123.823 16.5372C123.914 16.4918 123.982 16.4691 124.027 16.4691C124.105 16.4691 124.177 16.5015 124.241 16.5664C124.3 16.6312 124.329 16.7057 124.329 16.79C124.329 16.9455 124.238 17.1237 124.057 17.3246C123.946 17.4283 123.846 17.4802 123.755 17.4802C123.677 17.4802 123.603 17.4413 123.532 17.3635ZM122.501 21.6994C122.352 21.6476 122.203 21.5503 122.054 21.4078C121.905 21.2587 121.801 21.1064 121.743 20.9508C121.698 20.8277 121.675 20.6948 121.675 20.5522C121.675 20.2087 121.798 19.8134 122.044 19.3662C122.239 18.9903 122.391 18.7473 122.501 18.6371C122.618 18.5269 122.725 18.4718 122.822 18.4718C122.854 18.4718 122.89 18.4783 122.929 18.4913C123.104 18.5561 123.191 18.6954 123.191 18.9093C123.191 18.9806 123.172 19.0616 123.133 19.1523C123.101 19.2366 123.036 19.363 122.939 19.5315C122.679 19.9981 122.524 20.3092 122.472 20.4648C122.42 20.6203 122.394 20.7337 122.394 20.805C122.394 20.8957 122.423 20.9638 122.482 21.0092C122.508 21.0416 122.534 21.0643 122.56 21.0772C122.585 21.0902 122.624 21.0967 122.676 21.0967C122.728 21.0967 122.806 21.0934 122.909 21.0869C123.279 21.0675 123.749 20.9508 124.319 20.737C124.896 20.5231 125.729 20.1569 126.818 19.6384C127.252 19.4245 127.631 19.2398 127.955 19.0843C128.286 18.9287 128.486 18.838 128.558 18.8121C128.661 18.7797 128.752 18.7635 128.83 18.7635C129.031 18.7635 129.131 18.8672 129.131 19.0746C129.131 19.1394 129.122 19.1912 129.102 19.2301C129.083 19.269 129.047 19.3111 128.995 19.3565C128.917 19.4083 128.658 19.5477 128.218 19.7745C127.777 19.9949 127.294 20.2314 126.769 20.4842C126.251 20.737 125.829 20.9346 125.505 21.0772C124.436 21.5374 123.6 21.7675 122.997 21.7675C122.809 21.7675 122.644 21.7448 122.501 21.6994ZM128.261 21.2133C128.144 21.1096 128.086 20.993 128.086 20.8633C128.086 20.8374 128.089 20.8115 128.095 20.7856C128.121 20.6235 128.238 20.3643 128.445 20.0078C128.607 19.7291 128.841 19.363 129.145 18.9093C129.45 18.4556 129.745 18.0343 130.03 17.6455C130.315 17.2501 130.513 16.9974 130.623 16.8872C130.707 16.8159 130.792 16.7802 130.876 16.7802C130.915 16.7802 130.95 16.7867 130.983 16.7997C131.106 16.8386 131.184 16.9325 131.216 17.0816C131.223 17.101 131.226 17.1205 131.226 17.1399C131.226 17.1853 131.216 17.2372 131.197 17.2955C131.171 17.3733 131.112 17.4834 131.022 17.626C130.937 17.7621 130.808 17.9501 130.633 18.1899C130.315 18.6306 130.098 18.9384 129.981 19.1134C129.865 19.2884 129.806 19.3954 129.806 19.4343C129.806 19.4796 129.823 19.5023 129.855 19.5023C129.894 19.5023 129.972 19.4634 130.088 19.3856C130.205 19.3014 130.383 19.1718 130.623 18.9968C130.941 18.757 131.18 18.582 131.342 18.4718C131.511 18.3551 131.634 18.2806 131.712 18.2482C131.79 18.2158 131.861 18.1996 131.926 18.1996C132.153 18.1996 132.302 18.3098 132.373 18.5301C132.386 18.5755 132.392 18.6274 132.392 18.6857V18.744C132.386 18.8283 132.36 18.9644 132.315 19.1523C132.276 19.3208 132.247 19.444 132.227 19.5217C132.214 19.5995 132.208 19.6643 132.208 19.7162V19.7551C132.214 19.8069 132.227 19.8555 132.247 19.9009C132.311 20.0176 132.467 20.0759 132.713 20.0759C132.772 20.0759 132.84 20.0726 132.917 20.0662C133.313 20.0208 133.802 19.9009 134.385 19.7065C134.969 19.512 135.549 19.2755 136.126 18.9968C136.359 18.8866 136.54 18.8315 136.67 18.8315C136.715 18.8315 136.754 18.838 136.787 18.851C136.897 18.8963 136.952 18.9709 136.952 19.0746V19.1232C136.939 19.2528 136.858 19.3694 136.709 19.4731C136.288 19.7389 135.698 20.0046 134.939 20.2703C134.188 20.536 133.569 20.6948 133.083 20.7467H132.985C132.279 20.7467 131.816 20.4129 131.595 19.7453C131.556 19.6092 131.517 19.5217 131.479 19.4829C131.446 19.444 131.407 19.4245 131.362 19.4245C131.342 19.4245 131.323 19.4278 131.304 19.4343C131.226 19.4407 130.623 19.8977 129.495 20.805C129.294 20.9606 129.139 21.0805 129.029 21.1647C128.912 21.2425 128.825 21.2943 128.766 21.3203C128.701 21.3462 128.633 21.3591 128.562 21.3591C128.497 21.3591 128.445 21.3494 128.407 21.33C128.361 21.3041 128.313 21.2652 128.261 21.2133ZM137.676 24.8201C137.565 24.7423 137.488 24.6354 137.442 24.4993C137.397 24.3631 137.371 24.1655 137.364 23.9062V23.7312C137.364 23.5174 137.381 23.2938 137.413 23.0604C137.452 22.7558 137.533 22.3572 137.656 21.8647C137.695 21.7091 137.724 21.5827 137.744 21.4855C137.77 21.3883 137.786 21.317 137.792 21.2717C137.799 21.2198 137.799 21.1809 137.792 21.155C137.792 21.1291 137.782 21.1096 137.763 21.0967C137.75 21.0772 137.737 21.0675 137.724 21.0675C137.711 21.061 137.698 21.0578 137.685 21.0578C137.666 21.0578 137.643 21.061 137.617 21.0675C137.578 21.0805 137.52 21.1064 137.442 21.1453C137.267 21.2101 137.108 21.2425 136.966 21.2425C136.752 21.2425 136.571 21.168 136.421 21.0189C136.266 20.8633 136.188 20.6527 136.188 20.387C136.188 20.2509 136.208 20.1018 136.246 19.9398C136.337 19.6481 136.496 19.3273 136.723 18.9773C136.943 18.6209 137.151 18.3584 137.345 18.1899C137.611 17.9566 137.902 17.8399 138.22 17.8399C138.324 17.8399 138.427 17.8529 138.531 17.8788C138.641 17.8982 138.729 17.9079 138.794 17.9079H138.842C138.92 17.895 138.988 17.8496 139.046 17.7718C139.105 17.6876 139.179 17.5515 139.27 17.3635C140.65 14.6803 142.277 12.7133 144.15 11.4625C144.85 11.0088 145.45 10.7625 145.949 10.7236H146.075C146.153 10.7236 146.214 10.7269 146.26 10.7333C146.331 10.7463 146.412 10.7722 146.503 10.8111C146.853 10.9861 147.057 11.2842 147.115 11.7055V11.7444C147.115 12.6064 146.325 13.8443 144.743 15.4581C143.94 16.2553 143.123 16.9552 142.293 17.558C141.47 18.1542 140.783 18.5496 140.232 18.744C140.038 18.8023 139.892 18.8672 139.795 18.9384C139.698 19.0033 139.594 19.1167 139.484 19.2787C139.387 19.4148 139.289 19.5963 139.192 19.8231C139.095 20.05 138.969 20.4064 138.813 20.8925C138.346 22.3054 138.113 23.4007 138.113 24.1784V24.2368C138.113 24.4506 138.107 24.5965 138.094 24.6742C138.087 24.7585 138.071 24.8103 138.045 24.8298C137.993 24.8816 137.938 24.9076 137.88 24.9076C137.815 24.9076 137.747 24.8784 137.676 24.8201ZM140.495 17.8107C140.65 17.7265 140.887 17.5774 141.205 17.3635C141.529 17.1432 141.811 16.9455 142.05 16.7705C143.716 15.4872 144.983 14.2234 145.851 12.9791C146.266 12.3569 146.474 11.9259 146.474 11.6861C146.474 11.6472 146.467 11.6115 146.454 11.5791C146.441 11.5402 146.425 11.5143 146.406 11.5014C146.393 11.4884 146.367 11.4819 146.328 11.4819C146.289 11.4819 146.234 11.4852 146.163 11.4916C145.994 11.5046 145.787 11.5694 145.54 11.6861C143.739 12.5805 142.06 14.3498 140.505 16.9941C140.388 17.208 140.297 17.3765 140.232 17.4996C140.174 17.6163 140.138 17.6941 140.125 17.733C140.119 17.7718 140.116 17.7978 140.116 17.8107C140.116 17.8367 140.125 17.8593 140.145 17.8788C140.164 17.8982 140.181 17.9079 140.193 17.9079C140.213 17.9079 140.226 17.9079 140.232 17.9079C140.258 17.9079 140.287 17.9015 140.32 17.8885C140.359 17.8755 140.417 17.8496 140.495 17.8107ZM137.384 20.28C137.436 20.2412 137.517 20.1731 137.627 20.0759C137.737 19.9787 137.851 19.875 137.967 19.7648C138.11 19.6287 138.22 19.512 138.298 19.4148C138.382 19.3176 138.447 19.2204 138.492 19.1232C138.57 18.9676 138.609 18.8477 138.609 18.7635C138.609 18.6662 138.56 18.6112 138.463 18.5982H138.424C138.269 18.5982 138.074 18.7051 137.841 18.919C137.659 19.1005 137.494 19.3046 137.345 19.5315C137.202 19.7583 137.112 19.9333 137.073 20.0564C137.034 20.1796 137.014 20.2606 137.014 20.2995C137.014 20.3708 137.044 20.4064 137.102 20.4064C137.128 20.4064 137.167 20.3935 137.219 20.3675C137.27 20.3416 137.326 20.3124 137.384 20.28Z" fill="#1E1E1E"/>
<path fill-rule="evenodd" clip-rule="evenodd" d="M4.11205 11.8766C4.75159 14.179 9.22841 13.2836 10.0352 13.7953C9.11034 14.238 6.23731 14.7103 5.05661 14.6414C5.02709 14.671 4.99757 14.6808 4.98773 14.73C4.98773 14.7792 4.9287 14.7989 4.91886 14.8087C3.13797 16.5994 6.02084 16.4223 7.27042 16.5306C6.64071 17.1307 6.22747 16.7569 5.18452 17.1406C3.63977 17.7113 3.73816 17.1012 2.77393 17.544C2.88216 17.9572 2.40988 18.0163 4.27932 18.3311C5.71583 18.5673 9.61213 18.7444 10.842 18.5476C12.0818 18.3508 13.4494 17.9868 14.6399 17.7309C16.1256 17.4161 17.1588 17.3964 17.6802 16.1763H16.8144L17.0899 15.5466L15.309 15.4876C15.6337 15.0547 15.9092 14.9071 16.1748 14.3364C14.8564 14.3955 13.292 15.2121 11.9047 15.3302C10.7732 15.4286 7.37865 15.6057 6.62103 15.1728C8.31337 14.8087 10.1434 14.9957 11.8456 14.5922C12.5836 14.4151 13.3018 14.1495 14.0102 13.8543C14.4038 13.687 14.699 13.5591 15.0335 13.3525L15.8797 12.5457C15.4271 12.6047 15.0532 12.7917 14.6695 12.7523C13.3215 12.5949 15.4172 12.5851 13.961 12.4178L11.0978 12.3391L13.4002 11.4831C12.8 11.0797 8.46095 12.0439 6.57184 12.1817C5.31243 12.28 5.17468 12.0242 4.12189 11.8865" fill="#1E1E1E"/>
<path fill-rule="evenodd" clip-rule="evenodd" d="M10.705 20.8203C11.1379 21.2532 11.2068 21.3418 11.7873 21.6074C11.1576 22.1289 9.33735 22.1781 7.97955 22.5422C8.73716 22.9948 10.2524 22.8472 11.1576 23.1423L2.74512 23.9295C1.8596 24.0082 0.511636 23.8606 0 24.2935C1.15118 25.307 3.40434 24.7461 5.06716 24.7461C7.51711 24.7461 6.45448 25.0708 9.25864 24.6674C10.1146 24.5493 10.0556 24.3821 10.2622 24.9134L9.03234 25.1987C10.3901 25.73 14.0995 25.2184 15.6246 25.0511C18.2811 24.7658 18.104 24.8642 19.5897 23.9885C20.0325 23.7327 20.4162 23.7917 20.8885 23.5359C20.2096 23.2309 13.0664 24.4116 11.3544 24.4116C11.9152 23.9393 12.5056 24.0574 13.3517 23.8311C13.6272 23.7524 13.9519 23.6638 14.2668 23.5556L15.172 22.9948L13.3419 22.9554C14.5423 22.9357 14.6603 22.1584 16.9529 21.942C18.1434 21.8337 20.7901 22.0108 21.4493 21.4992C21.2427 19.9545 19.3634 20.4956 16.6675 20.6235C14.6898 20.7121 12.6925 20.7514 10.6952 20.84" fill="#1E1E1E"/>
<path fill-rule="evenodd" clip-rule="evenodd" d="M9.21791 1.4962C9.52292 2.20462 10.0838 3.8576 10.1133 4.66441C9.89681 4.40859 9.80826 4.42827 9.5426 4.02486L9.08016 3.24757C9.08016 3.24757 9.03096 3.17869 9.00145 3.13934C9.07032 4.21181 9.42453 4.34955 9.5426 5.27443C9.35566 5.35315 9.15887 5.36299 8.98177 5.43186C8.94241 5.4417 8.89322 5.46138 8.84402 5.48106C8.80466 5.50073 8.75547 5.52041 8.71611 5.53025C8.67676 5.54009 8.61772 5.57945 8.5882 5.58929C8.55868 5.59913 8.49965 5.6188 8.47013 5.64832L9.0408 6.63224C8.52917 6.6224 8.1356 6.56336 7.66332 6.50433C7.5059 6.48465 7.2796 6.44529 7.09265 6.46497C6.00051 6.56336 7.71252 6.30754 6.82699 6.524L6.57118 6.6224C7.28944 8.13763 9.27694 6.97661 9.9952 8.52135L7.13201 8.41312C7.14185 9.25929 7.5059 9.35768 8.3619 9.55446C8.34222 9.59382 8.28319 9.59382 8.27335 9.65285L7.72236 10.381C7.38783 10.6171 6.59085 10.4793 6.08906 10.5089C6.06938 11.3255 5.85292 11.4534 6.58102 11.6207C6.82699 11.6797 7.82075 11.5912 8.11592 11.5518C9.10968 11.4239 9.64099 11.109 10.5364 10.9221C11.3825 10.745 12.3369 10.6466 13.2126 10.5187C15.1903 10.2235 15.023 10.5285 15.8101 10.1251C15.8397 10.1153 15.8889 10.0759 15.9282 10.0464C15.7511 9.94803 15.8987 9.96771 15.4756 9.86932C15.1608 9.7906 15.1214 9.80044 14.8065 9.7906C14.3441 9.77092 14.0391 9.81028 13.5373 9.76108C13.5471 9.36752 14.1768 8.90508 14.5999 8.63942C15.3575 8.1573 15.6626 8.56071 15.9872 7.65551C14.8361 7.17339 13.8423 9.15106 10.6643 9.40688C10.7036 9.37736 10.7528 9.28881 10.7725 9.31832L11.9434 8.71813C12.4451 8.51151 12.8879 8.26553 13.3995 8.08843C13.3405 8.07859 13.124 8.0294 13.0847 8.01956C12.76 7.87197 12.9666 7.99004 12.7403 7.81293C13.0453 7.61615 13.6849 7.19307 13.7242 6.75031C13.8128 5.63848 12.9863 6.61256 11.9925 6.524C12.4058 5.72703 12.7502 5.79591 12.2877 4.89071C11.5203 5.17604 11.904 5.30395 11.2349 5.7172L10.6741 5.4417C10.9496 4.52666 11.3235 4.88087 11.3825 3.91663L10.6249 4.16261C11.0382 3.43451 11.5793 2.11607 11.412 1.23054C10.6249 1.76186 10.9791 2.1751 10.2117 2.51947C10.4281 1.59459 10.3494 1.06328 10.005 0.305664C9.84761 0.679552 9.98536 0.758265 9.79842 1.08296L9.23759 1.48636L9.21791 1.4962Z" fill="#1E1E1E"/>
<path fill-rule="evenodd" clip-rule="evenodd" d="M2.4201 25.3168C2.82351 25.8186 3.04981 25.7792 3.70903 25.8874C4.2305 25.9661 4.62407 26.1236 5.05699 26.281C8.06777 27.3731 11.8755 26.0645 14.7977 26.281C14.3353 26.527 9.67155 27.4715 8.80571 27.6191C6.15898 28.0717 4.9586 28.1701 2.13477 28.2783C2.28235 28.4358 2.21348 28.3964 2.44962 28.5342L3.62048 28.908C4.22066 29.036 4.77166 29.1343 5.40136 29.1639C6.64109 29.2131 15.4668 29.341 15.7029 27.8946L15.6538 27.6388C17.6609 27.0485 20.8685 26.9402 21.0948 24.8937C20.2782 24.8937 19.9043 25.179 19.1762 25.3364C18.4186 25.4939 17.6511 25.3856 16.7754 25.5037C15.2503 25.7202 13.6761 25.7497 12.0723 25.7497C10.498 25.7497 8.68764 25.8382 7.14289 25.6808C5.76541 25.5431 3.83694 25.3758 2.42994 25.3266" fill="#1E1E1E"/>
<path fill-rule="evenodd" clip-rule="evenodd" d="M5.61768 30.2364C6.28674 31.6926 8.5399 30.5119 9.79931 30.7579C11.6589 31.1318 9.43527 33.503 11.472 34.2114C11.8754 33.139 11.5507 32.6765 11.4326 31.604L14.1187 31.5548C13.9022 30.935 13.6759 30.9055 13.6366 30.2462C15.5651 29.9511 19.1367 29.8625 19.5991 27.5798C17.2377 28.1505 16.5293 28.6523 13.1053 29.3312C10.5766 29.8232 8.25457 29.9707 5.61768 30.2266" fill="#1E1E1E"/>
<path fill-rule="evenodd" clip-rule="evenodd" d="M0.698421 18.6459C1.10183 19.1477 1.32813 19.1083 1.98735 19.2165C2.50882 19.2952 2.90239 19.4527 3.33531 19.6101C6.34609 20.7022 10.1538 19.3936 13.0761 19.6101C12.6136 19.8561 7.94987 20.8006 7.08403 20.9482C4.4373 21.4008 3.23692 21.4992 0.413086 21.6074C0.560673 21.7649 0.491799 21.7255 0.727938 21.8633L1.8988 22.2372C2.49899 22.3651 3.04998 22.4635 3.67968 22.493C4.91941 22.5422 13.7451 22.6701 13.9813 21.2237L13.9321 20.9679C15.9393 20.3776 19.1468 20.2693 19.3731 18.2228C18.5565 18.2228 18.1826 18.5081 17.4545 18.6655C16.6969 18.823 15.9294 18.7147 15.0537 18.8328C13.5287 19.0493 11.9544 19.0788 10.3506 19.0788C8.77636 19.0788 6.96596 19.1673 5.42121 19.0099C4.04373 18.8722 2.11526 18.7049 0.708261 18.6557" fill="#1E1E1E"/>
</g>
</svg>
