<svg width="19" height="12" viewBox="0 0 19 12" fill="none" xmlns="http://www.w3.org/2000/svg">
<path fill-rule="evenodd" clip-rule="evenodd" d="M1.38462 9.23077C1.75184 9.23077 2.10402 9.37665 2.36369 9.63631C2.62335 9.89598 2.76923 10.2482 2.76923 10.6154C2.76923 10.9826 2.62335 11.3348 2.36369 11.5945C2.10402 11.8541 1.75184 12 1.38462 12C1.01739 12 0.66521 11.8541 0.405544 11.5945C0.145879 11.3348 0 10.9826 0 10.6154C0 10.2482 0.145879 9.89598 0.405544 9.63631C0.66521 9.37665 1.01739 9.23077 1.38462 9.23077ZM17.9991 9.69231C18.5095 9.69231 18.9231 10.1022 18.9231 10.6154C18.9231 11.1254 18.5123 11.5385 17.9991 11.5385H5.07785C4.95648 11.5388 4.83624 11.5152 4.72403 11.469C4.61182 11.4227 4.50985 11.3547 4.42399 11.269C4.33813 11.1832 4.27006 11.0813 4.2237 10.9691C4.17734 10.857 4.1536 10.7368 4.15385 10.6154C4.15385 10.1054 4.56462 9.69231 5.07785 9.69231H17.9991ZM1.38462 4.61538C1.75184 4.61538 2.10402 4.76126 2.36369 5.02093C2.62335 5.28059 2.76923 5.63278 2.76923 6C2.76923 6.36722 2.62335 6.71941 2.36369 6.97907C2.10402 7.23874 1.75184 7.38462 1.38462 7.38462C1.01739 7.38462 0.66521 7.23874 0.405544 6.97907C0.145879 6.71941 0 6.36722 0 6C0 5.63278 0.145879 5.28059 0.405544 5.02093C0.66521 4.76126 1.01739 4.61538 1.38462 4.61538ZM17.9991 5.07692C18.5095 5.07692 18.9231 5.48677 18.9231 6C18.9231 6.51 18.5123 6.92308 17.9991 6.92308H5.07785C4.95648 6.92344 4.83624 6.89982 4.72403 6.85357C4.61182 6.80733 4.50985 6.73936 4.42399 6.65358C4.33813 6.56781 4.27006 6.46591 4.2237 6.35375C4.17734 6.24159 4.1536 6.12137 4.15385 6C4.15385 5.49 4.56462 5.07692 5.07785 5.07692H17.9991ZM1.38462 0C1.75184 0 2.10402 0.145879 2.36369 0.405544C2.62335 0.66521 2.76923 1.01739 2.76923 1.38462C2.76923 1.75184 2.62335 2.10402 2.36369 2.36369C2.10402 2.62335 1.75184 2.76923 1.38462 2.76923C1.01739 2.76923 0.66521 2.62335 0.405544 2.36369C0.145879 2.10402 0 1.75184 0 1.38462C0 1.01739 0.145879 0.66521 0.405544 0.405544C0.66521 0.145879 1.01739 0 1.38462 0ZM17.9991 0.461538C18.5095 0.461538 18.9231 0.871385 18.9231 1.38462C18.9231 1.89462 18.5123 2.30769 17.9991 2.30769H5.07785C4.95648 2.30806 4.83624 2.28444 4.72403 2.23819C4.61182 2.19194 4.50985 2.12398 4.42399 2.0382C4.33813 1.95242 4.27006 1.85053 4.2237 1.73836C4.17734 1.6262 4.1536 1.50598 4.15385 1.38462C4.15385 0.874615 4.56462 0.461538 5.07785 0.461538H17.9991Z" fill="black"/>
</svg>
