<svg width="489" height="149" viewBox="0 0 489 149" fill="none" xmlns="http://www.w3.org/2000/svg">
<path opacity="0.5" d="M11.025 5.41758L8.946 6.02658C8.82 5.52258 8.491 5.10258 7.959 4.76658C7.441 4.43058 6.832 4.26258 6.132 4.26258C5.376 4.26258 4.732 4.45158 4.2 4.82958C3.682 5.20758 3.423 5.67658 3.423 6.23658C3.423 6.83858 3.787 7.32858 4.515 7.70658C4.893 7.88858 5.278 8.03558 5.67 8.14758L7.245 8.58858C8.225 8.85458 8.974 9.12058 9.492 9.38658C10.122 9.68058 10.598 10.0796 10.92 10.5836C11.256 11.0876 11.452 11.7596 11.508 12.5996C11.508 13.9016 11.025 14.9516 10.059 15.7496C9.079 16.5336 7.833 16.9256 6.321 16.9256C4.949 16.9256 3.78 16.6106 2.814 15.9806C1.834 15.3226 1.211 14.5036 0.945 13.5236L3.024 12.8936C3.15 13.4676 3.521 13.9506 4.137 14.3426C4.753 14.7206 5.488 14.9096 6.342 14.9096C7.224 14.9096 7.952 14.7136 8.526 14.3216C9.114 13.9156 9.408 13.3976 9.408 12.7676C9.408 12.3616 9.247 11.9976 8.925 11.6756C8.645 11.3956 8.344 11.1856 8.022 11.0456C7.7 10.9056 7.238 10.7656 6.636 10.6256C4.942 10.1356 3.815 9.73658 3.255 9.42858C1.981 8.74258 1.344 7.72058 1.344 6.36258C1.344 5.14458 1.785 4.15758 2.667 3.40158C3.563 2.63158 4.704 2.24658 6.09 2.24658C7.336 2.24658 8.407 2.54758 9.303 3.14958C10.199 3.75158 10.773 4.50758 11.025 5.41758ZM22.8257 12.6416H15.0137C15.1677 13.3696 15.5247 13.9716 16.0847 14.4476C16.6587 14.9096 17.3377 15.1406 18.1217 15.1406C19.1717 15.1406 20.0047 14.7486 20.6207 13.9646L22.4687 14.5316C22.0487 15.2596 21.4467 15.8406 20.6627 16.2746C19.8927 16.7086 19.0457 16.9256 18.1217 16.9256C16.6937 16.9256 15.4897 16.4496 14.5097 15.4976C13.5437 14.5456 13.0607 13.3626 13.0607 11.9486C13.0607 10.5206 13.5297 9.33758 14.4677 8.39958C15.4197 7.44758 16.5887 6.97158 17.9747 6.97158C19.3467 6.97158 20.5087 7.44758 21.4607 8.39958C22.3987 9.33758 22.8677 10.5206 22.8677 11.9486C22.8677 12.2146 22.8537 12.4456 22.8257 12.6416ZM15.0347 11.1296H20.9147C20.7467 10.4156 20.3897 9.84158 19.8437 9.40758C19.2977 8.97358 18.6607 8.75658 17.9327 8.75658C17.2327 8.75658 16.6097 8.98058 16.0637 9.42858C15.5317 9.86258 15.1887 10.4296 15.0347 11.1296ZM26.5474 7.22358V8.58858C27.2614 7.51058 28.2904 6.97158 29.6344 6.97158C29.7884 6.97158 29.8864 6.97858 29.9284 6.99258V9.11358C29.7184 9.01558 29.4384 8.96658 29.0884 8.96658C28.3604 8.96658 27.7514 9.19758 27.2614 9.65958C26.7854 10.1216 26.5474 10.7026 26.5474 11.4026V16.6736H24.6574V7.22358H26.5474ZM34.4905 16.6736L30.5005 7.22358H32.4745L35.3725 14.2376L38.2705 7.22358H40.2445L36.2545 16.6736H34.4905ZM43.5484 16.6736H41.6584V7.22358H43.5484V16.6736ZM42.6034 2.93958C42.9534 2.93958 43.2474 3.05858 43.4854 3.29658C43.7234 3.53458 43.8424 3.82858 43.8424 4.17858C43.8424 4.73858 43.5834 5.12358 43.0654 5.33358C42.5474 5.54358 42.0924 5.45958 41.7004 5.08158C41.3224 4.68958 41.2384 4.23458 41.4484 3.71658C41.6584 3.19858 42.0434 2.93958 42.6034 2.93958ZM55.0175 9.95358L53.1065 10.5416C52.8685 10.0376 52.5115 9.63858 52.0355 9.34458C51.5595 9.03658 51.0275 8.88258 50.4395 8.88258C49.5715 8.88258 48.8575 9.17658 48.2975 9.76458C47.7375 10.3386 47.4575 11.0666 47.4575 11.9486C47.4575 12.8306 47.7375 13.5586 48.2975 14.1326C48.8575 14.7206 49.5715 15.0146 50.4395 15.0146C51.0275 15.0146 51.5595 14.8676 52.0355 14.5736C52.5115 14.2656 52.8685 13.8596 53.1065 13.3556L55.0175 13.9226C54.6395 14.8466 54.0375 15.5816 53.2115 16.1276C52.3995 16.6596 51.4755 16.9256 50.4395 16.9256C49.0255 16.9256 47.8425 16.4496 46.8905 15.4976C45.9525 14.5596 45.4835 13.3766 45.4835 11.9486C45.4835 10.5206 45.9525 9.33758 46.8905 8.39958C47.8425 7.44758 49.0255 6.97158 50.4395 6.97158C51.4895 6.97158 52.4205 7.23758 53.2325 7.76958C54.0445 8.30158 54.6395 9.02958 55.0175 9.95358ZM66.0767 12.6416H58.2647C58.4187 13.3696 58.7757 13.9716 59.3357 14.4476C59.9097 14.9096 60.5887 15.1406 61.3727 15.1406C62.4227 15.1406 63.2557 14.7486 63.8717 13.9646L65.7197 14.5316C65.2997 15.2596 64.6977 15.8406 63.9137 16.2746C63.1437 16.7086 62.2967 16.9256 61.3727 16.9256C59.9447 16.9256 58.7407 16.4496 57.7607 15.4976C56.7947 14.5456 56.3117 13.3626 56.3117 11.9486C56.3117 10.5206 56.7807 9.33758 57.7187 8.39958C58.6707 7.44758 59.8397 6.97158 61.2257 6.97158C62.5977 6.97158 63.7597 7.44758 64.7117 8.39958C65.6497 9.33758 66.1187 10.5206 66.1187 11.9486C66.1187 12.2146 66.1047 12.4456 66.0767 12.6416ZM58.2857 11.1296H64.1657C63.9977 10.4156 63.6407 9.84158 63.0947 9.40758C62.5487 8.97358 61.9117 8.75658 61.1837 8.75658C60.4837 8.75658 59.8607 8.98058 59.3147 9.42858C58.7827 9.86258 58.4397 10.4296 58.2857 11.1296ZM74.6074 9.38658L72.8434 9.70158C72.6054 9.00158 71.9894 8.65158 70.9954 8.65158C70.5334 8.65158 70.1554 8.74958 69.8614 8.94558C69.5674 9.12758 69.4204 9.36558 69.4204 9.65958C69.4204 10.0516 69.7284 10.3666 70.3444 10.6046L72.4654 11.3396C74.0054 11.8856 74.7754 12.7886 74.7754 14.0486C74.7754 14.9586 74.4394 15.6656 73.7674 16.1696C73.0954 16.6736 72.2204 16.9256 71.1424 16.9256C70.0784 16.9256 69.2104 16.6876 68.5384 16.2116C67.8664 15.7356 67.4674 15.0916 67.3414 14.2796L69.1474 14.0066C69.2174 14.3846 69.4344 14.6856 69.7984 14.9096C70.1764 15.1336 70.6384 15.2456 71.1844 15.2456C71.7024 15.2456 72.1294 15.1406 72.4654 14.9306C72.8014 14.7206 72.9694 14.4476 72.9694 14.1116C72.9694 13.6496 72.5844 13.2856 71.8144 13.0196L69.7144 12.3266C68.3004 11.8366 67.5934 10.9966 67.5934 9.80658C67.5934 8.89658 67.9154 8.19658 68.5594 7.70658C69.2034 7.21658 70.0644 6.97158 71.1424 6.97158C72.1084 6.97158 72.8994 7.18858 73.5154 7.62258C74.1314 8.05658 74.4954 8.64458 74.6074 9.38658Z" fill="#1E1E1E"/>
<rect x="136" y="47.5886" width="191" height="41" rx="20.5" fill="#F2F2F2"/>
<path d="M167.873 68.2876V72.5886H166.173V61.1136H171.239C172.316 61.1136 173.217 61.4593 173.942 62.1506C174.667 62.8306 175.03 63.6806 175.03 64.7006C175.03 65.7206 174.667 66.5763 173.942 67.2676C173.217 67.9476 172.316 68.2876 171.239 68.2876H167.873ZM171.239 62.6946H167.873V66.7236H171.239C171.817 66.7236 172.299 66.531 172.684 66.1456C173.081 65.7603 173.279 65.2786 173.279 64.7006C173.279 64.1226 173.081 63.6466 172.684 63.2726C172.299 62.8873 171.817 62.6946 171.239 62.6946ZM183.445 69.3246H177.121C177.245 69.914 177.534 70.4013 177.988 70.7866C178.452 71.1606 179.002 71.3476 179.637 71.3476C180.487 71.3476 181.161 71.0303 181.66 70.3956L183.156 70.8546C182.816 71.444 182.328 71.9143 181.694 72.2656C181.07 72.617 180.385 72.7926 179.637 72.7926C178.481 72.7926 177.506 72.4073 176.713 71.6366C175.931 70.866 175.54 69.9083 175.54 68.7636C175.54 67.6076 175.919 66.65 176.679 65.8906C177.449 65.12 178.396 64.7346 179.518 64.7346C180.628 64.7346 181.569 65.12 182.34 65.8906C183.099 66.65 183.479 67.6076 183.479 68.7636C183.479 68.979 183.467 69.166 183.445 69.3246ZM177.138 68.1006H181.898C181.762 67.5226 181.473 67.058 181.031 66.7066C180.589 66.3553 180.073 66.1796 179.484 66.1796C178.917 66.1796 178.413 66.361 177.971 66.7236C177.54 67.075 177.262 67.534 177.138 68.1006ZM186.458 64.9386V66.0436C187.036 65.171 187.869 64.7346 188.957 64.7346C189.081 64.7346 189.161 64.7403 189.195 64.7516V66.4686C189.025 66.3893 188.798 66.3496 188.515 66.3496C187.925 66.3496 187.432 66.5366 187.036 66.9106C186.65 67.2846 186.458 67.755 186.458 68.3216V72.5886H184.928V64.9386H186.458ZM195.663 66.6896L194.235 66.9446C194.042 66.378 193.544 66.0946 192.739 66.0946C192.365 66.0946 192.059 66.174 191.821 66.3326C191.583 66.48 191.464 66.6726 191.464 66.9106C191.464 67.228 191.713 67.483 192.212 67.6756L193.929 68.2706C195.176 68.7126 195.799 69.4436 195.799 70.4636C195.799 71.2003 195.527 71.7726 194.983 72.1806C194.439 72.5886 193.731 72.7926 192.858 72.7926C191.997 72.7926 191.294 72.6 190.75 72.2146C190.206 71.8293 189.883 71.308 189.781 70.6506L191.243 70.4296C191.3 70.7356 191.475 70.9793 191.77 71.1606C192.076 71.342 192.45 71.4326 192.892 71.4326C193.311 71.4326 193.657 71.3476 193.929 71.1776C194.201 71.0076 194.337 70.7866 194.337 70.5146C194.337 70.1406 194.025 69.846 193.402 69.6306L191.702 69.0696C190.557 68.673 189.985 67.993 189.985 67.0296C189.985 66.293 190.246 65.7263 190.767 65.3296C191.288 64.933 191.985 64.7346 192.858 64.7346C193.64 64.7346 194.28 64.9103 194.779 65.2616C195.278 65.613 195.572 66.089 195.663 66.6896ZM198.095 71.6366C197.335 70.8773 196.956 69.9196 196.956 68.7636C196.956 67.6076 197.335 66.65 198.095 65.8906C198.865 65.12 199.823 64.7346 200.968 64.7346C202.112 64.7346 203.07 65.12 203.841 65.8906C204.611 66.6613 204.997 67.619 204.997 68.7636C204.997 69.9083 204.611 70.866 203.841 71.6366C203.07 72.4073 202.112 72.7926 200.968 72.7926C199.823 72.7926 198.865 72.4073 198.095 71.6366ZM199.234 66.9956C198.78 67.4603 198.554 68.0496 198.554 68.7636C198.554 69.4776 198.78 70.067 199.234 70.5316C199.687 71.0076 200.265 71.2456 200.968 71.2456C201.648 71.2456 202.22 71.0076 202.685 70.5316C203.149 70.0443 203.382 69.455 203.382 68.7636C203.382 68.0723 203.149 67.483 202.685 66.9956C202.22 66.5196 201.648 66.2816 200.968 66.2816C200.265 66.2816 199.687 66.5196 199.234 66.9956ZM206.543 72.5886V64.9386H208.073V66.0436C208.651 65.171 209.484 64.7346 210.572 64.7346C211.456 64.7346 212.187 65.0236 212.765 65.6016C213.343 66.157 213.632 66.871 213.632 67.7436V72.5886H212.085V68.1856C212.085 67.619 211.898 67.1486 211.524 66.7746C211.15 66.4006 210.685 66.2136 210.13 66.2136C209.552 66.2136 209.064 66.4063 208.668 66.7916C208.271 67.1656 208.073 67.636 208.073 68.2026V72.5886H206.543ZM218.941 64.7346C219.927 64.7346 220.772 65.069 221.474 65.7376V64.9386H223.004V72.5886H221.474V71.7896C220.772 72.4583 219.927 72.7926 218.941 72.7926C217.887 72.7926 216.992 72.4073 216.255 71.6366C215.541 70.8773 215.184 69.9196 215.184 68.7636C215.184 67.619 215.541 66.6613 216.255 65.8906C216.992 65.12 217.887 64.7346 218.941 64.7346ZM220.76 66.9956C220.318 66.5196 219.769 66.2816 219.111 66.2816C218.465 66.2816 217.91 66.5196 217.445 66.9956C217.003 67.4716 216.782 68.061 216.782 68.7636C216.782 69.4663 217.003 70.0556 217.445 70.5316C217.91 71.0076 218.465 71.2456 219.111 71.2456C219.769 71.2456 220.318 71.0076 220.76 70.5316C221.214 70.067 221.44 69.4776 221.44 68.7636C221.44 68.0496 221.214 67.4603 220.76 66.9956ZM226.434 72.5886H224.904V60.2636H226.434V72.5886ZM238.708 72.5886H232.911V61.1136H238.385C239.349 61.1136 240.148 61.4026 240.782 61.9806C241.428 62.5586 241.751 63.284 241.751 64.1566C241.751 65.1313 241.343 65.9246 240.527 66.5366C241.071 66.8086 241.496 67.194 241.802 67.6926C242.12 68.1913 242.278 68.741 242.278 69.3416C242.278 70.2596 241.938 71.036 241.258 71.6706C240.578 72.2826 239.728 72.5886 238.708 72.5886ZM238.708 67.4376H234.611V71.0076H238.708C239.23 71.0076 239.66 70.8376 240 70.4976C240.352 70.1576 240.527 69.7326 240.527 69.2226C240.527 68.7126 240.352 68.2876 240 67.9476C239.66 67.6076 239.23 67.4376 238.708 67.4376ZM238.385 62.6946H234.611V65.8566H238.385C238.85 65.8566 239.235 65.7093 239.541 65.4146C239.847 65.1086 240 64.729 240 64.2756C240 63.8223 239.847 63.4483 239.541 63.1536C239.235 62.8476 238.85 62.6946 238.385 62.6946ZM245.509 64.9386V66.0436C246.087 65.171 246.92 64.7346 248.008 64.7346C248.133 64.7346 248.212 64.7403 248.246 64.7516V66.4686C248.076 66.3893 247.85 66.3496 247.566 66.3496C246.977 66.3496 246.484 66.5366 246.087 66.9106C245.702 67.2846 245.509 67.755 245.509 68.3216V72.5886H243.979V64.9386H245.509ZM252.626 64.7346C253.612 64.7346 254.456 65.069 255.159 65.7376V64.9386H256.689V72.5886H255.159V71.7896C254.456 72.4583 253.612 72.7926 252.626 72.7926C251.572 72.7926 250.677 72.4073 249.94 71.6366C249.226 70.8773 248.869 69.9196 248.869 68.7636C248.869 67.619 249.226 66.6613 249.94 65.8906C250.677 65.12 251.572 64.7346 252.626 64.7346ZM254.445 66.9956C254.003 66.5196 253.453 66.2816 252.796 66.2816C252.15 66.2816 251.595 66.5196 251.13 66.9956C250.688 67.4716 250.467 68.061 250.467 68.7636C250.467 69.4663 250.688 70.0556 251.13 70.5316C251.595 71.0076 252.15 71.2456 252.796 71.2456C253.453 71.2456 254.003 71.0076 254.445 70.5316C254.898 70.067 255.125 69.4776 255.125 68.7636C255.125 68.0496 254.898 67.4603 254.445 66.9956ZM258.589 72.5886V64.9386H260.119V66.0436C260.697 65.171 261.53 64.7346 262.618 64.7346C263.502 64.7346 264.233 65.0236 264.811 65.6016C265.389 66.157 265.678 66.871 265.678 67.7436V72.5886H264.131V68.1856C264.131 67.619 263.944 67.1486 263.57 66.7746C263.196 66.4006 262.731 66.2136 262.176 66.2136C261.598 66.2136 261.11 66.4063 260.714 66.7916C260.317 67.1656 260.119 67.636 260.119 68.2026V72.5886H258.589ZM270.987 64.7346C271.973 64.7346 272.817 65.069 273.52 65.7376V60.2636H275.05V72.5886H273.52V71.7896C272.817 72.4583 271.973 72.7926 270.987 72.7926C269.933 72.7926 269.038 72.4073 268.301 71.6366C267.587 70.8773 267.23 69.9196 267.23 68.7636C267.23 67.619 267.587 66.6613 268.301 65.8906C269.038 65.12 269.933 64.7346 270.987 64.7346ZM272.806 66.9956C272.364 66.5196 271.814 66.2816 271.157 66.2816C270.511 66.2816 269.956 66.5196 269.491 66.9956C269.049 67.4716 268.828 68.061 268.828 68.7636C268.828 69.4663 269.049 70.0556 269.491 70.5316C269.956 71.0076 270.511 71.2456 271.157 71.2456C271.814 71.2456 272.364 71.0076 272.806 70.5316C273.259 70.067 273.486 69.4776 273.486 68.7636C273.486 68.0496 273.259 67.4603 272.806 66.9956ZM278.48 72.5886H276.95V64.9386H278.48V72.5886ZM277.715 61.4706C277.998 61.4706 278.236 61.567 278.429 61.7596C278.622 61.9523 278.718 62.1903 278.718 62.4736C278.718 62.927 278.508 63.2386 278.089 63.4086C277.67 63.5786 277.301 63.5106 276.984 63.2046C276.678 62.8873 276.61 62.519 276.78 62.0996C276.95 61.6803 277.262 61.4706 277.715 61.4706ZM280.387 72.5886V64.9386H281.917V66.0436C282.495 65.171 283.328 64.7346 284.416 64.7346C285.3 64.7346 286.031 65.0236 286.609 65.6016C287.187 66.157 287.476 66.871 287.476 67.7436V72.5886H285.929V68.1856C285.929 67.619 285.742 67.1486 285.368 66.7746C284.994 66.4006 284.529 66.2136 283.974 66.2136C283.396 66.2136 282.908 66.4063 282.512 66.7916C282.115 67.1656 281.917 67.636 281.917 68.2026V72.5886H280.387ZM292.785 72.7926C291.731 72.7926 290.836 72.4073 290.099 71.6366C289.385 70.8773 289.028 69.9196 289.028 68.7636C289.028 67.619 289.385 66.6613 290.099 65.8906C290.836 65.12 291.731 64.7346 292.785 64.7346C293.771 64.7346 294.615 65.069 295.318 65.7376V64.9386H296.848V72.7756C296.848 73.875 296.474 74.7873 295.726 75.5126C294.989 76.2493 294.071 76.6176 292.972 76.6176C292.167 76.6176 291.425 76.4136 290.745 76.0056C290.065 75.5976 289.589 75.0706 289.317 74.4246L290.864 73.9656C291.023 74.2943 291.295 74.5606 291.68 74.7646C292.065 74.98 292.479 75.0876 292.921 75.0876C293.59 75.0876 294.156 74.8666 294.621 74.4246C295.086 73.9826 295.318 73.433 295.318 72.7756V71.7896C294.615 72.4583 293.771 72.7926 292.785 72.7926ZM292.955 66.2816C292.286 66.2816 291.725 66.5196 291.272 66.9956C290.83 67.4716 290.609 68.061 290.609 68.7636C290.609 69.4663 290.83 70.0556 291.272 70.5316C291.725 71.0076 292.286 71.2456 292.955 71.2456C293.612 71.2456 294.162 71.0076 294.604 70.5316C295.057 70.067 295.284 69.4776 295.284 68.7636C295.284 68.0496 295.057 67.4603 294.604 66.9956C294.162 66.5196 293.612 66.2816 292.955 66.2816Z" fill="black"/>
<rect x="0.463867" y="47.5886" width="125" height="41" rx="20.5" fill="#F2F2F2"/>
<path d="M36.4339 72.5886H30.6369V61.1136H36.1109C37.0742 61.1136 37.8732 61.4026 38.5079 61.9806C39.1539 62.5586 39.4769 63.284 39.4769 64.1566C39.4769 65.1313 39.0689 65.9246 38.2529 66.5366C38.7969 66.8086 39.2219 67.194 39.5279 67.6926C39.8452 68.1913 40.0039 68.741 40.0039 69.3416C40.0039 70.2596 39.6639 71.036 38.9839 71.6706C38.3039 72.2826 37.4539 72.5886 36.4339 72.5886ZM36.4339 67.4376H32.3369V71.0076H36.4339C36.9552 71.0076 37.3859 70.8376 37.7259 70.4976C38.0772 70.1576 38.2529 69.7326 38.2529 69.2226C38.2529 68.7126 38.0772 68.2876 37.7259 67.9476C37.3859 67.6076 36.9552 67.4376 36.4339 67.4376ZM36.1109 62.6946H32.3369V65.8566H36.1109C36.5755 65.8566 36.9609 65.7093 37.2669 65.4146C37.5729 65.1086 37.7259 64.729 37.7259 64.2756C37.7259 63.8223 37.5729 63.4483 37.2669 63.1536C36.9609 62.8476 36.5755 62.6946 36.1109 62.6946ZM43.2349 64.9386V66.0436C43.8129 65.171 44.6459 64.7346 45.7339 64.7346C45.8586 64.7346 45.9379 64.7403 45.9719 64.7516V66.4686C45.8019 66.3893 45.5753 66.3496 45.2919 66.3496C44.7026 66.3496 44.2096 66.5366 43.8129 66.9106C43.4276 67.2846 43.2349 67.755 43.2349 68.3216V72.5886H41.7049V64.9386H43.2349ZM50.3514 64.7346C51.3374 64.7346 52.1818 65.069 52.8844 65.7376V64.9386H54.4144V72.5886H52.8844V71.7896C52.1818 72.4583 51.3374 72.7926 50.3514 72.7926C49.2974 72.7926 48.4021 72.4073 47.6654 71.6366C46.9514 70.8773 46.5944 69.9196 46.5944 68.7636C46.5944 67.619 46.9514 66.6613 47.6654 65.8906C48.4021 65.12 49.2974 64.7346 50.3514 64.7346ZM52.1704 66.9956C51.7284 66.5196 51.1788 66.2816 50.5214 66.2816C49.8754 66.2816 49.3201 66.5196 48.8554 66.9956C48.4134 67.4716 48.1924 68.061 48.1924 68.7636C48.1924 69.4663 48.4134 70.0556 48.8554 70.5316C49.3201 71.0076 49.8754 71.2456 50.5214 71.2456C51.1788 71.2456 51.7284 71.0076 52.1704 70.5316C52.6238 70.067 52.8504 69.4776 52.8504 68.7636C52.8504 68.0496 52.6238 67.4603 52.1704 66.9956ZM56.3143 72.5886V64.9386H57.8443V66.0436C58.4223 65.171 59.2553 64.7346 60.3433 64.7346C61.2273 64.7346 61.9583 65.0236 62.5363 65.6016C63.1143 66.157 63.4033 66.871 63.4033 67.7436V72.5886H61.8563V68.1856C61.8563 67.619 61.6693 67.1486 61.2953 66.7746C60.9213 66.4006 60.4566 66.2136 59.9013 66.2136C59.3233 66.2136 58.836 66.4063 58.4393 66.7916C58.0426 67.1656 57.8443 67.636 57.8443 68.2026V72.5886H56.3143ZM68.7127 64.7346C69.6988 64.7346 70.5431 65.069 71.2458 65.7376V60.2636H72.7758V72.5886H71.2458V71.7896C70.5431 72.4583 69.6988 72.7926 68.7127 72.7926C67.6588 72.7926 66.7634 72.4073 66.0268 71.6366C65.3128 70.8773 64.9558 69.9196 64.9558 68.7636C64.9558 67.619 65.3128 66.6613 66.0268 65.8906C66.7634 65.12 67.6588 64.7346 68.7127 64.7346ZM70.5318 66.9956C70.0898 66.5196 69.5401 66.2816 68.8828 66.2816C68.2368 66.2816 67.6814 66.5196 67.2168 66.9956C66.7748 67.4716 66.5538 68.061 66.5538 68.7636C66.5538 69.4663 66.7748 70.0556 67.2168 70.5316C67.6814 71.0076 68.2368 71.2456 68.8828 71.2456C69.5401 71.2456 70.0898 71.0076 70.5318 70.5316C70.9851 70.067 71.2118 69.4776 71.2118 68.7636C71.2118 68.0496 70.9851 67.4603 70.5318 66.9956ZM76.2056 72.5886H74.6756V64.9386H76.2056V72.5886ZM75.4406 61.4706C75.724 61.4706 75.962 61.567 76.1546 61.7596C76.3473 61.9523 76.4436 62.1903 76.4436 62.4736C76.4436 62.927 76.234 63.2386 75.8146 63.4086C75.3953 63.5786 75.027 63.5106 74.7096 63.2046C74.4036 62.8873 74.3356 62.519 74.5056 62.0996C74.6756 61.6803 74.9873 61.4706 75.4406 61.4706ZM78.1122 72.5886V64.9386H79.6422V66.0436C80.2202 65.171 81.0532 64.7346 82.1412 64.7346C83.0252 64.7346 83.7562 65.0236 84.3342 65.6016C84.9122 66.157 85.2012 66.871 85.2012 67.7436V72.5886H83.6542V68.1856C83.6542 67.619 83.4672 67.1486 83.0932 66.7746C82.7192 66.4006 82.2545 66.2136 81.6992 66.2136C81.1212 66.2136 80.6338 66.4063 80.2372 66.7916C79.8405 67.1656 79.6422 67.636 79.6422 68.2026V72.5886H78.1122ZM90.5106 72.7926C89.4566 72.7926 88.5613 72.4073 87.8246 71.6366C87.1106 70.8773 86.7536 69.9196 86.7536 68.7636C86.7536 67.619 87.1106 66.6613 87.8246 65.8906C88.5613 65.12 89.4566 64.7346 90.5106 64.7346C91.4966 64.7346 92.3409 65.069 93.0436 65.7376V64.9386H94.5736V72.7756C94.5736 73.875 94.1996 74.7873 93.4516 75.5126C92.7149 76.2493 91.7969 76.6176 90.6976 76.6176C89.8929 76.6176 89.1506 76.4136 88.4706 76.0056C87.7906 75.5976 87.3146 75.0706 87.0426 74.4246L88.5896 73.9656C88.7483 74.2943 89.0203 74.5606 89.4056 74.7646C89.7909 74.98 90.2046 75.0876 90.6466 75.0876C91.3153 75.0876 91.8819 74.8666 92.3466 74.4246C92.8113 73.9826 93.0436 73.433 93.0436 72.7756V71.7896C92.3409 72.4583 91.4966 72.7926 90.5106 72.7926ZM90.6806 66.2816C90.0119 66.2816 89.4509 66.5196 88.9976 66.9956C88.5556 67.4716 88.3346 68.061 88.3346 68.7636C88.3346 69.4663 88.5556 70.0556 88.9976 70.5316C89.4509 71.0076 90.0119 71.2456 90.6806 71.2456C91.3379 71.2456 91.8876 71.0076 92.3296 70.5316C92.7829 70.067 93.0096 69.4776 93.0096 68.7636C93.0096 68.0496 92.7829 67.4603 92.3296 66.9956C91.8876 66.5196 91.3379 66.2816 90.6806 66.2816Z" fill="black"/>
<rect x="240" y="107.316" width="178" height="41" rx="20.5" fill="#F2F2F2"/>
<path d="M269.782 126.587C269.782 124.898 270.354 123.481 271.499 122.337C272.644 121.203 274.083 120.637 275.817 120.637C276.973 120.637 278.016 120.909 278.945 121.453C279.886 121.997 280.611 122.745 281.121 123.697L279.472 124.326C279.109 123.68 278.605 123.175 277.959 122.813C277.313 122.45 276.599 122.269 275.817 122.269C274.604 122.269 273.584 122.682 272.757 123.51C271.941 124.326 271.533 125.351 271.533 126.587C271.533 127.799 271.924 128.825 272.706 129.664C273.511 130.48 274.485 130.888 275.63 130.888C276.616 130.888 277.477 130.593 278.214 130.004C278.962 129.403 279.438 128.644 279.642 127.726H275.375V126.145H281.546C281.569 126.439 281.58 126.609 281.58 126.655C281.569 128.309 280.996 129.703 279.863 130.837C278.741 131.959 277.347 132.52 275.681 132.52C274.004 132.52 272.598 131.953 271.465 130.82C270.343 129.686 269.782 128.275 269.782 126.587ZM284.83 124.666V125.771C285.408 124.898 286.241 124.462 287.329 124.462C287.453 124.462 287.533 124.467 287.567 124.479V126.196C287.397 126.116 287.17 126.077 286.887 126.077C286.297 126.077 285.804 126.264 285.408 126.638C285.022 127.012 284.83 127.482 284.83 128.049V132.316H283.3V124.666H284.83ZM289.328 131.364C288.569 130.604 288.189 129.647 288.189 128.491C288.189 127.335 288.569 126.377 289.328 125.618C290.099 124.847 291.056 124.462 292.201 124.462C293.346 124.462 294.303 124.847 295.074 125.618C295.845 126.388 296.23 127.346 296.23 128.491C296.23 129.635 295.845 130.593 295.074 131.364C294.303 132.134 293.346 132.52 292.201 132.52C291.056 132.52 290.099 132.134 289.328 131.364ZM290.467 126.723C290.014 127.187 289.787 127.777 289.787 128.491C289.787 129.205 290.014 129.794 290.467 130.259C290.92 130.735 291.498 130.973 292.201 130.973C292.881 130.973 293.453 130.735 293.918 130.259C294.383 129.771 294.615 129.182 294.615 128.491C294.615 127.799 294.383 127.21 293.918 126.723C293.453 126.247 292.881 126.009 292.201 126.009C291.498 126.009 290.92 126.247 290.467 126.723ZM300.606 132.316H299.246L296.696 124.666H298.26L299.926 129.936L301.575 124.666H302.952L304.618 129.936L306.267 124.666H307.814L305.281 132.316H303.904L302.272 127.216L300.606 132.316ZM308.201 126.026V124.666H309.357V123.136H310.904V124.666H312.978V126.026H310.904V129.783C310.904 130.077 311 130.327 311.193 130.531C311.386 130.735 311.624 130.837 311.907 130.837H312.978V132.316H311.805C311.114 132.316 310.53 132.095 310.054 131.653C309.589 131.188 309.357 130.627 309.357 129.97V126.026H308.201ZM314.411 132.316V119.991H315.941V125.771C316.519 124.898 317.369 124.462 318.491 124.462C319.375 124.462 320.117 124.751 320.718 125.329C321.307 125.884 321.602 126.604 321.602 127.488V132.316H320.055V127.913C320.055 127.346 319.862 126.876 319.477 126.502C319.103 126.128 318.627 125.941 318.049 125.941C317.448 125.941 316.944 126.133 316.536 126.519C316.139 126.893 315.941 127.363 315.941 127.93V132.316H314.411ZM335.815 123.204L334.132 123.697C334.03 123.289 333.763 122.949 333.333 122.677C332.913 122.405 332.42 122.269 331.854 122.269C331.242 122.269 330.72 122.422 330.29 122.728C329.87 123.034 329.661 123.413 329.661 123.867C329.661 124.354 329.955 124.751 330.545 125.057C330.851 125.204 331.162 125.323 331.48 125.414L332.755 125.771C333.548 125.986 334.154 126.201 334.574 126.417C335.084 126.655 335.469 126.978 335.73 127.386C336.002 127.794 336.16 128.338 336.206 129.018C336.206 130.072 335.815 130.922 335.033 131.568C334.239 132.202 333.231 132.52 332.007 132.52C330.896 132.52 329.95 132.265 329.168 131.755C328.374 131.222 327.87 130.559 327.655 129.766L329.338 129.256C329.44 129.72 329.74 130.111 330.239 130.429C330.737 130.735 331.332 130.888 332.024 130.888C332.738 130.888 333.327 130.729 333.792 130.412C334.268 130.083 334.506 129.664 334.506 129.154C334.506 128.825 334.375 128.53 334.115 128.27C333.888 128.043 333.644 127.873 333.384 127.76C333.123 127.646 332.749 127.533 332.262 127.42C330.89 127.023 329.978 126.7 329.525 126.451C328.493 125.895 327.978 125.068 327.978 123.969C327.978 122.983 328.335 122.184 329.049 121.572C329.774 120.948 330.698 120.637 331.82 120.637C332.828 120.637 333.695 120.88 334.421 121.368C335.146 121.855 335.611 122.467 335.815 123.204ZM337.055 126.026V124.666H338.211V123.136H339.758V124.666H341.832V126.026H339.758V129.783C339.758 130.077 339.854 130.327 340.047 130.531C340.239 130.735 340.477 130.837 340.761 130.837H341.832V132.316H340.659C339.967 132.316 339.384 132.095 338.908 131.653C338.443 131.188 338.211 130.627 338.211 129.97V126.026H337.055ZM344.795 124.666V125.771C345.373 124.898 346.206 124.462 347.294 124.462C347.418 124.462 347.498 124.467 347.532 124.479V126.196C347.362 126.116 347.135 126.077 346.852 126.077C346.262 126.077 345.769 126.264 345.373 126.638C344.987 127.012 344.795 127.482 344.795 128.049V132.316H343.265V124.666H344.795ZM351.911 124.462C352.897 124.462 353.741 124.796 354.444 125.465V124.666H355.974V132.316H354.444V131.517C353.741 132.185 352.897 132.52 351.911 132.52C350.857 132.52 349.962 132.134 349.225 131.364C348.511 130.604 348.154 129.647 348.154 128.491C348.154 127.346 348.511 126.388 349.225 125.618C349.962 124.847 350.857 124.462 351.911 124.462ZM353.73 126.723C353.288 126.247 352.738 126.009 352.081 126.009C351.435 126.009 350.88 126.247 350.415 126.723C349.973 127.199 349.752 127.788 349.752 128.491C349.752 129.193 349.973 129.783 350.415 130.259C350.88 130.735 351.435 130.973 352.081 130.973C352.738 130.973 353.288 130.735 353.73 130.259C354.183 129.794 354.41 129.205 354.41 128.491C354.41 127.777 354.183 127.187 353.73 126.723ZM357.126 126.026V124.666H358.282V123.136H359.829V124.666H361.903V126.026H359.829V129.783C359.829 130.077 359.925 130.327 360.118 130.531C360.311 130.735 360.549 130.837 360.832 130.837H361.903V132.316H360.73C360.039 132.316 359.455 132.095 358.979 131.653C358.514 131.188 358.282 130.627 358.282 129.97V126.026H357.126ZM370.868 129.052H364.544C364.668 129.641 364.957 130.128 365.411 130.514C365.875 130.888 366.425 131.075 367.06 131.075C367.91 131.075 368.584 130.757 369.083 130.123L370.579 130.582C370.239 131.171 369.751 131.641 369.117 131.993C368.493 132.344 367.808 132.52 367.06 132.52C365.904 132.52 364.929 132.134 364.136 131.364C363.354 130.593 362.963 129.635 362.963 128.491C362.963 127.335 363.342 126.377 364.102 125.618C364.872 124.847 365.819 124.462 366.941 124.462C368.051 124.462 368.992 124.847 369.763 125.618C370.522 126.377 370.902 127.335 370.902 128.491C370.902 128.706 370.89 128.893 370.868 129.052ZM364.561 127.828H369.321C369.185 127.25 368.896 126.785 368.454 126.434C368.012 126.082 367.496 125.907 366.907 125.907C366.34 125.907 365.836 126.088 365.394 126.451C364.963 126.802 364.685 127.261 364.561 127.828ZM375.767 132.52C374.713 132.52 373.818 132.134 373.081 131.364C372.367 130.604 372.01 129.647 372.01 128.491C372.01 127.346 372.367 126.388 373.081 125.618C373.818 124.847 374.713 124.462 375.767 124.462C376.753 124.462 377.598 124.796 378.3 125.465V124.666H379.83V132.503C379.83 133.602 379.456 134.514 378.708 135.24C377.972 135.976 377.054 136.345 375.954 136.345C375.15 136.345 374.407 136.141 373.727 135.733C373.047 135.325 372.571 134.798 372.299 134.152L373.846 133.693C374.005 134.021 374.277 134.288 374.662 134.492C375.048 134.707 375.461 134.815 375.903 134.815C376.572 134.815 377.139 134.594 377.603 134.152C378.068 133.71 378.3 133.16 378.3 132.503V131.517C377.598 132.185 376.753 132.52 375.767 132.52ZM375.937 126.009C375.269 126.009 374.708 126.247 374.254 126.723C373.812 127.199 373.591 127.788 373.591 128.491C373.591 129.193 373.812 129.783 374.254 130.259C374.708 130.735 375.269 130.973 375.937 130.973C376.595 130.973 377.144 130.735 377.586 130.259C378.04 129.794 378.266 129.205 378.266 128.491C378.266 127.777 378.04 127.187 377.586 126.723C377.144 126.247 376.595 126.009 375.937 126.009ZM383.515 133.217L383.957 132.112L380.965 124.666H382.563L384.739 130.208L386.966 124.666H388.564L384.841 133.744C384.501 134.571 384.076 135.177 383.566 135.563C383.056 135.948 382.422 136.141 381.662 136.141H381.39V134.662H381.662C382.512 134.662 383.13 134.18 383.515 133.217Z" fill="black"/>
<rect x="338" y="47.5886" width="151" height="41" rx="20.5" fill="#F2F2F2"/>
<path d="M373.528 72.5886H372.151L367.238 61.1136H369.023L372.848 70.1576L376.656 61.1136H378.441L373.528 72.5886ZM381.153 72.5886H379.623V64.9386H381.153V72.5886ZM380.388 61.4706C380.671 61.4706 380.909 61.567 381.102 61.7596C381.295 61.9523 381.391 62.1903 381.391 62.4736C381.391 62.927 381.181 63.2386 380.762 63.4086C380.343 63.5786 379.974 63.5106 379.657 63.2046C379.351 62.8873 379.283 62.519 379.453 62.0996C379.623 61.6803 379.935 61.4706 380.388 61.4706ZM384.589 64.9386V66.0436C385.167 65.171 386 64.7346 387.088 64.7346C387.213 64.7346 387.292 64.7403 387.326 64.7516V66.4686C387.156 66.3893 386.93 66.3496 386.646 66.3496C386.057 66.3496 385.564 66.5366 385.167 66.9106C384.782 67.2846 384.589 67.755 384.589 68.3216V72.5886H383.059V64.9386H384.589ZM387.807 66.2986V64.9386H388.963V63.4086H390.51V64.9386H392.584V66.2986H390.51V70.0556C390.51 70.3503 390.606 70.5996 390.799 70.8036C390.991 71.0076 391.229 71.1096 391.513 71.1096H392.584V72.5886H391.411C390.719 72.5886 390.136 72.3676 389.66 71.9256C389.195 71.461 388.963 70.9 388.963 70.2426V66.2986H387.807ZM393.966 69.7666V64.9386H395.513V69.3416C395.513 69.9083 395.7 70.3786 396.074 70.7526C396.448 71.1266 396.913 71.3136 397.468 71.3136C398.058 71.3136 398.545 71.121 398.93 70.7356C399.327 70.339 399.525 69.8686 399.525 69.3246V64.9386H401.055V72.5886H399.525V71.4836C398.947 72.3563 398.114 72.7926 397.026 72.7926C396.142 72.7926 395.411 72.5036 394.833 71.9256C394.255 71.3476 393.966 70.628 393.966 69.7666ZM406.382 64.7346C407.368 64.7346 408.212 65.069 408.915 65.7376V64.9386H410.445V72.5886H408.915V71.7896C408.212 72.4583 407.368 72.7926 406.382 72.7926C405.328 72.7926 404.432 72.4073 403.696 71.6366C402.982 70.8773 402.625 69.9196 402.625 68.7636C402.625 67.619 402.982 66.6613 403.696 65.8906C404.432 65.12 405.328 64.7346 406.382 64.7346ZM408.201 66.9956C407.759 66.5196 407.209 66.2816 406.552 66.2816C405.906 66.2816 405.35 66.5196 404.886 66.9956C404.444 67.4716 404.223 68.061 404.223 68.7636C404.223 69.4663 404.444 70.0556 404.886 70.5316C405.35 71.0076 405.906 71.2456 406.552 71.2456C407.209 71.2456 407.759 71.0076 408.201 70.5316C408.654 70.067 408.881 69.4776 408.881 68.7636C408.881 68.0496 408.654 67.4603 408.201 66.9956ZM413.875 72.5886H412.345V60.2636H413.875V72.5886ZM419.961 66.8596C419.961 65.1596 420.527 63.743 421.661 62.6096C422.794 61.4763 424.205 60.9096 425.894 60.9096C427.038 60.9096 428.075 61.1816 429.005 61.7256C429.934 62.2696 430.642 63.0176 431.13 63.9696L429.498 64.5986C429.124 63.9526 428.619 63.4483 427.985 63.0856C427.361 62.723 426.664 62.5416 425.894 62.5416C424.692 62.5416 423.695 62.9553 422.902 63.7826C422.108 64.5873 421.712 65.613 421.712 66.8596C421.712 68.0836 422.108 69.1093 422.902 69.9366C423.706 70.7526 424.704 71.1606 425.894 71.1606C426.664 71.1606 427.361 70.9793 427.985 70.6166C428.619 70.254 429.124 69.7496 429.498 69.1036L431.13 69.7326C430.642 70.6846 429.934 71.4326 429.005 71.9766C428.075 72.5206 427.038 72.7926 425.894 72.7926C424.205 72.7926 422.794 72.226 421.661 71.0926C420.527 69.9593 419.961 68.5483 419.961 66.8596ZM434.719 72.5886H433.019V61.1136H434.719L439.173 68.9506L443.627 61.1136H445.327V72.5886H443.627V64.3606L439.734 71.1946H438.612L434.719 64.3436V72.5886ZM447.287 66.8596C447.287 65.1596 447.854 63.743 448.987 62.6096C450.12 61.4763 451.531 60.9096 453.22 60.9096C454.909 60.9096 456.32 61.4763 457.453 62.6096C458.598 63.7543 459.17 65.171 459.17 66.8596C459.17 68.537 458.598 69.948 457.453 71.0926C456.32 72.226 454.909 72.7926 453.22 72.7926C451.531 72.7926 450.12 72.226 448.987 71.0926C447.854 69.9593 447.287 68.5483 447.287 66.8596ZM449.038 66.8596C449.038 68.0836 449.435 69.1093 450.228 69.9366C451.033 70.7526 452.03 71.1606 453.22 71.1606C454.399 71.1606 455.39 70.7526 456.195 69.9366C457 69.098 457.402 68.0723 457.402 66.8596C457.402 65.6356 457 64.61 456.195 63.7826C455.402 62.9553 454.41 62.5416 453.22 62.5416C452.019 62.5416 451.021 62.9553 450.228 63.7826C449.435 64.5873 449.038 65.613 449.038 66.8596Z" fill="black"/>
<rect y="107.316" width="229" height="41" rx="20.5" fill="#F2F2F2"/>
<path d="M29.782 126.587C29.782 124.887 30.3487 123.47 31.482 122.337C32.6153 121.203 34.0263 120.637 35.715 120.637C36.8597 120.637 37.8967 120.909 38.826 121.453C39.7553 121.997 40.4637 122.745 40.951 123.697L39.319 124.326C38.945 123.68 38.4407 123.175 37.806 122.813C37.1827 122.45 36.4857 122.269 35.715 122.269C34.5137 122.269 33.5163 122.682 32.723 123.51C31.9297 124.314 31.533 125.34 31.533 126.587C31.533 127.811 31.9297 128.836 32.723 129.664C33.5277 130.48 34.525 130.888 35.715 130.888C36.4857 130.888 37.1827 130.706 37.806 130.344C38.4407 129.981 38.945 129.477 39.319 128.831L40.951 129.46C40.4637 130.412 39.7553 131.16 38.826 131.704C37.8967 132.248 36.8597 132.52 35.715 132.52C34.0263 132.52 32.6153 131.953 31.482 130.82C30.3487 129.686 29.782 128.275 29.782 126.587ZM43.252 131.364C42.4926 130.604 42.113 129.647 42.113 128.491C42.113 127.335 42.4926 126.377 43.252 125.618C44.0226 124.847 44.9803 124.462 46.125 124.462C47.2696 124.462 48.2273 124.847 48.998 125.618C49.7686 126.388 50.154 127.346 50.154 128.491C50.154 129.635 49.7686 130.593 48.998 131.364C48.2273 132.134 47.2696 132.52 46.125 132.52C44.9803 132.52 44.0226 132.134 43.252 131.364ZM44.391 126.723C43.9376 127.187 43.711 127.777 43.711 128.491C43.711 129.205 43.9376 129.794 44.391 130.259C44.8443 130.735 45.4223 130.973 46.125 130.973C46.805 130.973 47.3773 130.735 47.842 130.259C48.3066 129.771 48.539 129.182 48.539 128.491C48.539 127.799 48.3066 127.21 47.842 126.723C47.3773 126.247 46.805 126.009 46.125 126.009C45.4223 126.009 44.8443 126.247 44.391 126.723ZM53.23 132.316H51.7V124.666H53.23V125.635C53.7514 124.853 54.5277 124.462 55.559 124.462C56.0917 124.462 56.5734 124.586 57.004 124.836C57.446 125.074 57.7917 125.402 58.041 125.822C58.5737 124.915 59.4294 124.462 60.608 124.462C61.4807 124.462 62.206 124.734 62.784 125.278C63.362 125.822 63.651 126.502 63.651 127.318V132.316H62.121V127.743C62.121 127.233 61.951 126.808 61.611 126.468C61.271 126.116 60.8404 125.941 60.319 125.941C59.7864 125.941 59.3387 126.116 58.976 126.468C58.6247 126.808 58.449 127.238 58.449 127.76V132.316H56.902V127.743C56.902 127.233 56.732 126.808 56.392 126.468C56.052 126.116 55.627 125.941 55.117 125.941C54.5844 125.941 54.1367 126.116 53.774 126.468C53.4114 126.808 53.23 127.238 53.23 127.76V132.316ZM67.0758 132.316H65.5458V124.666H67.0758V125.635C67.5971 124.853 68.3734 124.462 69.4048 124.462C69.9374 124.462 70.4191 124.586 70.8498 124.836C71.2918 125.074 71.6374 125.402 71.8868 125.822C72.4194 124.915 73.2751 124.462 74.4538 124.462C75.3264 124.462 76.0518 124.734 76.6298 125.278C77.2078 125.822 77.4968 126.502 77.4968 127.318V132.316H75.9668V127.743C75.9668 127.233 75.7968 126.808 75.4568 126.468C75.1168 126.116 74.6861 125.941 74.1648 125.941C73.6321 125.941 73.1844 126.116 72.8218 126.468C72.4704 126.808 72.2948 127.238 72.2948 127.76V132.316H70.7478V127.743C70.7478 127.233 70.5778 126.808 70.2378 126.468C69.8978 126.116 69.4728 125.941 68.9627 125.941C68.4301 125.941 67.9824 126.116 67.6198 126.468C67.2571 126.808 67.0758 127.238 67.0758 127.76V132.316ZM79.2416 129.494V124.666H80.7886V129.069C80.7886 129.635 80.9756 130.106 81.3496 130.48C81.7236 130.854 82.1883 131.041 82.7436 131.041C83.333 131.041 83.8203 130.848 84.2056 130.463C84.6023 130.066 84.8006 129.596 84.8006 129.052V124.666H86.3306V132.316H84.8006V131.211C84.2226 132.083 83.3896 132.52 82.3016 132.52C81.4176 132.52 80.6866 132.231 80.1086 131.653C79.5306 131.075 79.2416 130.355 79.2416 129.494ZM88.2401 132.316V124.666H89.7701V125.771C90.3481 124.898 91.1811 124.462 92.2691 124.462C93.1531 124.462 93.8841 124.751 94.4621 125.329C95.0401 125.884 95.3291 126.598 95.3291 127.471V132.316H93.7821V127.913C93.7821 127.346 93.5951 126.876 93.2211 126.502C92.8471 126.128 92.3824 125.941 91.8271 125.941C91.2491 125.941 90.7618 126.133 90.3651 126.519C89.9684 126.893 89.7701 127.363 89.7701 127.93V132.316H88.2401ZM98.7515 132.316H97.2215V124.666H98.7515V132.316ZM97.9865 121.198C98.2699 121.198 98.5079 121.294 98.7005 121.487C98.8932 121.679 98.9895 121.917 98.9895 122.201C98.9895 122.654 98.7799 122.966 98.3605 123.136C97.9412 123.306 97.5729 123.238 97.2555 122.932C96.9495 122.614 96.8815 122.246 97.0515 121.827C97.2215 121.407 97.5332 121.198 97.9865 121.198ZM108.036 126.876L106.489 127.352C106.296 126.944 106.007 126.621 105.622 126.383C105.237 126.133 104.806 126.009 104.33 126.009C103.627 126.009 103.049 126.247 102.596 126.723C102.143 127.187 101.916 127.777 101.916 128.491C101.916 129.205 102.143 129.794 102.596 130.259C103.049 130.735 103.627 130.973 104.33 130.973C104.806 130.973 105.237 130.854 105.622 130.616C106.007 130.366 106.296 130.038 106.489 129.63L108.036 130.089C107.73 130.837 107.243 131.432 106.574 131.874C105.917 132.304 105.169 132.52 104.33 132.52C103.185 132.52 102.228 132.134 101.457 131.364C100.698 130.604 100.318 129.647 100.318 128.491C100.318 127.335 100.698 126.377 101.457 125.618C102.228 124.847 103.185 124.462 104.33 124.462C105.18 124.462 105.934 124.677 106.591 125.108C107.248 125.538 107.73 126.128 108.036 126.876ZM112.841 124.462C113.827 124.462 114.671 124.796 115.374 125.465V124.666H116.904V132.316H115.374V131.517C114.671 132.185 113.827 132.52 112.841 132.52C111.787 132.52 110.891 132.134 110.155 131.364C109.441 130.604 109.084 129.647 109.084 128.491C109.084 127.346 109.441 126.388 110.155 125.618C110.891 124.847 111.787 124.462 112.841 124.462ZM114.66 126.723C114.218 126.247 113.668 126.009 113.011 126.009C112.365 126.009 111.809 126.247 111.345 126.723C110.903 127.199 110.682 127.788 110.682 128.491C110.682 129.193 110.903 129.783 111.345 130.259C111.809 130.735 112.365 130.973 113.011 130.973C113.668 130.973 114.218 130.735 114.66 130.259C115.113 129.794 115.34 129.205 115.34 128.491C115.34 127.777 115.113 127.187 114.66 126.723ZM118.056 126.026V124.666H119.212V123.136H120.759V124.666H122.833V126.026H120.759V129.783C120.759 130.077 120.855 130.327 121.048 130.531C121.24 130.735 121.478 130.837 121.762 130.837H122.833V132.316H121.66C120.968 132.316 120.385 132.095 119.909 131.653C119.444 131.188 119.212 130.627 119.212 129.97V126.026H118.056ZM125.795 132.316H124.265V124.666H125.795V132.316ZM125.03 121.198C125.314 121.198 125.552 121.294 125.744 121.487C125.937 121.679 126.033 121.917 126.033 122.201C126.033 122.654 125.824 122.966 125.404 123.136C124.985 123.306 124.617 123.238 124.299 122.932C123.993 122.614 123.925 122.246 124.095 121.827C124.265 121.407 124.577 121.198 125.03 121.198ZM128.501 131.364C127.742 130.604 127.362 129.647 127.362 128.491C127.362 127.335 127.742 126.377 128.501 125.618C129.272 124.847 130.229 124.462 131.374 124.462C132.519 124.462 133.476 124.847 134.247 125.618C135.018 126.388 135.403 127.346 135.403 128.491C135.403 129.635 135.018 130.593 134.247 131.364C133.476 132.134 132.519 132.52 131.374 132.52C130.229 132.52 129.272 132.134 128.501 131.364ZM129.64 126.723C129.187 127.187 128.96 127.777 128.96 128.491C128.96 129.205 129.187 129.794 129.64 130.259C130.093 130.735 130.671 130.973 131.374 130.973C132.054 130.973 132.626 130.735 133.091 130.259C133.556 129.771 133.788 129.182 133.788 128.491C133.788 127.799 133.556 127.21 133.091 126.723C132.626 126.247 132.054 126.009 131.374 126.009C130.671 126.009 130.093 126.247 129.64 126.723ZM136.949 132.316V124.666H138.479V125.771C139.057 124.898 139.89 124.462 140.978 124.462C141.862 124.462 142.593 124.751 143.171 125.329C143.749 125.884 144.038 126.598 144.038 127.471V132.316H142.491V127.913C142.491 127.346 142.304 126.876 141.93 126.502C141.556 126.128 141.091 125.941 140.536 125.941C139.958 125.941 139.471 126.133 139.074 126.519C138.677 126.893 138.479 127.363 138.479 127.93V132.316H136.949ZM155.074 132.316H150.501V120.841H155.074C156.751 120.841 158.162 121.396 159.307 122.507C160.452 123.617 161.024 124.977 161.024 126.587C161.024 128.196 160.452 129.556 159.307 130.667C158.174 131.766 156.763 132.316 155.074 132.316ZM155.074 122.422H152.201V130.735H155.074C156.264 130.735 157.256 130.338 158.049 129.545C158.854 128.74 159.256 127.754 159.256 126.587C159.256 125.408 158.854 124.416 158.049 123.612C157.256 122.818 156.264 122.422 155.074 122.422ZM170.23 129.052H163.906C164.031 129.641 164.32 130.128 164.773 130.514C165.238 130.888 165.787 131.075 166.422 131.075C167.272 131.075 167.946 130.757 168.445 130.123L169.941 130.582C169.601 131.171 169.114 131.641 168.479 131.993C167.856 132.344 167.17 132.52 166.422 132.52C165.266 132.52 164.291 132.134 163.498 131.364C162.716 130.593 162.325 129.635 162.325 128.491C162.325 127.335 162.705 126.377 163.464 125.618C164.235 124.847 165.181 124.462 166.303 124.462C167.414 124.462 168.354 124.847 169.125 125.618C169.884 126.377 170.264 127.335 170.264 128.491C170.264 128.706 170.253 128.893 170.23 129.052ZM163.923 127.828H168.683C168.547 127.25 168.258 126.785 167.816 126.434C167.374 126.082 166.858 125.907 166.269 125.907C165.702 125.907 165.198 126.088 164.756 126.451C164.325 126.802 164.048 127.261 163.923 127.828ZM177.136 126.417L175.708 126.672C175.515 126.105 175.016 125.822 174.212 125.822C173.838 125.822 173.532 125.901 173.294 126.06C173.056 126.207 172.937 126.4 172.937 126.638C172.937 126.955 173.186 127.21 173.685 127.403L175.402 127.998C176.648 128.44 177.272 129.171 177.272 130.191C177.272 130.927 177 131.5 176.456 131.908C175.912 132.316 175.203 132.52 174.331 132.52C173.469 132.52 172.767 132.327 172.223 131.942C171.679 131.556 171.356 131.035 171.254 130.378L172.716 130.157C172.772 130.463 172.948 130.706 173.243 130.888C173.549 131.069 173.923 131.16 174.365 131.16C174.784 131.16 175.13 131.075 175.402 130.905C175.674 130.735 175.81 130.514 175.81 130.242C175.81 129.868 175.498 129.573 174.875 129.358L173.175 128.797C172.03 128.4 171.458 127.72 171.458 126.757C171.458 126.02 171.718 125.453 172.24 125.057C172.761 124.66 173.458 124.462 174.331 124.462C175.113 124.462 175.753 124.637 176.252 124.989C176.75 125.34 177.045 125.816 177.136 126.417ZM180.298 132.316H178.768V124.666H180.298V132.316ZM179.533 121.198C179.817 121.198 180.055 121.294 180.247 121.487C180.44 121.679 180.536 121.917 180.536 122.201C180.536 122.654 180.327 122.966 179.907 123.136C179.488 123.306 179.12 123.238 178.802 122.932C178.496 122.614 178.428 122.246 178.598 121.827C178.768 121.407 179.08 121.198 179.533 121.198ZM185.622 132.52C184.568 132.52 183.673 132.134 182.936 131.364C182.222 130.604 181.865 129.647 181.865 128.491C181.865 127.346 182.222 126.388 182.936 125.618C183.673 124.847 184.568 124.462 185.622 124.462C186.608 124.462 187.452 124.796 188.155 125.465V124.666H189.685V132.503C189.685 133.602 189.311 134.514 188.563 135.24C187.826 135.976 186.908 136.345 185.809 136.345C185.004 136.345 184.262 136.141 183.582 135.733C182.902 135.325 182.426 134.798 182.154 134.152L183.701 133.693C183.86 134.021 184.132 134.288 184.517 134.492C184.902 134.707 185.316 134.815 185.758 134.815C186.427 134.815 186.993 134.594 187.458 134.152C187.923 133.71 188.155 133.16 188.155 132.503V131.517C187.452 132.185 186.608 132.52 185.622 132.52ZM185.792 126.009C185.123 126.009 184.562 126.247 184.109 126.723C183.667 127.199 183.446 127.788 183.446 128.491C183.446 129.193 183.667 129.783 184.109 130.259C184.562 130.735 185.123 130.973 185.792 130.973C186.449 130.973 186.999 130.735 187.441 130.259C187.894 129.794 188.121 129.205 188.121 128.491C188.121 127.777 187.894 127.187 187.441 126.723C186.999 126.247 186.449 126.009 185.792 126.009ZM191.585 132.316V124.666H193.115V125.771C193.693 124.898 194.526 124.462 195.614 124.462C196.498 124.462 197.229 124.751 197.807 125.329C198.385 125.884 198.674 126.598 198.674 127.471V132.316H197.127V127.913C197.127 127.346 196.94 126.876 196.566 126.502C196.192 126.128 195.727 125.941 195.172 125.941C194.594 125.941 194.106 126.133 193.71 126.519C193.313 126.893 193.115 127.363 193.115 127.93V132.316H191.585Z" fill="black"/>
</svg>
