<svg width="328" height="164" viewBox="0 0 328 164" fill="none" xmlns="http://www.w3.org/2000/svg">
<path opacity="0.5" d="M8.4 3.73967L6.816 4.20367C6.72 3.81967 6.46933 3.49967 6.064 3.24367C5.66933 2.98767 5.20533 2.85967 4.672 2.85967C4.096 2.85967 3.60533 3.00367 3.2 3.29167C2.80533 3.57967 2.608 3.93701 2.608 4.36367C2.608 4.82234 2.88533 5.19567 3.44 5.48367C3.728 5.62234 4.02133 5.73434 4.32 5.81967L5.52 6.15567C6.26667 6.35834 6.83733 6.56101 7.232 6.76367C7.712 6.98767 8.07467 7.29167 8.32 7.67567C8.576 8.05967 8.72533 8.57167 8.768 9.21167C8.768 10.2037 8.4 11.0037 7.664 11.6117C6.91733 12.209 5.968 12.5077 4.816 12.5077C3.77067 12.5077 2.88 12.2677 2.144 11.7877C1.39733 11.2863 0.922667 10.6623 0.72 9.91567L2.304 9.43567C2.4 9.87301 2.68267 10.241 3.152 10.5397C3.62133 10.8277 4.18133 10.9717 4.832 10.9717C5.504 10.9717 6.05867 10.8223 6.496 10.5237C6.944 10.2143 7.168 9.81967 7.168 9.33967C7.168 9.03034 7.04533 8.75301 6.8 8.50767C6.58667 8.29434 6.35733 8.13434 6.112 8.02767C5.86667 7.92101 5.51467 7.81434 5.056 7.70767C3.76533 7.33434 2.90667 7.03034 2.48 6.79567C1.50933 6.27301 1.024 5.49434 1.024 4.45967C1.024 3.53167 1.36 2.77967 2.032 2.20367C2.71467 1.61701 3.584 1.32367 4.64 1.32367C5.58933 1.32367 6.40533 1.55301 7.088 2.01167C7.77067 2.47034 8.208 3.04634 8.4 3.73967ZM17.391 9.24367H11.439C11.5563 9.79834 11.8283 10.257 12.255 10.6197C12.6923 10.9717 13.2097 11.1477 13.807 11.1477C14.607 11.1477 15.2417 10.849 15.711 10.2517L17.119 10.6837C16.799 11.2383 16.3403 11.681 15.743 12.0117C15.1563 12.3423 14.511 12.5077 13.807 12.5077C12.719 12.5077 11.8017 12.145 11.055 11.4197C10.319 10.6943 9.951 9.79301 9.951 8.71567C9.951 7.62767 10.3083 6.72634 11.023 6.01167C11.7483 5.28634 12.639 4.92367 13.695 4.92367C14.7403 4.92367 15.6257 5.28634 16.351 6.01167C17.0657 6.72634 17.423 7.62767 17.423 8.71567C17.423 8.91834 17.4123 9.09434 17.391 9.24367ZM11.455 8.09167H15.935C15.807 7.54767 15.535 7.11034 15.119 6.77967C14.703 6.44901 14.2177 6.28367 13.663 6.28367C13.1297 6.28367 12.655 6.45434 12.239 6.79567C11.8337 7.12634 11.5723 7.55834 11.455 8.09167ZM20.2266 5.11567V6.15567C20.7706 5.33434 21.5546 4.92367 22.5786 4.92367C22.696 4.92367 22.7706 4.92901 22.8026 4.93967V6.55567C22.6426 6.48101 22.4293 6.44367 22.1626 6.44367C21.608 6.44367 21.144 6.61967 20.7706 6.97167C20.408 7.32367 20.2266 7.76634 20.2266 8.29967V12.3157H18.7866V5.11567H20.2266ZM26.2785 12.3157L23.2385 5.11567H24.7425L26.9505 10.4597L29.1585 5.11567H30.6625L27.6225 12.3157H26.2785ZM33.1798 12.3157H31.7398V5.11567H33.1798V12.3157ZM32.4598 1.85167C32.7264 1.85167 32.9504 1.94234 33.1318 2.12367C33.3131 2.30501 33.4038 2.52901 33.4038 2.79567C33.4038 3.22234 33.2064 3.51567 32.8118 3.67567C32.4171 3.83567 32.0704 3.77167 31.7718 3.48367C31.4838 3.18501 31.4198 2.83834 31.5798 2.44367C31.7398 2.04901 32.0331 1.85167 32.4598 1.85167ZM41.9181 7.19567L40.4621 7.64367C40.2808 7.25967 40.0088 6.95567 39.6461 6.73167C39.2835 6.49701 38.8781 6.37967 38.4301 6.37967C37.7688 6.37967 37.2248 6.60367 36.7981 7.05167C36.3715 7.48901 36.1581 8.04367 36.1581 8.71567C36.1581 9.38767 36.3715 9.94234 36.7981 10.3797C37.2248 10.8277 37.7688 11.0517 38.4301 11.0517C38.8781 11.0517 39.2835 10.9397 39.6461 10.7157C40.0088 10.481 40.2808 10.1717 40.4621 9.78767L41.9181 10.2197C41.6301 10.9237 41.1715 11.4837 40.5421 11.8997C39.9235 12.305 39.2195 12.5077 38.4301 12.5077C37.3528 12.5077 36.4515 12.145 35.7261 11.4197C35.0115 10.705 34.6541 9.80367 34.6541 8.71567C34.6541 7.62767 35.0115 6.72634 35.7261 6.01167C36.4515 5.28634 37.3528 4.92367 38.4301 4.92367C39.2301 4.92367 39.9395 5.12634 40.5581 5.53167C41.1768 5.93701 41.6301 6.49167 41.9181 7.19567ZM50.3441 9.24367H44.3921C44.5095 9.79834 44.7815 10.257 45.2081 10.6197C45.6455 10.9717 46.1628 11.1477 46.7601 11.1477C47.5601 11.1477 48.1948 10.849 48.6641 10.2517L50.0721 10.6837C49.7521 11.2383 49.2935 11.681 48.6961 12.0117C48.1095 12.3423 47.4641 12.5077 46.7601 12.5077C45.6721 12.5077 44.7548 12.145 44.0081 11.4197C43.2721 10.6943 42.9041 9.79301 42.9041 8.71567C42.9041 7.62767 43.2615 6.72634 43.9761 6.01167C44.7015 5.28634 45.5921 4.92367 46.6481 4.92367C47.6935 4.92367 48.5788 5.28634 49.3041 6.01167C50.0188 6.72634 50.3761 7.62767 50.3761 8.71567C50.3761 8.91834 50.3655 9.09434 50.3441 9.24367ZM44.4081 8.09167H48.8881C48.7601 7.54767 48.4881 7.11034 48.0721 6.77967C47.6561 6.44901 47.1708 6.28367 46.6161 6.28367C46.0828 6.28367 45.6081 6.45434 45.1921 6.79567C44.7868 7.12634 44.5255 7.55834 44.4081 8.09167ZM56.8438 6.76367L55.4998 7.00367C55.3184 6.47034 54.8491 6.20367 54.0918 6.20367C53.7398 6.20367 53.4518 6.27834 53.2278 6.42767C53.0038 6.56634 52.8918 6.74767 52.8918 6.97167C52.8918 7.27034 53.1264 7.51034 53.5958 7.69167L55.2118 8.25167C56.3851 8.66767 56.9718 9.35567 56.9718 10.3157C56.9718 11.009 56.7158 11.5477 56.2038 11.9317C55.6918 12.3157 55.0251 12.5077 54.2038 12.5077C53.3931 12.5077 52.7318 12.3263 52.2198 11.9637C51.7078 11.601 51.4038 11.1103 51.3078 10.4917L52.6838 10.2837C52.7371 10.5717 52.9024 10.801 53.1798 10.9717C53.4678 11.1423 53.8198 11.2277 54.2358 11.2277C54.6304 11.2277 54.9558 11.1477 55.2118 10.9877C55.4678 10.8277 55.5958 10.6197 55.5958 10.3637C55.5958 10.0117 55.3024 9.73434 54.7158 9.53167L53.1158 9.00367C52.0384 8.63034 51.4998 7.99034 51.4998 7.08367C51.4998 6.39034 51.7451 5.85701 52.2358 5.48367C52.7264 5.11034 53.3824 4.92367 54.2038 4.92367C54.9398 4.92367 55.5424 5.08901 56.0118 5.41967C56.4811 5.75034 56.7584 6.19834 56.8438 6.76367Z" fill="#1E1E1E"/>
<rect x="116.812" y="31.9922" width="157.675" height="33.7274" rx="16.8637" fill="#F2F2F2"/>
<path d="M143.011 49.3206V52.856H141.614V43.4238H145.778C146.663 43.4238 147.403 43.7079 148 44.2762C148.596 44.8351 148.894 45.5338 148.894 46.3722C148.894 47.2106 148.596 47.914 148 48.4822C147.403 49.0412 146.663 49.3206 145.778 49.3206H143.011ZM145.778 44.7233H143.011V48.0351H145.778C146.253 48.0351 146.649 47.8767 146.965 47.56C147.292 47.2432 147.455 46.8473 147.455 46.3722C147.455 45.8971 147.292 45.5059 146.965 45.1984C146.649 44.8817 146.253 44.7233 145.778 44.7233ZM155.811 50.173H150.612C150.715 50.6574 150.952 51.058 151.325 51.3748C151.707 51.6822 152.159 51.8359 152.68 51.8359C153.379 51.8359 153.933 51.575 154.343 51.0534L155.573 51.4307C155.293 51.9151 154.893 52.3017 154.371 52.5905C153.859 52.8792 153.295 53.0236 152.68 53.0236C151.73 53.0236 150.929 52.7069 150.277 52.0734C149.634 51.44 149.313 50.6528 149.313 49.7119C149.313 48.7617 149.625 47.9745 150.249 47.3504C150.883 46.7169 151.66 46.4002 152.583 46.4002C153.496 46.4002 154.269 46.7169 154.902 47.3504C155.526 47.9745 155.838 48.7617 155.838 49.7119C155.838 49.8889 155.829 50.0426 155.811 50.173ZM150.626 49.1669H154.539C154.427 48.6918 154.19 48.3099 153.826 48.0211C153.463 47.7323 153.039 47.5879 152.555 47.5879C152.089 47.5879 151.674 47.737 151.311 48.0351C150.957 48.3239 150.729 48.7012 150.626 49.1669ZM158.287 46.5679V47.4761C158.762 46.7588 159.447 46.4002 160.341 46.4002C160.444 46.4002 160.509 46.4048 160.537 46.4141V47.8255C160.397 47.7603 160.211 47.7277 159.978 47.7277C159.493 47.7277 159.088 47.8814 158.762 48.1888C158.445 48.4962 158.287 48.8828 158.287 49.3486V52.856H157.029V46.5679H158.287ZM165.854 48.0071L164.68 48.2167C164.522 47.7509 164.112 47.5181 163.45 47.5181C163.143 47.5181 162.891 47.5833 162.696 47.7137C162.5 47.8348 162.402 47.9932 162.402 48.1888C162.402 48.4496 162.607 48.6592 163.017 48.8176L164.428 49.3067C165.453 49.67 165.965 50.2708 165.965 51.1093C165.965 51.7148 165.742 52.1852 165.295 52.5206C164.848 52.856 164.265 53.0236 163.548 53.0236C162.84 53.0236 162.262 52.8653 161.815 52.5485C161.368 52.2318 161.103 51.8033 161.019 51.263L162.221 51.0813C162.267 51.3328 162.412 51.5331 162.654 51.6822C162.905 51.8312 163.213 51.9058 163.576 51.9058C163.921 51.9058 164.205 51.8359 164.428 51.6962C164.652 51.5564 164.764 51.3748 164.764 51.1512C164.764 50.8438 164.508 50.6016 163.995 50.4246L162.598 49.9634C161.657 49.6374 161.187 49.0784 161.187 48.2866C161.187 47.6811 161.401 47.2153 161.829 46.8892C162.258 46.5632 162.831 46.4002 163.548 46.4002C164.191 46.4002 164.717 46.5446 165.127 46.8334C165.537 47.1221 165.779 47.5134 165.854 48.0071ZM167.852 52.0734C167.228 51.4493 166.916 50.6621 166.916 49.7119C166.916 48.7617 167.228 47.9745 167.852 47.3504C168.486 46.7169 169.273 46.4002 170.214 46.4002C171.155 46.4002 171.942 46.7169 172.576 47.3504C173.209 47.9838 173.526 48.771 173.526 49.7119C173.526 50.6528 173.209 51.44 172.576 52.0734C171.942 52.7069 171.155 53.0236 170.214 53.0236C169.273 53.0236 168.486 52.7069 167.852 52.0734ZM168.789 48.2587C168.416 48.6406 168.23 49.125 168.23 49.7119C168.23 50.2988 168.416 50.7832 168.789 51.1652C169.161 51.5564 169.636 51.752 170.214 51.752C170.773 51.752 171.243 51.5564 171.625 51.1652C172.007 50.7646 172.198 50.2802 172.198 49.7119C172.198 49.1436 172.007 48.6592 171.625 48.2587C171.243 47.8674 170.773 47.6718 170.214 47.6718C169.636 47.6718 169.161 47.8674 168.789 48.2587ZM174.797 52.856V46.5679H176.054V47.4761C176.529 46.7588 177.214 46.4002 178.108 46.4002C178.835 46.4002 179.436 46.6377 179.911 47.1128C180.386 47.5693 180.624 48.1562 180.624 48.8735V52.856H179.352V49.2368C179.352 48.771 179.198 48.3844 178.891 48.077C178.583 47.7696 178.201 47.6159 177.745 47.6159C177.27 47.6159 176.869 47.7742 176.543 48.091C176.217 48.3984 176.054 48.785 176.054 49.2508V52.856H174.797ZM184.988 46.4002C185.798 46.4002 186.492 46.675 187.07 47.2246V46.5679H188.327V52.856H187.07V52.1992C186.492 52.7488 185.798 53.0236 184.988 53.0236C184.121 53.0236 183.385 52.7069 182.78 52.0734C182.193 51.4493 181.9 50.6621 181.9 49.7119C181.9 48.771 182.193 47.9838 182.78 47.3504C183.385 46.7169 184.121 46.4002 184.988 46.4002ZM186.483 48.2587C186.12 47.8674 185.668 47.6718 185.127 47.6718C184.596 47.6718 184.14 47.8674 183.758 48.2587C183.395 48.6499 183.213 49.1343 183.213 49.7119C183.213 50.2895 183.395 50.7739 183.758 51.1652C184.14 51.5564 184.596 51.752 185.127 51.752C185.668 51.752 186.12 51.5564 186.483 51.1652C186.856 50.7832 187.042 50.2988 187.042 49.7119C187.042 49.125 186.856 48.6406 186.483 48.2587ZM191.147 52.856H189.889V42.7251H191.147V52.856ZM201.236 52.856H196.471V43.4238H200.97C201.762 43.4238 202.419 43.6614 202.941 44.1365C203.471 44.6116 203.737 45.2078 203.737 45.9251C203.737 46.7262 203.402 47.3783 202.731 47.8814C203.178 48.1049 203.527 48.4217 203.779 48.8316C204.04 49.2415 204.17 49.6933 204.17 50.187C204.17 50.9416 203.891 51.5797 203.332 52.1014C202.773 52.6044 202.074 52.856 201.236 52.856ZM201.236 48.622H197.868V51.5564H201.236C201.664 51.5564 202.018 51.4167 202.298 51.1372C202.587 50.8577 202.731 50.5084 202.731 50.0892C202.731 49.67 202.587 49.3206 202.298 49.0412C202.018 48.7617 201.664 48.622 201.236 48.622ZM200.97 44.7233H197.868V47.3224H200.97C201.352 47.3224 201.669 47.2013 201.92 46.9591C202.172 46.7076 202.298 46.3955 202.298 46.0229C202.298 45.6503 202.172 45.3428 201.92 45.1006C201.669 44.8491 201.352 44.7233 200.97 44.7233ZM206.826 46.5679V47.4761C207.301 46.7588 207.986 46.4002 208.88 46.4002C208.983 46.4002 209.048 46.4048 209.076 46.4141V47.8255C208.936 47.7603 208.75 47.7277 208.517 47.7277C208.032 47.7277 207.627 47.8814 207.301 48.1888C206.984 48.4962 206.826 48.8828 206.826 49.3486V52.856H205.568V46.5679H206.826ZM212.676 46.4002C213.486 46.4002 214.18 46.675 214.758 47.2246V46.5679H216.015V52.856H214.758V52.1992C214.18 52.7488 213.486 53.0236 212.676 53.0236C211.809 53.0236 211.073 52.7069 210.468 52.0734C209.881 51.4493 209.587 50.6621 209.587 49.7119C209.587 48.771 209.881 47.9838 210.468 47.3504C211.073 46.7169 211.809 46.4002 212.676 46.4002ZM214.171 48.2587C213.807 47.8674 213.356 47.6718 212.815 47.6718C212.284 47.6718 211.828 47.8674 211.446 48.2587C211.083 48.6499 210.901 49.1343 210.901 49.7119C210.901 50.2895 211.083 50.7739 211.446 51.1652C211.828 51.5564 212.284 51.752 212.815 51.752C213.356 51.752 213.807 51.5564 214.171 51.1652C214.543 50.7832 214.73 50.2988 214.73 49.7119C214.73 49.125 214.543 48.6406 214.171 48.2587ZM217.577 52.856V46.5679H218.835V47.4761C219.31 46.7588 219.994 46.4002 220.889 46.4002C221.615 46.4002 222.216 46.6377 222.691 47.1128C223.166 47.5693 223.404 48.1562 223.404 48.8735V52.856H222.132V49.2368C222.132 48.771 221.979 48.3844 221.671 48.077C221.364 47.7696 220.982 47.6159 220.525 47.6159C220.05 47.6159 219.65 47.7742 219.324 48.091C218.998 48.3984 218.835 48.785 218.835 49.2508V52.856H217.577ZM227.768 46.4002C228.579 46.4002 229.273 46.675 229.85 47.2246V42.7251H231.108V52.856H229.85V52.1992C229.273 52.7488 228.579 53.0236 227.768 53.0236C226.902 53.0236 226.166 52.7069 225.56 52.0734C224.973 51.4493 224.68 50.6621 224.68 49.7119C224.68 48.771 224.973 47.9838 225.56 47.3504C226.166 46.7169 226.902 46.4002 227.768 46.4002ZM229.263 48.2587C228.9 47.8674 228.448 47.6718 227.908 47.6718C227.377 47.6718 226.92 47.8674 226.538 48.2587C226.175 48.6499 225.993 49.1343 225.993 49.7119C225.993 50.2895 226.175 50.7739 226.538 51.1652C226.92 51.5564 227.377 51.752 227.908 51.752C228.448 51.752 228.9 51.5564 229.263 51.1652C229.636 50.7832 229.822 50.2988 229.822 49.7119C229.822 49.125 229.636 48.6406 229.263 48.2587ZM233.927 52.856H232.669V46.5679H233.927V52.856ZM233.298 43.7172C233.531 43.7172 233.727 43.7964 233.885 43.9548C234.044 44.1132 234.123 44.3088 234.123 44.5417C234.123 44.9143 233.95 45.1705 233.606 45.3102C233.261 45.45 232.958 45.3941 232.697 45.1425C232.446 44.8817 232.39 44.5789 232.53 44.2343C232.669 43.8896 232.926 43.7172 233.298 43.7172ZM235.494 52.856V46.5679H236.752V47.4761C237.227 46.7588 237.912 46.4002 238.806 46.4002C239.533 46.4002 240.133 46.6377 240.609 47.1128C241.084 47.5693 241.321 48.1562 241.321 48.8735V52.856H240.05V49.2368C240.05 48.771 239.896 48.3844 239.588 48.077C239.281 47.7696 238.899 47.6159 238.443 47.6159C237.968 47.6159 237.567 47.7742 237.241 48.091C236.915 48.3984 236.752 48.785 236.752 49.2508V52.856H235.494ZM245.685 53.0236C244.819 53.0236 244.083 52.7069 243.478 52.0734C242.891 51.4493 242.597 50.6621 242.597 49.7119C242.597 48.771 242.891 47.9838 243.478 47.3504C244.083 46.7169 244.819 46.4002 245.685 46.4002C246.496 46.4002 247.19 46.675 247.767 47.2246V46.5679H249.025V53.0097C249.025 53.9133 248.718 54.6632 248.103 55.2594C247.497 55.8649 246.743 56.1677 245.839 56.1677C245.178 56.1677 244.568 56 244.009 55.6646C243.45 55.3293 243.058 54.8961 242.835 54.3651L244.106 53.9878C244.237 54.258 244.46 54.4769 244.777 54.6446C245.094 54.8216 245.434 54.9101 245.797 54.9101C246.347 54.9101 246.813 54.7284 247.195 54.3651C247.577 54.0018 247.767 53.55 247.767 53.0097V52.1992C247.19 52.7488 246.496 53.0236 245.685 53.0236ZM245.825 47.6718C245.276 47.6718 244.814 47.8674 244.442 48.2587C244.078 48.6499 243.897 49.1343 243.897 49.7119C243.897 50.2895 244.078 50.7739 244.442 51.1652C244.814 51.5564 245.276 51.752 245.825 51.752C246.365 51.752 246.817 51.5564 247.181 51.1652C247.553 50.7832 247.74 50.2988 247.74 49.7119C247.74 49.125 247.553 48.6406 247.181 48.2587C246.817 47.8674 246.365 47.6718 245.825 47.6718Z" fill="black"/>
<rect x="0.963867" y="31.9922" width="102.675" height="33.7274" rx="16.8637" fill="#F2F2F2"/>
<path d="M30.5304 52.856H25.7654V43.4238H30.2649C31.0568 43.4238 31.7135 43.6614 32.2352 44.1365C32.7662 44.6116 33.0317 45.2078 33.0317 45.9251C33.0317 46.7262 32.6963 47.3783 32.0256 47.8814C32.4728 48.1049 32.8221 48.4217 33.0736 48.8316C33.3345 49.2415 33.4649 49.6933 33.4649 50.187C33.4649 50.9416 33.1854 51.5797 32.6265 52.1014C32.0675 52.6044 31.3688 52.856 30.5304 52.856ZM30.5304 48.622H27.1628V51.5564H30.5304C30.959 51.5564 31.313 51.4167 31.5924 51.1372C31.8812 50.8577 32.0256 50.5084 32.0256 50.0892C32.0256 49.67 31.8812 49.3206 31.5924 49.0412C31.313 48.7617 30.959 48.622 30.5304 48.622ZM30.2649 44.7233H27.1628V47.3224H30.2649C30.6469 47.3224 30.9636 47.2013 31.2151 46.9591C31.4667 46.7076 31.5924 46.3955 31.5924 46.0229C31.5924 45.6503 31.4667 45.3428 31.2151 45.1006C30.9636 44.8491 30.6469 44.7233 30.2649 44.7233ZM36.1207 46.5679V47.4761C36.5958 46.7588 37.2805 46.4002 38.1748 46.4002C38.2773 46.4002 38.3425 46.4048 38.3705 46.4141V47.8255C38.2307 47.7603 38.0444 47.7277 37.8115 47.7277C37.3271 47.7277 36.9219 47.8814 36.5958 48.1888C36.2791 48.4962 36.1207 48.8828 36.1207 49.3486V52.856H34.8631V46.5679H36.1207ZM41.9703 46.4002C42.7808 46.4002 43.4748 46.675 44.0524 47.2246V46.5679H45.31V52.856H44.0524V52.1992C43.4748 52.7488 42.7808 53.0236 41.9703 53.0236C41.1039 53.0236 40.368 52.7069 39.7625 52.0734C39.1756 51.4493 38.8821 50.6621 38.8821 49.7119C38.8821 48.771 39.1756 47.9838 39.7625 47.3504C40.368 46.7169 41.1039 46.4002 41.9703 46.4002ZM43.4655 48.2587C43.1022 47.8674 42.6503 47.6718 42.11 47.6718C41.579 47.6718 41.1226 47.8674 40.7406 48.2587C40.3773 48.6499 40.1957 49.1343 40.1957 49.7119C40.1957 50.2895 40.3773 50.7739 40.7406 51.1652C41.1226 51.5564 41.579 51.752 42.11 51.752C42.6503 51.752 43.1022 51.5564 43.4655 51.1652C43.8381 50.7832 44.0244 50.2988 44.0244 49.7119C44.0244 49.125 43.8381 48.6406 43.4655 48.2587ZM46.8716 52.856V46.5679H48.1293V47.4761C48.6044 46.7588 49.2891 46.4002 50.1834 46.4002C50.91 46.4002 51.5109 46.6377 51.986 47.1128C52.4611 47.5693 52.6986 48.1562 52.6986 48.8735V52.856H51.427V49.2368C51.427 48.771 51.2733 48.3844 50.9659 48.077C50.6585 47.7696 50.2765 47.6159 49.8201 47.6159C49.345 47.6159 48.9444 47.7742 48.6183 48.091C48.2923 48.3984 48.1293 48.785 48.1293 49.2508V52.856H46.8716ZM57.0628 46.4002C57.8733 46.4002 58.5673 46.675 59.1449 47.2246V42.7251H60.4025V52.856H59.1449V52.1992C58.5673 52.7488 57.8733 53.0236 57.0628 53.0236C56.1965 53.0236 55.4605 52.7069 54.855 52.0734C54.2681 51.4493 53.9747 50.6621 53.9747 49.7119C53.9747 48.771 54.2681 47.9838 54.855 47.3504C55.4605 46.7169 56.1965 46.4002 57.0628 46.4002ZM58.558 48.2587C58.1947 47.8674 57.7429 47.6718 57.2026 47.6718C56.6716 47.6718 56.2151 47.8674 55.8332 48.2587C55.4699 48.6499 55.2882 49.1343 55.2882 49.7119C55.2882 50.2895 55.4699 50.7739 55.8332 51.1652C56.2151 51.5564 56.6716 51.752 57.2026 51.752C57.7429 51.752 58.1947 51.5564 58.558 51.1652C58.9306 50.7832 59.117 50.2988 59.117 49.7119C59.117 49.125 58.9306 48.6406 58.558 48.2587ZM63.2218 52.856H61.9642V46.5679H63.2218V52.856ZM62.593 43.7172C62.8259 43.7172 63.0215 43.7964 63.1799 43.9548C63.3382 44.1132 63.4174 44.3088 63.4174 44.5417C63.4174 44.9143 63.2451 45.1705 62.9004 45.3102C62.5557 45.45 62.253 45.3941 61.9921 45.1425C61.7406 44.8817 61.6847 44.5789 61.8244 44.2343C61.9642 43.8896 62.2204 43.7172 62.593 43.7172ZM64.7889 52.856V46.5679H66.0465V47.4761C66.5216 46.7588 67.2063 46.4002 68.1006 46.4002C68.8273 46.4002 69.4281 46.6377 69.9032 47.1128C70.3783 47.5693 70.6159 48.1562 70.6159 48.8735V52.856H69.3443V49.2368C69.3443 48.771 69.1906 48.3844 68.8832 48.077C68.5757 47.7696 68.1938 47.6159 67.7373 47.6159C67.2622 47.6159 66.8617 47.7742 66.5356 48.091C66.2096 48.3984 66.0465 48.785 66.0465 49.2508V52.856H64.7889ZM74.9801 53.0236C74.1138 53.0236 73.3778 52.7069 72.7723 52.0734C72.1854 51.4493 71.892 50.6621 71.892 49.7119C71.892 48.771 72.1854 47.9838 72.7723 47.3504C73.3778 46.7169 74.1138 46.4002 74.9801 46.4002C75.7906 46.4002 76.4846 46.675 77.0622 47.2246V46.5679H78.3198V53.0097C78.3198 53.9133 78.0124 54.6632 77.3975 55.2594C76.792 55.8649 76.0375 56.1677 75.1338 56.1677C74.4724 56.1677 73.8622 56 73.3033 55.6646C72.7443 55.3293 72.3531 54.8961 72.1295 54.3651L73.4011 53.9878C73.5315 54.258 73.7551 54.4769 74.0718 54.6446C74.3886 54.8216 74.7286 54.9101 75.0919 54.9101C75.6415 54.9101 76.1073 54.7284 76.4893 54.3651C76.8712 54.0018 77.0622 53.55 77.0622 53.0097V52.1992C76.4846 52.7488 75.7906 53.0236 74.9801 53.0236ZM75.1199 47.6718C74.5702 47.6718 74.1091 47.8674 73.7365 48.2587C73.3732 48.6499 73.1915 49.1343 73.1915 49.7119C73.1915 50.2895 73.3732 50.7739 73.7365 51.1652C74.1091 51.5564 74.5702 51.752 75.1199 51.752C75.6602 51.752 76.112 51.5564 76.4753 51.1652C76.8479 50.7832 77.0342 50.2988 77.0342 49.7119C77.0342 49.125 76.8479 48.6406 76.4753 48.2587C76.112 47.8674 75.6602 47.6718 75.1199 47.6718Z" fill="black"/>
<rect x="0.963867" y="129.827" width="146.675" height="33.7274" rx="16.8637" fill="#F2F2F2"/>
<path d="M25.4441 145.982C25.4441 144.594 25.9145 143.429 26.8554 142.488C27.7963 141.557 28.9794 141.091 30.4047 141.091C31.3549 141.091 32.2119 141.315 32.9758 141.762C33.749 142.209 34.3452 142.824 34.7644 143.606L33.409 144.123C33.1109 143.592 32.6963 143.178 32.1653 142.88C31.6343 142.582 31.0475 142.433 30.4047 142.433C29.4079 142.433 28.5695 142.773 27.8894 143.453C27.2187 144.123 26.8833 144.966 26.8833 145.982C26.8833 146.979 27.2047 147.822 27.8475 148.511C28.5089 149.182 29.3101 149.517 30.251 149.517C31.0614 149.517 31.7694 149.275 32.3749 148.791C32.9898 148.297 33.381 147.673 33.5487 146.918H30.0414V145.619H35.1138C35.1324 145.861 35.1417 146 35.1417 146.038C35.1324 147.398 34.6619 148.544 33.7304 149.475C32.8081 150.397 31.6623 150.859 30.2929 150.859C28.9142 150.859 27.759 150.393 26.8274 149.461C25.9052 148.53 25.4441 147.37 25.4441 145.982ZM37.8128 144.403V145.311C38.2879 144.594 38.9726 144.235 39.867 144.235C39.9694 144.235 40.0346 144.24 40.0626 144.249V145.66C39.9228 145.595 39.7365 145.563 39.5036 145.563C39.0192 145.563 38.614 145.716 38.2879 146.024C37.9712 146.331 37.8128 146.718 37.8128 147.184V150.691H36.5552V144.403H37.8128ZM41.5105 149.908C40.8863 149.284 40.5743 148.497 40.5743 147.547C40.5743 146.597 40.8863 145.809 41.5105 145.185C42.144 144.552 42.9311 144.235 43.872 144.235C44.8129 144.235 45.6001 144.552 46.2336 145.185C46.867 145.819 47.1838 146.606 47.1838 147.547C47.1838 148.488 46.867 149.275 46.2336 149.908C45.6001 150.542 44.8129 150.859 43.872 150.859C42.9311 150.859 42.144 150.542 41.5105 149.908ZM42.4467 146.094C42.0741 146.476 41.8878 146.96 41.8878 147.547C41.8878 148.134 42.0741 148.618 42.4467 149C42.8193 149.391 43.2944 149.587 43.872 149.587C44.431 149.587 44.9014 149.391 45.2833 149C45.6653 148.6 45.8563 148.115 45.8563 147.547C45.8563 146.979 45.6653 146.494 45.2833 146.094C44.9014 145.702 44.431 145.507 43.872 145.507C43.2944 145.507 42.8193 145.702 42.4467 146.094ZM50.7804 150.691H49.6625L47.5665 144.403H48.8521L50.2215 148.735L51.5769 144.403H52.7088L54.0782 148.735L55.4336 144.403H56.7052L54.6231 150.691H53.4913L52.1498 146.499L50.7804 150.691ZM57.0235 145.521V144.403H57.9737V143.145H59.2453V144.403H60.9501V145.521H59.2453V148.609C59.2453 148.851 59.3245 149.056 59.4829 149.224C59.6413 149.391 59.8369 149.475 60.0698 149.475H60.9501V150.691H59.9859C59.4177 150.691 58.9379 150.509 58.5467 150.146C58.1647 149.764 57.9737 149.303 57.9737 148.763V145.521H57.0235ZM62.1279 150.691V140.56H63.3856V145.311C63.8607 144.594 64.5593 144.235 65.4816 144.235C66.2082 144.235 66.8184 144.473 67.3121 144.948C67.7965 145.404 68.0388 145.996 68.0388 146.722V150.691H66.7672V147.072C66.7672 146.606 66.6088 146.219 66.2921 145.912C65.9846 145.605 65.5934 145.451 65.1183 145.451C64.6245 145.451 64.21 145.609 63.8746 145.926C63.5486 146.233 63.3856 146.62 63.3856 147.086V150.691H62.1279ZM79.7212 143.201L78.3378 143.606C78.254 143.271 78.0351 142.991 77.6811 142.768C77.3364 142.544 76.9311 142.433 76.4654 142.433C75.9623 142.433 75.5338 142.558 75.1798 142.81C74.8351 143.061 74.6628 143.373 74.6628 143.746C74.6628 144.147 74.905 144.473 75.3894 144.724C75.6409 144.845 75.8971 144.943 76.1579 145.018L77.206 145.311C77.8581 145.488 78.3564 145.665 78.7011 145.842C79.1203 146.038 79.4371 146.303 79.6513 146.639C79.8749 146.974 80.0053 147.421 80.0426 147.98C80.0426 148.846 79.7212 149.545 79.0784 150.076C78.4263 150.598 77.5972 150.859 76.5911 150.859C75.6782 150.859 74.9003 150.649 74.2575 150.23C73.6054 149.792 73.1909 149.247 73.0139 148.595L74.3973 148.176C74.4811 148.558 74.728 148.879 75.1379 149.14C75.5478 149.391 76.0368 149.517 76.6051 149.517C77.192 149.517 77.6764 149.387 78.0583 149.126C78.4496 148.856 78.6452 148.511 78.6452 148.092C78.6452 147.822 78.5381 147.579 78.3238 147.365C78.1375 147.179 77.9372 147.039 77.723 146.946C77.5087 146.853 77.2013 146.76 76.8007 146.667C75.6735 146.34 74.9236 146.075 74.551 145.87C73.7032 145.414 73.2794 144.734 73.2794 143.83C73.2794 143.019 73.5728 142.363 74.1597 141.86C74.7559 141.347 75.5152 141.091 76.4374 141.091C77.2665 141.091 77.9792 141.291 78.5754 141.692C79.1716 142.093 79.5535 142.596 79.7212 143.201ZM80.7404 145.521V144.403H81.6906V143.145H82.9622V144.403H84.667V145.521H82.9622V148.609C82.9622 148.851 83.0414 149.056 83.1997 149.224C83.3581 149.391 83.5537 149.475 83.7866 149.475H84.667V150.691H83.7028C83.1345 150.691 82.6548 150.509 82.2635 150.146C81.8816 149.764 81.6906 149.303 81.6906 148.763V145.521H80.7404ZM87.1024 144.403V145.311C87.5775 144.594 88.2622 144.235 89.1565 144.235C89.259 144.235 89.3242 144.24 89.3521 144.249V145.66C89.2124 145.595 89.0261 145.563 88.7932 145.563C88.3088 145.563 87.9036 145.716 87.5775 146.024C87.2608 146.331 87.1024 146.718 87.1024 147.184V150.691H85.8448V144.403H87.1024ZM92.952 144.235C93.7624 144.235 94.4565 144.51 95.034 145.06V144.403H96.2917V150.691H95.034V150.034C94.4565 150.584 93.7624 150.859 92.952 150.859C92.0856 150.859 91.3497 150.542 90.7442 149.908C90.1573 149.284 89.8638 148.497 89.8638 147.547C89.8638 146.606 90.1573 145.819 90.7442 145.185C91.3497 144.552 92.0856 144.235 92.952 144.235ZM94.4471 146.094C94.0838 145.702 93.632 145.507 93.0917 145.507C92.5607 145.507 92.1042 145.702 91.7223 146.094C91.359 146.485 91.1773 146.969 91.1773 147.547C91.1773 148.124 91.359 148.609 91.7223 149C92.1042 149.391 92.5607 149.587 93.0917 149.587C93.632 149.587 94.0838 149.391 94.4471 149C94.8198 148.618 95.0061 148.134 95.0061 147.547C95.0061 146.96 94.8198 146.476 94.4471 146.094ZM97.2385 145.521V144.403H98.1887V143.145H99.4603V144.403H101.165V145.521H99.4603V148.609C99.4603 148.851 99.5395 149.056 99.6978 149.224C99.8562 149.391 100.052 149.475 100.285 149.475H101.165V150.691H100.201C99.6326 150.691 99.1529 150.509 98.7616 150.146C98.3797 149.764 98.1887 149.303 98.1887 148.763V145.521H97.2385ZM108.534 148.008H103.336C103.438 148.492 103.676 148.893 104.048 149.21C104.43 149.517 104.882 149.671 105.404 149.671C106.102 149.671 106.657 149.41 107.067 148.888L108.296 149.266C108.017 149.75 107.616 150.137 107.095 150.425C106.582 150.714 106.019 150.859 105.404 150.859C104.454 150.859 103.652 150.542 103 149.908C102.357 149.275 102.036 148.488 102.036 147.547C102.036 146.597 102.348 145.809 102.972 145.185C103.606 144.552 104.384 144.235 105.306 144.235C106.219 144.235 106.992 144.552 107.626 145.185C108.25 145.809 108.562 146.597 108.562 147.547C108.562 147.724 108.552 147.878 108.534 148.008ZM103.35 147.002H107.262C107.15 146.527 106.913 146.145 106.55 145.856C106.186 145.567 105.762 145.423 105.278 145.423C104.812 145.423 104.398 145.572 104.034 145.87C103.68 146.159 103.452 146.536 103.35 147.002ZM112.561 150.859C111.695 150.859 110.959 150.542 110.354 149.908C109.767 149.284 109.473 148.497 109.473 147.547C109.473 146.606 109.767 145.819 110.354 145.185C110.959 144.552 111.695 144.235 112.561 144.235C113.372 144.235 114.066 144.51 114.643 145.06V144.403H115.901V150.845C115.901 151.748 115.594 152.498 114.979 153.094C114.373 153.7 113.619 154.003 112.715 154.003C112.054 154.003 111.443 153.835 110.885 153.5C110.326 153.164 109.934 152.731 109.711 152.2L110.982 151.823C111.113 152.093 111.336 152.312 111.653 152.48C111.97 152.657 112.31 152.745 112.673 152.745C113.223 152.745 113.689 152.563 114.071 152.2C114.452 151.837 114.643 151.385 114.643 150.845V150.034C114.066 150.584 113.372 150.859 112.561 150.859ZM112.701 145.507C112.151 145.507 111.69 145.702 111.318 146.094C110.954 146.485 110.773 146.969 110.773 147.547C110.773 148.124 110.954 148.609 111.318 149C111.69 149.391 112.151 149.587 112.701 149.587C113.241 149.587 113.693 149.391 114.057 149C114.429 148.618 114.615 148.134 114.615 147.547C114.615 146.96 114.429 146.476 114.057 146.094C113.693 145.702 113.241 145.507 112.701 145.507ZM118.93 151.432L119.293 150.523L116.834 144.403H118.147L119.936 148.958L121.767 144.403H123.08L120.02 151.865C119.74 152.545 119.391 153.043 118.972 153.36C118.553 153.677 118.031 153.835 117.407 153.835H117.183V152.619H117.407C118.105 152.619 118.613 152.223 118.93 151.432Z" fill="black"/>
<rect x="0.963867" y="81.2505" width="124.675" height="33.7274" rx="16.8637" fill="#F2F2F2"/>
<path d="M30.1671 102.114H29.0353L24.9969 92.6821H26.4641L29.6082 100.116L32.7383 92.6821H34.2055L30.1671 102.114ZM36.4346 102.114H35.177V95.8262H36.4346V102.114ZM35.8058 92.9755C36.0387 92.9755 36.2343 93.0547 36.3927 93.2131C36.551 93.3715 36.6302 93.5671 36.6302 93.8C36.6302 94.1726 36.4579 94.4288 36.1132 94.5685C35.7685 94.7083 35.4658 94.6524 35.2049 94.4009C34.9534 94.14 34.8975 93.8372 35.0372 93.4926C35.177 93.1479 35.4331 92.9755 35.8058 92.9755ZM39.2593 95.8262V96.7344C39.7344 96.0171 40.4191 95.6585 41.3134 95.6585C41.4159 95.6585 41.4811 95.6631 41.5091 95.6724V97.0838C41.3693 97.0186 41.183 96.986 40.9501 96.986C40.4657 96.986 40.0605 97.1397 39.7344 97.4471C39.4177 97.7545 39.2593 98.1411 39.2593 98.6069V102.114H38.0017V95.8262H39.2593ZM41.9037 96.944V95.8262H42.8539V94.5685H44.1255V95.8262H45.8303V96.944H44.1255V100.032C44.1255 100.274 44.2047 100.479 44.3631 100.647C44.5214 100.815 44.7171 100.899 44.9499 100.899H45.8303V102.114H44.8661C44.2978 102.114 43.8181 101.933 43.4268 101.569C43.0449 101.187 42.8539 100.726 42.8539 100.186V96.944H41.9037ZM46.9668 99.7946V95.8262H48.2384V99.4453C48.2384 99.9111 48.3921 100.298 48.6996 100.605C49.007 100.913 49.3889 101.066 49.8454 101.066C50.3298 101.066 50.7304 100.908 51.0471 100.591C51.3732 100.265 51.5362 99.8785 51.5362 99.4313V95.8262H52.7938V102.114H51.5362V101.206C51.0611 101.923 50.3764 102.282 49.4821 102.282C48.7555 102.282 48.1546 102.044 47.6795 101.569C47.2044 101.094 46.9668 100.503 46.9668 99.7946ZM57.172 95.6585C57.9825 95.6585 58.6765 95.9333 59.2541 96.4829V95.8262H60.5117V102.114H59.2541V101.458C58.6765 102.007 57.9825 102.282 57.172 102.282C56.3056 102.282 55.5697 101.965 54.9642 101.332C54.3773 100.708 54.0839 99.9204 54.0839 98.9702C54.0839 98.0293 54.3773 97.2421 54.9642 96.6087C55.5697 95.9752 56.3056 95.6585 57.172 95.6585ZM58.6672 97.517C58.3039 97.1257 57.8521 96.9301 57.3117 96.9301C56.7808 96.9301 56.3243 97.1257 55.9423 97.517C55.579 97.9082 55.3974 98.3926 55.3974 98.9702C55.3974 99.5478 55.579 100.032 55.9423 100.423C56.3243 100.815 56.7808 101.01 57.3117 101.01C57.8521 101.01 58.3039 100.815 58.6672 100.423C59.0398 100.042 59.2261 99.5571 59.2261 98.9702C59.2261 98.3833 59.0398 97.8989 58.6672 97.517ZM63.331 102.114H62.0733V91.9834H63.331V102.114ZM68.3336 97.4052C68.3336 96.0078 68.7994 94.8433 69.731 93.9118C70.6625 92.9802 71.8223 92.5144 73.2104 92.5144C74.1513 92.5144 75.0037 92.738 75.7675 93.1852C76.5314 93.6323 77.1137 94.2471 77.5142 95.0297L76.1728 95.5467C75.8654 95.0157 75.4508 94.6011 74.9291 94.303C74.4168 94.0049 73.8439 93.8559 73.2104 93.8559C72.2229 93.8559 71.4031 94.1959 70.751 94.876C70.0989 95.5374 69.7729 96.3804 69.7729 97.4052C69.7729 98.4113 70.0989 99.2543 70.751 99.9344C71.4125 100.605 72.2322 100.94 73.2104 100.94C73.8439 100.94 74.4168 100.791 74.9291 100.493C75.4508 100.195 75.8654 99.7807 76.1728 99.2497L77.5142 99.7667C77.1137 100.549 76.5314 101.164 75.7675 101.611C75.0037 102.058 74.1513 102.282 73.2104 102.282C71.8223 102.282 70.6625 101.816 69.731 100.885C68.7994 99.953 68.3336 98.7932 68.3336 97.4052ZM80.4643 102.114H79.0669V92.6821H80.4643L84.1254 99.1239L87.7865 92.6821H89.1838V102.114H87.7865V95.3511L84.5865 100.968H83.6643L80.4643 95.3371V102.114ZM90.795 97.4052C90.795 96.0078 91.2608 94.8433 92.1924 93.9118C93.1239 92.9802 94.2838 92.5144 95.6718 92.5144C97.0598 92.5144 98.2196 92.9802 99.1512 93.9118C100.092 94.8527 100.563 96.0171 100.563 97.4052C100.563 98.7839 100.092 99.9437 99.1512 100.885C98.2196 101.816 97.0598 102.282 95.6718 102.282C94.2838 102.282 93.1239 101.816 92.1924 100.885C91.2608 99.953 90.795 98.7932 90.795 97.4052ZM92.2343 97.4052C92.2343 98.4113 92.5603 99.2543 93.2124 99.9344C93.8739 100.605 94.6936 100.94 95.6718 100.94C96.6406 100.94 97.4558 100.605 98.1172 99.9344C98.7786 99.245 99.1093 98.4019 99.1093 97.4052C99.1093 96.3991 98.7786 95.556 98.1172 94.876C97.4651 94.1959 96.6499 93.8559 95.6718 93.8559C94.6843 93.8559 93.8645 94.1959 93.2124 94.876C92.5603 95.5374 92.2343 96.3804 92.2343 97.4052Z" fill="black"/>
<rect x="138.705" y="81.2505" width="188.675" height="33.7274" rx="16.8637" fill="#F2F2F2"/>
<path d="M163.185 97.4049C163.185 96.0076 163.651 94.8431 164.582 93.9115C165.514 92.98 166.674 92.5142 168.062 92.5142C169.002 92.5142 169.855 92.7378 170.619 93.1849C171.383 93.6321 171.965 94.2469 172.365 95.0294L171.024 95.5464C170.717 95.0154 170.302 94.6009 169.78 94.3028C169.268 94.0047 168.695 93.8556 168.062 93.8556C167.074 93.8556 166.254 94.1957 165.602 94.8757C164.95 95.5371 164.624 96.3802 164.624 97.4049C164.624 98.411 164.95 99.2541 165.602 99.9341C166.264 100.605 167.083 100.94 168.062 100.94C168.695 100.94 169.268 100.791 169.78 100.493C170.302 100.195 170.717 99.7804 171.024 99.2494L172.365 99.7665C171.965 100.549 171.383 101.164 170.619 101.611C169.855 102.058 169.002 102.282 168.062 102.282C166.674 102.282 165.514 101.816 164.582 100.884C163.651 99.9528 163.185 98.793 163.185 97.4049ZM174.257 101.331C173.633 100.707 173.321 99.9202 173.321 98.97C173.321 98.0198 173.633 97.2326 174.257 96.6084C174.89 95.975 175.677 95.6582 176.618 95.6582C177.559 95.6582 178.346 95.975 178.98 96.6084C179.613 97.2419 179.93 98.0291 179.93 98.97C179.93 99.9108 179.613 100.698 178.98 101.331C178.346 101.965 177.559 102.282 176.618 102.282C175.677 102.282 174.89 101.965 174.257 101.331ZM175.193 97.5167C174.82 97.8987 174.634 98.3831 174.634 98.97C174.634 99.5569 174.82 100.041 175.193 100.423C175.566 100.814 176.041 101.01 176.618 101.01C177.177 101.01 177.648 100.814 178.03 100.423C178.412 100.023 178.603 99.5382 178.603 98.97C178.603 98.4017 178.412 97.9173 178.03 97.5167C177.648 97.1255 177.177 96.9298 176.618 96.9298C176.041 96.9298 175.566 97.1255 175.193 97.5167ZM182.458 102.114H181.201V95.8259H182.458V96.6224C182.887 95.9796 183.525 95.6582 184.373 95.6582C184.811 95.6582 185.207 95.7607 185.561 95.9656C185.924 96.1613 186.208 96.4314 186.413 96.7761C186.851 96.0309 187.554 95.6582 188.523 95.6582C189.24 95.6582 189.837 95.8818 190.312 96.329C190.787 96.7761 191.024 97.3351 191.024 98.0058V102.114H189.767V98.3551C189.767 97.9359 189.627 97.5866 189.347 97.3071C189.068 97.0183 188.714 96.8739 188.285 96.8739C187.848 96.8739 187.48 97.0183 187.182 97.3071C186.893 97.5866 186.748 97.9406 186.748 98.3691V102.114H185.477V98.3551C185.477 97.9359 185.337 97.5866 185.058 97.3071C184.778 97.0183 184.429 96.8739 184.01 96.8739C183.572 96.8739 183.204 97.0183 182.906 97.3071C182.608 97.5866 182.458 97.9406 182.458 98.3691V102.114ZM193.839 102.114H192.582V95.8259H193.839V96.6224C194.268 95.9796 194.906 95.6582 195.754 95.6582C196.191 95.6582 196.587 95.7607 196.941 95.9656C197.305 96.1613 197.589 96.4314 197.794 96.7761C198.232 96.0309 198.935 95.6582 199.904 95.6582C200.621 95.6582 201.217 95.8818 201.692 96.329C202.168 96.7761 202.405 97.3351 202.405 98.0058V102.114H201.147V98.3551C201.147 97.9359 201.008 97.5866 200.728 97.3071C200.449 97.0183 200.095 96.8739 199.666 96.8739C199.228 96.8739 198.86 97.0183 198.562 97.3071C198.274 97.5866 198.129 97.9406 198.129 98.3691V102.114H196.858V98.3551C196.858 97.9359 196.718 97.5866 196.438 97.3071C196.159 97.0183 195.81 96.8739 195.39 96.8739C194.953 96.8739 194.585 97.0183 194.286 97.3071C193.988 97.5866 193.839 97.9406 193.839 98.3691V102.114ZM203.839 99.7944V95.8259H205.111V99.4451C205.111 99.9108 205.265 100.297 205.572 100.605C205.879 100.912 206.261 101.066 206.718 101.066C207.202 101.066 207.603 100.908 207.92 100.591C208.246 100.265 208.409 99.8782 208.409 99.4311V95.8259H209.666V102.114H208.409V101.206C207.934 101.923 207.249 102.282 206.355 102.282C205.628 102.282 205.027 102.044 204.552 101.569C204.077 101.094 203.839 100.502 203.839 99.7944ZM211.236 102.114V95.8259H212.493V96.7342C212.969 96.0169 213.653 95.6582 214.548 95.6582C215.274 95.6582 215.875 95.8958 216.35 96.3709C216.825 96.8273 217.063 97.4142 217.063 98.1315V102.114H215.791V98.4949C215.791 98.0291 215.637 97.6425 215.33 97.3351C215.023 97.0276 214.641 96.8739 214.184 96.8739C213.709 96.8739 213.309 97.0323 212.983 97.349C212.656 97.6564 212.493 98.043 212.493 98.5088V102.114H211.236ZM219.876 102.114H218.618V95.8259H219.876V102.114ZM219.247 92.9753C219.48 92.9753 219.676 93.0545 219.834 93.2129C219.992 93.3712 220.072 93.5669 220.072 93.7997C220.072 94.1724 219.899 94.4286 219.555 94.5683C219.21 94.708 218.907 94.6521 218.646 94.4006C218.395 94.1398 218.339 93.837 218.479 93.4923C218.618 93.1476 218.875 92.9753 219.247 92.9753ZM227.508 97.6425L226.236 98.0337C226.078 97.6984 225.84 97.4329 225.523 97.2372C225.207 97.0323 224.853 96.9298 224.461 96.9298C223.884 96.9298 223.409 97.1255 223.036 97.5167C222.663 97.8987 222.477 98.3831 222.477 98.97C222.477 99.5569 222.663 100.041 223.036 100.423C223.409 100.814 223.884 101.01 224.461 101.01C224.853 101.01 225.207 100.912 225.523 100.717C225.84 100.512 226.078 100.242 226.236 99.9062L227.508 100.283C227.256 100.898 226.855 101.387 226.306 101.751C225.766 102.105 225.151 102.282 224.461 102.282C223.52 102.282 222.733 101.965 222.1 101.331C221.476 100.707 221.164 99.9202 221.164 98.97C221.164 98.0198 221.476 97.2326 222.1 96.6084C222.733 95.975 223.52 95.6582 224.461 95.6582C225.16 95.6582 225.78 95.8352 226.32 96.1892C226.86 96.5432 227.256 97.0276 227.508 97.6425ZM231.457 95.6582C232.267 95.6582 232.961 95.933 233.539 96.4827V95.8259H234.797V102.114H233.539V101.457C232.961 102.007 232.267 102.282 231.457 102.282C230.591 102.282 229.855 101.965 229.249 101.331C228.662 100.707 228.369 99.9202 228.369 98.97C228.369 98.0291 228.662 97.2419 229.249 96.6084C229.855 95.975 230.591 95.6582 231.457 95.6582ZM232.952 97.5167C232.589 97.1255 232.137 96.9298 231.597 96.9298C231.066 96.9298 230.609 97.1255 230.227 97.5167C229.864 97.908 229.682 98.3924 229.682 98.97C229.682 99.5475 229.864 100.032 230.227 100.423C230.609 100.814 231.066 101.01 231.597 101.01C232.137 101.01 232.589 100.814 232.952 100.423C233.325 100.041 233.511 99.5569 233.511 98.97C233.511 98.3831 233.325 97.8987 232.952 97.5167ZM235.743 96.9438V95.8259H236.694V94.5683H237.965V95.8259H239.67V96.9438H237.965V100.032C237.965 100.274 238.044 100.479 238.203 100.647C238.361 100.814 238.557 100.898 238.79 100.898H239.67V102.114H238.706C238.138 102.114 237.658 101.932 237.266 101.569C236.885 101.187 236.694 100.726 236.694 100.186V96.9438H235.743ZM242.105 102.114H240.848V95.8259H242.105V102.114ZM241.477 92.9753C241.709 92.9753 241.905 93.0545 242.063 93.2129C242.222 93.3712 242.301 93.5669 242.301 93.7997C242.301 94.1724 242.129 94.4286 241.784 94.5683C241.439 94.708 241.137 94.6521 240.876 94.4006C240.624 94.1398 240.568 93.837 240.708 93.4923C240.848 93.1476 241.104 92.9753 241.477 92.9753ZM244.329 101.331C243.705 100.707 243.393 99.9202 243.393 98.97C243.393 98.0198 243.705 97.2326 244.329 96.6084C244.963 95.975 245.75 95.6582 246.691 95.6582C247.632 95.6582 248.419 95.975 249.052 96.6084C249.686 97.2419 250.003 98.0291 250.003 98.97C250.003 99.9108 249.686 100.698 249.052 101.331C248.419 101.965 247.632 102.282 246.691 102.282C245.75 102.282 244.963 101.965 244.329 101.331ZM245.265 97.5167C244.893 97.8987 244.707 98.3831 244.707 98.97C244.707 99.5569 244.893 100.041 245.265 100.423C245.638 100.814 246.113 101.01 246.691 101.01C247.25 101.01 247.72 100.814 248.102 100.423C248.484 100.023 248.675 99.5382 248.675 98.97C248.675 98.4017 248.484 97.9173 248.102 97.5167C247.72 97.1255 247.25 96.9298 246.691 96.9298C246.113 96.9298 245.638 97.1255 245.265 97.5167ZM251.273 102.114V95.8259H252.531V96.7342C253.006 96.0169 253.691 95.6582 254.585 95.6582C255.312 95.6582 255.913 95.8958 256.388 96.3709C256.863 96.8273 257.1 97.4142 257.1 98.1315V102.114H255.829V98.4949C255.829 98.0291 255.675 97.6425 255.368 97.3351C255.06 97.0276 254.678 96.8739 254.222 96.8739C253.747 96.8739 253.346 97.0323 253.02 97.349C252.694 97.6564 252.531 98.043 252.531 98.5088V102.114H251.273ZM266.172 102.114H262.413V92.6819H266.172C267.55 92.6819 268.71 93.1383 269.651 94.0513C270.592 94.9642 271.062 96.0821 271.062 97.4049C271.062 98.7278 270.592 99.8456 269.651 100.759C268.72 101.662 267.56 102.114 266.172 102.114ZM266.172 93.9814H263.81V100.814H266.172C267.15 100.814 267.965 100.488 268.617 99.8363C269.278 99.1749 269.609 98.3644 269.609 97.4049C269.609 96.4361 269.278 95.621 268.617 94.9595C267.965 94.3074 267.15 93.9814 266.172 93.9814ZM278.629 99.4311H273.431C273.534 99.9155 273.771 100.316 274.144 100.633C274.526 100.94 274.978 101.094 275.499 101.094C276.198 101.094 276.752 100.833 277.162 100.311L278.392 100.689C278.112 101.173 277.712 101.56 277.19 101.849C276.678 102.137 276.114 102.282 275.499 102.282C274.549 102.282 273.748 101.965 273.096 101.331C272.453 100.698 272.132 99.9108 272.132 98.97C272.132 98.0198 272.444 97.2326 273.068 96.6084C273.701 95.975 274.479 95.6582 275.401 95.6582C276.314 95.6582 277.088 95.975 277.721 96.6084C278.345 97.2326 278.657 98.0198 278.657 98.97C278.657 99.147 278.648 99.3007 278.629 99.4311ZM273.445 98.425H277.358C277.246 97.9499 277.008 97.5679 276.645 97.2792C276.282 96.9904 275.858 96.846 275.373 96.846C274.908 96.846 274.493 96.995 274.13 97.2931C273.776 97.5819 273.548 97.9592 273.445 98.425ZM284.306 97.2652L283.132 97.4748C282.974 97.009 282.564 96.7761 281.902 96.7761C281.595 96.7761 281.343 96.8413 281.148 96.9717C280.952 97.0928 280.854 97.2512 280.854 97.4468C280.854 97.7077 281.059 97.9173 281.469 98.0757L282.88 98.5647C283.905 98.928 284.418 99.5289 284.418 100.367C284.418 100.973 284.194 101.443 283.747 101.779C283.3 102.114 282.717 102.282 282 102.282C281.292 102.282 280.715 102.123 280.267 101.807C279.82 101.49 279.555 101.061 279.471 100.521L280.673 100.339C280.719 100.591 280.864 100.791 281.106 100.94C281.357 101.089 281.665 101.164 282.028 101.164C282.373 101.164 282.657 101.094 282.88 100.954C283.104 100.814 283.216 100.633 283.216 100.409C283.216 100.102 282.96 99.8596 282.447 99.6826L281.05 99.2215C280.109 98.8954 279.639 98.3365 279.639 97.5447C279.639 96.9391 279.853 96.4734 280.281 96.1473C280.71 95.8213 281.283 95.6582 282 95.6582C282.643 95.6582 283.169 95.8026 283.579 96.0914C283.989 96.3802 284.231 96.7715 284.306 97.2652ZM286.905 102.114H285.648V95.8259H286.905V102.114ZM286.277 92.9753C286.509 92.9753 286.705 93.0545 286.863 93.2129C287.022 93.3712 287.101 93.5669 287.101 93.7997C287.101 94.1724 286.929 94.4286 286.584 94.5683C286.239 94.708 285.937 94.6521 285.676 94.4006C285.424 94.1398 285.368 93.837 285.508 93.4923C285.648 93.1476 285.904 92.9753 286.277 92.9753ZM291.281 102.282C290.415 102.282 289.679 101.965 289.073 101.331C288.486 100.707 288.193 99.9202 288.193 98.97C288.193 98.0291 288.486 97.2419 289.073 96.6084C289.679 95.975 290.415 95.6582 291.281 95.6582C292.092 95.6582 292.786 95.933 293.363 96.4827V95.8259H294.621V102.268C294.621 103.171 294.313 103.921 293.699 104.517C293.093 105.123 292.339 105.426 291.435 105.426C290.773 105.426 290.163 105.258 289.604 104.923C289.045 104.587 288.654 104.154 288.431 103.623L289.702 103.246C289.833 103.516 290.056 103.735 290.373 103.903C290.69 104.08 291.03 104.168 291.393 104.168C291.943 104.168 292.408 103.986 292.79 103.623C293.172 103.26 293.363 102.808 293.363 102.268V101.457C292.786 102.007 292.092 102.282 291.281 102.282ZM291.421 96.9298C290.871 96.9298 290.41 97.1255 290.038 97.5167C289.674 97.908 289.493 98.3924 289.493 98.97C289.493 99.5475 289.674 100.032 290.038 100.423C290.41 100.814 290.871 101.01 291.421 101.01C291.961 101.01 292.413 100.814 292.776 100.423C293.149 100.041 293.335 99.5569 293.335 98.97C293.335 98.3831 293.149 97.8987 292.776 97.5167C292.413 97.1255 291.961 96.9298 291.421 96.9298ZM296.183 102.114V95.8259H297.44V96.7342C297.915 96.0169 298.6 95.6582 299.494 95.6582C300.221 95.6582 300.822 95.8958 301.297 96.3709C301.772 96.8273 302.01 97.4142 302.01 98.1315V102.114H300.738V98.4949C300.738 98.0291 300.584 97.6425 300.277 97.3351C299.969 97.0276 299.587 96.8739 299.131 96.8739C298.656 96.8739 298.255 97.0323 297.929 97.349C297.603 97.6564 297.44 98.043 297.44 98.5088V102.114H296.183Z" fill="black"/>
</svg>
