<svg width="770" height="154" viewBox="0 0 770 154" fill="none" xmlns="http://www.w3.org/2000/svg">
<path d="M7.552 7.25009C7.72267 6.18342 8.20267 5.25542 8.992 4.46609C9.184 4.25276 9.51467 3.95409 9.984 3.57009C10.2613 3.33542 10.6347 3.07942 11.104 2.80209L11.712 3.60209C10.56 4.58342 9.93067 5.49009 9.824 6.32209C10.2293 6.36476 10.5387 6.55676 10.752 6.89809C10.9867 7.21809 11.072 7.60209 11.008 8.05009C10.9227 8.51942 10.688 8.91409 10.304 9.23409C9.92 9.53276 9.48267 9.68209 8.992 9.68209C8.45867 9.68209 8.05333 9.46876 7.776 9.04209C7.49867 8.59409 7.424 7.99676 7.552 7.25009ZM2.912 7.25009C3.08267 6.18342 3.56267 5.25542 4.352 4.46609C4.544 4.25276 4.87467 3.95409 5.344 3.57009C5.62133 3.33542 5.99467 3.07942 6.464 2.80209L7.072 3.60209C5.92 4.58342 5.29067 5.49009 5.184 6.32209C5.58933 6.36476 5.89867 6.55676 6.112 6.89809C6.34667 7.21809 6.432 7.60209 6.368 8.05009C6.28267 8.51942 6.048 8.91409 5.664 9.23409C5.28 9.53276 4.84267 9.68209 4.352 9.68209C3.81867 9.68209 3.41333 9.46876 3.136 9.04209C2.85867 8.59409 2.784 7.99676 2.912 7.25009ZM12.9808 21.6821L9.94075 26.6421H7.22075L20.5008 5.04209H22.5808L28.2768 26.6421H25.5888L24.3088 21.6821H12.9808ZM23.6688 19.2821L20.9168 8.72209L14.4528 19.2821H23.6688ZM35.731 26.9621C34.0883 26.9621 32.7977 26.4181 31.859 25.3301C30.963 24.2421 30.6643 22.8768 30.963 21.2341L32.531 12.2421H34.899L33.427 20.5941C33.2137 21.7674 33.427 22.7488 34.067 23.5381C34.707 24.3061 35.6137 24.6901 36.787 24.6901C38.0243 24.6901 39.1443 24.3061 40.147 23.5381C41.1283 22.7488 41.7257 21.7674 41.939 20.5941V20.5621L43.443 12.2421H45.779L43.251 26.6421H40.915L41.331 24.2101C39.8803 26.0448 38.0137 26.9621 35.731 26.9621ZM52.5018 34.1621C51.0511 34.1621 49.7711 33.8101 48.6618 33.1061C47.5738 32.4021 46.8591 31.4848 46.5177 30.3541L48.9818 29.6181C49.2378 30.2794 49.7178 30.8128 50.4218 31.2181C51.1258 31.6234 51.9258 31.8261 52.8218 31.8261C54.2938 31.8261 55.5951 31.3568 56.7258 30.4181C57.8778 29.4794 58.5711 28.3061 58.8058 26.8981L59.2218 24.6261C57.5364 26.1834 55.6484 26.9621 53.5578 26.9621C51.5311 26.9621 49.9631 26.2474 48.8538 24.8181C47.7658 23.3888 47.4138 21.5968 47.7978 19.4421C48.1391 17.3301 49.1204 15.5488 50.7418 14.0981C52.3844 12.6474 54.2084 11.9221 56.2138 11.9221C58.3258 11.9221 59.9258 12.7008 61.0138 14.2581L61.3658 12.2421H63.7018L61.1418 26.8981C60.8004 28.9674 59.7871 30.6954 58.1018 32.0821C56.4591 33.4688 54.5924 34.1621 52.5018 34.1621ZM60.0538 19.4421C60.3098 17.9701 60.0538 16.7434 59.2858 15.7621C58.5178 14.7808 57.4404 14.2901 56.0538 14.2901C54.6458 14.2901 53.3871 14.7808 52.2778 15.7621C51.1684 16.7434 50.4858 17.9701 50.2298 19.4421C49.9738 20.8928 50.2191 22.1194 50.9658 23.1221C51.7338 24.1034 52.8111 24.5941 54.1978 24.5941C55.5844 24.5941 56.8324 24.1034 57.9418 23.1221C59.0724 22.1194 59.7764 20.8928 60.0538 19.4421ZM70.856 26.9621C69.2133 26.9621 67.9227 26.4181 66.984 25.3301C66.088 24.2421 65.7893 22.8768 66.088 21.2341L67.656 12.2421H70.024L68.552 20.5941C68.3387 21.7674 68.552 22.7488 69.192 23.5381C69.832 24.3061 70.7387 24.6901 71.912 24.6901C73.1493 24.6901 74.2693 24.3061 75.272 23.5381C76.2533 22.7488 76.8507 21.7674 77.064 20.5941V20.5621L78.568 12.2421H80.904L78.376 26.6421H76.04L76.456 24.2101C75.0053 26.0448 73.1387 26.9621 70.856 26.9621ZM97.5468 20.2421H85.1948C85.1308 21.5434 85.5041 22.6208 86.3148 23.4741C87.1468 24.3274 88.2561 24.7541 89.6428 24.7541C91.4561 24.7541 92.9921 24.0608 94.2508 22.6741L96.4268 23.3781C95.5734 24.4874 94.5068 25.3621 93.2268 26.0021C91.9681 26.6421 90.6454 26.9621 89.2588 26.9621C87.0614 26.9621 85.3548 26.2474 84.1388 24.8181C82.9441 23.3674 82.5388 21.5754 82.9228 19.4421C83.2641 17.3301 84.2774 15.5488 85.9628 14.0981C87.6694 12.6474 89.5681 11.9221 91.6588 11.9221C93.7708 11.9221 95.4028 12.6368 96.5548 14.0661C97.7281 15.4741 98.1334 17.2661 97.7708 19.4421C97.7281 19.6128 97.6854 19.7941 97.6428 19.9861L97.5468 20.2421ZM85.5468 18.3541H95.5308C95.5094 17.1168 95.1041 16.1034 94.3148 15.3141C93.5254 14.5248 92.5014 14.1301 91.2428 14.1301C90.0054 14.1301 88.8534 14.5248 87.7868 15.3141C86.7414 16.1034 85.9948 17.1168 85.5468 18.3541ZM112.325 21.6821L109.285 26.6421H106.564L119.845 5.04209H121.925L127.621 26.6421H124.933L123.653 21.6821H112.325ZM123.013 19.2821L120.261 8.72209L113.797 19.2821H123.013ZM132.559 26.6421H130.223L134.287 3.44209H136.655L132.559 26.6421ZM138.966 26.6421H136.598L139.126 12.2421H141.494L138.966 26.6421ZM139.51 7.53809C139.596 7.06876 139.82 6.68476 140.182 6.38609C140.545 6.08742 140.961 5.93809 141.43 5.93809C141.878 5.93809 142.23 6.08742 142.486 6.38609C142.742 6.68476 142.828 7.06876 142.742 7.53809C142.657 8.00742 142.433 8.40209 142.07 8.72209C141.708 9.02076 141.302 9.17009 140.854 9.17009C140.385 9.17009 140.022 9.02076 139.766 8.72209C139.51 8.42342 139.425 8.02876 139.51 7.53809ZM149.245 26.9621C147.219 26.9621 145.651 26.2474 144.541 24.8181C143.453 23.3888 143.101 21.5968 143.485 19.4421C143.827 17.3301 144.808 15.5488 146.429 14.0981C148.072 12.6474 149.896 11.9221 151.901 11.9221C154.013 11.9221 155.613 12.7008 156.701 14.2581L157.053 12.2421H159.389L155.581 33.8421H153.245L154.877 24.6261C153.256 26.1834 151.379 26.9621 149.245 26.9621ZM155.741 19.4421C155.997 17.9701 155.741 16.7434 154.973 15.7621C154.205 14.7808 153.128 14.2901 151.741 14.2901C150.333 14.2901 149.075 14.7808 147.965 15.7621C146.856 16.7434 146.173 17.9701 145.917 19.4421C145.661 20.9141 145.917 22.1408 146.685 23.1221C147.453 24.1034 148.531 24.5941 149.917 24.5941C151.304 24.5941 152.552 24.1034 153.661 23.1221C154.749 22.1408 155.443 20.9141 155.741 19.4421ZM166.544 26.9621C164.901 26.9621 163.61 26.4181 162.672 25.3301C161.776 24.2421 161.477 22.8768 161.776 21.2341L163.344 12.2421H165.712L164.24 20.5941C164.026 21.7674 164.24 22.7488 164.88 23.5381C165.52 24.3061 166.426 24.6901 167.6 24.6901C168.837 24.6901 169.957 24.3061 170.96 23.5381C171.941 22.7488 172.538 21.7674 172.752 20.5941V20.5621L174.256 12.2421H176.592L174.064 26.6421H171.728L172.144 24.2101C170.693 26.0448 168.826 26.9621 166.544 26.9621ZM184.37 26.9621C182.344 26.9621 180.776 26.2474 179.666 24.8181C178.578 23.3888 178.226 21.5968 178.61 19.4421C178.952 17.3301 179.933 15.5488 181.554 14.0981C183.197 12.6474 185.021 11.9221 187.026 11.9221C189.138 11.9221 190.738 12.7008 191.826 14.2581L192.178 12.2421H194.546L192.018 26.6421H189.65L190.002 24.6261C188.381 26.1834 186.504 26.9621 184.37 26.9621ZM190.866 19.4421C191.122 17.9701 190.866 16.7434 190.098 15.7621C189.33 14.7808 188.253 14.2901 186.866 14.2901C185.458 14.2901 184.2 14.7808 183.09 15.7621C181.981 16.7434 181.298 17.9701 181.042 19.4421C180.786 20.9141 181.042 22.1408 181.81 23.1221C182.578 24.1034 183.656 24.5941 185.042 24.5941C186.429 24.5941 187.677 24.1034 188.786 23.1221C189.874 22.1408 190.568 20.9141 190.866 19.4421ZM199.877 17.9701L198.341 26.6421H196.005L198.533 12.2421H200.869L200.516 14.3541C201.818 12.7328 203.535 11.9221 205.669 11.9221C206.693 11.9221 207.589 12.1781 208.357 12.6901C209.125 13.1808 209.658 13.8528 209.957 14.7061C211.322 12.8501 213.189 11.9221 215.557 11.9221C217.199 11.9221 218.447 12.4341 219.301 13.4581C220.197 14.4821 220.517 15.7621 220.261 17.2981L218.597 26.6421H216.261L217.797 17.9061C217.989 16.8608 217.797 15.9861 217.221 15.2821C216.645 14.5568 215.823 14.1941 214.757 14.1941C213.605 14.1941 212.581 14.5461 211.685 15.2501C210.789 15.9541 210.234 16.8288 210.021 17.8741L208.485 26.6421H206.149L207.653 17.9061C207.845 16.8608 207.653 15.9861 207.077 15.2821C206.501 14.5568 205.679 14.1941 204.613 14.1941C203.482 14.1941 202.458 14.5568 201.541 15.2821C200.623 15.9861 200.069 16.8608 199.877 17.9061V17.9701ZM237.052 10.0021L234.108 26.6421H231.516L235.324 5.04209H237.916L243.996 20.4981L255.516 5.04209H258.108L254.332 26.6421H251.74L254.652 9.97009L244.22 23.9221H242.524L237.052 10.0021ZM259.36 19.4421C259.702 17.3301 260.726 15.5488 262.432 14.0981C264.139 12.6474 266.059 11.9221 268.192 11.9221C270.326 11.9221 271.979 12.6368 273.152 14.0661C274.326 15.4954 274.742 17.2874 274.4 19.4421C274.016 21.5754 272.971 23.3674 271.264 24.8181C269.579 26.2474 267.67 26.9621 265.536 26.9621C263.382 26.9621 261.718 26.2474 260.544 24.8181C259.371 23.3888 258.976 21.5968 259.36 19.4421ZM263.872 15.7621C262.742 16.7648 262.048 17.9914 261.792 19.4421C261.536 20.9141 261.803 22.1408 262.592 23.1221C263.382 24.1034 264.502 24.5941 265.952 24.5941C267.424 24.5941 268.715 24.1034 269.824 23.1221C270.976 22.1194 271.68 20.8928 271.936 19.4421C272.192 17.9701 271.926 16.7434 271.136 15.7621C270.347 14.7808 269.227 14.2901 267.776 14.2901C266.304 14.2901 265.003 14.7808 263.872 15.7621ZM278.716 26.6421H276.38L280.444 3.44209H282.812L278.716 26.6421ZM285.091 26.6421H282.755L286.819 3.44209H289.187L285.091 26.6421ZM291.498 26.6421H289.13L291.658 12.2421H294.026L291.498 26.6421ZM292.042 7.53809C292.127 7.06876 292.351 6.68476 292.714 6.38609C293.076 6.08742 293.492 5.93809 293.962 5.93809C294.41 5.93809 294.762 6.08742 295.018 6.38609C295.274 6.68476 295.359 7.06876 295.274 7.53809C295.188 8.00742 294.964 8.40209 294.602 8.72209C294.239 9.02076 293.834 9.17009 293.386 9.17009C292.916 9.17009 292.554 9.02076 292.298 8.72209C292.042 8.42342 291.956 8.02876 292.042 7.53809ZM307.281 15.3781L304.977 15.7941C304.934 15.2608 304.667 14.8341 304.177 14.5141C303.686 14.1728 303.035 14.0021 302.225 14.0021C301.435 14.0021 300.742 14.1728 300.145 14.5141C299.569 14.8554 299.238 15.3034 299.153 15.8581C298.982 16.6261 299.387 17.1914 300.369 17.5541L303.633 18.8021C305.723 19.6128 306.609 20.9248 306.289 22.7381C306.033 24.0608 305.339 25.0954 304.209 25.8421C303.078 26.5888 301.713 26.9621 300.113 26.9621C298.577 26.9621 297.371 26.6208 296.497 25.9381C295.622 25.2554 295.184 24.3381 295.184 23.1861L297.457 22.8021C297.499 23.4421 297.787 23.9541 298.321 24.3381C298.875 24.7008 299.611 24.8821 300.529 24.8821C301.425 24.8821 302.193 24.6901 302.833 24.3061C303.494 23.9221 303.878 23.4208 303.985 22.8021C304.134 21.9701 303.622 21.3301 302.449 20.8821L299.249 19.6981C297.329 18.9514 296.529 17.7354 296.849 16.0501C297.083 14.7488 297.734 13.7354 298.801 13.0101C299.889 12.2848 301.211 11.9221 302.769 11.9221C304.155 11.9221 305.243 12.2421 306.033 12.8821C306.843 13.5008 307.259 14.3328 307.281 15.3781ZM326.247 26.6421H317.735L321.543 5.04209H330.023C333.201 5.04209 335.665 6.07676 337.415 8.14609C339.164 10.2368 339.772 12.7968 339.239 15.8261C338.684 18.8981 337.169 21.4688 334.694 23.5381C332.241 25.6074 329.425 26.6421 326.247 26.6421ZM323.719 7.44209L320.743 24.2421H326.663C328.903 24.2421 330.929 23.5274 332.743 22.0981C334.577 20.6474 335.793 18.8448 336.391 16.6901L336.583 15.8261C337.009 13.4581 336.551 11.4741 335.207 9.87409C333.905 8.25276 332.039 7.44209 329.607 7.44209H323.719ZM343.373 26.6421H341.005L343.533 12.2421H345.901L343.373 26.6421ZM343.917 7.53809C344.002 7.06876 344.226 6.68476 344.589 6.38609C344.951 6.08742 345.367 5.93809 345.837 5.93809C346.285 5.93809 346.637 6.08742 346.893 6.38609C347.149 6.68476 347.234 7.06876 347.149 7.53809C347.063 8.00742 346.839 8.40209 346.477 8.72209C346.114 9.02076 345.709 9.17009 345.261 9.17009C344.791 9.17009 344.429 9.02076 344.173 8.72209C343.917 8.42342 343.831 8.02876 343.917 7.53809ZM353.652 26.9621C351.625 26.9621 350.057 26.2474 348.948 24.8181C347.86 23.3888 347.508 21.5968 347.892 19.4421C348.233 17.3301 349.214 15.5488 350.836 14.0981C352.478 12.6474 354.302 11.9221 356.308 11.9221C358.42 11.9221 360.02 12.7008 361.108 14.2581L361.46 12.2421H363.828L361.3 26.6421H358.932L359.284 24.6261C357.662 26.1834 355.785 26.9621 353.652 26.9621ZM360.148 19.4421C360.404 17.9701 360.148 16.7434 359.38 15.7621C358.612 14.7808 357.534 14.2901 356.148 14.2901C354.74 14.2901 353.481 14.7808 352.372 15.7621C351.262 16.7434 350.58 17.9701 350.324 19.4421C350.068 20.9141 350.324 22.1408 351.092 23.1221C351.86 24.1034 352.937 24.5941 354.324 24.5941C355.71 24.5941 356.958 24.1034 358.068 23.1221C359.156 22.1408 359.849 20.9141 360.148 19.4421ZM369.158 17.9701L367.622 26.6421H365.286L367.814 12.2421H370.15L369.798 14.3541C371.099 12.7328 372.816 11.9221 374.95 11.9221C375.974 11.9221 376.87 12.1781 377.638 12.6901C378.406 13.1808 378.939 13.8528 379.238 14.7061C380.603 12.8501 382.47 11.9221 384.838 11.9221C386.48 11.9221 387.728 12.4341 388.582 13.4581C389.478 14.4821 389.798 15.7621 389.542 17.2981L387.878 26.6421H385.542L387.078 17.9061C387.27 16.8608 387.078 15.9861 386.502 15.2821C385.926 14.5568 385.104 14.1941 384.038 14.1941C382.886 14.1941 381.862 14.5461 380.966 15.2501C380.07 15.9541 379.515 16.8288 379.302 17.8741L377.766 26.6421H375.43L376.934 17.9061C377.126 16.8608 376.934 15.9861 376.358 15.2821C375.782 14.5568 374.96 14.1941 373.894 14.1941C372.763 14.1941 371.739 14.5568 370.822 15.2821C369.904 15.9861 369.35 16.8608 369.158 17.9061V17.9701ZM417.693 18.0021L419.965 5.04209H422.557L420.285 18.0021C419.837 20.5408 418.589 22.6741 416.541 24.4021C414.472 26.1088 412.146 26.9621 409.565 26.9621C406.962 26.9621 404.936 26.1088 403.485 24.4021C402.034 22.6528 401.533 20.5194 401.981 18.0021L404.253 5.04209H406.845L404.573 18.0021C404.232 19.8794 404.573 21.4474 405.597 22.7061C406.642 23.9434 408.104 24.5621 409.981 24.5621C411.88 24.5621 413.544 23.9434 414.973 22.7061C416.424 21.4688 417.33 19.9008 417.693 18.0021ZM425.309 26.6421H422.973L427.037 3.44209H429.405L425.309 26.6421ZM431.684 26.6421H429.348L433.412 3.44209H435.78L431.684 26.6421ZM441.995 26.9621C439.969 26.9621 438.401 26.2474 437.291 24.8181C436.203 23.3888 435.851 21.5968 436.235 19.4421C436.577 17.3301 437.558 15.5488 439.179 14.0981C440.822 12.6474 442.646 11.9221 444.651 11.9221C446.763 11.9221 448.363 12.7008 449.451 14.2581L449.803 12.2421H452.171L449.643 26.6421H447.275L447.627 24.6261C446.006 26.1834 444.129 26.9621 441.995 26.9621ZM448.491 19.4421C448.747 17.9701 448.491 16.7434 447.723 15.7621C446.955 14.7808 445.878 14.2901 444.491 14.2901C443.083 14.2901 441.825 14.7808 440.715 15.7621C439.606 16.7434 438.923 17.9701 438.667 19.4421C438.411 20.9141 438.667 22.1408 439.435 23.1221C440.203 24.1034 441.281 24.5941 442.667 24.5941C444.054 24.5941 445.302 24.1034 446.411 23.1221C447.499 22.1408 448.193 20.9141 448.491 19.4421ZM457.502 17.9701L455.966 26.6421H453.63L456.158 12.2421H458.494L458.141 14.3541C459.443 12.7328 461.16 11.9221 463.294 11.9221C464.318 11.9221 465.214 12.1781 465.982 12.6901C466.75 13.1808 467.283 13.8528 467.582 14.7061C468.947 12.8501 470.814 11.9221 473.182 11.9221C474.824 11.9221 476.072 12.4341 476.926 13.4581C477.822 14.4821 478.142 15.7621 477.886 17.2981L476.222 26.6421H473.886L475.422 17.9061C475.614 16.8608 475.422 15.9861 474.846 15.2821C474.27 14.5568 473.448 14.1941 472.382 14.1941C471.23 14.1941 470.206 14.5461 469.31 15.2501C468.414 15.9541 467.859 16.8288 467.646 17.8741L466.11 26.6421H463.774L465.278 17.9061C465.47 16.8608 465.278 15.9861 464.702 15.2821C464.126 14.5568 463.304 14.1941 462.238 14.1941C461.107 14.1941 460.083 14.5568 459.166 15.2821C458.248 15.9861 457.694 16.8608 457.502 17.9061V17.9701ZM495.647 16.2741L493.151 17.0101C492.895 16.1781 492.415 15.5168 491.711 15.0261C491.007 14.5354 490.154 14.2901 489.151 14.2901C487.679 14.2901 486.378 14.7808 485.247 15.7621C484.117 16.7648 483.423 17.9914 483.167 19.4421C482.911 20.9141 483.178 22.1408 483.967 23.1221C484.757 24.1034 485.877 24.5941 487.327 24.5941C488.33 24.5941 489.258 24.3594 490.111 23.8901C490.986 23.3994 491.711 22.7274 492.287 21.8741L494.527 22.6101C493.695 23.9541 492.597 25.0208 491.231 25.8101C489.887 26.5781 488.447 26.9621 486.911 26.9621C484.757 26.9621 483.093 26.2474 481.919 24.8181C480.746 23.3888 480.351 21.5968 480.735 19.4421C481.077 17.3301 482.101 15.5488 483.807 14.0981C485.514 12.6474 487.434 11.9221 489.567 11.9221C491.103 11.9221 492.415 12.3168 493.503 13.1061C494.591 13.8954 495.306 14.9514 495.647 16.2741ZM497.329 19.4421C497.67 17.3301 498.694 15.5488 500.401 14.0981C502.108 12.6474 504.028 11.9221 506.161 11.9221C508.294 11.9221 509.948 12.6368 511.121 14.0661C512.294 15.4954 512.71 17.2874 512.369 19.4421C511.985 21.5754 510.94 23.3674 509.233 24.8181C507.548 26.2474 505.638 26.9621 503.505 26.9621C501.35 26.9621 499.686 26.2474 498.513 24.8181C497.34 23.3888 496.945 21.5968 497.329 19.4421ZM501.841 15.7621C500.71 16.7648 500.017 17.9914 499.761 19.4421C499.505 20.9141 499.772 22.1408 500.561 23.1221C501.35 24.1034 502.47 24.5941 503.921 24.5941C505.393 24.5941 506.684 24.1034 507.793 23.1221C508.945 22.1194 509.649 20.8928 509.905 19.4421C510.161 17.9701 509.894 16.7434 509.105 15.7621C508.316 14.7808 507.196 14.2901 505.745 14.2901C504.273 14.2901 502.972 14.7808 501.841 15.7621ZM519.212 12.2421L518.796 14.6741C520.183 12.8394 522.178 11.9221 524.78 11.9221L524.332 14.5461C523.948 14.4394 523.607 14.3861 523.308 14.3861C522.028 14.3861 520.898 14.7808 519.916 15.5701C518.935 16.3594 518.338 17.3408 518.124 18.5141L516.684 26.6421H514.348L516.876 12.2421H519.212ZM525.873 33.8421H523.537L527.345 12.2421H529.681L529.329 14.2261C530.972 12.6901 532.849 11.9221 534.961 11.9221C536.988 11.9221 538.545 12.6474 539.633 14.0981C540.742 15.5274 541.105 17.3088 540.721 19.4421C540.358 21.5968 539.366 23.3888 537.745 24.8181C536.166 26.2474 534.353 26.9621 532.305 26.9621C530.193 26.9621 528.593 26.1941 527.505 24.6581L525.873 33.8421ZM528.497 19.4421C528.22 20.8928 528.465 22.1194 529.233 23.1221C530.001 24.1034 531.078 24.5941 532.465 24.5941C533.852 24.5941 535.1 24.1034 536.209 23.1221C537.34 22.1194 538.033 20.8928 538.289 19.4421C538.545 17.9701 538.289 16.7434 537.521 15.7621C536.753 14.7808 535.676 14.2901 534.289 14.2901C532.881 14.2901 531.622 14.7808 530.513 15.7621C529.382 16.7648 528.71 17.9914 528.497 19.4421ZM557.859 20.2421H545.507C545.443 21.5434 545.817 22.6208 546.627 23.4741C547.459 24.3274 548.569 24.7541 549.955 24.7541C551.769 24.7541 553.305 24.0608 554.563 22.6741L556.739 23.3781C555.886 24.4874 554.819 25.3621 553.539 26.0021C552.281 26.6421 550.958 26.9621 549.571 26.9621C547.374 26.9621 545.667 26.2474 544.451 24.8181C543.257 23.3674 542.851 21.5754 543.235 19.4421C543.577 17.3301 544.59 15.5488 546.275 14.0981C547.982 12.6474 549.881 11.9221 551.971 11.9221C554.083 11.9221 555.715 12.6368 556.867 14.0661C558.041 15.4741 558.446 17.2661 558.083 19.4421C558.041 19.6128 557.998 19.7941 557.955 19.9861L557.859 20.2421ZM545.859 18.3541H555.843C555.822 17.1168 555.417 16.1034 554.627 15.3141C553.838 14.5248 552.814 14.1301 551.555 14.1301C550.318 14.1301 549.166 14.5248 548.099 15.3141C547.054 16.1034 546.307 17.1168 545.859 18.3541ZM564.744 12.2421L564.328 14.6741C565.714 12.8394 567.709 11.9221 570.312 11.9221L569.864 14.5461C569.48 14.4394 569.138 14.3861 568.84 14.3861C567.56 14.3861 566.429 14.7808 565.448 15.5701C564.466 16.3594 563.869 17.3408 563.656 18.5141L562.216 26.6421H559.88L562.408 12.2421H564.744ZM581.858 26.6421H579.266L583.074 5.04209H598.562L598.146 7.44209H585.25L584.034 14.3861H595.362L594.946 16.7861H583.586L581.858 26.6421ZM611.578 20.2421H599.226C599.162 21.5434 599.535 22.6208 600.346 23.4741C601.178 24.3274 602.287 24.7541 603.674 24.7541C605.487 24.7541 607.023 24.0608 608.282 22.6741L610.458 23.3781C609.605 24.4874 608.538 25.3621 607.258 26.0021C605.999 26.6421 604.677 26.9621 603.29 26.9621C601.093 26.9621 599.386 26.2474 598.17 24.8181C596.975 23.3674 596.57 21.5754 596.954 19.4421C597.295 17.3301 598.309 15.5488 599.994 14.0981C601.701 12.6474 603.599 11.9221 605.69 11.9221C607.802 11.9221 609.434 12.6368 610.586 14.0661C611.759 15.4741 612.165 17.2661 611.802 19.4421C611.759 19.6128 611.717 19.7941 611.674 19.9861L611.578 20.2421ZM599.578 18.3541H609.562C609.541 17.1168 609.135 16.1034 608.346 15.3141C607.557 14.5248 606.533 14.1301 605.274 14.1301C604.037 14.1301 602.885 14.5248 601.818 15.3141C600.773 16.1034 600.026 17.1168 599.578 18.3541ZM619.262 26.9621C617.62 26.9621 616.329 26.4181 615.39 25.3301C614.494 24.2421 614.196 22.8768 614.494 21.2341L616.062 12.2421H618.43L616.958 20.5941C616.745 21.7674 616.958 22.7488 617.598 23.5381C618.238 24.3061 619.145 24.6901 620.318 24.6901C621.556 24.6901 622.676 24.3061 623.678 23.5381C624.66 22.7488 625.257 21.7674 625.47 20.5941V20.5621L626.974 12.2421H629.31L626.782 26.6421H624.446L624.862 24.2101C623.412 26.0448 621.545 26.9621 619.262 26.9621ZM636.033 34.1621C634.582 34.1621 633.302 33.8101 632.193 33.1061C631.105 32.4021 630.39 31.4848 630.049 30.3541L632.513 29.6181C632.769 30.2794 633.249 30.8128 633.953 31.2181C634.657 31.6234 635.457 31.8261 636.353 31.8261C637.825 31.8261 639.126 31.3568 640.257 30.4181C641.409 29.4794 642.102 28.3061 642.337 26.8981L642.753 24.6261C641.068 26.1834 639.18 26.9621 637.089 26.9621C635.062 26.9621 633.494 26.2474 632.385 24.8181C631.297 23.3888 630.945 21.5968 631.329 19.4421C631.67 17.3301 632.652 15.5488 634.273 14.0981C635.916 12.6474 637.74 11.9221 639.745 11.9221C641.857 11.9221 643.457 12.7008 644.545 14.2581L644.897 12.2421H647.233L644.673 26.8981C644.332 28.9674 643.318 30.6954 641.633 32.0821C639.99 33.4688 638.124 34.1621 636.033 34.1621ZM643.585 19.4421C643.841 17.9701 643.585 16.7434 642.817 15.7621C642.049 14.7808 640.972 14.2901 639.585 14.2901C638.177 14.2901 636.918 14.7808 635.809 15.7621C634.7 16.7434 634.017 17.9701 633.761 19.4421C633.505 20.8928 633.75 22.1194 634.497 23.1221C635.265 24.1034 636.342 24.5941 637.729 24.5941C639.116 24.5941 640.364 24.1034 641.473 23.1221C642.604 22.1194 643.308 20.8928 643.585 19.4421ZM651.091 26.6421H648.723L651.251 12.2421H653.619L651.091 26.6421ZM651.635 7.53809C651.721 7.06876 651.945 6.68476 652.307 6.38609C652.67 6.08742 653.086 5.93809 653.555 5.93809C654.003 5.93809 654.355 6.08742 654.611 6.38609C654.867 6.68476 654.953 7.06876 654.867 7.53809C654.782 8.00742 654.558 8.40209 654.195 8.72209C653.833 9.02076 653.427 9.17009 652.979 9.17009C652.51 9.17009 652.147 9.02076 651.891 8.72209C651.635 8.42342 651.55 8.02876 651.635 7.53809ZM661.37 26.9621C659.344 26.9621 657.776 26.2474 656.666 24.8181C655.578 23.3888 655.226 21.5968 655.61 19.4421C655.952 17.3301 656.933 15.5488 658.554 14.0981C660.197 12.6474 662.021 11.9221 664.026 11.9221C666.138 11.9221 667.738 12.7008 668.826 14.2581L669.178 12.2421H671.546L669.018 26.6421H666.65L667.002 24.6261C665.381 26.1834 663.504 26.9621 661.37 26.9621ZM667.866 19.4421C668.122 17.9701 667.866 16.7434 667.098 15.7621C666.33 14.7808 665.253 14.2901 663.866 14.2901C662.458 14.2901 661.2 14.7808 660.09 15.7621C658.981 16.7434 658.298 17.9701 658.042 19.4421C657.786 20.9141 658.042 22.1408 658.81 23.1221C659.578 24.1034 660.656 24.5941 662.042 24.5941C663.429 24.5941 664.677 24.1034 665.786 23.1221C666.874 22.1408 667.568 20.9141 667.866 19.4421ZM673.613 14.3221L673.965 12.2421H676.301L676.812 9.26609H679.181L678.637 12.2421H682.733L682.381 14.3221H678.285L676.909 22.0981C676.802 22.7594 676.898 23.3034 677.197 23.7301C677.517 24.1568 677.975 24.3701 678.573 24.3701H680.589L680.205 26.6421H678.029C676.813 26.6421 675.863 26.2368 675.181 25.4261C674.498 24.5941 674.274 23.5808 674.509 22.3861L675.917 14.3221H673.613ZM682.838 25.2661C682.924 24.7754 683.148 24.3701 683.511 24.0501C683.895 23.7088 684.332 23.5381 684.823 23.5381C685.313 23.5381 685.697 23.7088 685.975 24.0501C686.252 24.3701 686.348 24.7754 686.263 25.2661C686.156 25.7568 685.911 26.1621 685.527 26.4821C685.143 26.8021 684.716 26.9621 684.247 26.9621C683.735 26.9621 683.34 26.8021 683.062 26.4821C682.806 26.1621 682.732 25.7568 682.838 25.2661ZM715.672 9.52209L712.952 10.2901C712.91 9.39409 712.483 8.65809 711.672 8.08209C710.883 7.50609 709.88 7.21809 708.664 7.21809C707.32 7.21809 706.158 7.54876 705.176 8.21009C704.152 8.87142 703.566 9.69276 703.416 10.6741C703.288 11.4848 703.534 12.1781 704.152 12.7541C704.515 13.0528 704.92 13.2874 705.368 13.4581C706.115 13.7994 707.214 14.1514 708.664 14.5141C710.115 14.8981 711.256 15.3141 712.088 15.7621C712.984 16.2101 713.624 16.8074 714.008 17.5541C714.392 18.3008 714.51 19.2928 714.36 20.5301C713.998 22.4714 712.995 24.0288 711.352 25.2021C709.71 26.3754 707.736 26.9621 705.432 26.9621C703.363 26.9621 701.678 26.4821 700.376 25.5221C699.075 24.5194 698.382 23.2821 698.296 21.8101L700.984 21.0421C701.006 22.0234 701.464 22.8448 702.36 23.5061C703.278 24.1461 704.451 24.4661 705.88 24.4661C707.352 24.4661 708.643 24.1141 709.752 23.4101C710.883 22.7061 711.544 21.8101 711.736 20.7221C711.95 19.6341 711.576 18.8021 710.616 18.2261C709.806 17.7568 708.782 17.3621 707.544 17.0421C705.112 16.3808 703.448 15.7514 702.552 15.1541C701.059 14.1301 700.472 12.6901 700.792 10.8341C701.155 8.99942 702.094 7.52742 703.608 6.41809C705.166 5.28742 706.99 4.72209 709.08 4.72209C710.979 4.72209 712.515 5.18075 713.688 6.09809C714.883 6.99409 715.544 8.13542 715.672 9.52209ZM731.859 20.2421H719.507C719.443 21.5434 719.817 22.6208 720.627 23.4741C721.459 24.3274 722.569 24.7541 723.955 24.7541C725.769 24.7541 727.305 24.0608 728.563 22.6741L730.739 23.3781C729.886 24.4874 728.819 25.3621 727.539 26.0021C726.281 26.6421 724.958 26.9621 723.571 26.9621C721.374 26.9621 719.667 26.2474 718.451 24.8181C717.257 23.3674 716.851 21.5754 717.235 19.4421C717.577 17.3301 718.59 15.5488 720.275 14.0981C721.982 12.6474 723.881 11.9221 725.971 11.9221C728.083 11.9221 729.715 12.6368 730.867 14.0661C732.041 15.4741 732.446 17.2661 732.083 19.4421C732.041 19.6128 731.998 19.7941 731.955 19.9861L731.859 20.2421ZM719.859 18.3541H729.843C729.822 17.1168 729.417 16.1034 728.627 15.3141C727.838 14.5248 726.814 14.1301 725.555 14.1301C724.318 14.1301 723.166 14.5248 722.099 15.3141C721.054 16.1034 720.307 17.1168 719.859 18.3541ZM737.752 17.9701L736.216 26.6421H733.88L736.408 12.2421H738.744L738.391 14.3541C739.693 12.7328 741.41 11.9221 743.544 11.9221C744.568 11.9221 745.464 12.1781 746.232 12.6901C747 13.1808 747.533 13.8528 747.832 14.7061C749.197 12.8501 751.064 11.9221 753.432 11.9221C755.074 11.9221 756.322 12.4341 757.176 13.4581C758.072 14.4821 758.392 15.7621 758.136 17.2981L756.472 26.6421H754.136L755.672 17.9061C755.864 16.8608 755.672 15.9861 755.096 15.2821C754.52 14.5568 753.698 14.1941 752.632 14.1941C751.48 14.1941 750.456 14.5461 749.56 15.2501C748.664 15.9541 748.109 16.8288 747.896 17.8741L746.36 26.6421H744.024L745.528 17.9061C745.72 16.8608 745.528 15.9861 744.952 15.2821C744.376 14.5568 743.554 14.1941 742.488 14.1941C741.357 14.1941 740.333 14.5568 739.416 15.2821C738.498 15.9861 737.944 16.8608 737.752 17.9061V17.9701ZM18.016 45.5221L15.296 46.2901C15.2533 45.3941 14.8267 44.6581 14.016 44.0821C13.2267 43.5061 12.224 43.2181 11.008 43.2181C9.664 43.2181 8.50133 43.5488 7.52 44.2101C6.496 44.8714 5.90933 45.6928 5.76 46.6741C5.632 47.4848 5.87733 48.1781 6.496 48.7541C6.85867 49.0528 7.264 49.2874 7.712 49.4581C8.45867 49.7994 9.55733 50.1514 11.008 50.5141C12.4587 50.8981 13.6 51.3141 14.432 51.7621C15.328 52.2101 15.968 52.8074 16.352 53.5541C16.736 54.3008 16.8533 55.2928 16.704 56.5301C16.3413 58.4714 15.3387 60.0288 13.696 61.2021C12.0533 62.3754 10.08 62.9621 7.776 62.9621C5.70667 62.9621 4.02133 62.4821 2.72 61.5221C1.41867 60.5194 0.725333 59.2821 0.64 57.8101L3.328 57.0421C3.34933 58.0234 3.808 58.8448 4.704 59.5061C5.62133 60.1461 6.79467 60.4661 8.224 60.4661C9.696 60.4661 10.9867 60.1141 12.096 59.4101C13.2267 58.7061 13.888 57.8101 14.08 56.7221C14.2933 55.6341 13.92 54.8021 12.96 54.2261C12.1493 53.7568 11.1253 53.3621 9.888 53.0421C7.456 52.3808 5.792 51.7514 4.896 51.1541C3.40267 50.1301 2.816 48.6901 3.136 46.8341C3.49867 44.9994 4.43733 43.5274 5.952 42.4181C7.50933 41.2874 9.33333 40.7221 11.424 40.7221C13.3227 40.7221 14.8587 41.1808 16.032 42.0981C17.2267 42.9941 17.888 44.1354 18.016 45.5221ZM34.203 56.2421H21.851C21.787 57.5434 22.1603 58.6208 22.971 59.4741C23.803 60.3274 24.9123 60.7541 26.299 60.7541C28.1123 60.7541 29.6483 60.0608 30.907 58.6741L33.083 59.3781C32.2297 60.4874 31.163 61.3621 29.883 62.0021C28.6243 62.6421 27.3017 62.9621 25.915 62.9621C23.7177 62.9621 22.011 62.2474 20.795 60.8181C19.6003 59.3674 19.195 57.5754 19.579 55.4421C19.9203 53.3301 20.9337 51.5488 22.619 50.0981C24.3257 48.6474 26.2243 47.9221 28.315 47.9221C30.427 47.9221 32.059 48.6368 33.211 50.0661C34.3843 51.4741 34.7897 53.2661 34.427 55.4421C34.3843 55.6128 34.3417 55.7941 34.299 55.9861L34.203 56.2421ZM22.203 54.3541H32.187C32.1657 53.1168 31.7603 52.1034 30.971 51.3141C30.1817 50.5248 29.1577 50.1301 27.899 50.1301C26.6617 50.1301 25.5097 50.5248 24.443 51.3141C23.3977 52.1034 22.651 53.1168 22.203 54.3541ZM42.4953 62.9621C40.4686 62.9621 38.9006 62.2474 37.7913 60.8181C36.7033 59.3888 36.3513 57.5968 36.7353 55.4421C37.0766 53.3301 38.0579 51.5488 39.6793 50.0981C41.3219 48.6474 43.1459 47.9221 45.1513 47.9221C47.2633 47.9221 48.8739 48.7008 49.9833 50.2581L51.8713 39.4421H54.2073L50.1113 62.6421H47.7753L48.1273 60.6261C46.5059 62.1834 44.6286 62.9621 42.4953 62.9621ZM48.9913 55.4421C49.2473 53.9701 48.9913 52.7434 48.2233 51.7621C47.4553 50.7808 46.3779 50.2901 44.9913 50.2901C43.5833 50.2901 42.3246 50.7808 41.2153 51.7621C40.1059 52.7434 39.4233 53.9701 39.1673 55.4421C38.9113 56.9141 39.1673 58.1408 39.9353 59.1221C40.7033 60.1034 41.7806 60.5941 43.1673 60.5941C44.5539 60.5941 45.8019 60.1034 46.9113 59.1221C47.9993 58.1408 48.6926 56.9141 48.9913 55.4421ZM63.047 62.6421L66.855 41.0421H82.343L81.927 43.4421H69.031L67.783 50.5141H79.111L78.695 52.9141H67.367L66.055 60.2421H79.111L78.695 62.6421H63.047ZM84.278 62.6421H81.942L86.006 39.4421H88.374L84.278 62.6421ZM103.453 56.2421H91.101C91.037 57.5434 91.4103 58.6208 92.221 59.4741C93.053 60.3274 94.1623 60.7541 95.549 60.7541C97.3623 60.7541 98.8983 60.0608 100.157 58.6741L102.333 59.3781C101.48 60.4874 100.413 61.3621 99.133 62.0021C97.8743 62.6421 96.5517 62.9621 95.165 62.9621C92.9677 62.9621 91.261 62.2474 90.045 60.8181C88.8503 59.3674 88.445 57.5754 88.829 55.4421C89.1703 53.3301 90.1837 51.5488 91.869 50.0981C93.5757 48.6474 95.4743 47.9221 97.565 47.9221C99.677 47.9221 101.309 48.6368 102.461 50.0661C103.634 51.4741 104.04 53.2661 103.677 55.4421C103.634 55.6128 103.592 55.7941 103.549 55.9861L103.453 56.2421ZM91.453 54.3541H101.437C101.416 53.1168 101.01 52.1034 100.221 51.3141C99.4317 50.5248 98.4077 50.1301 97.149 50.1301C95.9117 50.1301 94.7597 50.5248 93.693 51.3141C92.6477 52.1034 91.901 53.1168 91.453 54.3541ZM109.345 53.9701L107.809 62.6421H105.473L108.001 48.2421H110.337L109.985 50.3541C111.287 48.7328 113.004 47.9221 115.137 47.9221C116.161 47.9221 117.057 48.1781 117.825 48.6901C118.593 49.1808 119.127 49.8528 119.425 50.7061C120.791 48.8501 122.657 47.9221 125.025 47.9221C126.668 47.9221 127.916 48.4341 128.769 49.4581C129.665 50.4821 129.985 51.7621 129.729 53.2981L128.065 62.6421H125.729L127.265 53.9061C127.457 52.8608 127.265 51.9861 126.689 51.2821C126.113 50.5568 125.292 50.1941 124.225 50.1941C123.073 50.1941 122.049 50.5461 121.153 51.2501C120.257 51.9541 119.703 52.8288 119.489 53.8741L117.953 62.6421H115.617L117.121 53.9061C117.313 52.8608 117.121 51.9861 116.545 51.2821C115.969 50.5568 115.148 50.1941 114.081 50.1941C112.951 50.1941 111.927 50.5568 111.009 51.2821C110.092 51.9861 109.537 52.8608 109.345 53.9061V53.9701ZM147.203 56.2421H134.851C134.787 57.5434 135.16 58.6208 135.971 59.4741C136.803 60.3274 137.912 60.7541 139.299 60.7541C141.112 60.7541 142.648 60.0608 143.907 58.6741L146.083 59.3781C145.23 60.4874 144.163 61.3621 142.883 62.0021C141.624 62.6421 140.302 62.9621 138.915 62.9621C136.718 62.9621 135.011 62.2474 133.795 60.8181C132.6 59.3674 132.195 57.5754 132.579 55.4421C132.92 53.3301 133.934 51.5488 135.619 50.0981C137.326 48.6474 139.224 47.9221 141.315 47.9221C143.427 47.9221 145.059 48.6368 146.211 50.0661C147.384 51.4741 147.79 53.2661 147.427 55.4421C147.384 55.6128 147.342 55.7941 147.299 55.9861L147.203 56.2421ZM135.203 54.3541H145.187C145.166 53.1168 144.76 52.1034 143.971 51.3141C143.182 50.5248 142.158 50.1301 140.899 50.1301C139.662 50.1301 138.51 50.5248 137.443 51.3141C136.398 52.1034 135.651 53.1168 135.203 54.3541ZM153.031 54.3221L151.559 62.6421H149.223L151.751 48.2421H154.087L153.671 50.6421C155.101 48.8288 156.957 47.9221 159.239 47.9221C160.882 47.9221 162.173 48.4661 163.111 49.5541C164.029 50.6208 164.338 51.9861 164.039 53.6501L162.471 62.6421H160.103L161.575 54.2901C161.767 53.1168 161.543 52.1461 160.903 51.3781C160.285 50.5888 159.389 50.1941 158.215 50.1941C156.935 50.1941 155.805 50.5888 154.823 51.3781C153.842 52.1674 153.245 53.1488 153.031 54.3221ZM167.05 50.3221L167.402 48.2421H169.738L170.25 45.2661H172.618L172.074 48.2421H176.17L175.818 50.3221H171.722L170.346 58.0981C170.239 58.7594 170.335 59.3034 170.634 59.7301C170.954 60.1568 171.413 60.3701 172.01 60.3701H174.026L173.642 62.6421H171.466C170.25 62.6421 169.301 62.2368 168.618 61.4261C167.935 60.5941 167.711 59.5808 167.946 58.3861L169.354 50.3221H167.05ZM182.231 62.9621C180.588 62.9621 179.298 62.4181 178.359 61.3301C177.463 60.2421 177.164 58.8768 177.463 57.2341L179.031 48.2421H181.399L179.927 56.5941C179.714 57.7674 179.927 58.7488 180.567 59.5381C181.207 60.3061 182.114 60.6901 183.287 60.6901C184.524 60.6901 185.644 60.3061 186.647 59.5381C187.628 58.7488 188.226 57.7674 188.439 56.5941V56.5621L189.943 48.2421H192.279L189.751 62.6421H187.415L187.831 60.2101C186.38 62.0448 184.514 62.9621 182.231 62.9621ZM197.658 53.9701L196.122 62.6421H193.786L196.314 48.2421H198.65L198.298 50.3541C199.599 48.7328 201.316 47.9221 203.45 47.9221C204.474 47.9221 205.37 48.1781 206.138 48.6901C206.906 49.1808 207.439 49.8528 207.738 50.7061C209.103 48.8501 210.97 47.9221 213.338 47.9221C214.98 47.9221 216.228 48.4341 217.082 49.4581C217.978 50.4821 218.298 51.7621 218.042 53.2981L216.378 62.6421H214.042L215.578 53.9061C215.77 52.8608 215.578 51.9861 215.002 51.2821C214.426 50.5568 213.604 50.1941 212.538 50.1941C211.386 50.1941 210.362 50.5461 209.466 51.2501C208.57 51.9541 208.015 52.8288 207.802 53.8741L206.266 62.6421H203.93L205.434 53.9061C205.626 52.8608 205.434 51.9861 204.858 51.2821C204.282 50.5568 203.46 50.1941 202.394 50.1941C201.263 50.1941 200.239 50.5568 199.322 51.2821C198.404 51.9861 197.85 52.8608 197.658 53.9061V53.9701ZM233.137 57.6821L230.097 62.6421H227.377L240.657 41.0421H242.737L248.433 62.6421H245.745L244.465 57.6821H233.137ZM243.825 55.2821L241.073 44.7221L234.609 55.2821H243.825ZM250.769 50.3221L251.121 48.2421H253.457L253.969 45.2661H256.337L255.793 48.2421H259.889L259.537 50.3221H255.441L254.065 58.0981C253.958 58.7594 254.054 59.3034 254.353 59.7301C254.673 60.1568 255.131 60.3701 255.729 60.3701H257.745L257.361 62.6421H255.185C253.969 62.6421 253.019 62.2368 252.337 61.4261C251.654 60.5941 251.43 59.5808 251.665 58.3861L253.073 50.3221H250.769ZM274.864 46.0021L271.92 62.6421H269.328L273.136 41.0421H275.728L281.808 56.4981L293.328 41.0421H295.92L292.144 62.6421H289.552L292.464 45.9701L282.032 59.9221H280.336L274.864 46.0021ZM302.933 62.9621C300.906 62.9621 299.338 62.2474 298.229 60.8181C297.141 59.3888 296.789 57.5968 297.173 55.4421C297.514 53.3301 298.495 51.5488 300.117 50.0981C301.759 48.6474 303.583 47.9221 305.589 47.9221C307.701 47.9221 309.301 48.7008 310.389 50.2581L310.741 48.2421H313.109L310.581 62.6421H308.213L308.565 60.6261C306.943 62.1834 305.066 62.9621 302.933 62.9621ZM309.429 55.4421C309.685 53.9701 309.429 52.7434 308.661 51.7621C307.893 50.7808 306.815 50.2901 305.429 50.2901C304.021 50.2901 302.762 50.7808 301.653 51.7621C300.543 52.7434 299.861 53.9701 299.605 55.4421C299.349 56.9141 299.605 58.1408 300.373 59.1221C301.141 60.1034 302.218 60.5941 303.605 60.5941C304.991 60.5941 306.239 60.1034 307.349 59.1221C308.437 58.1408 309.13 56.9141 309.429 55.4421ZM326.343 51.3781L324.039 51.7941C323.996 51.2608 323.73 50.8341 323.239 50.5141C322.748 50.1728 322.098 50.0021 321.287 50.0021C320.498 50.0021 319.804 50.1728 319.207 50.5141C318.631 50.8554 318.3 51.3034 318.215 51.8581C318.044 52.6261 318.45 53.1914 319.431 53.5541L322.695 54.8021C324.786 55.6128 325.671 56.9248 325.351 58.7381C325.095 60.0608 324.402 61.0954 323.271 61.8421C322.14 62.5888 320.775 62.9621 319.175 62.9621C317.639 62.9621 316.434 62.6208 315.559 61.9381C314.684 61.2554 314.247 60.3381 314.247 59.1861L316.519 58.8021C316.562 59.4421 316.85 59.9541 317.383 60.3381C317.938 60.7008 318.674 60.8821 319.591 60.8821C320.487 60.8821 321.255 60.6901 321.895 60.3061C322.556 59.9221 322.94 59.4208 323.047 58.8021C323.196 57.9701 322.684 57.3301 321.511 56.8821L318.311 55.6981C316.391 54.9514 315.591 53.7354 315.911 52.0501C316.146 50.7488 316.796 49.7354 317.863 49.0101C318.951 48.2848 320.274 47.9221 321.831 47.9221C323.218 47.9221 324.306 48.2421 325.095 48.8821C325.906 49.5008 326.322 50.3328 326.343 51.3781ZM339.656 51.3781L337.352 51.7941C337.309 51.2608 337.042 50.8341 336.552 50.5141C336.061 50.1728 335.41 50.0021 334.6 50.0021C333.81 50.0021 333.117 50.1728 332.52 50.5141C331.944 50.8554 331.613 51.3034 331.528 51.8581C331.357 52.6261 331.762 53.1914 332.744 53.5541L336.008 54.8021C338.098 55.6128 338.984 56.9248 338.664 58.7381C338.408 60.0608 337.714 61.0954 336.584 61.8421C335.453 62.5888 334.088 62.9621 332.488 62.9621C330.952 62.9621 329.746 62.6208 328.872 61.9381C327.997 61.2554 327.559 60.3381 327.559 59.1861L329.832 58.8021C329.874 59.4421 330.162 59.9541 330.696 60.3381C331.25 60.7008 331.986 60.8821 332.904 60.8821C333.8 60.8821 334.568 60.6901 335.208 60.3061C335.869 59.9221 336.253 59.4208 336.36 58.8021C336.509 57.9701 335.997 57.3301 334.824 56.8821L331.624 55.6981C329.704 54.9514 328.904 53.7354 329.224 52.0501C329.458 50.7488 330.109 49.7354 331.176 49.0101C332.264 48.2848 333.586 47.9221 335.144 47.9221C336.53 47.9221 337.618 48.2421 338.408 48.8821C339.218 49.5008 339.634 50.3328 339.656 51.3781ZM347.464 62.9621C345.437 62.9621 343.869 62.2474 342.76 60.8181C341.672 59.3888 341.32 57.5968 341.704 55.4421C342.045 53.3301 343.027 51.5488 344.648 50.0981C346.291 48.6474 348.115 47.9221 350.12 47.9221C352.232 47.9221 353.832 48.7008 354.92 50.2581L355.272 48.2421H357.64L355.112 62.6421H352.744L353.096 60.6261C351.475 62.1834 349.597 62.9621 347.464 62.9621ZM353.96 55.4421C354.216 53.9701 353.96 52.7434 353.192 51.7621C352.424 50.7808 351.347 50.2901 349.96 50.2901C348.552 50.2901 347.293 50.7808 346.184 51.7621C345.075 52.7434 344.392 53.9701 344.136 55.4421C343.88 56.9141 344.136 58.1408 344.904 59.1221C345.672 60.1034 346.749 60.5941 348.136 60.5941C349.523 60.5941 350.771 60.1034 351.88 59.1221C352.968 58.1408 353.661 56.9141 353.96 55.4421ZM358.682 61.2661C358.768 60.7754 358.992 60.3701 359.354 60.0501C359.738 59.7088 360.176 59.5381 360.666 59.5381C361.157 59.5381 361.541 59.7088 361.818 60.0501C362.096 60.3701 362.192 60.7754 362.106 61.2661C362 61.7568 361.754 62.1621 361.37 62.4821C360.986 62.8021 360.56 62.9621 360.09 62.9621C359.578 62.9621 359.184 62.8021 358.906 62.4821C358.65 62.1621 358.576 61.7568 358.682 61.2661ZM384.38 62.9621C381.223 62.9621 378.759 61.9061 376.988 59.7941C375.239 57.6821 374.641 55.0261 375.196 51.8261C375.751 48.6474 377.276 46.0021 379.772 43.8901C382.268 41.7781 385.105 40.7221 388.284 40.7221C391.463 40.7221 393.916 41.7888 395.644 43.9221C397.393 46.0128 397.991 48.6474 397.436 51.8261C396.924 54.8341 395.527 57.3834 393.244 59.4741L395.676 62.4501L393.628 64.2101L391.068 61.0741C388.999 62.3328 386.769 62.9621 384.38 62.9621ZM377.852 51.8261C377.425 54.3008 377.873 56.3594 379.196 58.0021C380.54 59.6448 382.407 60.4661 384.796 60.4661C386.439 60.4661 388.017 60.0501 389.532 59.2181L386.428 55.4421L388.508 53.7141L391.708 57.6181C393.393 55.9328 394.407 54.0021 394.748 51.8261C395.196 49.3728 394.759 47.3248 393.436 45.6821C392.113 44.0394 390.247 43.2181 387.836 43.2181C385.468 43.2181 383.313 44.0394 381.372 45.6821C379.473 47.3248 378.3 49.3728 377.852 51.8261ZM404.887 62.9621C403.245 62.9621 401.954 62.4181 401.015 61.3301C400.119 60.2421 399.821 58.8768 400.119 57.2341L401.687 48.2421H404.055L402.583 56.5941C402.37 57.7674 402.583 58.7488 403.223 59.5381C403.863 60.3061 404.77 60.6901 405.943 60.6901C407.181 60.6901 408.301 60.3061 409.303 59.5381C410.285 58.7488 410.882 57.7674 411.095 56.5941V56.5621L412.599 48.2421H414.935L412.407 62.6421H410.071L410.487 60.2101C409.037 62.0448 407.17 62.9621 404.887 62.9621ZM418.81 62.6421H416.442L418.97 48.2421H421.338L418.81 62.6421ZM419.354 43.5381C419.439 43.0688 419.663 42.6848 420.026 42.3861C420.389 42.0874 420.805 41.9381 421.274 41.9381C421.722 41.9381 422.074 42.0874 422.33 42.3861C422.586 42.6848 422.671 43.0688 422.586 43.5381C422.501 44.0074 422.277 44.4021 421.914 44.7221C421.551 45.0208 421.146 45.1701 420.698 45.1701C420.229 45.1701 419.866 45.0208 419.61 44.7221C419.354 44.4234 419.269 44.0288 419.354 43.5381ZM434.593 51.3781L432.289 51.7941C432.246 51.2608 431.98 50.8341 431.489 50.5141C430.998 50.1728 430.348 50.0021 429.537 50.0021C428.748 50.0021 428.054 50.1728 427.457 50.5141C426.881 50.8554 426.55 51.3034 426.465 51.8581C426.294 52.6261 426.7 53.1914 427.681 53.5541L430.945 54.8021C433.036 55.6128 433.921 56.9248 433.601 58.7381C433.345 60.0608 432.652 61.0954 431.521 61.8421C430.39 62.5888 429.025 62.9621 427.425 62.9621C425.889 62.9621 424.684 62.6208 423.809 61.9381C422.934 61.2554 422.497 60.3381 422.497 59.1861L424.769 58.8021C424.812 59.4421 425.1 59.9541 425.633 60.3381C426.188 60.7008 426.924 60.8821 427.841 60.8821C428.737 60.8821 429.505 60.6901 430.145 60.3061C430.806 59.9221 431.19 59.4208 431.297 58.8021C431.446 57.9701 430.934 57.3301 429.761 56.8821L426.561 55.6981C424.641 54.9514 423.841 53.7354 424.161 52.0501C424.396 50.7488 425.046 49.7354 426.113 49.0101C427.201 48.2848 428.524 47.9221 430.081 47.9221C431.468 47.9221 432.556 48.2421 433.345 48.8821C434.156 49.5008 434.572 50.3328 434.593 51.3781ZM442.402 62.9621C440.375 62.9621 438.807 62.2474 437.698 60.8181C436.61 59.3888 436.258 57.5968 436.642 55.4421C436.983 53.3301 437.964 51.5488 439.586 50.0981C441.228 48.6474 443.052 47.9221 445.058 47.9221C447.17 47.9221 448.77 48.7008 449.858 50.2581L450.21 48.2421H452.546L448.738 69.8421H446.402L448.034 60.6261C446.412 62.1834 444.535 62.9621 442.402 62.9621ZM448.898 55.4421C449.154 53.9701 448.898 52.7434 448.13 51.7621C447.362 50.7808 446.284 50.2901 444.898 50.2901C443.49 50.2901 442.231 50.7808 441.122 51.7621C440.012 52.7434 439.33 53.9701 439.074 55.4421C438.818 56.9141 439.074 58.1408 439.842 59.1221C440.61 60.1034 441.687 60.5941 443.074 60.5941C444.46 60.5941 445.708 60.1034 446.818 59.1221C447.906 58.1408 448.599 56.9141 448.898 55.4421ZM459.7 62.9621C458.057 62.9621 456.766 62.4181 455.828 61.3301C454.932 60.2421 454.633 58.8768 454.932 57.2341L456.5 48.2421H458.868L457.396 56.5941C457.182 57.7674 457.396 58.7488 458.036 59.5381C458.676 60.3061 459.582 60.6901 460.756 60.6901C461.993 60.6901 463.113 60.3061 464.116 59.5381C465.097 58.7488 465.694 57.7674 465.908 56.5941V56.5621L467.412 48.2421H469.748L467.22 62.6421H464.884L465.3 60.2101C463.849 62.0448 461.982 62.9621 459.7 62.9621ZM486.391 56.2421H474.039C473.975 57.5434 474.348 58.6208 475.159 59.4741C475.991 60.3274 477.1 60.7541 478.487 60.7541C480.3 60.7541 481.836 60.0608 483.095 58.6741L485.271 59.3781C484.417 60.4874 483.351 61.3621 482.071 62.0021C480.812 62.6421 479.489 62.9621 478.103 62.9621C475.905 62.9621 474.199 62.2474 472.983 60.8181C471.788 59.3674 471.383 57.5754 471.767 55.4421C472.108 53.3301 473.121 51.5488 474.807 50.0981C476.513 48.6474 478.412 47.9221 480.503 47.9221C482.615 47.9221 484.247 48.6368 485.399 50.0661C486.572 51.4741 486.977 53.2661 486.615 55.4421C486.572 55.6128 486.529 55.7941 486.487 55.9861L486.391 56.2421ZM474.391 54.3541H484.375C484.353 53.1168 483.948 52.1034 483.159 51.3141C482.369 50.5248 481.345 50.1301 480.087 50.1301C478.849 50.1301 477.697 50.5248 476.631 51.3141C475.585 52.1034 474.839 53.1168 474.391 54.3541ZM511.44 40.7221C513.531 40.7221 515.344 41.2128 516.88 42.1941C518.438 43.1754 519.536 44.5301 520.176 46.2581L517.52 47.2181C516.987 45.9808 516.144 45.0101 514.992 44.3061C513.84 43.5808 512.507 43.2181 510.992 43.2181C508.624 43.2181 506.47 44.0394 504.528 45.6821C502.63 47.3248 501.456 49.3728 501.008 51.8261C500.582 54.3008 501.03 56.3594 502.352 58.0021C503.696 59.6448 505.563 60.4661 507.952 60.4661C509.51 60.4661 510.971 60.1141 512.336 59.4101C513.723 58.7061 514.907 57.7248 515.888 56.4661L518.192 57.3941C516.955 59.1221 515.387 60.4874 513.488 61.4901C511.611 62.4714 509.627 62.9621 507.536 62.9621C504.379 62.9621 501.915 61.9061 500.144 59.7941C498.395 57.6821 497.798 55.0261 498.352 51.8261C498.907 48.6474 500.432 46.0021 502.928 43.8901C505.424 41.7781 508.262 40.7221 511.44 40.7221ZM521.048 55.4421C521.389 53.3301 522.413 51.5488 524.12 50.0981C525.826 48.6474 527.746 47.9221 529.88 47.9221C532.013 47.9221 533.666 48.6368 534.84 50.0661C536.013 51.4954 536.429 53.2874 536.088 55.4421C535.704 57.5754 534.658 59.3674 532.952 60.8181C531.266 62.2474 529.357 62.9621 527.224 62.9621C525.069 62.9621 523.405 62.2474 522.232 60.8181C521.058 59.3888 520.664 57.5968 521.048 55.4421ZM525.56 51.7621C524.429 52.7648 523.736 53.9914 523.48 55.4421C523.224 56.9141 523.49 58.1408 524.28 59.1221C525.069 60.1034 526.189 60.5941 527.64 60.5941C529.112 60.5941 530.402 60.1034 531.512 59.1221C532.664 58.1194 533.368 56.8928 533.624 55.4421C533.88 53.9701 533.613 52.7434 532.824 51.7621C532.034 50.7808 530.914 50.2901 529.464 50.2901C527.992 50.2901 526.69 50.7808 525.56 51.7621ZM541.875 54.3221L540.403 62.6421H538.067L540.595 48.2421H542.931L542.515 50.6421C543.944 48.8288 545.8 47.9221 548.083 47.9221C549.726 47.9221 551.016 48.4661 551.955 49.5541C552.872 50.6208 553.182 51.9861 552.883 53.6501L551.315 62.6421H548.947L550.419 54.2901C550.611 53.1168 550.387 52.1461 549.747 51.3781C549.128 50.5888 548.232 50.1941 547.059 50.1941C545.779 50.1941 544.648 50.5888 543.667 51.3781C542.686 52.1674 542.088 53.1488 541.875 54.3221ZM559.456 62.6421L555.808 48.2421H558.24L561.088 59.6021L567.904 48.2421H570.336L561.632 62.6421H559.456ZM575.964 62.9621C573.937 62.9621 572.369 62.2474 571.26 60.8181C570.172 59.3888 569.82 57.5968 570.204 55.4421C570.545 53.3301 571.527 51.5488 573.148 50.0981C574.791 48.6474 576.615 47.9221 578.62 47.9221C580.732 47.9221 582.332 48.7008 583.42 50.2581L583.772 48.2421H586.14L583.612 62.6421H581.244L581.596 60.6261C579.975 62.1834 578.097 62.9621 575.964 62.9621ZM582.46 55.4421C582.716 53.9701 582.46 52.7434 581.692 51.7621C580.924 50.7808 579.847 50.2901 578.46 50.2901C577.052 50.2901 575.793 50.7808 574.684 51.7621C573.575 52.7434 572.892 53.9701 572.636 55.4421C572.38 56.9141 572.636 58.1408 573.404 59.1221C574.172 60.1034 575.249 60.5941 576.636 60.5941C578.023 60.5941 579.271 60.1034 580.38 59.1221C581.468 58.1408 582.161 56.9141 582.46 55.4421ZM589.934 62.6421H587.598L591.662 39.4421H594.03L589.934 62.6421ZM596.309 62.6421H593.973L598.037 39.4421H600.405L596.309 62.6421ZM602.716 62.6421H600.348L602.876 48.2421H605.244L602.716 62.6421ZM603.26 43.5381C603.346 43.0688 603.57 42.6848 603.932 42.3861C604.295 42.0874 604.711 41.9381 605.18 41.9381C605.628 41.9381 605.98 42.0874 606.236 42.3861C606.492 42.6848 606.578 43.0688 606.492 43.5381C606.407 44.0074 606.183 44.4021 605.82 44.7221C605.458 45.0208 605.052 45.1701 604.604 45.1701C604.135 45.1701 603.772 45.0208 603.516 44.7221C603.26 44.4234 603.175 44.0288 603.26 43.5381ZM618.499 51.3781L616.195 51.7941C616.153 51.2608 615.886 50.8341 615.395 50.5141C614.905 50.1728 614.254 50.0021 613.443 50.0021C612.654 50.0021 611.961 50.1728 611.363 50.5141C610.787 50.8554 610.457 51.3034 610.371 51.8581C610.201 52.6261 610.606 53.1914 611.587 53.5541L614.851 54.8021C616.942 55.6128 617.827 56.9248 617.507 58.7381C617.251 60.0608 616.558 61.0954 615.427 61.8421C614.297 62.5888 612.931 62.9621 611.331 62.9621C609.795 62.9621 608.59 62.6208 607.715 61.9381C606.841 61.2554 606.403 60.3381 606.403 59.1861L608.675 58.8021C608.718 59.4421 609.006 59.9541 609.539 60.3381C610.094 60.7008 610.83 60.8821 611.747 60.8821C612.643 60.8821 613.411 60.6901 614.051 60.3061C614.713 59.9221 615.097 59.4208 615.203 58.8021C615.353 57.9701 614.841 57.3301 613.667 56.8821L610.467 55.6981C608.547 54.9514 607.747 53.7354 608.067 52.0501C608.302 50.7488 608.953 49.7354 610.019 49.0101C611.107 48.2848 612.43 47.9221 613.987 47.9221C615.374 47.9221 616.462 48.2421 617.251 48.8821C618.062 49.5008 618.478 50.3328 618.499 51.3781ZM638.425 62.6421H636.377L630.809 41.0421H633.529L638.073 58.9301L648.857 41.0421H651.577L638.425 62.6421ZM652.748 62.6421H650.38L652.908 48.2421H655.276L652.748 62.6421ZM653.292 43.5381C653.377 43.0688 653.601 42.6848 653.964 42.3861C654.326 42.0874 654.742 41.9381 655.212 41.9381C655.66 41.9381 656.012 42.0874 656.268 42.3861C656.524 42.6848 656.609 43.0688 656.524 43.5381C656.438 44.0074 656.214 44.4021 655.852 44.7221C655.489 45.0208 655.084 45.1701 654.636 45.1701C654.166 45.1701 653.804 45.0208 653.548 44.7221C653.292 44.4234 653.206 44.0288 653.292 43.5381ZM657.363 50.3221L657.715 48.2421H660.051L660.562 45.2661H662.931L662.387 48.2421H666.483L666.131 50.3221H662.035L660.659 58.0981C660.552 58.7594 660.648 59.3034 660.947 59.7301C661.267 60.1568 661.725 60.3701 662.323 60.3701H664.339L663.955 62.6421H661.779C660.563 62.6421 659.613 62.2368 658.931 61.4261C658.248 60.5941 658.024 59.5808 658.259 58.3861L659.667 50.3221H657.363ZM673.152 62.9621C671.125 62.9621 669.557 62.2474 668.448 60.8181C667.36 59.3888 667.008 57.5968 667.392 55.4421C667.733 53.3301 668.714 51.5488 670.336 50.0981C671.978 48.6474 673.802 47.9221 675.808 47.9221C677.92 47.9221 679.52 48.7008 680.608 50.2581L680.96 48.2421H683.328L680.8 62.6421H678.432L678.784 60.6261C677.162 62.1834 675.285 62.9621 673.152 62.9621ZM679.648 55.4421C679.904 53.9701 679.648 52.7434 678.88 51.7621C678.112 50.7808 677.034 50.2901 675.648 50.2901C674.24 50.2901 672.981 50.7808 671.872 51.7621C670.762 52.7434 670.08 53.9701 669.824 55.4421C669.568 56.9141 669.824 58.1408 670.592 59.1221C671.36 60.1034 672.437 60.5941 673.824 60.5941C675.21 60.5941 676.458 60.1034 677.568 59.1221C678.656 58.1408 679.349 56.9141 679.648 55.4421ZM699.922 56.2421H687.57C687.506 57.5434 687.879 58.6208 688.69 59.4741C689.522 60.3274 690.631 60.7541 692.018 60.7541C693.831 60.7541 695.367 60.0608 696.626 58.6741L698.802 59.3781C697.948 60.4874 696.882 61.3621 695.602 62.0021C694.343 62.6421 693.02 62.9621 691.634 62.9621C689.436 62.9621 687.73 62.2474 686.514 60.8181C685.319 59.3674 684.914 57.5754 685.298 55.4421C685.639 53.3301 686.652 51.5488 688.338 50.0981C690.044 48.6474 691.943 47.9221 694.034 47.9221C696.146 47.9221 697.778 48.6368 698.93 50.0661C700.103 51.4741 700.508 53.2661 700.146 55.4421C700.103 55.6128 700.06 55.7941 700.018 55.9861L699.922 56.2421ZM687.922 54.3541H697.906C697.884 53.1168 697.479 52.1034 696.69 51.3141C695.9 50.5248 694.876 50.1301 693.618 50.1301C692.38 50.1301 691.228 50.5248 690.162 51.3141C689.116 52.1034 688.37 53.1168 687.922 54.3541ZM727.756 54.0021L730.028 41.0421H732.62L730.348 54.0021C729.9 56.5408 728.652 58.6741 726.604 60.4021C724.534 62.1088 722.209 62.9621 719.628 62.9621C717.025 62.9621 714.998 62.1088 713.548 60.4021C712.097 58.6528 711.596 56.5194 712.044 54.0021L714.316 41.0421H716.908L714.636 54.0021C714.294 55.8794 714.636 57.4474 715.66 58.7061C716.705 59.9434 718.166 60.5621 720.044 60.5621C721.942 60.5621 723.606 59.9434 725.036 58.7061C726.486 57.4688 727.393 55.9008 727.756 54.0021ZM733.644 50.3221L733.996 48.2421H736.332L736.844 45.2661H739.212L738.668 48.2421H742.764L742.412 50.3221H738.316L736.94 58.0981C736.833 58.7594 736.929 59.3034 737.228 59.7301C737.548 60.1568 738.006 60.3701 738.604 60.3701H740.62L740.236 62.6421H738.06C736.844 62.6421 735.894 62.2368 735.212 61.4261C734.529 60.5941 734.305 59.5808 734.54 58.3861L735.948 50.3221H733.644ZM10.624 79.4421H2.4L2.816 77.0421H21.824L21.408 79.4421H13.184L9.824 98.6421H7.232L10.624 79.4421ZM23.2788 98.6421H20.9108L23.4388 84.2421H25.8068L23.2788 98.6421ZM23.8228 79.5381C23.9081 79.0688 24.1321 78.6848 24.4948 78.3861C24.8574 78.0874 25.2734 77.9381 25.7428 77.9381C26.1908 77.9381 26.5428 78.0874 26.7988 78.3861C27.0548 78.6848 27.1401 79.0688 27.0548 79.5381C26.9694 80.0074 26.7454 80.4021 26.3828 80.7221C26.0201 81.0208 25.6148 81.1701 25.1668 81.1701C24.6974 81.1701 24.3348 81.0208 24.0788 80.7221C23.8228 80.4234 23.7374 80.0288 23.8228 79.5381ZM31.0938 90.3221L29.6218 98.6421H27.2858L29.8138 84.2421H32.1498L31.7338 86.6421C33.1631 84.8288 35.0191 83.9221 37.3018 83.9221C38.9444 83.9221 40.2351 84.4661 41.1738 85.5541C42.0911 86.6208 42.4004 87.9861 42.1018 89.6501L40.5338 98.6421H38.1658L39.6378 90.2901C39.8298 89.1168 39.6058 88.1461 38.9658 87.3781C38.3471 86.5888 37.4511 86.1941 36.2778 86.1941C34.9978 86.1941 33.8671 86.5888 32.8858 87.3781C31.9044 88.1674 31.3071 89.1488 31.0938 90.3221ZM59.9285 88.2741L57.4325 89.0101C57.1765 88.1781 56.6965 87.5168 55.9925 87.0261C55.2885 86.5354 54.4352 86.2901 53.4325 86.2901C51.9605 86.2901 50.6592 86.7808 49.5285 87.7621C48.3978 88.7648 47.7045 89.9914 47.4485 91.4421C47.1925 92.9141 47.4592 94.1408 48.2485 95.1221C49.0378 96.1034 50.1578 96.5941 51.6085 96.5941C52.6112 96.5941 53.5392 96.3594 54.3925 95.8901C55.2672 95.3994 55.9925 94.7274 56.5685 93.8741L58.8085 94.6101C57.9765 95.9541 56.8778 97.0208 55.5125 97.8101C54.1685 98.5781 52.7285 98.9621 51.1925 98.9621C49.0378 98.9621 47.3738 98.2474 46.2005 96.8181C45.0272 95.3888 44.6325 93.5968 45.0165 91.4421C45.3578 89.3301 46.3818 87.5488 48.0885 86.0981C49.7952 84.6474 51.7152 83.9221 53.8485 83.9221C55.3845 83.9221 56.6965 84.3168 57.7845 85.1061C58.8725 85.8954 59.5872 86.9514 59.9285 88.2741ZM63.4663 98.6421H61.0983L63.6263 84.2421H65.9943L63.4663 98.6421ZM64.0103 79.5381C64.0956 79.0688 64.3196 78.6848 64.6823 78.3861C65.0449 78.0874 65.4609 77.9381 65.9303 77.9381C66.3783 77.9381 66.7303 78.0874 66.9863 78.3861C67.2423 78.6848 67.3276 79.0688 67.2423 79.5381C67.1569 80.0074 66.9329 80.4021 66.5703 80.7221C66.2076 81.0208 65.8023 81.1701 65.3543 81.1701C64.8849 81.1701 64.5223 81.0208 64.2663 80.7221C64.0103 80.4234 63.9249 80.0288 64.0103 79.5381ZM73.7453 98.9621C71.7186 98.9621 70.1506 98.2474 69.0413 96.8181C67.9533 95.3888 67.6013 93.5968 67.9853 91.4421C68.3266 89.3301 69.3079 87.5488 70.9293 86.0981C72.5719 84.6474 74.3959 83.9221 76.4013 83.9221C78.5133 83.9221 80.1239 84.7008 81.2333 86.2581L83.1213 75.4421H85.4573L81.3613 98.6421H79.0253L79.3773 96.6261C77.7559 98.1834 75.8786 98.9621 73.7453 98.9621ZM80.2413 91.4421C80.4973 89.9701 80.2413 88.7434 79.4733 87.7621C78.7053 86.7808 77.6279 86.2901 76.2413 86.2901C74.8333 86.2901 73.5746 86.7808 72.4653 87.7621C71.3559 88.7434 70.6733 89.9701 70.4173 91.4421C70.1613 92.9141 70.4173 94.1408 71.1853 95.1221C71.9533 96.1034 73.0306 96.5941 74.4173 96.5941C75.8039 96.5941 77.0519 96.1034 78.1613 95.1221C79.2493 94.1408 79.9426 92.9141 80.2413 91.4421ZM91.0435 98.9621C89.4008 98.9621 88.1102 98.4181 87.1715 97.3301C86.2755 96.2421 85.9768 94.8768 86.2755 93.2341L87.8435 84.2421H90.2115L88.7395 92.5941C88.5262 93.7674 88.7395 94.7488 89.3795 95.5381C90.0195 96.3061 90.9262 96.6901 92.0995 96.6901C93.3368 96.6901 94.4568 96.3061 95.4595 95.5381C96.4408 94.7488 97.0382 93.7674 97.2515 92.5941V92.5621L98.7555 84.2421H101.092L98.5635 98.6421H96.2275L96.6435 96.2101C95.1928 98.0448 93.3262 98.9621 91.0435 98.9621ZM106.406 90.3221L104.934 98.6421H102.598L105.126 84.2421H107.462L107.046 86.6421C108.476 84.8288 110.332 83.9221 112.614 83.9221C114.257 83.9221 115.548 84.4661 116.486 85.5541C117.404 86.6208 117.713 87.9861 117.414 89.6501L115.846 98.6421H113.478L114.95 90.2901C115.142 89.1168 114.918 88.1461 114.278 87.3781C113.66 86.5888 112.764 86.1941 111.59 86.1941C110.31 86.1941 109.18 86.5888 108.198 87.3781C107.217 88.1674 106.62 89.1488 106.406 90.3221ZM120.425 86.3221L120.777 84.2421H123.113L123.625 81.2661H125.993L125.449 84.2421H129.545L129.193 86.3221H125.097L123.721 94.0981C123.614 94.7594 123.71 95.3034 124.009 95.7301C124.329 96.1568 124.788 96.3701 125.385 96.3701H127.401L127.017 98.6421H124.841C123.625 98.6421 122.676 98.2368 121.993 97.4261C121.31 96.5941 121.086 95.5808 121.321 94.3861L122.729 86.3221H120.425ZM142.825 93.6821L139.785 98.6421H137.064L150.345 77.0421H152.425L158.121 98.6421H155.433L154.153 93.6821H142.825ZM153.513 91.2821L150.761 80.7221L144.297 91.2821H153.513ZM165.587 84.2421L165.171 86.6741C166.558 84.8394 168.553 83.9221 171.155 83.9221L170.707 86.5461C170.323 86.4394 169.982 86.3861 169.683 86.3861C168.403 86.3861 167.273 86.7808 166.291 87.5701C165.31 88.3594 164.713 89.3408 164.499 90.5141L163.059 98.6421H160.723L163.251 84.2421H165.587ZM186.085 88.2741L183.589 89.0101C183.333 88.1781 182.853 87.5168 182.149 87.0261C181.445 86.5354 180.591 86.2901 179.589 86.2901C178.117 86.2901 176.815 86.7808 175.685 87.7621C174.554 88.7648 173.861 89.9914 173.605 91.4421C173.349 92.9141 173.615 94.1408 174.405 95.1221C175.194 96.1034 176.314 96.5941 177.765 96.5941C178.767 96.5941 179.695 96.3594 180.549 95.8901C181.423 95.3994 182.149 94.7274 182.725 93.8741L184.965 94.6101C184.133 95.9541 183.034 97.0208 181.669 97.8101C180.325 98.5781 178.885 98.9621 177.349 98.9621C175.194 98.9621 173.53 98.2474 172.357 96.8181C171.183 95.3888 170.789 93.5968 171.173 91.4421C171.514 89.3301 172.538 87.5488 174.245 86.0981C175.951 84.6474 177.871 83.9221 180.005 83.9221C181.541 83.9221 182.853 84.3168 183.941 85.1061C185.029 85.8954 185.743 86.9514 186.085 88.2741ZM192.919 98.9621C191.276 98.9621 189.985 98.4181 189.047 97.3301C188.151 96.2421 187.852 94.8768 188.151 93.2341L189.719 84.2421H192.087L190.615 92.5941C190.401 93.7674 190.615 94.7488 191.255 95.5381C191.895 96.3061 192.801 96.6901 193.975 96.6901C195.212 96.6901 196.332 96.3061 197.335 95.5381C198.316 94.7488 198.913 93.7674 199.127 92.5941V92.5621L200.631 84.2421H202.967L200.439 98.6421H198.103L198.519 96.2101C197.068 98.0448 195.201 98.9621 192.919 98.9621ZM215.983 98.6421H213.391L217.199 77.0421H219.791L215.983 98.6421ZM226.777 98.9621C224.75 98.9621 223.182 98.2474 222.073 96.8181C220.985 95.3888 220.633 93.5968 221.017 91.4421C221.358 89.3301 222.339 87.5488 223.961 86.0981C225.603 84.6474 227.427 83.9221 229.433 83.9221C231.545 83.9221 233.155 84.7008 234.265 86.2581L236.153 75.4421H238.489L234.393 98.6421H232.057L232.409 96.6261C230.787 98.1834 228.91 98.9621 226.777 98.9621ZM233.273 91.4421C233.529 89.9701 233.273 88.7434 232.505 87.7621C231.737 86.7808 230.659 86.2901 229.273 86.2901C227.865 86.2901 226.606 86.7808 225.497 87.7621C224.387 88.7434 223.705 89.9701 223.449 91.4421C223.193 92.9141 223.449 94.1408 224.217 95.1221C224.985 96.1034 226.062 96.5941 227.449 96.5941C228.835 96.5941 230.083 96.1034 231.193 95.1221C232.281 94.1408 232.974 92.9141 233.273 91.4421ZM247.328 98.6421L251.136 77.0421H266.624L266.208 79.4421H253.312L252.064 86.5141H263.392L262.976 88.9141H251.648L250.336 96.2421H263.392L262.976 98.6421H247.328ZM271.033 106.162C269.582 106.162 268.302 105.81 267.193 105.106C266.105 104.402 265.39 103.485 265.049 102.354L267.513 101.618C267.769 102.279 268.249 102.813 268.953 103.218C269.657 103.623 270.457 103.826 271.353 103.826C272.825 103.826 274.126 103.357 275.257 102.418C276.409 101.479 277.102 100.306 277.337 98.8981L277.753 96.6261C276.068 98.1834 274.18 98.9621 272.089 98.9621C270.062 98.9621 268.494 98.2474 267.385 96.8181C266.297 95.3888 265.945 93.5968 266.329 91.4421C266.67 89.3301 267.652 87.5488 269.273 86.0981C270.916 84.6474 272.74 83.9221 274.745 83.9221C276.857 83.9221 278.457 84.7008 279.545 86.2581L279.897 84.2421H282.233L279.673 98.8981C279.332 100.967 278.318 102.695 276.633 104.082C274.99 105.469 273.124 106.162 271.033 106.162ZM278.585 91.4421C278.841 89.9701 278.585 88.7434 277.817 87.7621C277.049 86.7808 275.972 86.2901 274.585 86.2901C273.177 86.2901 271.918 86.7808 270.809 87.7621C269.7 88.7434 269.017 89.9701 268.761 91.4421C268.505 92.8928 268.75 94.1194 269.497 95.1221C270.265 96.1034 271.342 96.5941 272.729 96.5941C274.116 96.5941 275.364 96.1034 276.473 95.1221C277.604 94.1194 278.308 92.8928 278.585 91.4421ZM298.859 92.2421H286.507C286.443 93.5434 286.817 94.6208 287.627 95.4741C288.459 96.3274 289.569 96.7541 290.955 96.7541C292.769 96.7541 294.305 96.0608 295.563 94.6741L297.739 95.3781C296.886 96.4874 295.819 97.3621 294.539 98.0021C293.281 98.6421 291.958 98.9621 290.571 98.9621C288.374 98.9621 286.667 98.2474 285.451 96.8181C284.257 95.3674 283.851 93.5754 284.235 91.4421C284.577 89.3301 285.59 87.5488 287.275 86.0981C288.982 84.6474 290.881 83.9221 292.971 83.9221C295.083 83.9221 296.715 84.6368 297.867 86.0661C299.041 87.4741 299.446 89.2661 299.083 91.4421C299.041 91.6128 298.998 91.7941 298.955 91.9861L298.859 92.2421ZM286.859 90.3541H296.843C296.822 89.1168 296.417 88.1034 295.627 87.3141C294.838 86.5248 293.814 86.1301 292.555 86.1301C291.318 86.1301 290.166 86.5248 289.099 87.3141C288.054 88.1034 287.307 89.1168 286.859 90.3541ZM301.363 86.3221L301.715 84.2421H304.051L304.562 81.2661H306.931L306.387 84.2421H310.483L310.131 86.3221H306.035L304.659 94.0981C304.552 94.7594 304.648 95.3034 304.947 95.7301C305.267 96.1568 305.725 96.3701 306.323 96.3701H308.339L307.955 98.6421H305.779C304.563 98.6421 303.613 98.2368 302.931 97.4261C302.248 96.5941 302.024 95.5808 302.259 94.3861L303.667 86.3221H301.363ZM323.986 90.2901L322.514 98.6421H319.922L323.73 77.0421H333.458C335.421 77.0421 336.967 77.6821 338.098 78.9621C339.229 80.2208 339.613 81.7888 339.25 83.6661C338.994 85.1168 338.354 86.4074 337.33 87.5381C336.306 88.6688 335.069 89.4581 333.618 89.9061L337.426 98.6421H334.514L330.834 90.2901H323.986ZM333.042 79.4421H325.906L324.402 87.8581H331.538C332.775 87.8581 333.863 87.4634 334.802 86.6741C335.741 85.8848 336.327 84.8821 336.562 83.6661C336.775 82.4928 336.541 81.4901 335.858 80.6581C335.175 79.8474 334.237 79.4421 333.042 79.4421ZM342.779 98.6421H340.411L342.939 84.2421H345.307L342.779 98.6421ZM343.323 79.5381C343.408 79.0688 343.632 78.6848 343.995 78.3861C344.357 78.0874 344.773 77.9381 345.243 77.9381C345.691 77.9381 346.043 78.0874 346.299 78.3861C346.555 78.6848 346.64 79.0688 346.555 79.5381C346.469 80.0074 346.245 80.4021 345.883 80.7221C345.52 81.0208 345.115 81.1701 344.667 81.1701C344.197 81.1701 343.835 81.0208 343.579 80.7221C343.323 80.4234 343.237 80.0288 343.323 79.5381ZM353.058 98.9621C351.031 98.9621 349.463 98.2474 348.354 96.8181C347.266 95.3888 346.914 93.5968 347.298 91.4421C347.639 89.3301 348.62 87.5488 350.242 86.0981C351.884 84.6474 353.708 83.9221 355.714 83.9221C357.826 83.9221 359.436 84.7008 360.546 86.2581L362.434 75.4421H364.77L360.674 98.6421H358.338L358.69 96.6261C357.068 98.1834 355.191 98.9621 353.058 98.9621ZM359.554 91.4421C359.81 89.9701 359.554 88.7434 358.786 87.7621C358.018 86.7808 356.94 86.2901 355.554 86.2901C354.146 86.2901 352.887 86.7808 351.778 87.7621C350.668 88.7434 349.986 89.9701 349.73 91.4421C349.474 92.9141 349.73 94.1408 350.498 95.1221C351.266 96.1034 352.343 96.5941 353.73 96.5941C355.116 96.5941 356.364 96.1034 357.474 95.1221C358.562 94.1408 359.255 92.9141 359.554 91.4421ZM367.06 98.6421H364.692L367.22 84.2421H369.588L367.06 98.6421ZM367.604 79.5381C367.689 79.0688 367.913 78.6848 368.276 78.3861C368.639 78.0874 369.055 77.9381 369.524 77.9381C369.972 77.9381 370.324 78.0874 370.58 78.3861C370.836 78.6848 370.921 79.0688 370.836 79.5381C370.751 80.0074 370.527 80.4021 370.164 80.7221C369.801 81.0208 369.396 81.1701 368.948 81.1701C368.479 81.1701 368.116 81.0208 367.86 80.7221C367.604 80.4234 367.519 80.0288 367.604 79.5381ZM386.491 88.2741L383.995 89.0101C383.739 88.1781 383.259 87.5168 382.555 87.0261C381.851 86.5354 380.998 86.2901 379.995 86.2901C378.523 86.2901 377.222 86.7808 376.091 87.7621C374.96 88.7648 374.267 89.9914 374.011 91.4421C373.755 92.9141 374.022 94.1408 374.811 95.1221C375.6 96.1034 376.72 96.5941 378.171 96.5941C379.174 96.5941 380.102 96.3594 380.955 95.8901C381.83 95.3994 382.555 94.7274 383.131 93.8741L385.371 94.6101C384.539 95.9541 383.44 97.0208 382.075 97.8101C380.731 98.5781 379.291 98.9621 377.755 98.9621C375.6 98.9621 373.936 98.2474 372.763 96.8181C371.59 95.3888 371.195 93.5968 371.579 91.4421C371.92 89.3301 372.944 87.5488 374.651 86.0981C376.358 84.6474 378.278 83.9221 380.411 83.9221C381.947 83.9221 383.259 84.3168 384.347 85.1061C385.435 85.8954 386.15 86.9514 386.491 88.2741ZM393.325 98.9621C391.682 98.9621 390.391 98.4181 389.453 97.3301C388.557 96.2421 388.258 94.8768 388.557 93.2341L390.125 84.2421H392.493L391.021 92.5941C390.807 93.7674 391.021 94.7488 391.661 95.5381C392.301 96.3061 393.207 96.6901 394.381 96.6901C395.618 96.6901 396.738 96.3061 397.741 95.5381C398.722 94.7488 399.319 93.7674 399.533 92.5941V92.5621L401.037 84.2421H403.373L400.845 98.6421H398.509L398.925 96.2101C397.474 98.0448 395.607 98.9621 393.325 98.9621ZM407.216 98.6421H404.88L408.944 75.4421H411.312L407.216 98.6421ZM416.919 98.9621C415.276 98.9621 413.985 98.4181 413.047 97.3301C412.151 96.2421 411.852 94.8768 412.151 93.2341L413.719 84.2421H416.087L414.615 92.5941C414.401 93.7674 414.615 94.7488 415.255 95.5381C415.895 96.3061 416.801 96.6901 417.975 96.6901C419.212 96.6901 420.332 96.3061 421.335 95.5381C422.316 94.7488 422.913 93.7674 423.127 92.5941V92.5621L424.631 84.2421H426.967L424.439 98.6421H422.103L422.519 96.2101C421.068 98.0448 419.201 98.9621 416.919 98.9621ZM440.249 87.3781L437.945 87.7941C437.903 87.2608 437.636 86.8341 437.145 86.5141C436.655 86.1728 436.004 86.0021 435.193 86.0021C434.404 86.0021 433.711 86.1728 433.113 86.5141C432.537 86.8554 432.207 87.3034 432.121 87.8581C431.951 88.6261 432.356 89.1914 433.337 89.5541L436.601 90.8021C438.692 91.6128 439.577 92.9248 439.257 94.7381C439.001 96.0608 438.308 97.0954 437.177 97.8421C436.047 98.5888 434.681 98.9621 433.081 98.9621C431.545 98.9621 430.34 98.6208 429.465 97.9381C428.591 97.2554 428.153 96.3381 428.153 95.1861L430.425 94.8021C430.468 95.4421 430.756 95.9541 431.289 96.3381C431.844 96.7008 432.58 96.8821 433.497 96.8821C434.393 96.8821 435.161 96.6901 435.801 96.3061C436.463 95.9221 436.847 95.4208 436.953 94.8021C437.103 93.9701 436.591 93.3301 435.417 92.8821L432.217 91.6981C430.297 90.9514 429.497 89.7354 429.817 88.0501C430.052 86.7488 430.703 85.7354 431.769 85.0101C432.857 84.2848 434.18 83.9221 435.737 83.9221C437.124 83.9221 438.212 84.2421 439.001 84.8821C439.812 85.5008 440.228 86.3328 440.249 87.3781ZM454.767 90.2901L453.295 98.6421H450.703L454.511 77.0421H464.239C466.202 77.0421 467.749 77.6821 468.879 78.9621C470.01 80.2208 470.394 81.7888 470.031 83.6661C469.775 85.1168 469.135 86.4074 468.111 87.5381C467.087 88.6688 465.85 89.4581 464.399 89.9061L468.207 98.6421H465.295L461.615 90.2901H454.767ZM463.823 79.4421H456.687L455.183 87.8581H462.319C463.557 87.8581 464.645 87.4634 465.583 86.6741C466.522 85.8848 467.109 84.8821 467.343 83.6661C467.557 82.4928 467.322 81.4901 466.639 80.6581C465.957 79.8474 465.018 79.4421 463.823 79.4421ZM476.45 98.9621C474.807 98.9621 473.516 98.4181 472.578 97.3301C471.682 96.2421 471.383 94.8768 471.682 93.2341L473.25 84.2421H475.618L474.146 92.5941C473.932 93.7674 474.146 94.7488 474.786 95.5381C475.426 96.3061 476.332 96.6901 477.506 96.6901C478.743 96.6901 479.863 96.3061 480.866 95.5381C481.847 94.7488 482.444 93.7674 482.658 92.5941V92.5621L484.162 84.2421H486.498L483.97 98.6421H481.634L482.05 96.2101C480.599 98.0448 478.732 98.9621 476.45 98.9621ZM488.613 86.3221L488.965 84.2421H491.301L491.812 81.2661H494.181L493.637 84.2421H497.733L497.381 86.3221H493.285L491.909 94.0981C491.802 94.7594 491.898 95.3034 492.197 95.7301C492.517 96.1568 492.975 96.3701 493.573 96.3701H495.589L495.205 98.6421H493.029C491.813 98.6421 490.863 98.2368 490.181 97.4261C489.498 96.5941 489.274 95.5808 489.509 94.3861L490.917 86.3221H488.613ZM503.119 84.2421L502.703 86.6741C504.089 84.8394 506.084 83.9221 508.687 83.9221L508.239 86.5461C507.855 86.4394 507.513 86.3861 507.215 86.3861C505.935 86.3861 504.804 86.7808 503.823 87.5701C502.841 88.3594 502.244 89.3408 502.031 90.5141L500.591 98.6421H498.255L500.783 84.2421H503.119ZM514.387 98.9621C512.745 98.9621 511.454 98.4181 510.515 97.3301C509.619 96.2421 509.321 94.8768 509.619 93.2341L511.187 84.2421H513.555L512.083 92.5941C511.87 93.7674 512.083 94.7488 512.723 95.5381C513.363 96.3061 514.27 96.6901 515.443 96.6901C516.681 96.6901 517.801 96.3061 518.803 95.5381C519.785 94.7488 520.382 93.7674 520.595 92.5941V92.5621L522.099 84.2421H524.435L521.907 98.6421H519.571L519.987 96.2101C518.537 98.0448 516.67 98.9621 514.387 98.9621ZM529.814 89.9701L528.278 98.6421H525.942L528.47 84.2421H530.806L530.454 86.3541C531.755 84.7328 533.473 83.9221 535.606 83.9221C536.63 83.9221 537.526 84.1781 538.294 84.6901C539.062 85.1808 539.595 85.8528 539.894 86.7061C541.259 84.8501 543.126 83.9221 545.494 83.9221C547.137 83.9221 548.385 84.4341 549.238 85.4581C550.134 86.4821 550.454 87.7621 550.198 89.2981L548.534 98.6421H546.198L547.734 89.9061C547.926 88.8608 547.734 87.9861 547.158 87.2821C546.582 86.5568 545.761 86.1941 544.694 86.1941C543.542 86.1941 542.518 86.5461 541.622 87.2501C540.726 87.9541 540.171 88.8288 539.958 89.8741L538.422 98.6421H536.086L537.59 89.9061C537.782 88.8608 537.59 87.9861 537.014 87.2821C536.438 86.5568 535.617 86.1941 534.55 86.1941C533.419 86.1941 532.395 86.5568 531.478 87.2821C530.561 87.9861 530.006 88.8608 529.814 89.9061V89.9701ZM552.12 97.2661C552.205 96.7754 552.429 96.3701 552.792 96.0501C553.176 95.7088 553.613 95.5381 554.104 95.5381C554.594 95.5381 554.978 95.7088 555.256 96.0501C555.533 96.3701 555.629 96.7754 555.544 97.2661C555.437 97.7568 555.192 98.1621 554.808 98.4821C554.424 98.8021 553.997 98.9621 553.528 98.9621C553.016 98.9621 552.621 98.8021 552.344 98.4821C552.088 98.1621 552.013 97.7568 552.12 97.2661ZM564.067 77.5861C563.725 79.2074 562.595 80.6581 560.675 81.9381L560.547 82.0021L559.907 81.2021C561.101 80.1994 561.741 79.2928 561.827 78.4821C561.4 78.4394 561.069 78.2581 560.835 77.9381C560.621 77.5968 560.557 77.2021 560.643 76.7541C560.728 76.2848 560.952 75.9008 561.315 75.6021C561.699 75.2821 562.136 75.1221 562.627 75.1221C563.203 75.1221 563.619 75.3461 563.875 75.7941C564.152 76.2421 564.216 76.8394 564.067 77.5861ZM568.707 77.5861C568.472 78.6741 567.981 79.6021 567.235 80.3701C566.509 81.1381 565.859 81.6608 565.283 81.9381L565.187 82.0021L564.547 81.2021C565.741 80.1994 566.381 79.2928 566.467 78.4821C566.04 78.4394 565.709 78.2581 565.475 77.9381C565.261 77.5968 565.197 77.2021 565.283 76.7541C565.368 76.2848 565.592 75.9008 565.955 75.6021C566.339 75.2821 566.776 75.1221 567.267 75.1221C567.843 75.1221 568.259 75.3461 568.515 75.7941C568.792 76.2421 568.856 76.8394 568.707 77.5861Z" fill="#1E1E1E"/>
<path d="M8.112 147.642H1.656V131.442H8.112C10.48 131.442 12.472 132.226 14.088 133.794C15.704 135.362 16.512 137.282 16.512 139.554C16.512 141.826 15.704 143.746 14.088 145.314C12.488 146.866 10.496 147.642 8.112 147.642ZM8.112 133.674H4.056V145.41H8.112C9.792 145.41 11.192 144.85 12.312 143.73C13.448 142.594 14.016 141.202 14.016 139.554C14.016 137.89 13.448 136.49 12.312 135.354C11.192 134.234 9.792 133.674 8.112 133.674ZM29.5084 143.034H20.5804C20.7564 143.866 21.1644 144.554 21.8044 145.098C22.4604 145.626 23.2364 145.89 24.1324 145.89C25.3324 145.89 26.2844 145.442 26.9884 144.546L29.1004 145.194C28.6204 146.026 27.9324 146.69 27.0364 147.186C26.1564 147.682 25.1884 147.93 24.1324 147.93C22.5004 147.93 21.1244 147.386 20.0044 146.298C18.9004 145.21 18.3484 143.858 18.3484 142.242C18.3484 140.61 18.8844 139.258 19.9564 138.186C21.0444 137.098 22.3804 136.554 23.9644 136.554C25.5324 136.554 26.8604 137.098 27.9484 138.186C29.0204 139.258 29.5564 140.61 29.5564 142.242C29.5564 142.546 29.5404 142.81 29.5084 143.034ZM20.6044 141.306H27.3244C27.1324 140.49 26.7244 139.834 26.1004 139.338C25.4764 138.842 24.7484 138.594 23.9164 138.594C23.1164 138.594 22.4044 138.85 21.7804 139.362C21.1724 139.858 20.7804 140.506 20.6044 141.306ZM39.2578 139.314L37.2418 139.674C36.9698 138.874 36.2658 138.474 35.1298 138.474C34.6018 138.474 34.1698 138.586 33.8338 138.81C33.4978 139.018 33.3298 139.29 33.3298 139.626C33.3298 140.074 33.6818 140.434 34.3858 140.706L36.8098 141.546C38.5698 142.17 39.4498 143.202 39.4498 144.642C39.4498 145.682 39.0658 146.49 38.2978 147.066C37.5298 147.642 36.5298 147.93 35.2978 147.93C34.0818 147.93 33.0898 147.658 32.3218 147.114C31.5538 146.57 31.0978 145.834 30.9538 144.906L33.0178 144.594C33.0978 145.026 33.3458 145.37 33.7618 145.626C34.1938 145.882 34.7218 146.01 35.3458 146.01C35.9378 146.01 36.4258 145.89 36.8098 145.65C37.1938 145.41 37.3858 145.098 37.3858 144.714C37.3858 144.186 36.9458 143.77 36.0658 143.466L33.6658 142.674C32.0498 142.114 31.2418 141.154 31.2418 139.794C31.2418 138.754 31.6098 137.954 32.3458 137.394C33.0818 136.834 34.0658 136.554 35.2978 136.554C36.4018 136.554 37.3058 136.802 38.0098 137.298C38.7138 137.794 39.1298 138.466 39.2578 139.314ZM43.7228 147.642H41.5628V136.842H43.7228V147.642ZM42.6428 131.946C43.0428 131.946 43.3788 132.082 43.6508 132.354C43.9228 132.626 44.0588 132.962 44.0588 133.362C44.0588 134.002 43.7628 134.442 43.1708 134.682C42.5788 134.922 42.0588 134.826 41.6108 134.394C41.1788 133.946 41.0828 133.426 41.3228 132.834C41.5628 132.242 42.0028 131.946 42.6428 131.946ZM51.2383 147.93C49.7503 147.93 48.4863 147.386 47.4463 146.298C46.4383 145.226 45.9343 143.874 45.9343 142.242C45.9343 140.626 46.4383 139.274 47.4463 138.186C48.4863 137.098 49.7503 136.554 51.2383 136.554C52.6303 136.554 53.8223 137.026 54.8143 137.97V136.842H56.9743V147.906C56.9743 149.458 56.4463 150.746 55.3903 151.77C54.3503 152.81 53.0543 153.33 51.5023 153.33C50.3663 153.33 49.3183 153.042 48.3583 152.466C47.3983 151.89 46.7263 151.146 46.3423 150.234L48.5263 149.586C48.7503 150.05 49.1343 150.426 49.6783 150.714C50.2223 151.018 50.8063 151.17 51.4303 151.17C52.3743 151.17 53.1743 150.858 53.8303 150.234C54.4863 149.61 54.8143 148.834 54.8143 147.906V146.514C53.8223 147.458 52.6303 147.93 51.2383 147.93ZM51.4783 138.738C50.5343 138.738 49.7423 139.074 49.1023 139.746C48.4783 140.418 48.1663 141.25 48.1663 142.242C48.1663 143.234 48.4783 144.066 49.1023 144.738C49.7423 145.41 50.5343 145.746 51.4783 145.746C52.4063 145.746 53.1823 145.41 53.8063 144.738C54.4463 144.082 54.7663 143.25 54.7663 142.242C54.7663 141.234 54.4463 140.402 53.8063 139.746C53.1823 139.074 52.4063 138.738 51.4783 138.738ZM59.6565 147.642V136.842H61.8165V138.402C62.6325 137.17 63.8085 136.554 65.3445 136.554C66.5925 136.554 67.6245 136.962 68.4405 137.778C69.2565 138.562 69.6645 139.57 69.6645 140.802V147.642H67.4805V141.426C67.4805 140.626 67.2165 139.962 66.6885 139.434C66.1605 138.906 65.5045 138.642 64.7205 138.642C63.9045 138.642 63.2165 138.914 62.6565 139.458C62.0965 139.986 61.8165 140.65 61.8165 141.45V147.642H59.6565ZM77.1602 136.554C78.5522 136.554 79.7442 137.026 80.7362 137.97V136.842H82.8962V147.642H80.7362V146.514C79.7442 147.458 78.5522 147.93 77.1602 147.93C75.6722 147.93 74.4082 147.386 73.3682 146.298C72.3602 145.226 71.8562 143.874 71.8562 142.242C71.8562 140.626 72.3602 139.274 73.3682 138.186C74.4082 137.098 75.6722 136.554 77.1602 136.554ZM79.7282 139.746C79.1042 139.074 78.3282 138.738 77.4002 138.738C76.4882 138.738 75.7042 139.074 75.0482 139.746C74.4242 140.418 74.1122 141.25 74.1122 142.242C74.1122 143.234 74.4242 144.066 75.0482 144.738C75.7042 145.41 76.4882 145.746 77.4002 145.746C78.3282 145.746 79.1042 145.41 79.7282 144.738C80.3682 144.082 80.6882 143.25 80.6882 142.242C80.6882 141.234 80.3682 140.402 79.7282 139.746ZM84.5224 138.762V136.842H86.1544V134.682H88.3384V136.842H91.2664V138.762H88.3384V144.066C88.3384 144.482 88.4744 144.834 88.7464 145.122C89.0184 145.41 89.3544 145.554 89.7544 145.554H91.2664V147.642H89.6104C88.6344 147.642 87.8104 147.33 87.1384 146.706C86.4824 146.05 86.1544 145.258 86.1544 144.33V138.762H84.5224ZM95.4493 147.642H93.2893V136.842H95.4493V147.642ZM94.3693 131.946C94.7693 131.946 95.1053 132.082 95.3773 132.354C95.6493 132.626 95.7853 132.962 95.7853 133.362C95.7853 134.002 95.4893 134.442 94.8973 134.682C94.3053 134.922 93.7853 134.826 93.3373 134.394C92.9053 133.946 92.8093 133.426 93.0493 132.834C93.2893 132.242 93.7293 131.946 94.3693 131.946ZM99.2689 146.298C98.1969 145.226 97.6609 143.874 97.6609 142.242C97.6609 140.61 98.1969 139.258 99.2689 138.186C100.357 137.098 101.709 136.554 103.325 136.554C104.941 136.554 106.293 137.098 107.381 138.186C108.469 139.274 109.013 140.626 109.013 142.242C109.013 143.858 108.469 145.21 107.381 146.298C106.293 147.386 104.941 147.93 103.325 147.93C101.709 147.93 100.357 147.386 99.2689 146.298ZM100.877 139.746C100.237 140.402 99.9169 141.234 99.9169 142.242C99.9169 143.25 100.237 144.082 100.877 144.738C101.517 145.41 102.333 145.746 103.325 145.746C104.285 145.746 105.093 145.41 105.749 144.738C106.405 144.05 106.733 143.218 106.733 142.242C106.733 141.266 106.405 140.434 105.749 139.746C105.093 139.074 104.285 138.738 103.325 138.738C102.333 138.738 101.517 139.074 100.877 139.746ZM111.196 147.642V136.842H113.356V138.402C114.172 137.17 115.348 136.554 116.884 136.554C118.132 136.554 119.164 136.962 119.98 137.778C120.796 138.562 121.204 139.57 121.204 140.802V147.642H119.02V141.426C119.02 140.626 118.756 139.962 118.228 139.434C117.7 138.906 117.044 138.642 116.26 138.642C115.444 138.642 114.756 138.914 114.196 139.458C113.636 139.986 113.356 140.65 113.356 141.45V147.642H111.196ZM126.491 147.09C126.491 147.506 126.411 147.914 126.251 148.314C126.091 148.714 125.907 149.042 125.699 149.298C125.507 149.57 125.291 149.81 125.051 150.018C124.811 150.242 124.627 150.394 124.499 150.474C124.371 150.57 124.283 150.626 124.235 150.642L123.539 149.922C123.555 149.906 123.595 149.85 123.659 149.754C123.739 149.674 123.803 149.602 123.851 149.538C123.947 149.41 124.115 149.154 124.355 148.77C124.563 148.418 124.667 148.13 124.667 147.906C124.315 147.858 124.019 147.698 123.779 147.426C123.539 147.138 123.419 146.802 123.419 146.418C123.419 146.034 123.555 145.706 123.827 145.434C124.115 145.162 124.467 145.026 124.883 145.026C125.347 145.026 125.731 145.218 126.035 145.602C126.339 145.986 126.491 146.482 126.491 147.09Z" fill="black"/>
<path d="M136.72 145.482C135.152 143.882 134.368 141.898 134.368 139.53C134.368 137.162 135.152 135.194 136.72 133.626C138.304 132.042 140.28 131.25 142.648 131.25C144.184 131.25 145.584 131.602 146.848 132.306C148.112 133.01 149.104 133.986 149.824 135.234L148.432 135.786C147.84 134.81 147.032 134.042 146.008 133.482C145 132.922 143.88 132.642 142.648 132.642C140.712 132.642 139.088 133.298 137.776 134.61C136.48 135.938 135.832 137.578 135.832 139.53C135.832 141.514 136.48 143.162 137.776 144.474C139.088 145.786 140.712 146.442 142.648 146.442C143.88 146.442 145 146.162 146.008 145.602C147.032 145.042 147.84 144.274 148.432 143.298L149.824 143.85C149.104 145.098 148.104 146.082 146.824 146.802C145.56 147.506 144.168 147.858 142.648 147.858C140.28 147.858 138.304 147.066 136.72 145.482ZM157.531 136.65C159.115 136.65 160.443 137.186 161.515 138.258C162.587 139.314 163.123 140.642 163.123 142.242C163.123 143.842 162.587 145.178 161.515 146.25C160.443 147.306 159.115 147.834 157.531 147.834C155.947 147.834 154.611 147.306 153.523 146.25C152.451 145.178 151.915 143.842 151.915 142.242C151.915 140.642 152.451 139.314 153.523 138.258C154.595 137.186 155.931 136.65 157.531 136.65ZM157.507 146.514C158.723 146.514 159.731 146.106 160.531 145.29C161.331 144.458 161.731 143.442 161.731 142.242C161.731 141.042 161.331 140.026 160.531 139.194C159.731 138.378 158.723 137.97 157.507 137.97C156.291 137.97 155.291 138.378 154.507 139.194C153.707 140.026 153.307 141.042 153.307 142.242C153.307 143.442 153.707 144.458 154.507 145.29C155.291 146.106 156.291 146.514 157.507 146.514ZM167.172 147.642H165.852V136.842H167.172V138.618C168.004 137.306 169.268 136.65 170.964 136.65C171.796 136.65 172.54 136.858 173.196 137.274C173.852 137.69 174.34 138.25 174.66 138.954C174.836 138.57 175.204 138.122 175.764 137.61C176.484 136.97 177.468 136.65 178.716 136.65C179.916 136.65 180.908 137.034 181.692 137.802C182.492 138.57 182.892 139.53 182.892 140.682V147.642H181.572V140.994C181.572 140.114 181.276 139.386 180.684 138.81C180.108 138.218 179.38 137.922 178.5 137.922C177.524 137.922 176.692 138.226 176.004 138.834C175.348 139.442 175.02 140.178 175.02 141.042V147.642H173.7V140.994C173.7 140.114 173.412 139.386 172.836 138.81C172.26 138.218 171.532 137.922 170.652 137.922C169.644 137.922 168.812 138.218 168.156 138.81C167.5 139.418 167.172 140.162 167.172 141.042V147.642ZM187.516 153.042H186.22V136.842H187.516V138.81C188.572 137.37 189.996 136.65 191.788 136.65C193.308 136.65 194.58 137.186 195.604 138.258C196.628 139.298 197.14 140.626 197.14 142.242C197.14 143.842 196.628 145.178 195.604 146.25C194.58 147.306 193.308 147.834 191.788 147.834C189.996 147.834 188.572 147.114 187.516 145.674V153.042ZM194.596 139.194C193.812 138.378 192.836 137.97 191.668 137.97C190.516 137.97 189.54 138.378 188.74 139.194C187.956 139.994 187.564 141.01 187.564 142.242C187.564 143.474 187.956 144.49 188.74 145.29C189.54 146.106 190.516 146.514 191.668 146.514C192.82 146.514 193.796 146.106 194.596 145.29C195.38 144.49 195.772 143.474 195.772 142.242C195.772 141.01 195.38 139.994 194.596 139.194ZM204.564 136.65C206.356 136.65 207.78 137.37 208.836 138.81V136.842H210.156V147.642H208.836V145.674C207.78 147.114 206.356 147.834 204.564 147.834C203.06 147.834 201.788 147.306 200.748 146.25C199.724 145.178 199.212 143.842 199.212 142.242C199.212 140.626 199.724 139.298 200.748 138.258C201.772 137.186 203.044 136.65 204.564 136.65ZM207.612 139.194C206.844 138.378 205.876 137.97 204.708 137.97C203.556 137.97 202.58 138.378 201.78 139.194C200.996 139.994 200.604 141.01 200.604 142.242C200.604 143.474 200.996 144.49 201.78 145.29C202.58 146.106 203.556 146.514 204.708 146.514C205.876 146.514 206.844 146.106 207.612 145.29C208.396 144.49 208.788 143.474 208.788 142.242C208.788 141.01 208.396 139.994 207.612 139.194ZM213.571 147.642V136.842H214.891V138.906C215.739 137.402 217.115 136.65 219.019 136.65C220.283 136.65 221.331 137.066 222.163 137.898C222.995 138.73 223.411 139.762 223.411 140.994V147.642H222.091V141.33C222.091 140.37 221.763 139.562 221.107 138.906C220.451 138.25 219.643 137.922 218.683 137.922C217.627 137.922 216.723 138.258 215.971 138.93C215.251 139.586 214.891 140.402 214.891 141.378V147.642H213.571ZM228.548 149.826L229.604 147.33L225.188 136.842H226.58L230.276 145.77L234.092 136.842H235.46L229.676 150.282C228.94 152.122 227.732 153.042 226.052 153.042H225.62V151.77H226.052C227.172 151.77 228.004 151.122 228.548 149.826ZM245.863 147.642H244.447V131.442H245.695L256.663 145.146V131.442H258.055V147.642H256.807L245.863 133.986V147.642ZM266.532 136.65C268.324 136.65 269.748 137.37 270.804 138.81V136.842H272.124V147.642H270.804V145.674C269.748 147.114 268.324 147.834 266.532 147.834C265.028 147.834 263.756 147.306 262.716 146.25C261.692 145.178 261.18 143.842 261.18 142.242C261.18 140.626 261.692 139.298 262.716 138.258C263.74 137.186 265.012 136.65 266.532 136.65ZM269.58 139.194C268.812 138.378 267.844 137.97 266.676 137.97C265.524 137.97 264.548 138.378 263.748 139.194C262.964 139.994 262.572 141.01 262.572 142.242C262.572 143.474 262.964 144.49 263.748 145.29C264.548 146.106 265.524 146.514 266.676 146.514C267.844 146.514 268.812 146.106 269.58 145.29C270.364 144.49 270.756 143.474 270.756 142.242C270.756 141.01 270.364 139.994 269.58 139.194ZM276.86 147.642H275.54V136.842H276.86V138.618C277.692 137.306 278.956 136.65 280.652 136.65C281.484 136.65 282.228 136.858 282.884 137.274C283.54 137.69 284.028 138.25 284.348 138.954C284.524 138.57 284.892 138.122 285.452 137.61C286.172 136.97 287.156 136.65 288.404 136.65C289.604 136.65 290.596 137.034 291.38 137.802C292.18 138.57 292.58 139.53 292.58 140.682V147.642H291.26V140.994C291.26 140.114 290.964 139.386 290.372 138.81C289.796 138.218 289.068 137.922 288.188 137.922C287.212 137.922 286.38 138.226 285.692 138.834C285.036 139.442 284.708 140.178 284.708 141.042V147.642H283.388V140.994C283.388 140.114 283.1 139.386 282.524 138.81C281.948 138.218 281.22 137.922 280.34 137.922C279.332 137.922 278.5 138.218 277.844 138.81C277.188 139.418 276.86 140.162 276.86 141.042V147.642ZM306.251 142.65H296.603C296.683 143.786 297.131 144.73 297.947 145.482C298.747 146.218 299.747 146.586 300.947 146.586C302.467 146.586 303.651 145.986 304.499 144.786L305.771 145.218C305.291 146.034 304.627 146.674 303.779 147.138C302.931 147.602 301.987 147.834 300.947 147.834C299.299 147.834 297.939 147.306 296.867 146.25C295.795 145.178 295.259 143.842 295.259 142.242C295.259 140.658 295.779 139.33 296.819 138.258C297.875 137.186 299.187 136.65 300.755 136.65C302.323 136.65 303.635 137.186 304.691 138.258C305.747 139.314 306.275 140.642 306.275 142.242C306.275 142.45 306.267 142.586 306.251 142.65ZM296.627 141.57H304.907C304.763 140.498 304.299 139.618 303.515 138.93C302.763 138.242 301.835 137.898 300.731 137.898C299.659 137.898 298.747 138.242 297.995 138.93C297.227 139.634 296.771 140.514 296.627 141.57Z" fill="black"/>
</svg>
