<svg width="310" height="166" viewBox="0 0 310 166" fill="none" xmlns="http://www.w3.org/2000/svg">
<path d="M4.956 4.274C5.068 3.574 5.383 2.965 5.901 2.447C6.027 2.307 6.244 2.111 6.552 1.859C6.734 1.705 6.979 1.537 7.287 1.355L7.686 1.88C6.93 2.524 6.517 3.119 6.447 3.665C6.713 3.693 6.916 3.819 7.056 4.043C7.21 4.253 7.266 4.505 7.224 4.799C7.168 5.107 7.014 5.366 6.762 5.576C6.51 5.772 6.223 5.87 5.901 5.87C5.551 5.87 5.285 5.73 5.103 5.45C4.921 5.156 4.872 4.764 4.956 4.274ZM1.911 4.274C2.023 3.574 2.338 2.965 2.856 2.447C2.982 2.307 3.199 2.111 3.507 1.859C3.689 1.705 3.934 1.537 4.242 1.355L4.641 1.88C3.885 2.524 3.472 3.119 3.402 3.665C3.668 3.693 3.871 3.819 4.011 4.043C4.165 4.253 4.221 4.505 4.179 4.799C4.123 5.107 3.969 5.366 3.717 5.576C3.465 5.772 3.178 5.87 2.856 5.87C2.506 5.87 2.24 5.73 2.058 5.45C1.876 5.156 1.827 4.764 1.911 4.274ZM8.51862 13.745L6.52362 17H4.73862L13.4536 2.825H14.8186L18.5566 17H16.7926L15.9526 13.745H8.51862ZM15.5326 12.17L13.7266 5.24L9.48462 12.17H15.5326ZM23.4485 17.21C22.3705 17.21 21.5235 16.853 20.9075 16.139C20.3195 15.425 20.1235 14.529 20.3195 13.451L21.3485 7.55H22.9025L21.9365 13.031C21.7965 13.801 21.9365 14.445 22.3565 14.963C22.7765 15.467 23.3715 15.719 24.1415 15.719C24.9535 15.719 25.6885 15.467 26.3465 14.963C26.9905 14.445 27.3825 13.801 27.5225 13.031V13.01L28.5095 7.55H30.0425L28.3835 17H26.8505L27.1235 15.404C26.1715 16.608 24.9465 17.21 23.4485 17.21ZM34.4543 21.935C33.5023 21.935 32.6623 21.704 31.9343 21.242C31.2203 20.78 30.7513 20.178 30.5273 19.436L32.1443 18.953C32.3123 19.387 32.6273 19.737 33.0893 20.003C33.5513 20.269 34.0763 20.402 34.6643 20.402C35.6303 20.402 36.4843 20.094 37.2263 19.478C37.9823 18.862 38.4373 18.092 38.5913 17.168L38.8643 15.677C37.7583 16.699 36.5193 17.21 35.1473 17.21C33.8173 17.21 32.7883 16.741 32.0603 15.803C31.3463 14.865 31.1153 13.689 31.3673 12.275C31.5913 10.889 32.2353 9.72 33.2993 8.768C34.3773 7.816 35.5743 7.34 36.8903 7.34C38.2763 7.34 39.3263 7.851 40.0403 8.873L40.2713 7.55H41.8043L40.1243 17.168C39.9003 18.526 39.2353 19.66 38.1293 20.57C37.0513 21.48 35.8263 21.935 34.4543 21.935ZM39.4103 12.275C39.5783 11.309 39.4103 10.504 38.9063 9.86C38.4023 9.216 37.6953 8.894 36.7853 8.894C35.8613 8.894 35.0353 9.216 34.3073 9.86C33.5793 10.504 33.1313 11.309 32.9633 12.275C32.7953 13.227 32.9563 14.032 33.4463 14.69C33.9503 15.334 34.6573 15.656 35.5673 15.656C36.4773 15.656 37.2963 15.334 38.0243 14.69C38.7663 14.032 39.2283 13.227 39.4103 12.275ZM46.4993 17.21C45.4213 17.21 44.5743 16.853 43.9583 16.139C43.3703 15.425 43.1743 14.529 43.3703 13.451L44.3993 7.55H45.9533L44.9873 13.031C44.8473 13.801 44.9873 14.445 45.4073 14.963C45.8273 15.467 46.4223 15.719 47.1923 15.719C48.0043 15.719 48.7393 15.467 49.3973 14.963C50.0413 14.445 50.4333 13.801 50.5733 13.031V13.01L51.5603 7.55H53.0933L51.4343 17H49.9013L50.1743 15.404C49.2223 16.608 47.9973 17.21 46.4993 17.21ZM64.0151 12.8H55.9091C55.8671 13.654 56.1121 14.361 56.6441 14.921C57.1901 15.481 57.9181 15.761 58.8281 15.761C60.0181 15.761 61.0261 15.306 61.8521 14.396L63.2801 14.858C62.7201 15.586 62.0201 16.16 61.1801 16.58C60.3541 17 59.4861 17.21 58.5761 17.21C57.1341 17.21 56.0141 16.741 55.2161 15.803C54.4321 14.851 54.1661 13.675 54.4181 12.275C54.6421 10.889 55.3071 9.72 56.4131 8.768C57.5331 7.816 58.7791 7.34 60.1511 7.34C61.5371 7.34 62.6081 7.809 63.3641 8.747C64.1341 9.671 64.4001 10.847 64.1621 12.275C64.1341 12.387 64.1061 12.506 64.0781 12.632L64.0151 12.8ZM56.1401 11.561H62.6921C62.6781 10.749 62.4121 10.084 61.8941 9.566C61.3761 9.048 60.7041 8.789 59.8781 8.789C59.0661 8.789 58.3101 9.048 57.6101 9.566C56.9241 10.084 56.4341 10.749 56.1401 11.561ZM73.713 13.745L71.718 17H69.933L78.648 2.825H80.013L83.751 17H81.987L81.147 13.745H73.713ZM80.727 12.17L78.921 5.24L74.679 12.17H80.727ZM86.992 17H85.459L88.126 1.775H89.68L86.992 17ZM91.1966 17H89.6426L91.3016 7.55H92.8556L91.1966 17ZM91.5536 4.463C91.6096 4.155 91.7566 3.903 91.9946 3.707C92.2326 3.511 92.5056 3.413 92.8136 3.413C93.1076 3.413 93.3386 3.511 93.5066 3.707C93.6746 3.903 93.7306 4.155 93.6746 4.463C93.6186 4.771 93.4716 5.03 93.2336 5.24C92.9956 5.436 92.7296 5.534 92.4356 5.534C92.1276 5.534 91.8896 5.436 91.7216 5.24C91.5536 5.044 91.4976 4.785 91.5536 4.463ZM97.9422 17.21C96.6122 17.21 95.5832 16.741 94.8552 15.803C94.1412 14.865 93.9102 13.689 94.1622 12.275C94.3862 10.889 95.0302 9.72 96.0942 8.768C97.1722 7.816 98.3692 7.34 99.6852 7.34C101.071 7.34 102.121 7.851 102.835 8.873L103.066 7.55H104.599L102.1 21.725H100.567L101.638 15.677C100.574 16.699 99.3422 17.21 97.9422 17.21ZM102.205 12.275C102.373 11.309 102.205 10.504 101.701 9.86C101.197 9.216 100.49 8.894 99.5802 8.894C98.6562 8.894 97.8302 9.216 97.1022 9.86C96.3742 10.504 95.9262 11.309 95.7582 12.275C95.5902 13.241 95.7582 14.046 96.2622 14.69C96.7662 15.334 97.4732 15.656 98.3832 15.656C99.2932 15.656 100.112 15.334 100.84 14.69C101.554 14.046 102.009 13.241 102.205 12.275ZM109.294 17.21C108.216 17.21 107.369 16.853 106.753 16.139C106.165 15.425 105.969 14.529 106.165 13.451L107.194 7.55H108.748L107.782 13.031C107.642 13.801 107.782 14.445 108.202 14.963C108.622 15.467 109.217 15.719 109.987 15.719C110.799 15.719 111.534 15.467 112.192 14.963C112.836 14.445 113.228 13.801 113.368 13.031V13.01L114.355 7.55H115.888L114.229 17H112.696L112.969 15.404C112.017 16.608 110.792 17.21 109.294 17.21ZM120.993 17.21C119.663 17.21 118.634 16.741 117.906 15.803C117.192 14.865 116.961 13.689 117.213 12.275C117.437 10.889 118.081 9.72 119.145 8.768C120.223 7.816 121.42 7.34 122.736 7.34C124.122 7.34 125.172 7.851 125.886 8.873L126.117 7.55H127.671L126.012 17H124.458L124.689 15.677C123.625 16.699 122.393 17.21 120.993 17.21ZM125.256 12.275C125.424 11.309 125.256 10.504 124.752 9.86C124.248 9.216 123.541 8.894 122.631 8.894C121.707 8.894 120.881 9.216 120.153 9.86C119.425 10.504 118.977 11.309 118.809 12.275C118.641 13.241 118.809 14.046 119.313 14.69C119.817 15.334 120.524 15.656 121.434 15.656C122.344 15.656 123.163 15.334 123.891 14.69C124.605 14.046 125.06 13.241 125.256 12.275ZM131.169 11.309L130.161 17H128.628L130.287 7.55H131.82L131.589 8.936C132.443 7.872 133.57 7.34 134.97 7.34C135.642 7.34 136.23 7.508 136.734 7.844C137.238 8.166 137.588 8.607 137.784 9.167C138.68 7.949 139.905 7.34 141.459 7.34C142.537 7.34 143.356 7.676 143.916 8.348C144.504 9.02 144.714 9.86 144.546 10.868L143.454 17H141.921L142.929 11.267C143.055 10.581 142.929 10.007 142.551 9.545C142.173 9.069 141.634 8.831 140.934 8.831C140.178 8.831 139.506 9.062 138.918 9.524C138.33 9.986 137.966 10.56 137.826 11.246L136.818 17H135.285L136.272 11.267C136.398 10.581 136.272 10.007 135.894 9.545C135.516 9.069 134.977 8.831 134.277 8.831C133.535 8.831 132.863 9.069 132.261 9.545C131.659 10.007 131.295 10.581 131.169 11.267V11.309ZM155.565 6.08L153.633 17H151.932L154.431 2.825H156.132L160.122 12.968L167.682 2.825H169.383L166.905 17H165.204L167.115 6.059L160.269 15.215H159.156L155.565 6.08ZM170.205 12.275C170.429 10.889 171.101 9.72 172.221 8.768C173.341 7.816 174.601 7.34 176.001 7.34C177.401 7.34 178.486 7.809 179.256 8.747C180.026 9.685 180.299 10.861 180.075 12.275C179.823 13.675 179.137 14.851 178.017 15.803C176.911 16.741 175.658 17.21 174.258 17.21C172.844 17.21 171.752 16.741 170.982 15.803C170.212 14.865 169.953 13.689 170.205 12.275ZM173.166 9.86C172.424 10.518 171.969 11.323 171.801 12.275C171.633 13.241 171.808 14.046 172.326 14.69C172.844 15.334 173.579 15.656 174.531 15.656C175.497 15.656 176.344 15.334 177.072 14.69C177.828 14.032 178.29 13.227 178.458 12.275C178.626 11.309 178.451 10.504 177.933 9.86C177.415 9.216 176.68 8.894 175.728 8.894C174.762 8.894 173.908 9.216 173.166 9.86ZM182.907 17H181.374L184.041 1.775H185.595L182.907 17ZM187.091 17H185.558L188.225 1.775H189.779L187.091 17ZM191.295 17H189.741L191.4 7.55H192.954L191.295 17ZM191.652 4.463C191.708 4.155 191.855 3.903 192.093 3.707C192.331 3.511 192.604 3.413 192.912 3.413C193.206 3.413 193.437 3.511 193.605 3.707C193.773 3.903 193.829 4.155 193.773 4.463C193.717 4.771 193.57 5.03 193.332 5.24C193.094 5.436 192.828 5.534 192.534 5.534C192.226 5.534 191.988 5.436 191.82 5.24C191.652 5.044 191.596 4.785 191.652 4.463ZM201.653 9.608L200.141 9.881C200.113 9.531 199.938 9.251 199.616 9.041C199.294 8.817 198.867 8.705 198.335 8.705C197.817 8.705 197.362 8.817 196.97 9.041C196.592 9.265 196.375 9.559 196.319 9.923C196.207 10.427 196.473 10.798 197.117 11.036L199.259 11.855C200.631 12.387 201.212 13.248 201.002 14.438C200.834 15.306 200.379 15.985 199.637 16.475C198.895 16.965 197.999 17.21 196.949 17.21C195.941 17.21 195.15 16.986 194.576 16.538C194.002 16.09 193.715 15.488 193.715 14.732L195.206 14.48C195.234 14.9 195.423 15.236 195.773 15.488C196.137 15.726 196.62 15.845 197.222 15.845C197.81 15.845 198.314 15.719 198.734 15.467C199.168 15.215 199.42 14.886 199.49 14.48C199.588 13.934 199.252 13.514 198.482 13.22L196.382 12.443C195.122 11.953 194.597 11.155 194.807 10.049C194.961 9.195 195.388 8.53 196.088 8.054C196.802 7.578 197.67 7.34 198.692 7.34C199.602 7.34 200.316 7.55 200.834 7.97C201.366 8.376 201.639 8.922 201.653 9.608ZM214.099 17H208.513L211.012 2.825H216.577C218.663 2.825 220.28 3.504 221.428 4.862C222.576 6.234 222.975 7.914 222.625 9.902C222.261 11.918 221.267 13.605 219.643 14.963C218.033 16.321 216.185 17 214.099 17ZM212.44 4.4L210.487 15.425H214.372C215.842 15.425 217.172 14.956 218.362 14.018C219.566 13.066 220.364 11.883 220.756 10.469L220.882 9.902C221.162 8.348 220.861 7.046 219.979 5.996C219.125 4.932 217.9 4.4 216.304 4.4H212.44ZM225.338 17H223.784L225.443 7.55H226.997L225.338 17ZM225.695 4.463C225.751 4.155 225.898 3.903 226.136 3.707C226.374 3.511 226.647 3.413 226.955 3.413C227.249 3.413 227.48 3.511 227.648 3.707C227.816 3.903 227.872 4.155 227.816 4.463C227.76 4.771 227.613 5.03 227.375 5.24C227.137 5.436 226.871 5.534 226.577 5.534C226.269 5.534 226.031 5.436 225.863 5.24C225.695 5.044 225.639 4.785 225.695 4.463ZM232.084 17.21C230.754 17.21 229.725 16.741 228.997 15.803C228.283 14.865 228.052 13.689 228.304 12.275C228.528 10.889 229.172 9.72 230.236 8.768C231.314 7.816 232.511 7.34 233.827 7.34C235.213 7.34 236.263 7.851 236.977 8.873L237.208 7.55H238.762L237.103 17H235.549L235.78 15.677C234.716 16.699 233.484 17.21 232.084 17.21ZM236.347 12.275C236.515 11.309 236.347 10.504 235.843 9.86C235.339 9.216 234.632 8.894 233.722 8.894C232.798 8.894 231.972 9.216 231.244 9.86C230.516 10.504 230.068 11.309 229.9 12.275C229.732 13.241 229.9 14.046 230.404 14.69C230.908 15.334 231.615 15.656 232.525 15.656C233.435 15.656 234.254 15.334 234.982 14.69C235.696 14.046 236.151 13.241 236.347 12.275ZM242.26 11.309L241.252 17H239.719L241.378 7.55H242.911L242.68 8.936C243.534 7.872 244.661 7.34 246.061 7.34C246.733 7.34 247.321 7.508 247.825 7.844C248.329 8.166 248.679 8.607 248.875 9.167C249.771 7.949 250.996 7.34 252.55 7.34C253.628 7.34 254.447 7.676 255.007 8.348C255.595 9.02 255.805 9.86 255.637 10.868L254.545 17H253.012L254.02 11.267C254.146 10.581 254.02 10.007 253.642 9.545C253.264 9.069 252.725 8.831 252.025 8.831C251.269 8.831 250.597 9.062 250.009 9.524C249.421 9.986 249.057 10.56 248.917 11.246L247.909 17H246.376L247.363 11.267C247.489 10.581 247.363 10.007 246.985 9.545C246.607 9.069 246.068 8.831 245.368 8.831C244.626 8.831 243.954 9.069 243.352 9.545C242.75 10.007 242.386 10.581 242.26 11.267V11.309ZM11.529 35.33L13.02 26.825H14.721L13.23 35.33C12.936 36.996 12.117 38.396 10.773 39.53C9.415 40.65 7.889 41.21 6.195 41.21C4.487 41.21 3.157 40.65 2.205 39.53C1.253 38.382 0.924 36.982 1.218 35.33L2.709 26.825H4.41L2.919 35.33C2.695 36.562 2.919 37.591 3.591 38.417C4.277 39.229 5.236 39.635 6.468 39.635C7.714 39.635 8.806 39.229 9.744 38.417C10.696 37.605 11.291 36.576 11.529 35.33ZM16.5272 41H14.9942L17.6612 25.775H19.2152L16.5272 41ZM20.7108 41H19.1778L21.8448 25.775H23.3988L20.7108 41ZM27.4774 41.21C26.1474 41.21 25.1184 40.741 24.3904 39.803C23.6764 38.865 23.4454 37.689 23.6974 36.275C23.9214 34.889 24.5654 33.72 25.6294 32.768C26.7074 31.816 27.9044 31.34 29.2204 31.34C30.6064 31.34 31.6564 31.851 32.3704 32.873L32.6014 31.55H34.1554L32.4964 41H30.9424L31.1734 39.677C30.1094 40.699 28.8774 41.21 27.4774 41.21ZM31.7404 36.275C31.9084 35.309 31.7404 34.504 31.2364 33.86C30.7324 33.216 30.0254 32.894 29.1154 32.894C28.1914 32.894 27.3654 33.216 26.6374 33.86C25.9094 34.504 25.4614 35.309 25.2934 36.275C25.1254 37.241 25.2934 38.046 25.7974 38.69C26.3014 39.334 27.0084 39.656 27.9184 39.656C28.8284 39.656 29.6474 39.334 30.3754 38.69C31.0894 38.046 31.5444 37.241 31.7404 36.275ZM37.6533 35.309L36.6453 41H35.1123L36.7713 31.55H38.3043L38.0733 32.936C38.9273 31.872 40.0543 31.34 41.4543 31.34C42.1263 31.34 42.7143 31.508 43.2183 31.844C43.7223 32.166 44.0723 32.607 44.2683 33.167C45.1643 31.949 46.3893 31.34 47.9433 31.34C49.0213 31.34 49.8403 31.676 50.4003 32.348C50.9883 33.02 51.1983 33.86 51.0303 34.868L49.9383 41H48.4053L49.4133 35.267C49.5393 34.581 49.4133 34.007 49.0353 33.545C48.6573 33.069 48.1183 32.831 47.4183 32.831C46.6623 32.831 45.9903 33.062 45.4023 33.524C44.8143 33.986 44.4503 34.56 44.3103 35.246L43.3023 41H41.7693L42.7563 35.267C42.8823 34.581 42.7563 34.007 42.3783 33.545C42.0003 33.069 41.4613 32.831 40.7613 32.831C40.0193 32.831 39.3473 33.069 38.7453 33.545C38.1433 34.007 37.7793 34.581 37.6533 35.267V35.309ZM62.6865 34.196L61.0485 34.679C60.8805 34.133 60.5655 33.699 60.1035 33.377C59.6415 33.055 59.0815 32.894 58.4235 32.894C57.4575 32.894 56.6035 33.216 55.8615 33.86C55.1195 34.518 54.6645 35.323 54.4965 36.275C54.3285 37.241 54.5035 38.046 55.0215 38.69C55.5395 39.334 56.2745 39.656 57.2265 39.656C57.8845 39.656 58.4935 39.502 59.0535 39.194C59.6275 38.872 60.1035 38.431 60.4815 37.871L61.9515 38.354C61.4055 39.236 60.6845 39.936 59.7885 40.454C58.9065 40.958 57.9615 41.21 56.9535 41.21C55.5395 41.21 54.4475 40.741 53.6775 39.803C52.9075 38.865 52.6485 37.689 52.9005 36.275C53.1245 34.889 53.7965 33.72 54.9165 32.768C56.0365 31.816 57.2965 31.34 58.6965 31.34C59.7045 31.34 60.5655 31.599 61.2795 32.117C61.9935 32.635 62.4625 33.328 62.6865 34.196ZM63.7901 36.275C64.0141 34.889 64.6861 33.72 65.8061 32.768C66.9261 31.816 68.1861 31.34 69.5861 31.34C70.9861 31.34 72.0711 31.809 72.8411 32.747C73.6111 33.685 73.8841 34.861 73.6601 36.275C73.4081 37.675 72.7221 38.851 71.6021 39.803C70.4961 40.741 69.2431 41.21 67.8431 41.21C66.4291 41.21 65.3371 40.741 64.5671 39.803C63.7971 38.865 63.5381 37.689 63.7901 36.275ZM66.7511 33.86C66.0091 34.518 65.5541 35.323 65.3861 36.275C65.2181 37.241 65.3931 38.046 65.9111 38.69C66.4291 39.334 67.1641 39.656 68.1161 39.656C69.0821 39.656 69.9291 39.334 70.6571 38.69C71.4131 38.032 71.8751 37.227 72.0431 36.275C72.2111 35.309 72.0361 34.504 71.5181 33.86C71.0001 33.216 70.2651 32.894 69.3131 32.894C68.3471 32.894 67.4931 33.216 66.7511 33.86ZM78.151 31.55L77.878 33.146C78.788 31.942 80.097 31.34 81.805 31.34L81.511 33.062C81.259 32.992 81.035 32.957 80.839 32.957C79.999 32.957 79.257 33.216 78.613 33.734C77.969 34.252 77.577 34.896 77.437 35.666L76.492 41H74.959L76.618 31.55H78.151ZM82.5221 45.725H80.9891L83.4881 31.55H85.0211L84.7901 32.852C85.8681 31.844 87.1001 31.34 88.4861 31.34C89.8161 31.34 90.8381 31.816 91.5521 32.768C92.2801 33.706 92.5181 34.875 92.2661 36.275C92.0281 37.689 91.3771 38.865 90.3131 39.803C89.2771 40.741 88.0871 41.21 86.7431 41.21C85.3571 41.21 84.3071 40.706 83.5931 39.698L82.5221 45.725ZM84.2441 36.275C84.0621 37.227 84.2231 38.032 84.7271 38.69C85.2311 39.334 85.9381 39.656 86.8481 39.656C87.7581 39.656 88.5771 39.334 89.3051 38.69C90.0471 38.032 90.5021 37.227 90.6701 36.275C90.8381 35.309 90.6701 34.504 90.1661 33.86C89.6621 33.216 88.9551 32.894 88.0451 32.894C87.1211 32.894 86.2951 33.216 85.5671 33.86C84.8251 34.518 84.3841 35.323 84.2441 36.275ZM103.513 36.8H95.4071C95.3651 37.654 95.6101 38.361 96.1421 38.921C96.6881 39.481 97.4161 39.761 98.3261 39.761C99.5161 39.761 100.524 39.306 101.35 38.396L102.778 38.858C102.218 39.586 101.518 40.16 100.678 40.58C99.8521 41 98.9841 41.21 98.0741 41.21C96.6321 41.21 95.5121 40.741 94.7141 39.803C93.9301 38.851 93.6641 37.675 93.9161 36.275C94.1401 34.889 94.8051 33.72 95.9111 32.768C97.0311 31.816 98.2771 31.34 99.6491 31.34C101.035 31.34 102.106 31.809 102.862 32.747C103.632 33.671 103.898 34.847 103.66 36.275C103.632 36.387 103.604 36.506 103.576 36.632L103.513 36.8ZM95.6381 35.561H102.19C102.176 34.749 101.91 34.084 101.392 33.566C100.874 33.048 100.202 32.789 99.3761 32.789C98.5641 32.789 97.8081 33.048 97.1081 33.566C96.4221 34.084 95.9321 34.749 95.6381 35.561ZM108.031 31.55L107.758 33.146C108.668 31.942 109.977 31.34 111.685 31.34L111.391 33.062C111.139 32.992 110.915 32.957 110.719 32.957C109.879 32.957 109.137 33.216 108.493 33.734C107.849 34.252 107.457 34.896 107.317 35.666L106.372 41H104.839L106.498 31.55H108.031ZM119.262 41H117.561L120.06 26.825H130.224L129.951 28.4H121.488L120.69 32.957H128.124L127.851 34.532H120.396L119.262 41ZM138.766 36.8H130.66C130.618 37.654 130.863 38.361 131.395 38.921C131.941 39.481 132.669 39.761 133.579 39.761C134.769 39.761 135.777 39.306 136.603 38.396L138.031 38.858C137.471 39.586 136.771 40.16 135.931 40.58C135.105 41 134.237 41.21 133.327 41.21C131.885 41.21 130.765 40.741 129.967 39.803C129.183 38.851 128.917 37.675 129.169 36.275C129.393 34.889 130.058 33.72 131.164 32.768C132.284 31.816 133.53 31.34 134.902 31.34C136.288 31.34 137.359 31.809 138.115 32.747C138.885 33.671 139.151 34.847 138.913 36.275C138.885 36.387 138.857 36.506 138.829 36.632L138.766 36.8ZM130.891 35.561H137.443C137.429 34.749 137.163 34.084 136.645 33.566C136.127 33.048 135.455 32.789 134.629 32.789C133.817 32.789 133.061 33.048 132.361 33.566C131.675 34.084 131.185 34.749 130.891 35.561ZM143.809 41.21C142.731 41.21 141.884 40.853 141.268 40.139C140.68 39.425 140.484 38.529 140.68 37.451L141.709 31.55H143.263L142.297 37.031C142.157 37.801 142.297 38.445 142.717 38.963C143.137 39.467 143.732 39.719 144.502 39.719C145.314 39.719 146.049 39.467 146.707 38.963C147.351 38.445 147.743 37.801 147.883 37.031V37.01L148.87 31.55H150.403L148.744 41H147.211L147.484 39.404C146.532 40.608 145.307 41.21 143.809 41.21ZM154.815 45.935C153.863 45.935 153.023 45.704 152.295 45.242C151.581 44.78 151.112 44.178 150.888 43.436L152.505 42.953C152.673 43.387 152.988 43.737 153.45 44.003C153.912 44.269 154.437 44.402 155.025 44.402C155.991 44.402 156.845 44.094 157.587 43.478C158.343 42.862 158.798 42.092 158.952 41.168L159.225 39.677C158.119 40.699 156.88 41.21 155.508 41.21C154.178 41.21 153.149 40.741 152.421 39.803C151.707 38.865 151.476 37.689 151.728 36.275C151.952 34.889 152.596 33.72 153.66 32.768C154.738 31.816 155.935 31.34 157.251 31.34C158.637 31.34 159.687 31.851 160.401 32.873L160.632 31.55H162.165L160.485 41.168C160.261 42.526 159.596 43.66 158.49 44.57C157.412 45.48 156.187 45.935 154.815 45.935ZM159.771 36.275C159.939 35.309 159.771 34.504 159.267 33.86C158.763 33.216 158.056 32.894 157.146 32.894C156.222 32.894 155.396 33.216 154.668 33.86C153.94 34.504 153.492 35.309 153.324 36.275C153.156 37.227 153.317 38.032 153.807 38.69C154.311 39.334 155.018 39.656 155.928 39.656C156.838 39.656 157.657 39.334 158.385 38.69C159.127 38.032 159.589 37.227 159.771 36.275ZM164.697 41H163.143L164.802 31.55H166.356L164.697 41ZM165.054 28.463C165.11 28.155 165.257 27.903 165.495 27.707C165.733 27.511 166.006 27.413 166.314 27.413C166.608 27.413 166.839 27.511 167.007 27.707C167.175 27.903 167.231 28.155 167.175 28.463C167.119 28.771 166.972 29.03 166.734 29.24C166.496 29.436 166.23 29.534 165.936 29.534C165.628 29.534 165.39 29.436 165.222 29.24C165.054 29.044 164.998 28.785 165.054 28.463ZM171.442 41.21C170.112 41.21 169.083 40.741 168.355 39.803C167.641 38.865 167.41 37.689 167.662 36.275C167.886 34.889 168.53 33.72 169.594 32.768C170.672 31.816 171.869 31.34 173.185 31.34C174.571 31.34 175.621 31.851 176.335 32.873L176.566 31.55H178.12L176.461 41H174.907L175.138 39.677C174.074 40.699 172.842 41.21 171.442 41.21ZM175.705 36.275C175.873 35.309 175.705 34.504 175.201 33.86C174.697 33.216 173.99 32.894 173.08 32.894C172.156 32.894 171.33 33.216 170.602 33.86C169.874 34.504 169.426 35.309 169.258 36.275C169.09 37.241 169.258 38.046 169.762 38.69C170.266 39.334 170.973 39.656 171.883 39.656C172.793 39.656 173.612 39.334 174.34 38.69C175.054 38.046 175.509 37.241 175.705 36.275ZM179.476 32.915L179.707 31.55H181.24L181.576 29.597H183.13L182.773 31.55H185.461L185.23 32.915H182.542L181.639 38.018C181.569 38.452 181.632 38.809 181.828 39.089C182.038 39.369 182.339 39.509 182.731 39.509H184.054L183.802 41H182.374C181.576 41 180.953 40.734 180.505 40.202C180.057 39.656 179.91 38.991 180.064 38.207L180.988 32.915H179.476ZM185.531 40.097C185.587 39.775 185.734 39.509 185.972 39.299C186.224 39.075 186.511 38.963 186.833 38.963C187.155 38.963 187.407 39.075 187.589 39.299C187.771 39.509 187.834 39.775 187.778 40.097C187.708 40.419 187.547 40.685 187.295 40.895C187.043 41.105 186.763 41.21 186.455 41.21C186.119 41.21 185.86 41.105 185.678 40.895C185.51 40.685 185.461 40.419 185.531 40.097ZM207.078 29.765L205.293 30.269C205.265 29.681 204.985 29.198 204.453 28.82C203.935 28.442 203.277 28.253 202.479 28.253C201.597 28.253 200.834 28.47 200.19 28.904C199.518 29.338 199.133 29.877 199.035 30.521C198.951 31.053 199.112 31.508 199.518 31.886C199.756 32.082 200.022 32.236 200.316 32.348C200.806 32.572 201.527 32.803 202.479 33.041C203.431 33.293 204.18 33.566 204.726 33.86C205.314 34.154 205.734 34.546 205.986 35.036C206.238 35.526 206.315 36.177 206.217 36.989C205.979 38.263 205.321 39.285 204.243 40.055C203.165 40.825 201.87 41.21 200.358 41.21C199 41.21 197.894 40.895 197.04 40.265C196.186 39.607 195.731 38.795 195.675 37.829L197.439 37.325C197.453 37.969 197.754 38.508 198.342 38.942C198.944 39.362 199.714 39.572 200.652 39.572C201.618 39.572 202.465 39.341 203.193 38.879C203.935 38.417 204.369 37.829 204.495 37.115C204.635 36.401 204.39 35.855 203.76 35.477C203.228 35.169 202.556 34.91 201.744 34.7C200.148 34.266 199.056 33.853 198.468 33.461C197.488 32.789 197.103 31.844 197.313 30.626C197.551 29.422 198.167 28.456 199.161 27.728C200.183 26.986 201.38 26.615 202.752 26.615C203.998 26.615 205.006 26.916 205.776 27.518C206.56 28.106 206.994 28.855 207.078 29.765ZM217.701 36.8H209.595C209.553 37.654 209.798 38.361 210.33 38.921C210.876 39.481 211.604 39.761 212.514 39.761C213.704 39.761 214.712 39.306 215.538 38.396L216.966 38.858C216.406 39.586 215.706 40.16 214.866 40.58C214.04 41 213.172 41.21 212.262 41.21C210.82 41.21 209.7 40.741 208.902 39.803C208.118 38.851 207.852 37.675 208.104 36.275C208.328 34.889 208.993 33.72 210.099 32.768C211.219 31.816 212.465 31.34 213.837 31.34C215.223 31.34 216.294 31.809 217.05 32.747C217.82 33.671 218.086 34.847 217.848 36.275C217.82 36.387 217.792 36.506 217.764 36.632L217.701 36.8ZM209.826 35.561H216.378C216.364 34.749 216.098 34.084 215.58 33.566C215.062 33.048 214.39 32.789 213.564 32.789C212.752 32.789 211.996 33.048 211.296 33.566C210.61 34.084 210.12 34.749 209.826 35.561ZM221.567 35.309L220.559 41H219.026L220.685 31.55H222.218L221.987 32.936C222.841 31.872 223.968 31.34 225.368 31.34C226.04 31.34 226.628 31.508 227.132 31.844C227.636 32.166 227.986 32.607 228.182 33.167C229.078 31.949 230.303 31.34 231.857 31.34C232.935 31.34 233.754 31.676 234.314 32.348C234.902 33.02 235.112 33.86 234.944 34.868L233.852 41H232.319L233.327 35.267C233.453 34.581 233.327 34.007 232.949 33.545C232.571 33.069 232.032 32.831 231.332 32.831C230.576 32.831 229.904 33.062 229.316 33.524C228.728 33.986 228.364 34.56 228.224 35.246L227.216 41H225.683L226.67 35.267C226.796 34.581 226.67 34.007 226.292 33.545C225.914 33.069 225.375 32.831 224.675 32.831C223.933 32.831 223.261 33.069 222.659 33.545C222.057 34.007 221.693 34.581 221.567 35.267V35.309ZM253.713 29.765L251.928 30.269C251.9 29.681 251.62 29.198 251.088 28.82C250.57 28.442 249.912 28.253 249.114 28.253C248.232 28.253 247.469 28.47 246.825 28.904C246.153 29.338 245.768 29.877 245.67 30.521C245.586 31.053 245.747 31.508 246.153 31.886C246.391 32.082 246.657 32.236 246.951 32.348C247.441 32.572 248.162 32.803 249.114 33.041C250.066 33.293 250.815 33.566 251.361 33.86C251.949 34.154 252.369 34.546 252.621 35.036C252.873 35.526 252.95 36.177 252.852 36.989C252.614 38.263 251.956 39.285 250.878 40.055C249.8 40.825 248.505 41.21 246.993 41.21C245.635 41.21 244.529 40.895 243.675 40.265C242.821 39.607 242.366 38.795 242.31 37.829L244.074 37.325C244.088 37.969 244.389 38.508 244.977 38.942C245.579 39.362 246.349 39.572 247.287 39.572C248.253 39.572 249.1 39.341 249.828 38.879C250.57 38.417 251.004 37.829 251.13 37.115C251.27 36.401 251.025 35.855 250.395 35.477C249.863 35.169 249.191 34.91 248.379 34.7C246.783 34.266 245.691 33.853 245.103 33.461C244.123 32.789 243.738 31.844 243.948 30.626C244.186 29.422 244.802 28.456 245.796 27.728C246.818 26.986 248.015 26.615 249.387 26.615C250.633 26.615 251.641 26.916 252.411 27.518C253.195 28.106 253.629 28.855 253.713 29.765ZM264.335 36.8H256.229C256.187 37.654 256.432 38.361 256.964 38.921C257.51 39.481 258.238 39.761 259.148 39.761C260.338 39.761 261.346 39.306 262.172 38.396L263.6 38.858C263.04 39.586 262.34 40.16 261.5 40.58C260.674 41 259.806 41.21 258.896 41.21C257.454 41.21 256.334 40.741 255.536 39.803C254.752 38.851 254.486 37.675 254.738 36.275C254.962 34.889 255.627 33.72 256.733 32.768C257.853 31.816 259.099 31.34 260.471 31.34C261.857 31.34 262.928 31.809 263.684 32.747C264.454 33.671 264.72 34.847 264.482 36.275C264.454 36.387 264.426 36.506 264.398 36.632L264.335 36.8ZM256.46 35.561H263.012C262.998 34.749 262.732 34.084 262.214 33.566C261.696 33.048 261.024 32.789 260.198 32.789C259.386 32.789 258.63 33.048 257.93 33.566C257.244 34.084 256.754 34.749 256.46 35.561ZM269.777 41.21C268.447 41.21 267.418 40.741 266.69 39.803C265.976 38.865 265.745 37.689 265.997 36.275C266.221 34.889 266.865 33.72 267.929 32.768C269.007 31.816 270.204 31.34 271.52 31.34C272.906 31.34 273.963 31.851 274.691 32.873L275.93 25.775H277.463L274.775 41H273.242L273.473 39.677C272.409 40.699 271.177 41.21 269.777 41.21ZM274.04 36.275C274.208 35.309 274.04 34.504 273.536 33.86C273.032 33.216 272.325 32.894 271.415 32.894C270.491 32.894 269.665 33.216 268.937 33.86C268.209 34.504 267.761 35.309 267.593 36.275C267.425 37.241 267.593 38.046 268.097 38.69C268.601 39.334 269.308 39.656 270.218 39.656C271.128 39.656 271.947 39.334 272.675 38.69C273.389 38.046 273.844 37.241 274.04 36.275ZM0.441 65L2.94 50.825H13.104L12.831 52.4H4.368L3.549 57.041H10.983L10.71 58.616H3.276L2.415 63.425H10.983L10.71 65H0.441ZM14.3738 65H12.8408L15.5078 49.775H17.0618L14.3738 65ZM26.9574 60.8H18.8514C18.8094 61.654 19.0544 62.361 19.5864 62.921C20.1324 63.481 20.8604 63.761 21.7704 63.761C22.9604 63.761 23.9684 63.306 24.7944 62.396L26.2224 62.858C25.6624 63.586 24.9624 64.16 24.1224 64.58C23.2964 65 22.4284 65.21 21.5184 65.21C20.0764 65.21 18.9564 64.741 18.1584 63.803C17.3744 62.851 17.1084 61.675 17.3604 60.275C17.5844 58.889 18.2494 57.72 19.3554 56.768C20.4754 55.816 21.7214 55.34 23.0934 55.34C24.4794 55.34 25.5504 55.809 26.3064 56.747C27.0764 57.671 27.3424 58.847 27.1044 60.275C27.0764 60.387 27.0484 60.506 27.0204 60.632L26.9574 60.8ZM19.0824 59.561H25.6344C25.6204 58.749 25.3544 58.084 24.8364 57.566C24.3184 57.048 23.6464 56.789 22.8204 56.789C22.0084 56.789 21.2524 57.048 20.5524 57.566C19.8664 58.084 19.3764 58.749 19.0824 59.561ZM30.8242 59.309L29.8162 65H28.2832L29.9422 55.55H31.4752L31.2442 56.936C32.0982 55.872 33.2252 55.34 34.6252 55.34C35.2972 55.34 35.8852 55.508 36.3892 55.844C36.8932 56.166 37.2432 56.607 37.4392 57.167C38.3352 55.949 39.5602 55.34 41.1142 55.34C42.1922 55.34 43.0112 55.676 43.5712 56.348C44.1592 57.02 44.3692 57.86 44.2012 58.868L43.1092 65H41.5762L42.5842 59.267C42.7102 58.581 42.5842 58.007 42.2062 57.545C41.8282 57.069 41.2892 56.831 40.5892 56.831C39.8332 56.831 39.1612 57.062 38.5732 57.524C37.9852 57.986 37.6212 58.56 37.4812 59.246L36.4732 65H34.9402L35.9272 59.267C36.0532 58.581 35.9272 58.007 35.5492 57.545C35.1712 57.069 34.6322 56.831 33.9322 56.831C33.1902 56.831 32.5182 57.069 31.9162 57.545C31.3142 58.007 30.9502 58.581 30.8242 59.267V59.309ZM55.6684 60.8H47.5624C47.5204 61.654 47.7654 62.361 48.2974 62.921C48.8434 63.481 49.5714 63.761 50.4814 63.761C51.6714 63.761 52.6794 63.306 53.5054 62.396L54.9334 62.858C54.3734 63.586 53.6734 64.16 52.8334 64.58C52.0074 65 51.1394 65.21 50.2294 65.21C48.7874 65.21 47.6674 64.741 46.8694 63.803C46.0854 62.851 45.8194 61.675 46.0714 60.275C46.2954 58.889 46.9604 57.72 48.0664 56.768C49.1864 55.816 50.4324 55.34 51.8044 55.34C53.1904 55.34 54.2614 55.809 55.0174 56.747C55.7874 57.671 56.0534 58.847 55.8154 60.275C55.7874 60.387 55.7594 60.506 55.7314 60.632L55.6684 60.8ZM47.7934 59.561H54.3454C54.3314 58.749 54.0654 58.084 53.5474 57.566C53.0294 57.048 52.3574 56.789 51.5314 56.789C50.7194 56.789 49.9634 57.048 49.2634 57.566C48.5774 58.084 48.0874 58.749 47.7934 59.561ZM59.4932 59.54L58.5272 65H56.9942L58.6532 55.55H60.1862L59.9132 57.125C60.8512 55.935 62.0692 55.34 63.5672 55.34C64.6452 55.34 65.4922 55.697 66.1082 56.411C66.7102 57.111 66.9132 58.007 66.7172 59.099L65.6882 65H64.1342L65.1002 59.519C65.2262 58.749 65.0792 58.112 64.6592 57.608C64.2532 57.09 63.6652 56.831 62.8952 56.831C62.0552 56.831 61.3132 57.09 60.6692 57.608C60.0252 58.126 59.6332 58.77 59.4932 59.54ZM68.693 56.915L68.924 55.55H70.457L70.793 53.597H72.347L71.99 55.55H74.678L74.447 56.915H71.759L70.856 62.018C70.786 62.452 70.849 62.809 71.045 63.089C71.255 63.369 71.556 63.509 71.948 63.509H73.271L73.019 65H71.591C70.793 65 70.17 64.734 69.722 64.202C69.274 63.656 69.127 62.991 69.281 62.207L70.205 56.915H68.693ZM78.6555 65.21C77.5775 65.21 76.7305 64.853 76.1145 64.139C75.5265 63.425 75.3305 62.529 75.5265 61.451L76.5555 55.55H78.1095L77.1435 61.031C77.0035 61.801 77.1435 62.445 77.5635 62.963C77.9835 63.467 78.5785 63.719 79.3485 63.719C80.1605 63.719 80.8955 63.467 81.5535 62.963C82.1975 62.445 82.5895 61.801 82.7295 61.031V61.01L83.7165 55.55H85.2495L83.5905 65H82.0575L82.3305 63.404C81.3785 64.608 80.1535 65.21 78.6555 65.21ZM88.7793 59.309L87.7713 65H86.2383L87.8973 55.55H89.4303L89.1993 56.936C90.0533 55.872 91.1803 55.34 92.5803 55.34C93.2523 55.34 93.8403 55.508 94.3443 55.844C94.8483 56.166 95.1983 56.607 95.3943 57.167C96.2903 55.949 97.5153 55.34 99.0693 55.34C100.147 55.34 100.966 55.676 101.526 56.348C102.114 57.02 102.324 57.86 102.156 58.868L101.064 65H99.5313L100.539 59.267C100.665 58.581 100.539 58.007 100.161 57.545C99.7833 57.069 99.2443 56.831 98.5443 56.831C97.7883 56.831 97.1163 57.062 96.5283 57.524C95.9403 57.986 95.5763 58.56 95.4363 59.246L94.4283 65H92.8953L93.8823 59.267C94.0083 58.581 93.8823 58.007 93.5043 57.545C93.1263 57.069 92.5873 56.831 91.8873 56.831C91.1453 56.831 90.4733 57.069 89.8713 57.545C89.2693 58.007 88.9053 58.581 88.7793 59.267V59.309ZM112.063 61.745L110.068 65H108.283L116.998 50.825H118.363L122.101 65H120.337L119.497 61.745H112.063ZM119.077 60.17L117.271 53.24L113.029 60.17H119.077ZM123.633 56.915L123.864 55.55H125.397L125.733 53.597H127.287L126.93 55.55H129.618L129.387 56.915H126.699L125.796 62.018C125.726 62.452 125.789 62.809 125.985 63.089C126.195 63.369 126.496 63.509 126.888 63.509H128.211L127.959 65H126.531C125.733 65 125.11 64.734 124.662 64.202C124.214 63.656 124.067 62.991 124.221 62.207L125.145 56.915H123.633ZM139.446 54.08L137.514 65H135.813L138.312 50.825H140.013L144.003 60.968L151.563 50.825H153.264L150.786 65H149.085L150.996 54.059L144.15 63.215H143.037L139.446 54.08ZM157.866 65.21C156.536 65.21 155.507 64.741 154.779 63.803C154.065 62.865 153.834 61.689 154.086 60.275C154.31 58.889 154.954 57.72 156.018 56.768C157.096 55.816 158.293 55.34 159.609 55.34C160.995 55.34 162.045 55.851 162.759 56.873L162.99 55.55H164.544L162.885 65H161.331L161.562 63.677C160.498 64.699 159.266 65.21 157.866 65.21ZM162.129 60.275C162.297 59.309 162.129 58.504 161.625 57.86C161.121 57.216 160.414 56.894 159.504 56.894C158.58 56.894 157.754 57.216 157.026 57.86C156.298 58.504 155.85 59.309 155.682 60.275C155.514 61.241 155.682 62.046 156.186 62.69C156.69 63.334 157.397 63.656 158.307 63.656C159.217 63.656 160.036 63.334 160.764 62.69C161.478 62.046 161.933 61.241 162.129 60.275ZM173.229 57.608L171.717 57.881C171.689 57.531 171.514 57.251 171.192 57.041C170.87 56.817 170.443 56.705 169.911 56.705C169.393 56.705 168.938 56.817 168.546 57.041C168.168 57.265 167.951 57.559 167.895 57.923C167.783 58.427 168.049 58.798 168.693 59.036L170.835 59.855C172.207 60.387 172.788 61.248 172.578 62.438C172.41 63.306 171.955 63.985 171.213 64.475C170.471 64.965 169.575 65.21 168.525 65.21C167.517 65.21 166.726 64.986 166.152 64.538C165.578 64.09 165.291 63.488 165.291 62.732L166.782 62.48C166.81 62.9 166.999 63.236 167.349 63.488C167.713 63.726 168.196 63.845 168.798 63.845C169.386 63.845 169.89 63.719 170.31 63.467C170.744 63.215 170.996 62.886 171.066 62.48C171.164 61.934 170.828 61.514 170.058 61.22L167.958 60.443C166.698 59.953 166.173 59.155 166.383 58.049C166.537 57.195 166.964 56.53 167.664 56.054C168.378 55.578 169.246 55.34 170.268 55.34C171.178 55.34 171.892 55.55 172.41 55.97C172.942 56.376 173.215 56.922 173.229 57.608ZM181.965 57.608L180.453 57.881C180.425 57.531 180.25 57.251 179.928 57.041C179.606 56.817 179.179 56.705 178.647 56.705C178.129 56.705 177.674 56.817 177.282 57.041C176.904 57.265 176.687 57.559 176.631 57.923C176.519 58.427 176.785 58.798 177.429 59.036L179.571 59.855C180.943 60.387 181.524 61.248 181.314 62.438C181.146 63.306 180.691 63.985 179.949 64.475C179.207 64.965 178.311 65.21 177.261 65.21C176.253 65.21 175.462 64.986 174.888 64.538C174.314 64.09 174.027 63.488 174.027 62.732L175.518 62.48C175.546 62.9 175.735 63.236 176.085 63.488C176.449 63.726 176.932 63.845 177.534 63.845C178.122 63.845 178.626 63.719 179.046 63.467C179.48 63.215 179.732 62.886 179.802 62.48C179.9 61.934 179.564 61.514 178.794 61.22L176.694 60.443C175.434 59.953 174.909 59.155 175.119 58.049C175.273 57.195 175.7 56.53 176.4 56.054C177.114 55.578 177.982 55.34 179.004 55.34C179.914 55.34 180.628 55.55 181.146 55.97C181.678 56.376 181.951 56.922 181.965 57.608ZM187.09 65.21C185.76 65.21 184.731 64.741 184.003 63.803C183.289 62.865 183.058 61.689 183.31 60.275C183.534 58.889 184.178 57.72 185.242 56.768C186.32 55.816 187.517 55.34 188.833 55.34C190.219 55.34 191.269 55.851 191.983 56.873L192.214 55.55H193.768L192.109 65H190.555L190.786 63.677C189.722 64.699 188.49 65.21 187.09 65.21ZM191.353 60.275C191.521 59.309 191.353 58.504 190.849 57.86C190.345 57.216 189.638 56.894 188.728 56.894C187.804 56.894 186.978 57.216 186.25 57.86C185.522 58.504 185.074 59.309 184.906 60.275C184.738 61.241 184.906 62.046 185.41 62.69C185.914 63.334 186.621 63.656 187.531 63.656C188.441 63.656 189.26 63.334 189.988 62.69C190.702 62.046 191.157 61.241 191.353 60.275ZM194.452 64.097C194.508 63.775 194.655 63.509 194.893 63.299C195.145 63.075 195.432 62.963 195.754 62.963C196.076 62.963 196.328 63.075 196.51 63.299C196.692 63.509 196.755 63.775 196.699 64.097C196.629 64.419 196.468 64.685 196.216 64.895C195.964 65.105 195.684 65.21 195.376 65.21C195.04 65.21 194.781 65.105 194.599 64.895C194.431 64.685 194.382 64.419 194.452 64.097ZM211.316 65.21C209.244 65.21 207.627 64.517 206.465 63.131C205.317 61.745 204.925 60.002 205.289 57.902C205.653 55.816 206.654 54.08 208.292 52.694C209.93 51.308 211.792 50.615 213.878 50.615C215.964 50.615 217.574 51.315 218.708 52.715C219.856 54.087 220.248 55.816 219.884 57.902C219.548 59.876 218.631 61.549 217.133 62.921L218.729 64.874L217.385 66.029L215.705 63.971C214.347 64.797 212.884 65.21 211.316 65.21ZM207.032 57.902C206.752 59.526 207.046 60.877 207.914 61.955C208.796 63.033 210.021 63.572 211.589 63.572C212.667 63.572 213.703 63.299 214.697 62.753L212.66 60.275L214.025 59.141L216.125 61.703C217.231 60.597 217.896 59.33 218.12 57.902C218.414 56.292 218.127 54.948 217.259 53.87C216.391 52.792 215.166 52.253 213.584 52.253C212.03 52.253 210.616 52.792 209.342 53.87C208.096 54.948 207.326 56.292 207.032 57.902ZM224.774 65.21C223.696 65.21 222.849 64.853 222.233 64.139C221.645 63.425 221.449 62.529 221.645 61.451L222.674 55.55H224.228L223.262 61.031C223.122 61.801 223.262 62.445 223.682 62.963C224.102 63.467 224.697 63.719 225.467 63.719C226.279 63.719 227.014 63.467 227.672 62.963C228.316 62.445 228.708 61.801 228.848 61.031V61.01L229.835 55.55H231.368L229.709 65H228.176L228.449 63.404C227.497 64.608 226.272 65.21 224.774 65.21ZM233.91 65H232.356L234.015 55.55H235.569L233.91 65ZM234.267 52.463C234.323 52.155 234.47 51.903 234.708 51.707C234.946 51.511 235.219 51.413 235.527 51.413C235.821 51.413 236.052 51.511 236.22 51.707C236.388 51.903 236.444 52.155 236.388 52.463C236.332 52.771 236.185 53.03 235.947 53.24C235.709 53.436 235.443 53.534 235.149 53.534C234.841 53.534 234.603 53.436 234.435 53.24C234.267 53.044 234.211 52.785 234.267 52.463ZM244.268 57.608L242.756 57.881C242.728 57.531 242.553 57.251 242.231 57.041C241.909 56.817 241.482 56.705 240.95 56.705C240.432 56.705 239.977 56.817 239.585 57.041C239.207 57.265 238.99 57.559 238.934 57.923C238.822 58.427 239.088 58.798 239.732 59.036L241.874 59.855C243.246 60.387 243.827 61.248 243.617 62.438C243.449 63.306 242.994 63.985 242.252 64.475C241.51 64.965 240.614 65.21 239.564 65.21C238.556 65.21 237.765 64.986 237.191 64.538C236.617 64.09 236.33 63.488 236.33 62.732L237.821 62.48C237.849 62.9 238.038 63.236 238.388 63.488C238.752 63.726 239.235 63.845 239.837 63.845C240.425 63.845 240.929 63.719 241.349 63.467C241.783 63.215 242.035 62.886 242.105 62.48C242.203 61.934 241.867 61.514 241.097 61.22L238.997 60.443C237.737 59.953 237.212 59.155 237.422 58.049C237.576 57.195 238.003 56.53 238.703 56.054C239.417 55.578 240.285 55.34 241.307 55.34C242.217 55.34 242.931 55.55 243.449 55.97C243.981 56.376 244.254 56.922 244.268 57.608ZM249.392 65.21C248.062 65.21 247.033 64.741 246.305 63.803C245.591 62.865 245.36 61.689 245.612 60.275C245.836 58.889 246.48 57.72 247.544 56.768C248.622 55.816 249.819 55.34 251.135 55.34C252.521 55.34 253.571 55.851 254.285 56.873L254.516 55.55H256.049L253.55 69.725H252.017L253.088 63.677C252.024 64.699 250.792 65.21 249.392 65.21ZM253.655 60.275C253.823 59.309 253.655 58.504 253.151 57.86C252.647 57.216 251.94 56.894 251.03 56.894C250.106 56.894 249.28 57.216 248.552 57.86C247.824 58.504 247.376 59.309 247.208 60.275C247.04 61.241 247.208 62.046 247.712 62.69C248.216 63.334 248.923 63.656 249.833 63.656C250.743 63.656 251.562 63.334 252.29 62.69C253.004 62.046 253.459 61.241 253.655 60.275ZM260.744 65.21C259.666 65.21 258.819 64.853 258.203 64.139C257.615 63.425 257.419 62.529 257.615 61.451L258.644 55.55H260.198L259.232 61.031C259.092 61.801 259.232 62.445 259.652 62.963C260.072 63.467 260.667 63.719 261.437 63.719C262.249 63.719 262.984 63.467 263.642 62.963C264.286 62.445 264.678 61.801 264.818 61.031V61.01L265.805 55.55H267.338L265.679 65H264.146L264.419 63.404C263.467 64.608 262.242 65.21 260.744 65.21ZM278.26 60.8H270.154C270.112 61.654 270.357 62.361 270.889 62.921C271.435 63.481 272.163 63.761 273.073 63.761C274.263 63.761 275.271 63.306 276.097 62.396L277.525 62.858C276.965 63.586 276.265 64.16 275.425 64.58C274.599 65 273.731 65.21 272.821 65.21C271.379 65.21 270.259 64.741 269.461 63.803C268.677 62.851 268.411 61.675 268.663 60.275C268.887 58.889 269.552 57.72 270.658 56.768C271.778 55.816 273.024 55.34 274.396 55.34C275.782 55.34 276.853 55.809 277.609 56.747C278.379 57.671 278.645 58.847 278.407 60.275C278.379 60.387 278.351 60.506 278.323 60.632L278.26 60.8ZM270.385 59.561H276.937C276.923 58.749 276.657 58.084 276.139 57.566C275.621 57.048 274.949 56.789 274.123 56.789C273.311 56.789 272.555 57.048 271.855 57.566C271.169 58.084 270.679 58.749 270.385 59.561ZM9.702 74.615C11.074 74.615 12.264 74.937 13.272 75.581C14.294 76.225 15.015 77.114 15.435 78.248L13.692 78.878C13.342 78.066 12.789 77.429 12.033 76.967C11.277 76.491 10.402 76.253 9.408 76.253C7.854 76.253 6.44 76.792 5.166 77.87C3.92 78.948 3.15 80.292 2.856 81.902C2.576 83.526 2.87 84.877 3.738 85.955C4.62 87.033 5.845 87.572 7.413 87.572C8.435 87.572 9.394 87.341 10.29 86.879C11.2 86.417 11.977 85.773 12.621 84.947L14.133 85.556C13.321 86.69 12.292 87.586 11.046 88.244C9.814 88.888 8.512 89.21 7.14 89.21C5.068 89.21 3.451 88.517 2.289 87.131C1.141 85.745 0.749 84.002 1.113 81.902C1.477 79.816 2.478 78.08 4.116 76.694C5.754 75.308 7.616 74.615 9.702 74.615ZM16.0069 84.275C16.2309 82.889 16.9029 81.72 18.0229 80.768C19.1429 79.816 20.4029 79.34 21.8029 79.34C23.2029 79.34 24.2879 79.809 25.0579 80.747C25.8279 81.685 26.1009 82.861 25.8769 84.275C25.6249 85.675 24.9389 86.851 23.8189 87.803C22.7129 88.741 21.4599 89.21 20.0599 89.21C18.6459 89.21 17.5539 88.741 16.7839 87.803C16.0139 86.865 15.7549 85.689 16.0069 84.275ZM18.9679 81.86C18.2259 82.518 17.7709 83.323 17.6029 84.275C17.4349 85.241 17.6099 86.046 18.1279 86.69C18.6459 87.334 19.3809 87.656 20.3329 87.656C21.2989 87.656 22.1459 87.334 22.8739 86.69C23.6299 86.032 24.0919 85.227 24.2599 84.275C24.4279 83.309 24.2529 82.504 23.7349 81.86C23.2169 81.216 22.4819 80.894 21.5299 80.894C20.5639 80.894 19.7099 81.216 18.9679 81.86ZM29.6748 83.54L28.7088 89H27.1758L28.8348 79.55H30.3678L30.0948 81.125C31.0328 79.935 32.2508 79.34 33.7488 79.34C34.8268 79.34 35.6738 79.697 36.2898 80.411C36.8918 81.111 37.0948 82.007 36.8988 83.099L35.8698 89H34.3158L35.2818 83.519C35.4078 82.749 35.2608 82.112 34.8408 81.608C34.4348 81.09 33.8468 80.831 33.0768 80.831C32.2368 80.831 31.4948 81.09 30.8508 81.608C30.2068 82.126 29.8148 82.77 29.6748 83.54ZM41.212 89L38.818 79.55H40.414L42.283 87.005L46.756 79.55H48.352L42.64 89H41.212ZM52.0457 89.21C50.7157 89.21 49.6867 88.741 48.9587 87.803C48.2447 86.865 48.0137 85.689 48.2657 84.275C48.4897 82.889 49.1337 81.72 50.1977 80.768C51.2757 79.816 52.4727 79.34 53.7887 79.34C55.1747 79.34 56.2247 79.851 56.9387 80.873L57.1697 79.55H58.7237L57.0647 89H55.5107L55.7417 87.677C54.6777 88.699 53.4457 89.21 52.0457 89.21ZM56.3087 84.275C56.4767 83.309 56.3087 82.504 55.8047 81.86C55.3007 81.216 54.5937 80.894 53.6837 80.894C52.7597 80.894 51.9337 81.216 51.2057 81.86C50.4777 82.504 50.0297 83.309 49.8617 84.275C49.6937 85.241 49.8617 86.046 50.3657 86.69C50.8697 87.334 51.5767 87.656 52.4867 87.656C53.3967 87.656 54.2157 87.334 54.9437 86.69C55.6577 86.046 56.1127 85.241 56.3087 84.275ZM61.2137 89H59.6807L62.3477 73.775H63.9017L61.2137 89ZM65.3973 89H63.8643L66.5313 73.775H68.0853L65.3973 89ZM69.6019 89H68.0479L69.7069 79.55H71.2609L69.6019 89ZM69.9589 76.463C70.0149 76.155 70.1619 75.903 70.3999 75.707C70.6379 75.511 70.9109 75.413 71.2189 75.413C71.5129 75.413 71.7439 75.511 71.9119 75.707C72.0799 75.903 72.1359 76.155 72.0799 76.463C72.0239 76.771 71.8769 77.03 71.6389 77.24C71.4009 77.436 71.1349 77.534 70.8409 77.534C70.5329 77.534 70.2949 77.436 70.1269 77.24C69.9589 77.044 69.9029 76.785 69.9589 76.463ZM79.9595 81.608L78.4475 81.881C78.4195 81.531 78.2445 81.251 77.9225 81.041C77.6005 80.817 77.1735 80.705 76.6415 80.705C76.1235 80.705 75.6685 80.817 75.2765 81.041C74.8985 81.265 74.6815 81.559 74.6255 81.923C74.5135 82.427 74.7795 82.798 75.4235 83.036L77.5655 83.855C78.9375 84.387 79.5185 85.248 79.3085 86.438C79.1405 87.306 78.6855 87.985 77.9435 88.475C77.2015 88.965 76.3055 89.21 75.2555 89.21C74.2475 89.21 73.4565 88.986 72.8825 88.538C72.3085 88.09 72.0215 87.488 72.0215 86.732L73.5125 86.48C73.5405 86.9 73.7295 87.236 74.0795 87.488C74.4435 87.726 74.9265 87.845 75.5285 87.845C76.1165 87.845 76.6205 87.719 77.0405 87.467C77.4745 87.215 77.7265 86.886 77.7965 86.48C77.8945 85.934 77.5585 85.514 76.7885 85.22L74.6885 84.443C73.4285 83.953 72.9035 83.155 73.1135 82.049C73.2675 81.195 73.6945 80.53 74.3945 80.054C75.1085 79.578 75.9765 79.34 76.9985 79.34C77.9085 79.34 78.6225 79.55 79.1405 79.97C79.6725 80.376 79.9455 80.922 79.9595 81.608ZM93.0359 89H91.6919L88.0379 74.825H89.8229L92.8049 86.564L99.8819 74.825H101.667L93.0359 89ZM102.435 89H100.881L102.54 79.55H104.094L102.435 89ZM102.792 76.463C102.848 76.155 102.995 75.903 103.233 75.707C103.471 75.511 103.744 75.413 104.052 75.413C104.346 75.413 104.577 75.511 104.745 75.707C104.913 75.903 104.969 76.155 104.913 76.463C104.857 76.771 104.71 77.03 104.472 77.24C104.234 77.436 103.968 77.534 103.674 77.534C103.366 77.534 103.128 77.436 102.96 77.24C102.792 77.044 102.736 76.785 102.792 76.463ZM105.463 80.915L105.694 79.55H107.227L107.563 77.597H109.117L108.76 79.55H111.448L111.217 80.915H108.529L107.626 86.018C107.556 86.452 107.619 86.809 107.815 87.089C108.025 87.369 108.326 87.509 108.718 87.509H110.041L109.789 89H108.361C107.563 89 106.94 88.734 106.492 88.202C106.044 87.656 105.897 86.991 106.051 86.207L106.975 80.915H105.463ZM115.825 89.21C114.495 89.21 113.466 88.741 112.738 87.803C112.024 86.865 111.793 85.689 112.045 84.275C112.269 82.889 112.913 81.72 113.977 80.768C115.055 79.816 116.252 79.34 117.568 79.34C118.954 79.34 120.004 79.851 120.718 80.873L120.949 79.55H122.503L120.844 89H119.29L119.521 87.677C118.457 88.699 117.225 89.21 115.825 89.21ZM120.088 84.275C120.256 83.309 120.088 82.504 119.584 81.86C119.08 81.216 118.373 80.894 117.463 80.894C116.539 80.894 115.713 81.216 114.985 81.86C114.257 82.504 113.809 83.309 113.641 84.275C113.473 85.241 113.641 86.046 114.145 86.69C114.649 87.334 115.356 87.656 116.266 87.656C117.176 87.656 117.995 87.334 118.723 86.69C119.437 86.046 119.892 85.241 120.088 84.275ZM133.393 84.8H125.287C125.245 85.654 125.49 86.361 126.022 86.921C126.568 87.481 127.296 87.761 128.206 87.761C129.396 87.761 130.404 87.306 131.23 86.396L132.658 86.858C132.098 87.586 131.398 88.16 130.558 88.58C129.732 89 128.864 89.21 127.954 89.21C126.512 89.21 125.392 88.741 124.594 87.803C123.81 86.851 123.544 85.675 123.796 84.275C124.02 82.889 124.685 81.72 125.791 80.768C126.911 79.816 128.157 79.34 129.529 79.34C130.915 79.34 131.986 79.809 132.742 80.747C133.512 81.671 133.778 82.847 133.54 84.275C133.512 84.387 133.484 84.506 133.456 84.632L133.393 84.8ZM125.518 83.561H132.07C132.056 82.749 131.79 82.084 131.272 81.566C130.754 81.048 130.082 80.789 129.256 80.789C128.444 80.789 127.688 81.048 126.988 81.566C126.302 82.084 125.812 82.749 125.518 83.561ZM151.659 83.33L153.15 74.825H154.851L153.36 83.33C153.066 84.996 152.247 86.396 150.903 87.53C149.545 88.65 148.019 89.21 146.325 89.21C144.617 89.21 143.287 88.65 142.335 87.53C141.383 86.382 141.054 84.982 141.348 83.33L142.839 74.825H144.54L143.049 83.33C142.825 84.562 143.049 85.591 143.721 86.417C144.407 87.229 145.366 87.635 146.598 87.635C147.844 87.635 148.936 87.229 149.874 86.417C150.826 85.605 151.421 84.576 151.659 83.33ZM155.523 80.915L155.754 79.55H157.287L157.623 77.597H159.177L158.82 79.55H161.508L161.277 80.915H158.589L157.686 86.018C157.616 86.452 157.679 86.809 157.875 87.089C158.085 87.369 158.386 87.509 158.778 87.509H160.101L159.849 89H158.421C157.623 89 157 88.734 156.552 88.202C156.104 87.656 155.957 86.991 156.111 86.207L157.035 80.915H155.523ZM174.234 76.4H168.837L169.11 74.825H181.584L181.311 76.4H175.914L173.709 89H172.008L174.234 76.4ZM182.538 89H180.984L182.643 79.55H184.197L182.538 89ZM182.895 76.463C182.951 76.155 183.098 75.903 183.336 75.707C183.574 75.511 183.847 75.413 184.155 75.413C184.449 75.413 184.68 75.511 184.848 75.707C185.016 75.903 185.072 76.155 185.016 76.463C184.96 76.771 184.813 77.03 184.575 77.24C184.337 77.436 184.071 77.534 183.777 77.534C183.469 77.534 183.231 77.436 183.063 77.24C182.895 77.044 182.839 76.785 182.895 76.463ZM187.667 83.54L186.701 89H185.168L186.827 79.55H188.36L188.087 81.125C189.025 79.935 190.243 79.34 191.741 79.34C192.819 79.34 193.666 79.697 194.282 80.411C194.884 81.111 195.087 82.007 194.891 83.099L193.862 89H192.308L193.274 83.519C193.4 82.749 193.253 82.112 192.833 81.608C192.427 81.09 191.839 80.831 191.069 80.831C190.229 80.831 189.487 81.09 188.843 81.608C188.199 82.126 187.807 82.77 187.667 83.54ZM206.59 82.196L204.952 82.679C204.784 82.133 204.469 81.699 204.007 81.377C203.545 81.055 202.985 80.894 202.327 80.894C201.361 80.894 200.507 81.216 199.765 81.86C199.023 82.518 198.568 83.323 198.4 84.275C198.232 85.241 198.407 86.046 198.925 86.69C199.443 87.334 200.178 87.656 201.13 87.656C201.788 87.656 202.397 87.502 202.957 87.194C203.531 86.872 204.007 86.431 204.385 85.871L205.855 86.354C205.309 87.236 204.588 87.936 203.692 88.454C202.81 88.958 201.865 89.21 200.857 89.21C199.443 89.21 198.351 88.741 197.581 87.803C196.811 86.865 196.552 85.689 196.804 84.275C197.028 82.889 197.7 81.72 198.82 80.768C199.94 79.816 201.2 79.34 202.6 79.34C203.608 79.34 204.469 79.599 205.183 80.117C205.897 80.635 206.366 81.328 206.59 82.196ZM208.911 89H207.357L209.016 79.55H210.57L208.911 89ZM209.268 76.463C209.324 76.155 209.471 75.903 209.709 75.707C209.947 75.511 210.22 75.413 210.528 75.413C210.822 75.413 211.053 75.511 211.221 75.707C211.389 75.903 211.445 76.155 211.389 76.463C211.333 76.771 211.186 77.03 210.948 77.24C210.71 77.436 210.444 77.534 210.15 77.534C209.842 77.534 209.604 77.436 209.436 77.24C209.268 77.044 209.212 76.785 209.268 76.463ZM215.657 89.21C214.327 89.21 213.298 88.741 212.57 87.803C211.856 86.865 211.625 85.689 211.877 84.275C212.101 82.889 212.745 81.72 213.809 80.768C214.887 79.816 216.084 79.34 217.4 79.34C218.786 79.34 219.843 79.851 220.571 80.873L221.81 73.775H223.343L220.655 89H219.122L219.353 87.677C218.289 88.699 217.057 89.21 215.657 89.21ZM219.92 84.275C220.088 83.309 219.92 82.504 219.416 81.86C218.912 81.216 218.205 80.894 217.295 80.894C216.371 80.894 215.545 81.216 214.817 81.86C214.089 82.504 213.641 83.309 213.473 84.275C213.305 85.241 213.473 86.046 213.977 86.69C214.481 87.334 215.188 87.656 216.098 87.656C217.008 87.656 217.827 87.334 218.555 86.69C219.269 86.046 219.724 85.241 219.92 84.275ZM227.009 89.21C225.931 89.21 225.084 88.853 224.468 88.139C223.88 87.425 223.684 86.529 223.88 85.451L224.909 79.55H226.463L225.497 85.031C225.357 85.801 225.497 86.445 225.917 86.963C226.337 87.467 226.932 87.719 227.702 87.719C228.514 87.719 229.249 87.467 229.907 86.963C230.551 86.445 230.943 85.801 231.083 85.031V85.01L232.07 79.55H233.603L231.944 89H230.411L230.684 87.404C229.732 88.608 228.507 89.21 227.009 89.21ZM237.091 83.54L236.125 89H234.592L236.251 79.55H237.784L237.511 81.125C238.449 79.935 239.667 79.34 241.165 79.34C242.243 79.34 243.09 79.697 243.706 80.411C244.308 81.111 244.511 82.007 244.315 83.099L243.286 89H241.732L242.698 83.519C242.824 82.749 242.677 82.112 242.257 81.608C241.851 81.09 241.263 80.831 240.493 80.831C239.653 80.831 238.911 81.09 238.267 81.608C237.623 82.126 237.231 82.77 237.091 83.54ZM246.291 80.915L246.522 79.55H248.055L248.391 77.597H249.945L249.588 79.55H252.276L252.045 80.915H249.357L248.454 86.018C248.384 86.452 248.447 86.809 248.643 87.089C248.853 87.369 249.154 87.509 249.546 87.509H250.869L250.617 89H249.189C248.391 89 247.768 88.734 247.32 88.202C246.872 87.656 246.725 86.991 246.879 86.207L247.803 80.915H246.291ZM260.99 85.745L258.995 89H257.21L265.925 74.825H267.29L271.028 89H269.264L268.424 85.745H260.99ZM268.004 84.17L266.198 77.24L261.956 84.17H268.004ZM275.928 79.55L275.655 81.146C276.565 79.942 277.874 79.34 279.582 79.34L279.288 81.062C279.036 80.992 278.812 80.957 278.616 80.957C277.776 80.957 277.034 81.216 276.39 81.734C275.746 82.252 275.354 82.896 275.214 83.666L274.269 89H272.736L274.395 79.55H275.928ZM289.38 82.196L287.742 82.679C287.574 82.133 287.259 81.699 286.797 81.377C286.335 81.055 285.775 80.894 285.117 80.894C284.151 80.894 283.297 81.216 282.555 81.86C281.813 82.518 281.358 83.323 281.19 84.275C281.022 85.241 281.197 86.046 281.715 86.69C282.233 87.334 282.968 87.656 283.92 87.656C284.578 87.656 285.187 87.502 285.747 87.194C286.321 86.872 286.797 86.431 287.175 85.871L288.645 86.354C288.099 87.236 287.378 87.936 286.482 88.454C285.6 88.958 284.655 89.21 283.647 89.21C282.233 89.21 281.141 88.741 280.371 87.803C279.601 86.865 279.342 85.689 279.594 84.275C279.818 82.889 280.49 81.72 281.61 80.768C282.73 79.816 283.99 79.34 285.39 79.34C286.398 79.34 287.259 79.599 287.973 80.117C288.687 80.635 289.156 81.328 289.38 82.196ZM293.864 89.21C292.786 89.21 291.939 88.853 291.323 88.139C290.735 87.425 290.539 86.529 290.735 85.451L291.764 79.55H293.318L292.352 85.031C292.212 85.801 292.352 86.445 292.772 86.963C293.192 87.467 293.787 87.719 294.557 87.719C295.369 87.719 296.104 87.467 296.762 86.963C297.406 86.445 297.798 85.801 297.938 85.031V85.01L298.925 79.55H300.458L298.799 89H297.266L297.539 87.404C296.587 88.608 295.362 89.21 293.864 89.21ZM2.142 113H0.441L2.94 98.825H4.641L2.142 113ZM9.2254 113.21C7.8954 113.21 6.8664 112.741 6.1384 111.803C5.4244 110.865 5.1934 109.689 5.4454 108.275C5.6694 106.889 6.3134 105.72 7.3774 104.768C8.4554 103.816 9.6524 103.34 10.9684 103.34C12.3544 103.34 13.4114 103.851 14.1394 104.873L15.3784 97.775H16.9114L14.2234 113H12.6904L12.9214 111.677C11.8574 112.699 10.6254 113.21 9.2254 113.21ZM13.4884 108.275C13.6564 107.309 13.4884 106.504 12.9844 105.86C12.4804 105.216 11.7734 104.894 10.8634 104.894C9.9394 104.894 9.1134 105.216 8.3854 105.86C7.6574 106.504 7.2094 107.309 7.0414 108.275C6.8734 109.241 7.0414 110.046 7.5454 110.69C8.0494 111.334 8.7564 111.656 9.6664 111.656C10.5764 111.656 11.3954 111.334 12.1234 110.69C12.8374 110.046 13.2924 109.241 13.4884 108.275ZM22.7125 113L25.2115 98.825H35.3755L35.1025 100.4H26.6395L25.8205 105.041H33.2545L32.9815 106.616H25.5475L24.6865 111.425H33.2545L32.9815 113H22.7125ZM38.2687 117.935C37.3167 117.935 36.4767 117.704 35.7487 117.242C35.0347 116.78 34.5657 116.178 34.3417 115.436L35.9587 114.953C36.1267 115.387 36.4417 115.737 36.9037 116.003C37.3657 116.269 37.8907 116.402 38.4787 116.402C39.4447 116.402 40.2987 116.094 41.0407 115.478C41.7967 114.862 42.2517 114.092 42.4057 113.168L42.6787 111.677C41.5727 112.699 40.3337 113.21 38.9617 113.21C37.6317 113.21 36.6027 112.741 35.8747 111.803C35.1607 110.865 34.9297 109.689 35.1817 108.275C35.4057 106.889 36.0497 105.72 37.1137 104.768C38.1917 103.816 39.3887 103.34 40.7047 103.34C42.0907 103.34 43.1407 103.851 43.8547 104.873L44.0857 103.55H45.6187L43.9387 113.168C43.7147 114.526 43.0497 115.66 41.9437 116.57C40.8657 117.48 39.6407 117.935 38.2687 117.935ZM43.2247 108.275C43.3927 107.309 43.2247 106.504 42.7207 105.86C42.2167 105.216 41.5097 104.894 40.5997 104.894C39.6757 104.894 38.8497 105.216 38.1217 105.86C37.3937 106.504 36.9457 107.309 36.7777 108.275C36.6097 109.227 36.7707 110.032 37.2607 110.69C37.7647 111.334 38.4717 111.656 39.3817 111.656C40.2917 111.656 41.1107 111.334 41.8387 110.69C42.5807 110.032 43.0427 109.227 43.2247 108.275ZM56.5297 108.8H48.4237C48.3817 109.654 48.6267 110.361 49.1587 110.921C49.7047 111.481 50.4327 111.761 51.3427 111.761C52.5327 111.761 53.5407 111.306 54.3667 110.396L55.7947 110.858C55.2347 111.586 54.5347 112.16 53.6947 112.58C52.8687 113 52.0007 113.21 51.0907 113.21C49.6487 113.21 48.5287 112.741 47.7307 111.803C46.9467 110.851 46.6807 109.675 46.9327 108.275C47.1567 106.889 47.8217 105.72 48.9277 104.768C50.0477 103.816 51.2937 103.34 52.6657 103.34C54.0517 103.34 55.1227 103.809 55.8787 104.747C56.6487 105.671 56.9147 106.847 56.6767 108.275C56.6487 108.387 56.6207 108.506 56.5927 108.632L56.5297 108.8ZM48.6547 107.561H55.2067C55.1927 106.749 54.9267 106.084 54.4087 105.566C53.8907 105.048 53.2187 104.789 52.3927 104.789C51.5807 104.789 50.8247 105.048 50.1247 105.566C49.4387 106.084 48.9487 106.749 48.6547 107.561ZM58.1725 104.915L58.4035 103.55H59.9365L60.2725 101.597H61.8265L61.4695 103.55H64.1575L63.9265 104.915H61.2385L60.3355 110.018C60.2655 110.452 60.3285 110.809 60.5245 111.089C60.7345 111.369 61.0355 111.509 61.4275 111.509H62.7505L62.4985 113H61.0705C60.2725 113 59.6495 112.734 59.2015 112.202C58.7535 111.656 58.6065 110.991 58.7605 110.207L59.6845 104.915H58.1725ZM73.0191 107.519L72.0531 113H70.3521L72.8511 98.825H79.2351C80.5231 98.825 81.5381 99.245 82.2801 100.085C83.0221 100.911 83.2741 101.94 83.0361 103.172C82.8681 104.124 82.4481 104.971 81.7761 105.713C81.1041 106.455 80.2921 106.973 79.3401 107.267L81.8391 113H79.9281L77.5131 107.519H73.0191ZM78.9621 100.4H74.2791L73.2921 105.923H77.9751C78.7871 105.923 79.5011 105.664 80.1171 105.146C80.7331 104.628 81.1181 103.97 81.2721 103.172C81.4121 102.402 81.2581 101.744 80.8101 101.198C80.3621 100.666 79.7461 100.4 78.9621 100.4ZM85.3519 113H83.7979L85.4569 103.55H87.0109L85.3519 113ZM85.7089 100.463C85.7649 100.155 85.9119 99.903 86.1499 99.707C86.3879 99.511 86.6609 99.413 86.9689 99.413C87.2629 99.413 87.4939 99.511 87.6619 99.707C87.8299 99.903 87.8859 100.155 87.8299 100.463C87.7739 100.771 87.6269 101.03 87.3889 101.24C87.1509 101.436 86.8849 101.534 86.5909 101.534C86.2829 101.534 86.0449 101.436 85.8769 101.24C85.7089 101.044 85.6529 100.785 85.7089 100.463ZM92.0975 113.21C90.7675 113.21 89.7385 112.741 89.0105 111.803C88.2965 110.865 88.0655 109.689 88.3175 108.275C88.5415 106.889 89.1855 105.72 90.2495 104.768C91.3275 103.816 92.5245 103.34 93.8405 103.34C95.2265 103.34 96.2835 103.851 97.0115 104.873L98.2505 97.775H99.7835L97.0955 113H95.5625L95.7935 111.677C94.7295 112.699 93.4975 113.21 92.0975 113.21ZM96.3605 108.275C96.5285 107.309 96.3605 106.504 95.8565 105.86C95.3525 105.216 94.6455 104.894 93.7355 104.894C92.8115 104.894 91.9855 105.216 91.2575 105.86C90.5295 106.504 90.0815 107.309 89.9135 108.275C89.7455 109.241 89.9135 110.046 90.4175 110.69C90.9215 111.334 91.6285 111.656 92.5385 111.656C93.4485 111.656 94.2675 111.334 94.9955 110.69C95.7095 110.046 96.1645 109.241 96.3605 108.275ZM101.286 113H99.7324L101.391 103.55H102.945L101.286 113ZM101.643 100.463C101.699 100.155 101.846 99.903 102.084 99.707C102.322 99.511 102.595 99.413 102.903 99.413C103.197 99.413 103.428 99.511 103.596 99.707C103.764 99.903 103.82 100.155 103.764 100.463C103.708 100.771 103.561 101.03 103.323 101.24C103.085 101.436 102.819 101.534 102.525 101.534C102.217 101.534 101.979 101.436 101.811 101.24C101.643 101.044 101.587 100.785 101.643 100.463ZM114.038 106.196L112.4 106.679C112.232 106.133 111.917 105.699 111.455 105.377C110.993 105.055 110.433 104.894 109.775 104.894C108.809 104.894 107.955 105.216 107.213 105.86C106.471 106.518 106.016 107.323 105.848 108.275C105.68 109.241 105.855 110.046 106.373 110.69C106.891 111.334 107.626 111.656 108.578 111.656C109.236 111.656 109.845 111.502 110.405 111.194C110.979 110.872 111.455 110.431 111.833 109.871L113.303 110.354C112.757 111.236 112.036 111.936 111.14 112.454C110.258 112.958 109.313 113.21 108.305 113.21C106.891 113.21 105.799 112.741 105.029 111.803C104.259 110.865 104 109.689 104.252 108.275C104.476 106.889 105.148 105.72 106.268 104.768C107.388 103.816 108.648 103.34 110.048 103.34C111.056 103.34 111.917 103.599 112.631 104.117C113.345 104.635 113.814 105.328 114.038 106.196ZM118.523 113.21C117.445 113.21 116.598 112.853 115.982 112.139C115.394 111.425 115.198 110.529 115.394 109.451L116.423 103.55H117.977L117.011 109.031C116.871 109.801 117.011 110.445 117.431 110.963C117.851 111.467 118.446 111.719 119.216 111.719C120.028 111.719 120.763 111.467 121.421 110.963C122.065 110.445 122.457 109.801 122.597 109.031V109.01L123.584 103.55H125.117L123.458 113H121.925L122.198 111.404C121.246 112.608 120.021 113.21 118.523 113.21ZM127.638 113H126.105L128.772 97.775H130.326L127.638 113ZM134.006 113.21C132.928 113.21 132.081 112.853 131.465 112.139C130.877 111.425 130.681 110.529 130.877 109.451L131.906 103.55H133.46L132.494 109.031C132.354 109.801 132.494 110.445 132.914 110.963C133.334 111.467 133.929 111.719 134.699 111.719C135.511 111.719 136.246 111.467 136.904 110.963C137.548 110.445 137.94 109.801 138.08 109.031V109.01L139.067 103.55H140.6L138.941 113H137.408L137.681 111.404C136.729 112.608 135.504 113.21 134.006 113.21ZM149.317 105.608L147.805 105.881C147.777 105.531 147.602 105.251 147.28 105.041C146.958 104.817 146.531 104.705 145.999 104.705C145.481 104.705 145.026 104.817 144.634 105.041C144.256 105.265 144.039 105.559 143.983 105.923C143.871 106.427 144.137 106.798 144.781 107.036L146.923 107.855C148.295 108.387 148.876 109.248 148.666 110.438C148.498 111.306 148.043 111.985 147.301 112.475C146.559 112.965 145.663 113.21 144.613 113.21C143.605 113.21 142.814 112.986 142.24 112.538C141.666 112.09 141.379 111.488 141.379 110.732L142.87 110.48C142.898 110.9 143.087 111.236 143.437 111.488C143.801 111.726 144.284 111.845 144.886 111.845C145.474 111.845 145.978 111.719 146.398 111.467C146.832 111.215 147.084 110.886 147.154 110.48C147.252 109.934 146.916 109.514 146.146 109.22L144.046 108.443C142.786 107.953 142.261 107.155 142.471 106.049C142.625 105.195 143.052 104.53 143.752 104.054C144.466 103.578 145.334 103.34 146.356 103.34C147.266 103.34 147.98 103.55 148.498 103.97C149.03 104.376 149.303 104.922 149.317 105.608ZM158.844 107.519L157.878 113H156.177L158.676 98.825H165.06C166.348 98.825 167.363 99.245 168.105 100.085C168.847 100.911 169.099 101.94 168.861 103.172C168.693 104.124 168.273 104.971 167.601 105.713C166.929 106.455 166.117 106.973 165.165 107.267L167.664 113H165.753L163.338 107.519H158.844ZM164.787 100.4H160.104L159.117 105.923H163.8C164.612 105.923 165.326 105.664 165.942 105.146C166.558 104.628 166.943 103.97 167.097 103.172C167.237 102.402 167.083 101.744 166.635 101.198C166.187 100.666 165.571 100.4 164.787 100.4ZM173.073 113.21C171.995 113.21 171.148 112.853 170.532 112.139C169.944 111.425 169.748 110.529 169.944 109.451L170.973 103.55H172.527L171.561 109.031C171.421 109.801 171.561 110.445 171.981 110.963C172.401 111.467 172.996 111.719 173.766 111.719C174.578 111.719 175.313 111.467 175.971 110.963C176.615 110.445 177.007 109.801 177.147 109.031V109.01L178.134 103.55H179.667L178.008 113H176.475L176.748 111.404C175.796 112.608 174.571 113.21 173.073 113.21ZM181.055 104.915L181.286 103.55H182.819L183.155 101.597H184.709L184.352 103.55H187.04L186.809 104.915H184.121L183.218 110.018C183.148 110.452 183.211 110.809 183.407 111.089C183.617 111.369 183.918 111.509 184.31 111.509H185.633L185.381 113H183.953C183.155 113 182.532 112.734 182.084 112.202C181.636 111.656 181.489 110.991 181.643 110.207L182.567 104.915H181.055ZM190.575 103.55L190.302 105.146C191.212 103.942 192.521 103.34 194.229 103.34L193.935 105.062C193.683 104.992 193.459 104.957 193.263 104.957C192.423 104.957 191.681 105.216 191.037 105.734C190.393 106.252 190.001 106.896 189.861 107.666L188.916 113H187.383L189.042 103.55H190.575ZM197.97 113.21C196.892 113.21 196.045 112.853 195.429 112.139C194.841 111.425 194.645 110.529 194.841 109.451L195.87 103.55H197.424L196.458 109.031C196.318 109.801 196.458 110.445 196.878 110.963C197.298 111.467 197.893 111.719 198.663 111.719C199.475 111.719 200.21 111.467 200.868 110.963C201.512 110.445 201.904 109.801 202.044 109.031V109.01L203.031 103.55H204.564L202.905 113H201.372L201.645 111.404C200.693 112.608 199.468 113.21 197.97 113.21ZM208.094 107.309L207.086 113H205.553L207.212 103.55H208.745L208.514 104.936C209.368 103.872 210.495 103.34 211.895 103.34C212.567 103.34 213.155 103.508 213.659 103.844C214.163 104.166 214.513 104.607 214.709 105.167C215.605 103.949 216.83 103.34 218.384 103.34C219.462 103.34 220.281 103.676 220.841 104.348C221.429 105.02 221.639 105.86 221.471 106.868L220.379 113H218.846L219.854 107.267C219.98 106.581 219.854 106.007 219.476 105.545C219.098 105.069 218.559 104.831 217.859 104.831C217.103 104.831 216.431 105.062 215.843 105.524C215.255 105.986 214.891 106.56 214.751 107.246L213.743 113H212.21L213.197 107.267C213.323 106.581 213.197 106.007 212.819 105.545C212.441 105.069 211.902 104.831 211.202 104.831C210.46 104.831 209.788 105.069 209.186 105.545C208.584 106.007 208.22 106.581 208.094 107.267V107.309ZM222.732 112.097C222.788 111.775 222.935 111.509 223.173 111.299C223.425 111.075 223.712 110.963 224.034 110.963C224.356 110.963 224.608 111.075 224.79 111.299C224.972 111.509 225.035 111.775 224.979 112.097C224.909 112.419 224.748 112.685 224.496 112.895C224.244 113.105 223.964 113.21 223.656 113.21C223.32 113.21 223.061 113.105 222.879 112.895C222.711 112.685 222.662 112.419 222.732 112.097ZM230.572 99.182C230.348 100.246 229.606 101.198 228.346 102.038L228.262 102.08L227.842 101.555C228.626 100.897 229.046 100.302 229.102 99.77C228.822 99.742 228.605 99.623 228.451 99.413C228.311 99.189 228.269 98.93 228.325 98.636C228.381 98.328 228.528 98.076 228.766 97.88C229.018 97.67 229.305 97.565 229.627 97.565C230.005 97.565 230.278 97.712 230.446 98.006C230.628 98.3 230.67 98.692 230.572 99.182ZM233.617 99.182C233.463 99.896 233.141 100.505 232.651 101.009C232.175 101.513 231.748 101.856 231.37 102.038L231.307 102.08L230.887 101.555C231.671 100.897 232.091 100.302 232.147 99.77C231.867 99.742 231.65 99.623 231.496 99.413C231.356 99.189 231.314 98.93 231.37 98.636C231.426 98.328 231.573 98.076 231.811 97.88C232.063 97.67 232.35 97.565 232.672 97.565C233.05 97.565 233.323 97.712 233.491 98.006C233.673 98.3 233.715 98.692 233.617 99.182Z" fill="#1E1E1E"/>
<path d="M6.76 160.191H1.38V146.691H6.76C8.73333 146.691 10.3933 147.345 11.74 148.651C13.0867 149.958 13.76 151.558 13.76 153.451C13.76 155.345 13.0867 156.945 11.74 158.251C10.4067 159.545 8.74667 160.191 6.76 160.191ZM6.76 148.551H3.38V158.331H6.76C8.16 158.331 9.32667 157.865 10.26 156.931C11.2067 155.985 11.68 154.825 11.68 153.451C11.68 152.065 11.2067 150.898 10.26 149.951C9.32667 149.018 8.16 148.551 6.76 148.551ZM24.5903 156.351H17.1503C17.297 157.045 17.637 157.618 18.1703 158.071C18.717 158.511 19.3636 158.731 20.1103 158.731C21.1103 158.731 21.9036 158.358 22.4903 157.611L24.2503 158.151C23.8503 158.845 23.277 159.398 22.5303 159.811C21.797 160.225 20.9903 160.431 20.1103 160.431C18.7503 160.431 17.6036 159.978 16.6703 159.071C15.7503 158.165 15.2903 157.038 15.2903 155.691C15.2903 154.331 15.737 153.205 16.6303 152.311C17.537 151.405 18.6503 150.951 19.9703 150.951C21.277 150.951 22.3836 151.405 23.2903 152.311C24.1836 153.205 24.6303 154.331 24.6303 155.691C24.6303 155.945 24.617 156.165 24.5903 156.351ZM17.1703 154.911H22.7703C22.6103 154.231 22.2703 153.685 21.7503 153.271C21.2303 152.858 20.6236 152.651 19.9303 152.651C19.2636 152.651 18.6703 152.865 18.1503 153.291C17.6436 153.705 17.317 154.245 17.1703 154.911ZM32.7148 153.251L31.0348 153.551C30.8082 152.885 30.2215 152.551 29.2748 152.551C28.8348 152.551 28.4748 152.645 28.1948 152.831C27.9148 153.005 27.7748 153.231 27.7748 153.511C27.7748 153.885 28.0682 154.185 28.6548 154.411L30.6748 155.111C32.1415 155.631 32.8748 156.491 32.8748 157.691C32.8748 158.558 32.5548 159.231 31.9148 159.711C31.2748 160.191 30.4415 160.431 29.4148 160.431C28.4015 160.431 27.5748 160.205 26.9348 159.751C26.2948 159.298 25.9148 158.685 25.7948 157.911L27.5148 157.651C27.5815 158.011 27.7882 158.298 28.1348 158.511C28.4948 158.725 28.9348 158.831 29.4548 158.831C29.9482 158.831 30.3548 158.731 30.6748 158.531C30.9948 158.331 31.1548 158.071 31.1548 157.751C31.1548 157.311 30.7882 156.965 30.0548 156.711L28.0548 156.051C26.7082 155.585 26.0348 154.785 26.0348 153.651C26.0348 152.785 26.3415 152.118 26.9548 151.651C27.5682 151.185 28.3882 150.951 29.4148 150.951C30.3348 150.951 31.0882 151.158 31.6748 151.571C32.2615 151.985 32.6082 152.545 32.7148 153.251ZM36.4356 160.191H34.6356V151.191H36.4356V160.191ZM35.5356 147.111C35.869 147.111 36.149 147.225 36.3756 147.451C36.6023 147.678 36.7156 147.958 36.7156 148.291C36.7156 148.825 36.469 149.191 35.9756 149.391C35.4823 149.591 35.049 149.511 34.6756 149.151C34.3156 148.778 34.2356 148.345 34.4356 147.851C34.6356 147.358 35.0023 147.111 35.5356 147.111ZM42.6986 160.431C41.4586 160.431 40.4053 159.978 39.5386 159.071C38.6986 158.178 38.2786 157.051 38.2786 155.691C38.2786 154.345 38.6986 153.218 39.5386 152.311C40.4053 151.405 41.4586 150.951 42.6986 150.951C43.8586 150.951 44.8519 151.345 45.6786 152.131V151.191H47.4786V160.411C47.4786 161.705 47.0386 162.778 46.1586 163.631C45.2919 164.498 44.2119 164.931 42.9186 164.931C41.9719 164.931 41.0986 164.691 40.2986 164.211C39.4986 163.731 38.9386 163.111 38.6186 162.351L40.4386 161.811C40.6253 162.198 40.9453 162.511 41.3986 162.751C41.8519 163.005 42.3386 163.131 42.8586 163.131C43.6453 163.131 44.3119 162.871 44.8586 162.351C45.4053 161.831 45.6786 161.185 45.6786 160.411V159.251C44.8519 160.038 43.8586 160.431 42.6986 160.431ZM42.8986 152.771C42.1119 152.771 41.4519 153.051 40.9186 153.611C40.3986 154.171 40.1386 154.865 40.1386 155.691C40.1386 156.518 40.3986 157.211 40.9186 157.771C41.4519 158.331 42.1119 158.611 42.8986 158.611C43.6719 158.611 44.3186 158.331 44.8386 157.771C45.3719 157.225 45.6386 156.531 45.6386 155.691C45.6386 154.851 45.3719 154.158 44.8386 153.611C44.3186 153.051 43.6719 152.771 42.8986 152.771ZM49.7138 160.191V151.191H51.5138V152.491C52.1938 151.465 53.1738 150.951 54.4538 150.951C55.4938 150.951 56.3538 151.291 57.0338 151.971C57.7138 152.625 58.0538 153.465 58.0538 154.491V160.191H56.2338V155.011C56.2338 154.345 56.0138 153.791 55.5738 153.351C55.1338 152.911 54.5871 152.691 53.9338 152.691C53.2538 152.691 52.6804 152.918 52.2138 153.371C51.7471 153.811 51.5138 154.365 51.5138 155.031V160.191H49.7138ZM64.3002 150.951C65.4602 150.951 66.4535 151.345 67.2802 152.131V151.191H69.0802V160.191H67.2802V159.251C66.4535 160.038 65.4602 160.431 64.3002 160.431C63.0602 160.431 62.0068 159.978 61.1402 159.071C60.3002 158.178 59.8802 157.051 59.8802 155.691C59.8802 154.345 60.3002 153.218 61.1402 152.311C62.0068 151.405 63.0602 150.951 64.3002 150.951ZM66.4402 153.611C65.9202 153.051 65.2735 152.771 64.5002 152.771C63.7402 152.771 63.0868 153.051 62.5402 153.611C62.0202 154.171 61.7602 154.865 61.7602 155.691C61.7602 156.518 62.0202 157.211 62.5402 157.771C63.0868 158.331 63.7402 158.611 64.5002 158.611C65.2735 158.611 65.9202 158.331 66.4402 157.771C66.9735 157.225 67.2402 156.531 67.2402 155.691C67.2402 154.851 66.9735 154.158 66.4402 153.611ZM70.4353 152.791V151.191H71.7953V149.391H73.6153V151.191H76.0553V152.791H73.6153V157.211C73.6153 157.558 73.7286 157.851 73.9553 158.091C74.182 158.331 74.462 158.451 74.7953 158.451H76.0553V160.191H74.6753C73.862 160.191 73.1753 159.931 72.6153 159.411C72.0686 158.865 71.7953 158.205 71.7953 157.431V152.791H70.4353ZM79.5411 160.191H77.7411V151.191H79.5411V160.191ZM78.6411 147.111C78.9744 147.111 79.2544 147.225 79.4811 147.451C79.7078 147.678 79.8211 147.958 79.8211 148.291C79.8211 148.825 79.5744 149.191 79.0811 149.391C78.5878 149.591 78.1544 149.511 77.7811 149.151C77.4211 148.778 77.3411 148.345 77.5411 147.851C77.7411 147.358 78.1078 147.111 78.6411 147.111ZM82.7241 159.071C81.8307 158.178 81.3841 157.051 81.3841 155.691C81.3841 154.331 81.8307 153.205 82.7241 152.311C83.6307 151.405 84.7574 150.951 86.1041 150.951C87.4507 150.951 88.5774 151.405 89.4841 152.311C90.3907 153.218 90.8441 154.345 90.8441 155.691C90.8441 157.038 90.3907 158.165 89.4841 159.071C88.5774 159.978 87.4507 160.431 86.1041 160.431C84.7574 160.431 83.6307 159.978 82.7241 159.071ZM84.0641 153.611C83.5307 154.158 83.2641 154.851 83.2641 155.691C83.2641 156.531 83.5307 157.225 84.0641 157.771C84.5974 158.331 85.2774 158.611 86.1041 158.611C86.9041 158.611 87.5774 158.331 88.1241 157.771C88.6707 157.198 88.9441 156.505 88.9441 155.691C88.9441 154.878 88.6707 154.185 88.1241 153.611C87.5774 153.051 86.9041 152.771 86.1041 152.771C85.2774 152.771 84.5974 153.051 84.0641 153.611ZM92.663 160.191V151.191H94.463V152.491C95.143 151.465 96.123 150.951 97.403 150.951C98.443 150.951 99.303 151.291 99.983 151.971C100.663 152.625 101.003 153.465 101.003 154.491V160.191H99.183V155.011C99.183 154.345 98.963 153.791 98.523 153.351C98.083 152.911 97.5363 152.691 96.883 152.691C96.203 152.691 95.6296 152.918 95.163 153.371C94.6963 153.811 94.463 154.365 94.463 155.031V160.191H92.663ZM105.409 159.731C105.409 160.078 105.343 160.418 105.209 160.751C105.076 161.085 104.923 161.358 104.749 161.571C104.589 161.798 104.409 161.998 104.209 162.171C104.009 162.358 103.856 162.485 103.749 162.551C103.643 162.631 103.569 162.678 103.529 162.691L102.949 162.091C102.963 162.078 102.996 162.031 103.049 161.951C103.116 161.885 103.169 161.825 103.209 161.771C103.289 161.665 103.429 161.451 103.629 161.131C103.803 160.838 103.889 160.598 103.889 160.411C103.596 160.371 103.349 160.238 103.149 160.011C102.949 159.771 102.849 159.491 102.849 159.171C102.849 158.851 102.963 158.578 103.189 158.351C103.429 158.125 103.723 158.011 104.069 158.011C104.456 158.011 104.776 158.171 105.029 158.491C105.283 158.811 105.409 159.225 105.409 159.731Z" fill="black"/>
<path d="M111.46 158.392C110.154 157.059 109.5 155.405 109.5 153.432C109.5 151.459 110.154 149.819 111.46 148.512C112.78 147.192 114.427 146.532 116.4 146.532C117.68 146.532 118.847 146.825 119.9 147.412C120.954 147.999 121.78 148.812 122.38 149.852L121.22 150.312C120.727 149.499 120.054 148.859 119.2 148.392C118.36 147.925 117.427 147.692 116.4 147.692C114.787 147.692 113.434 148.239 112.34 149.332C111.26 150.439 110.72 151.805 110.72 153.432C110.72 155.085 111.26 156.459 112.34 157.552C113.434 158.645 114.787 159.192 116.4 159.192C117.427 159.192 118.36 158.959 119.2 158.492C120.054 158.025 120.727 157.385 121.22 156.572L122.38 157.032C121.78 158.072 120.947 158.892 119.88 159.492C118.827 160.079 117.667 160.372 116.4 160.372C114.427 160.372 112.78 159.712 111.46 158.392ZM128.803 151.032C130.123 151.032 131.229 151.479 132.123 152.372C133.016 153.252 133.463 154.359 133.463 155.692C133.463 157.025 133.016 158.139 132.123 159.032C131.229 159.912 130.123 160.352 128.803 160.352C127.483 160.352 126.369 159.912 125.463 159.032C124.569 158.139 124.123 157.025 124.123 155.692C124.123 154.359 124.569 153.252 125.463 152.372C126.356 151.479 127.469 151.032 128.803 151.032ZM128.783 159.252C129.796 159.252 130.636 158.912 131.303 158.232C131.969 157.539 132.303 156.692 132.303 155.692C132.303 154.692 131.969 153.845 131.303 153.152C130.636 152.472 129.796 152.132 128.783 152.132C127.769 152.132 126.936 152.472 126.283 153.152C125.616 153.845 125.283 154.692 125.283 155.692C125.283 156.692 125.616 157.539 126.283 158.232C126.936 158.912 127.769 159.252 128.783 159.252ZM136.837 160.192H135.737V151.192H136.837V152.672C137.531 151.579 138.584 151.032 139.997 151.032C140.691 151.032 141.311 151.205 141.857 151.552C142.404 151.899 142.811 152.365 143.077 152.952C143.224 152.632 143.531 152.259 143.997 151.832C144.597 151.299 145.417 151.032 146.457 151.032C147.457 151.032 148.284 151.352 148.937 151.992C149.604 152.632 149.937 153.432 149.937 154.392V160.192H148.837V154.652C148.837 153.919 148.591 153.312 148.097 152.832C147.617 152.339 147.011 152.092 146.277 152.092C145.464 152.092 144.771 152.345 144.197 152.852C143.651 153.359 143.377 153.972 143.377 154.692V160.192H142.277V154.652C142.277 153.919 142.037 153.312 141.557 152.832C141.077 152.339 140.471 152.092 139.737 152.092C138.897 152.092 138.204 152.339 137.657 152.832C137.111 153.339 136.837 153.959 136.837 154.692V160.192ZM153.79 164.692H152.71V151.192H153.79V152.832C154.67 151.632 155.857 151.032 157.35 151.032C158.617 151.032 159.677 151.479 160.53 152.372C161.383 153.239 161.81 154.345 161.81 155.692C161.81 157.025 161.383 158.139 160.53 159.032C159.677 159.912 158.617 160.352 157.35 160.352C155.857 160.352 154.67 159.752 153.79 158.552V164.692ZM159.69 153.152C159.037 152.472 158.223 152.132 157.25 152.132C156.29 152.132 155.477 152.472 154.81 153.152C154.157 153.819 153.83 154.665 153.83 155.692C153.83 156.719 154.157 157.565 154.81 158.232C155.477 158.912 156.29 159.252 157.25 159.252C158.21 159.252 159.023 158.912 159.69 158.232C160.343 157.565 160.67 156.719 160.67 155.692C160.67 154.665 160.343 153.819 159.69 153.152ZM167.997 151.032C169.49 151.032 170.677 151.632 171.557 152.832V151.192H172.657V160.192H171.557V158.552C170.677 159.752 169.49 160.352 167.997 160.352C166.743 160.352 165.683 159.912 164.817 159.032C163.963 158.139 163.537 157.025 163.537 155.692C163.537 154.345 163.963 153.239 164.817 152.372C165.67 151.479 166.73 151.032 167.997 151.032ZM170.537 153.152C169.897 152.472 169.09 152.132 168.117 152.132C167.157 152.132 166.343 152.472 165.677 153.152C165.023 153.819 164.697 154.665 164.697 155.692C164.697 156.719 165.023 157.565 165.677 158.232C166.343 158.912 167.157 159.252 168.117 159.252C169.09 159.252 169.897 158.912 170.537 158.232C171.19 157.565 171.517 156.719 171.517 155.692C171.517 154.665 171.19 153.819 170.537 153.152ZM175.503 160.192V151.192H176.603V152.912C177.31 151.659 178.456 151.032 180.043 151.032C181.096 151.032 181.97 151.379 182.663 152.072C183.356 152.765 183.703 153.625 183.703 154.652V160.192H182.603V154.932C182.603 154.132 182.33 153.459 181.783 152.912C181.236 152.365 180.563 152.092 179.763 152.092C178.883 152.092 178.13 152.372 177.503 152.932C176.903 153.479 176.603 154.159 176.603 154.972V160.192H175.503ZM187.983 162.012L188.863 159.932L185.183 151.192H186.343L189.423 158.632L192.603 151.192H193.743L188.923 162.392C188.31 163.925 187.303 164.692 185.903 164.692H185.543V163.632H185.903C186.837 163.632 187.53 163.092 187.983 162.012ZM202.413 160.192H201.233V146.692H202.273L211.413 158.112V146.692H212.573V160.192H211.533L202.413 148.812V160.192ZM219.637 151.032C221.131 151.032 222.317 151.632 223.197 152.832V151.192H224.297V160.192H223.197V158.552C222.317 159.752 221.131 160.352 219.637 160.352C218.384 160.352 217.324 159.912 216.457 159.032C215.604 158.139 215.177 157.025 215.177 155.692C215.177 154.345 215.604 153.239 216.457 152.372C217.311 151.479 218.371 151.032 219.637 151.032ZM222.177 153.152C221.537 152.472 220.731 152.132 219.757 152.132C218.797 152.132 217.984 152.472 217.317 153.152C216.664 153.819 216.337 154.665 216.337 155.692C216.337 156.719 216.664 157.565 217.317 158.232C217.984 158.912 218.797 159.252 219.757 159.252C220.731 159.252 221.537 158.912 222.177 158.232C222.831 157.565 223.157 156.719 223.157 155.692C223.157 154.665 222.831 153.819 222.177 153.152ZM228.244 160.192H227.144V151.192H228.244V152.672C228.937 151.579 229.99 151.032 231.404 151.032C232.097 151.032 232.717 151.205 233.264 151.552C233.81 151.899 234.217 152.365 234.484 152.952C234.63 152.632 234.937 152.259 235.404 151.832C236.004 151.299 236.824 151.032 237.864 151.032C238.864 151.032 239.69 151.352 240.344 151.992C241.01 152.632 241.344 153.432 241.344 154.392V160.192H240.244V154.652C240.244 153.919 239.997 153.312 239.504 152.832C239.024 152.339 238.417 152.092 237.684 152.092C236.87 152.092 236.177 152.345 235.604 152.852C235.057 153.359 234.784 153.972 234.784 154.692V160.192H233.684V154.652C233.684 153.919 233.444 153.312 232.964 152.832C232.484 152.339 231.877 152.092 231.144 152.092C230.304 152.092 229.61 152.339 229.064 152.832C228.517 153.339 228.244 153.959 228.244 154.692V160.192ZM252.736 156.032H244.696C244.763 156.979 245.136 157.765 245.816 158.392C246.483 159.005 247.316 159.312 248.316 159.312C249.583 159.312 250.57 158.812 251.276 157.812L252.336 158.172C251.936 158.852 251.383 159.385 250.676 159.772C249.97 160.159 249.183 160.352 248.316 160.352C246.943 160.352 245.81 159.912 244.916 159.032C244.023 158.139 243.576 157.025 243.576 155.692C243.576 154.372 244.01 153.265 244.876 152.372C245.756 151.479 246.85 151.032 248.156 151.032C249.463 151.032 250.556 151.479 251.436 152.372C252.316 153.252 252.756 154.359 252.756 155.692C252.756 155.865 252.75 155.979 252.736 156.032ZM244.716 155.132H251.616C251.496 154.239 251.11 153.505 250.456 152.932C249.83 152.359 249.056 152.072 248.136 152.072C247.243 152.072 246.483 152.359 245.856 152.932C245.216 153.519 244.836 154.252 244.716 155.132Z" fill="black"/>
</svg>
