<svg width="25" height="25" viewBox="0 0 25 25" fill="none" xmlns="http://www.w3.org/2000/svg">
<path d="M5.24659 3.30994C5.24624 4.01715 4.96953 4.69525 4.47732 5.19507C3.98511 5.69488 3.31772 5.97548 2.62198 5.97513C1.92624 5.97477 1.25914 5.6935 0.767418 5.19318C0.275701 4.69286 -0.000347542 4.01448 3.28386e-07 3.30728C0.000348199 2.60007 0.277064 1.92197 0.769273 1.42215C1.26148 0.922333 1.92887 0.641737 2.62461 0.64209C3.32035 0.642444 3.98746 0.923719 4.47917 1.42404C4.97089 1.92436 5.24694 2.60274 5.24659 3.30994ZM5.32529 7.94968H0.0786991V24.6421H5.32529V7.94968ZM13.6149 7.94968H8.39454V24.6421H13.5624V15.8826C13.5624 11.0028 19.819 10.5495 19.819 15.8826V24.6421H25V14.0693C25 5.84313 15.7398 6.14978 13.5624 10.1896L13.6149 7.94968Z" fill="black"/>
</svg>
