<svg width="126" height="42" viewBox="0 0 126 42" fill="none" xmlns="http://www.w3.org/2000/svg">
<rect x="0.463867" y="0.588623" width="125" height="41" rx="20.5" fill="#F2F2F2"/>
<path d="M36.4339 25.5886H30.6369V14.1136H36.1109C37.0742 14.1136 37.8732 14.4026 38.5079 14.9806C39.1539 15.5586 39.4769 16.284 39.4769 17.1566C39.4769 18.1313 39.0689 18.9246 38.2529 19.5366C38.7969 19.8086 39.2219 20.194 39.5279 20.6926C39.8452 21.1913 40.0039 21.741 40.0039 22.3416C40.0039 23.2596 39.6639 24.036 38.9839 24.6706C38.3039 25.2826 37.4539 25.5886 36.4339 25.5886ZM36.4339 20.4376H32.3369V24.0076H36.4339C36.9552 24.0076 37.3859 23.8376 37.7259 23.4976C38.0772 23.1576 38.2529 22.7326 38.2529 22.2226C38.2529 21.7126 38.0772 21.2876 37.7259 20.9476C37.3859 20.6076 36.9552 20.4376 36.4339 20.4376ZM36.1109 15.6946H32.3369V18.8566H36.1109C36.5755 18.8566 36.9609 18.7093 37.2669 18.4146C37.5729 18.1086 37.7259 17.729 37.7259 17.2756C37.7259 16.8223 37.5729 16.4483 37.2669 16.1536C36.9609 15.8476 36.5755 15.6946 36.1109 15.6946ZM43.2349 17.9386V19.0436C43.8129 18.171 44.6459 17.7346 45.7339 17.7346C45.8586 17.7346 45.9379 17.7403 45.9719 17.7516V19.4686C45.8019 19.3893 45.5753 19.3496 45.2919 19.3496C44.7026 19.3496 44.2096 19.5366 43.8129 19.9106C43.4276 20.2846 43.2349 20.755 43.2349 21.3216V25.5886H41.7049V17.9386H43.2349ZM50.3514 17.7346C51.3374 17.7346 52.1818 18.069 52.8844 18.7376V17.9386H54.4144V25.5886H52.8844V24.7896C52.1818 25.4583 51.3374 25.7926 50.3514 25.7926C49.2974 25.7926 48.4021 25.4073 47.6654 24.6366C46.9514 23.8773 46.5944 22.9196 46.5944 21.7636C46.5944 20.619 46.9514 19.6613 47.6654 18.8906C48.4021 18.12 49.2974 17.7346 50.3514 17.7346ZM52.1704 19.9956C51.7284 19.5196 51.1788 19.2816 50.5214 19.2816C49.8754 19.2816 49.3201 19.5196 48.8554 19.9956C48.4134 20.4716 48.1924 21.061 48.1924 21.7636C48.1924 22.4663 48.4134 23.0556 48.8554 23.5316C49.3201 24.0076 49.8754 24.2456 50.5214 24.2456C51.1788 24.2456 51.7284 24.0076 52.1704 23.5316C52.6238 23.067 52.8504 22.4776 52.8504 21.7636C52.8504 21.0496 52.6238 20.4603 52.1704 19.9956ZM56.3143 25.5886V17.9386H57.8443V19.0436C58.4223 18.171 59.2553 17.7346 60.3433 17.7346C61.2273 17.7346 61.9583 18.0236 62.5363 18.6016C63.1143 19.157 63.4033 19.871 63.4033 20.7436V25.5886H61.8563V21.1856C61.8563 20.619 61.6693 20.1486 61.2953 19.7746C60.9213 19.4006 60.4566 19.2136 59.9013 19.2136C59.3233 19.2136 58.836 19.4063 58.4393 19.7916C58.0426 20.1656 57.8443 20.636 57.8443 21.2026V25.5886H56.3143ZM68.7127 17.7346C69.6988 17.7346 70.5431 18.069 71.2458 18.7376V13.2636H72.7758V25.5886H71.2458V24.7896C70.5431 25.4583 69.6988 25.7926 68.7127 25.7926C67.6588 25.7926 66.7634 25.4073 66.0268 24.6366C65.3128 23.8773 64.9558 22.9196 64.9558 21.7636C64.9558 20.619 65.3128 19.6613 66.0268 18.8906C66.7634 18.12 67.6588 17.7346 68.7127 17.7346ZM70.5318 19.9956C70.0898 19.5196 69.5401 19.2816 68.8828 19.2816C68.2368 19.2816 67.6814 19.5196 67.2168 19.9956C66.7748 20.4716 66.5538 21.061 66.5538 21.7636C66.5538 22.4663 66.7748 23.0556 67.2168 23.5316C67.6814 24.0076 68.2368 24.2456 68.8828 24.2456C69.5401 24.2456 70.0898 24.0076 70.5318 23.5316C70.9851 23.067 71.2118 22.4776 71.2118 21.7636C71.2118 21.0496 70.9851 20.4603 70.5318 19.9956ZM76.2056 25.5886H74.6756V17.9386H76.2056V25.5886ZM75.4406 14.4706C75.724 14.4706 75.962 14.567 76.1546 14.7596C76.3473 14.9523 76.4436 15.1903 76.4436 15.4736C76.4436 15.927 76.234 16.2386 75.8146 16.4086C75.3953 16.5786 75.027 16.5106 74.7096 16.2046C74.4036 15.8873 74.3356 15.519 74.5056 15.0996C74.6756 14.6803 74.9873 14.4706 75.4406 14.4706ZM78.1122 25.5886V17.9386H79.6422V19.0436C80.2202 18.171 81.0532 17.7346 82.1412 17.7346C83.0252 17.7346 83.7562 18.0236 84.3342 18.6016C84.9122 19.157 85.2012 19.871 85.2012 20.7436V25.5886H83.6542V21.1856C83.6542 20.619 83.4672 20.1486 83.0932 19.7746C82.7192 19.4006 82.2545 19.2136 81.6992 19.2136C81.1212 19.2136 80.6338 19.4063 80.2372 19.7916C79.8405 20.1656 79.6422 20.636 79.6422 21.2026V25.5886H78.1122ZM90.5106 25.7926C89.4566 25.7926 88.5613 25.4073 87.8246 24.6366C87.1106 23.8773 86.7536 22.9196 86.7536 21.7636C86.7536 20.619 87.1106 19.6613 87.8246 18.8906C88.5613 18.12 89.4566 17.7346 90.5106 17.7346C91.4966 17.7346 92.3409 18.069 93.0436 18.7376V17.9386H94.5736V25.7756C94.5736 26.875 94.1996 27.7873 93.4516 28.5126C92.7149 29.2493 91.7969 29.6176 90.6976 29.6176C89.8929 29.6176 89.1506 29.4136 88.4706 29.0056C87.7906 28.5976 87.3146 28.0706 87.0426 27.4246L88.5896 26.9656C88.7483 27.2943 89.0203 27.5606 89.4056 27.7646C89.7909 27.98 90.2046 28.0876 90.6466 28.0876C91.3153 28.0876 91.8819 27.8666 92.3466 27.4246C92.8113 26.9826 93.0436 26.433 93.0436 25.7756V24.7896C92.3409 25.4583 91.4966 25.7926 90.5106 25.7926ZM90.6806 19.2816C90.0119 19.2816 89.4509 19.5196 88.9976 19.9956C88.5556 20.4716 88.3346 21.061 88.3346 21.7636C88.3346 22.4663 88.5556 23.0556 88.9976 23.5316C89.4509 24.0076 90.0119 24.2456 90.6806 24.2456C91.3379 24.2456 91.8876 24.0076 92.3296 23.5316C92.7829 23.067 93.0096 22.4776 93.0096 21.7636C93.0096 21.0496 92.7829 20.4603 92.3296 19.9956C91.8876 19.5196 91.3379 19.2816 90.6806 19.2816Z" fill="black"/>
</svg>
