<svg width="151" height="42" viewBox="0 0 151 42" fill="none" xmlns="http://www.w3.org/2000/svg">
<rect y="0.588623" width="151" height="41" rx="20.5" fill="#F2F2F2"/>
<path d="M35.528 25.5886H34.151L29.238 14.1136H31.023L34.848 23.1576L38.656 14.1136H40.441L35.528 25.5886ZM43.1529 25.5886H41.6229V17.9386H43.1529V25.5886ZM42.3879 14.4706C42.6712 14.4706 42.9092 14.567 43.1019 14.7596C43.2946 14.9523 43.3909 15.1903 43.3909 15.4736C43.3909 15.927 43.1812 16.2386 42.7619 16.4086C42.3426 16.5786 41.9742 16.5106 41.6569 16.2046C41.3509 15.8873 41.2829 15.519 41.4529 15.0996C41.6229 14.6803 41.9346 14.4706 42.3879 14.4706ZM46.5894 17.9386V19.0436C47.1674 18.171 48.0004 17.7346 49.0884 17.7346C49.2131 17.7346 49.2924 17.7403 49.3264 17.7516V19.4686C49.1564 19.3893 48.9298 19.3496 48.6464 19.3496C48.0571 19.3496 47.5641 19.5366 47.1674 19.9106C46.7821 20.2846 46.5894 20.755 46.5894 21.3216V25.5886H45.0594V17.9386H46.5894ZM49.8065 19.2986V17.9386H50.9625V16.4086H52.5095V17.9386H54.5835V19.2986H52.5095V23.0556C52.5095 23.3503 52.6059 23.5996 52.7985 23.8036C52.9912 24.0076 53.2292 24.1096 53.5125 24.1096H54.5835V25.5886H53.4105C52.7192 25.5886 52.1355 25.3676 51.6595 24.9256C51.1949 24.461 50.9625 23.9 50.9625 23.2426V19.2986H49.8065ZM55.9663 22.7666V17.9386H57.5133V22.3416C57.5133 22.9083 57.7003 23.3786 58.0743 23.7526C58.4483 24.1266 58.9129 24.3136 59.4683 24.3136C60.0576 24.3136 60.5449 24.121 60.9303 23.7356C61.3269 23.339 61.5253 22.8686 61.5253 22.3246V17.9386H63.0553V25.5886H61.5253V24.4836C60.9473 25.3563 60.1143 25.7926 59.0263 25.7926C58.1423 25.7926 57.4113 25.5036 56.8333 24.9256C56.2553 24.3476 55.9663 23.628 55.9663 22.7666ZM68.3817 17.7346C69.3677 17.7346 70.212 18.069 70.9147 18.7376V17.9386H72.4447V25.5886H70.9147V24.7896C70.212 25.4583 69.3677 25.7926 68.3817 25.7926C67.3277 25.7926 66.4324 25.4073 65.6957 24.6366C64.9817 23.8773 64.6247 22.9196 64.6247 21.7636C64.6247 20.619 64.9817 19.6613 65.6957 18.8906C66.4324 18.12 67.3277 17.7346 68.3817 17.7346ZM70.2007 19.9956C69.7587 19.5196 69.209 19.2816 68.5517 19.2816C67.9057 19.2816 67.3504 19.5196 66.8857 19.9956C66.4437 20.4716 66.2227 21.061 66.2227 21.7636C66.2227 22.4663 66.4437 23.0556 66.8857 23.5316C67.3504 24.0076 67.9057 24.2456 68.5517 24.2456C69.209 24.2456 69.7587 24.0076 70.2007 23.5316C70.654 23.067 70.8807 22.4776 70.8807 21.7636C70.8807 21.0496 70.654 20.4603 70.2007 19.9956ZM75.8746 25.5886H74.3446V13.2636H75.8746V25.5886ZM81.9607 19.8596C81.9607 18.1596 82.5274 16.743 83.6607 15.6096C84.794 14.4763 86.205 13.9096 87.8937 13.9096C89.0384 13.9096 90.0754 14.1816 91.0047 14.7256C91.934 15.2696 92.6424 16.0176 93.1297 16.9696L91.4977 17.5986C91.1237 16.9526 90.6194 16.4483 89.9847 16.0856C89.3614 15.723 88.6644 15.5416 87.8937 15.5416C86.6924 15.5416 85.695 15.9553 84.9017 16.7826C84.1084 17.5873 83.7117 18.613 83.7117 19.8596C83.7117 21.0836 84.1084 22.1093 84.9017 22.9366C85.7064 23.7526 86.7037 24.1606 87.8937 24.1606C88.6644 24.1606 89.3614 23.9793 89.9847 23.6166C90.6194 23.254 91.1237 22.7496 91.4977 22.1036L93.1297 22.7326C92.6424 23.6846 91.934 24.4326 91.0047 24.9766C90.0754 25.5206 89.0384 25.7926 87.8937 25.7926C86.205 25.7926 84.794 25.226 83.6607 24.0926C82.5274 22.9593 81.9607 21.5483 81.9607 19.8596ZM96.7187 25.5886H95.0187V14.1136H96.7187L101.173 21.9506L105.627 14.1136H107.327V25.5886H105.627V17.3606L101.734 24.1946H100.612L96.7187 17.3436V25.5886ZM109.287 19.8596C109.287 18.1596 109.854 16.743 110.987 15.6096C112.12 14.4763 113.531 13.9096 115.22 13.9096C116.909 13.9096 118.32 14.4763 119.453 15.6096C120.598 16.7543 121.17 18.171 121.17 19.8596C121.17 21.537 120.598 22.948 119.453 24.0926C118.32 25.226 116.909 25.7926 115.22 25.7926C113.531 25.7926 112.12 25.226 110.987 24.0926C109.854 22.9593 109.287 21.5483 109.287 19.8596ZM111.038 19.8596C111.038 21.0836 111.435 22.1093 112.228 22.9366C113.033 23.7526 114.03 24.1606 115.22 24.1606C116.399 24.1606 117.39 23.7526 118.195 22.9366C119 22.098 119.402 21.0723 119.402 19.8596C119.402 18.6356 119 17.61 118.195 16.7826C117.402 15.9553 116.41 15.5416 115.22 15.5416C114.019 15.5416 113.021 15.9553 112.228 16.7826C111.435 17.5873 111.038 18.613 111.038 19.8596Z" fill="black"/>
</svg>
