<svg width="229" height="42" viewBox="0 0 229 42" fill="none" xmlns="http://www.w3.org/2000/svg">
<rect y="0.315674" width="229" height="41" rx="20.5" fill="#F2F2F2"/>
<path d="M29.782 19.5867C29.782 17.8867 30.3487 16.47 31.482 15.3367C32.6153 14.2033 34.0263 13.6367 35.715 13.6367C36.8597 13.6367 37.8967 13.9087 38.826 14.4527C39.7553 14.9967 40.4637 15.7447 40.951 16.6967L39.319 17.3257C38.945 16.6797 38.4407 16.1753 37.806 15.8127C37.1827 15.45 36.4857 15.2687 35.715 15.2687C34.5137 15.2687 33.5163 15.6823 32.723 16.5097C31.9297 17.3143 31.533 18.34 31.533 19.5867C31.533 20.8107 31.9297 21.8363 32.723 22.6637C33.5277 23.4797 34.525 23.8877 35.715 23.8877C36.4857 23.8877 37.1827 23.7063 37.806 23.3437C38.4407 22.981 38.945 22.4767 39.319 21.8307L40.951 22.4597C40.4637 23.4117 39.7553 24.1597 38.826 24.7037C37.8967 25.2477 36.8597 25.5197 35.715 25.5197C34.0263 25.5197 32.6153 24.953 31.482 23.8197C30.3487 22.6863 29.782 21.2753 29.782 19.5867ZM43.252 24.3637C42.4926 23.6043 42.113 22.6467 42.113 21.4907C42.113 20.3347 42.4926 19.377 43.252 18.6177C44.0226 17.847 44.9803 17.4617 46.125 17.4617C47.2696 17.4617 48.2273 17.847 48.998 18.6177C49.7686 19.3883 50.154 20.346 50.154 21.4907C50.154 22.6353 49.7686 23.593 48.998 24.3637C48.2273 25.1343 47.2696 25.5197 46.125 25.5197C44.9803 25.5197 44.0226 25.1343 43.252 24.3637ZM44.391 19.7227C43.9376 20.1873 43.711 20.7767 43.711 21.4907C43.711 22.2047 43.9376 22.794 44.391 23.2587C44.8443 23.7347 45.4223 23.9727 46.125 23.9727C46.805 23.9727 47.3773 23.7347 47.842 23.2587C48.3066 22.7713 48.539 22.182 48.539 21.4907C48.539 20.7993 48.3066 20.21 47.842 19.7227C47.3773 19.2467 46.805 19.0087 46.125 19.0087C45.4223 19.0087 44.8443 19.2467 44.391 19.7227ZM53.23 25.3157H51.7V17.6657H53.23V18.6347C53.7514 17.8527 54.5277 17.4617 55.559 17.4617C56.0917 17.4617 56.5734 17.5863 57.004 17.8357C57.446 18.0737 57.7917 18.4023 58.041 18.8217C58.5737 17.915 59.4294 17.4617 60.608 17.4617C61.4807 17.4617 62.206 17.7337 62.784 18.2777C63.362 18.8217 63.651 19.5017 63.651 20.3177V25.3157H62.121V20.7427C62.121 20.2327 61.951 19.8077 61.611 19.4677C61.271 19.1163 60.8404 18.9407 60.319 18.9407C59.7864 18.9407 59.3387 19.1163 58.976 19.4677C58.6247 19.8077 58.449 20.2383 58.449 20.7597V25.3157H56.902V20.7427C56.902 20.2327 56.732 19.8077 56.392 19.4677C56.052 19.1163 55.627 18.9407 55.117 18.9407C54.5844 18.9407 54.1367 19.1163 53.774 19.4677C53.4114 19.8077 53.23 20.2383 53.23 20.7597V25.3157ZM67.0758 25.3157H65.5458V17.6657H67.0758V18.6347C67.5971 17.8527 68.3734 17.4617 69.4048 17.4617C69.9374 17.4617 70.4191 17.5863 70.8498 17.8357C71.2918 18.0737 71.6374 18.4023 71.8868 18.8217C72.4194 17.915 73.2751 17.4617 74.4538 17.4617C75.3264 17.4617 76.0518 17.7337 76.6298 18.2777C77.2078 18.8217 77.4968 19.5017 77.4968 20.3177V25.3157H75.9668V20.7427C75.9668 20.2327 75.7968 19.8077 75.4568 19.4677C75.1168 19.1163 74.6861 18.9407 74.1648 18.9407C73.6321 18.9407 73.1844 19.1163 72.8218 19.4677C72.4704 19.8077 72.2948 20.2383 72.2948 20.7597V25.3157H70.7478V20.7427C70.7478 20.2327 70.5778 19.8077 70.2378 19.4677C69.8978 19.1163 69.4728 18.9407 68.9627 18.9407C68.4301 18.9407 67.9824 19.1163 67.6198 19.4677C67.2571 19.8077 67.0758 20.2383 67.0758 20.7597V25.3157ZM79.2416 22.4937V17.6657H80.7886V22.0687C80.7886 22.6353 80.9756 23.1057 81.3496 23.4797C81.7236 23.8537 82.1883 24.0407 82.7436 24.0407C83.333 24.0407 83.8203 23.848 84.2056 23.4627C84.6023 23.066 84.8006 22.5957 84.8006 22.0517V17.6657H86.3306V25.3157H84.8006V24.2107C84.2226 25.0833 83.3896 25.5197 82.3016 25.5197C81.4176 25.5197 80.6866 25.2307 80.1086 24.6527C79.5306 24.0747 79.2416 23.355 79.2416 22.4937ZM88.2401 25.3157V17.6657H89.7701V18.7707C90.3481 17.898 91.1811 17.4617 92.2691 17.4617C93.1531 17.4617 93.8841 17.7507 94.4621 18.3287C95.0401 18.884 95.3291 19.598 95.3291 20.4707V25.3157H93.7821V20.9127C93.7821 20.346 93.5951 19.8757 93.2211 19.5017C92.8471 19.1277 92.3824 18.9407 91.8271 18.9407C91.2491 18.9407 90.7618 19.1333 90.3651 19.5187C89.9684 19.8927 89.7701 20.363 89.7701 20.9297V25.3157H88.2401ZM98.7515 25.3157H97.2215V17.6657H98.7515V25.3157ZM97.9865 14.1977C98.2699 14.1977 98.5079 14.294 98.7005 14.4867C98.8932 14.6793 98.9895 14.9173 98.9895 15.2007C98.9895 15.654 98.7799 15.9657 98.3605 16.1357C97.9412 16.3057 97.5729 16.2377 97.2555 15.9317C96.9495 15.6143 96.8815 15.246 97.0515 14.8267C97.2215 14.4073 97.5332 14.1977 97.9865 14.1977ZM108.036 19.8757L106.489 20.3517C106.296 19.9437 106.007 19.6207 105.622 19.3827C105.237 19.1333 104.806 19.0087 104.33 19.0087C103.627 19.0087 103.049 19.2467 102.596 19.7227C102.143 20.1873 101.916 20.7767 101.916 21.4907C101.916 22.2047 102.143 22.794 102.596 23.2587C103.049 23.7347 103.627 23.9727 104.33 23.9727C104.806 23.9727 105.237 23.8537 105.622 23.6157C106.007 23.3663 106.296 23.0377 106.489 22.6297L108.036 23.0887C107.73 23.8367 107.243 24.4317 106.574 24.8737C105.917 25.3043 105.169 25.5197 104.33 25.5197C103.185 25.5197 102.228 25.1343 101.457 24.3637C100.698 23.6043 100.318 22.6467 100.318 21.4907C100.318 20.3347 100.698 19.377 101.457 18.6177C102.228 17.847 103.185 17.4617 104.33 17.4617C105.18 17.4617 105.934 17.677 106.591 18.1077C107.248 18.5383 107.73 19.1277 108.036 19.8757ZM112.841 17.4617C113.827 17.4617 114.671 17.796 115.374 18.4647V17.6657H116.904V25.3157H115.374V24.5167C114.671 25.1853 113.827 25.5197 112.841 25.5197C111.787 25.5197 110.891 25.1343 110.155 24.3637C109.441 23.6043 109.084 22.6467 109.084 21.4907C109.084 20.346 109.441 19.3883 110.155 18.6177C110.891 17.847 111.787 17.4617 112.841 17.4617ZM114.66 19.7227C114.218 19.2467 113.668 19.0087 113.011 19.0087C112.365 19.0087 111.809 19.2467 111.345 19.7227C110.903 20.1987 110.682 20.788 110.682 21.4907C110.682 22.1933 110.903 22.7827 111.345 23.2587C111.809 23.7347 112.365 23.9727 113.011 23.9727C113.668 23.9727 114.218 23.7347 114.66 23.2587C115.113 22.794 115.34 22.2047 115.34 21.4907C115.34 20.7767 115.113 20.1873 114.66 19.7227ZM118.056 19.0257V17.6657H119.212V16.1357H120.759V17.6657H122.833V19.0257H120.759V22.7827C120.759 23.0773 120.855 23.3267 121.048 23.5307C121.24 23.7347 121.478 23.8367 121.762 23.8367H122.833V25.3157H121.66C120.968 25.3157 120.385 25.0947 119.909 24.6527C119.444 24.188 119.212 23.627 119.212 22.9697V19.0257H118.056ZM125.795 25.3157H124.265V17.6657H125.795V25.3157ZM125.03 14.1977C125.314 14.1977 125.552 14.294 125.744 14.4867C125.937 14.6793 126.033 14.9173 126.033 15.2007C126.033 15.654 125.824 15.9657 125.404 16.1357C124.985 16.3057 124.617 16.2377 124.299 15.9317C123.993 15.6143 123.925 15.246 124.095 14.8267C124.265 14.4073 124.577 14.1977 125.03 14.1977ZM128.501 24.3637C127.742 23.6043 127.362 22.6467 127.362 21.4907C127.362 20.3347 127.742 19.377 128.501 18.6177C129.272 17.847 130.229 17.4617 131.374 17.4617C132.519 17.4617 133.476 17.847 134.247 18.6177C135.018 19.3883 135.403 20.346 135.403 21.4907C135.403 22.6353 135.018 23.593 134.247 24.3637C133.476 25.1343 132.519 25.5197 131.374 25.5197C130.229 25.5197 129.272 25.1343 128.501 24.3637ZM129.64 19.7227C129.187 20.1873 128.96 20.7767 128.96 21.4907C128.96 22.2047 129.187 22.794 129.64 23.2587C130.093 23.7347 130.671 23.9727 131.374 23.9727C132.054 23.9727 132.626 23.7347 133.091 23.2587C133.556 22.7713 133.788 22.182 133.788 21.4907C133.788 20.7993 133.556 20.21 133.091 19.7227C132.626 19.2467 132.054 19.0087 131.374 19.0087C130.671 19.0087 130.093 19.2467 129.64 19.7227ZM136.949 25.3157V17.6657H138.479V18.7707C139.057 17.898 139.89 17.4617 140.978 17.4617C141.862 17.4617 142.593 17.7507 143.171 18.3287C143.749 18.884 144.038 19.598 144.038 20.4707V25.3157H142.491V20.9127C142.491 20.346 142.304 19.8757 141.93 19.5017C141.556 19.1277 141.091 18.9407 140.536 18.9407C139.958 18.9407 139.471 19.1333 139.074 19.5187C138.677 19.8927 138.479 20.363 138.479 20.9297V25.3157H136.949ZM155.074 25.3157H150.501V13.8407H155.074C156.751 13.8407 158.162 14.396 159.307 15.5067C160.452 16.6173 161.024 17.9773 161.024 19.5867C161.024 21.196 160.452 22.556 159.307 23.6667C158.174 24.766 156.763 25.3157 155.074 25.3157ZM155.074 15.4217H152.201V23.7347H155.074C156.264 23.7347 157.256 23.338 158.049 22.5447C158.854 21.74 159.256 20.754 159.256 19.5867C159.256 18.408 158.854 17.4163 158.049 16.6117C157.256 15.8183 156.264 15.4217 155.074 15.4217ZM170.23 22.0517H163.906C164.031 22.641 164.32 23.1283 164.773 23.5137C165.238 23.8877 165.787 24.0747 166.422 24.0747C167.272 24.0747 167.946 23.7573 168.445 23.1227L169.941 23.5817C169.601 24.171 169.114 24.6413 168.479 24.9927C167.856 25.344 167.17 25.5197 166.422 25.5197C165.266 25.5197 164.291 25.1343 163.498 24.3637C162.716 23.593 162.325 22.6353 162.325 21.4907C162.325 20.3347 162.705 19.377 163.464 18.6177C164.235 17.847 165.181 17.4617 166.303 17.4617C167.414 17.4617 168.354 17.847 169.125 18.6177C169.884 19.377 170.264 20.3347 170.264 21.4907C170.264 21.706 170.253 21.893 170.23 22.0517ZM163.923 20.8277H168.683C168.547 20.2497 168.258 19.785 167.816 19.4337C167.374 19.0823 166.858 18.9067 166.269 18.9067C165.702 18.9067 165.198 19.088 164.756 19.4507C164.325 19.802 164.048 20.261 163.923 20.8277ZM177.136 19.4167L175.708 19.6717C175.515 19.105 175.016 18.8217 174.212 18.8217C173.838 18.8217 173.532 18.901 173.294 19.0597C173.056 19.207 172.937 19.3997 172.937 19.6377C172.937 19.955 173.186 20.21 173.685 20.4027L175.402 20.9977C176.648 21.4397 177.272 22.1707 177.272 23.1907C177.272 23.9273 177 24.4997 176.456 24.9077C175.912 25.3157 175.203 25.5197 174.331 25.5197C173.469 25.5197 172.767 25.327 172.223 24.9417C171.679 24.5563 171.356 24.035 171.254 23.3777L172.716 23.1567C172.772 23.4627 172.948 23.7063 173.243 23.8877C173.549 24.069 173.923 24.1597 174.365 24.1597C174.784 24.1597 175.13 24.0747 175.402 23.9047C175.674 23.7347 175.81 23.5137 175.81 23.2417C175.81 22.8677 175.498 22.573 174.875 22.3577L173.175 21.7967C172.03 21.4 171.458 20.72 171.458 19.7567C171.458 19.02 171.718 18.4533 172.24 18.0567C172.761 17.66 173.458 17.4617 174.331 17.4617C175.113 17.4617 175.753 17.6373 176.252 17.9887C176.75 18.34 177.045 18.816 177.136 19.4167ZM180.298 25.3157H178.768V17.6657H180.298V25.3157ZM179.533 14.1977C179.817 14.1977 180.055 14.294 180.247 14.4867C180.44 14.6793 180.536 14.9173 180.536 15.2007C180.536 15.654 180.327 15.9657 179.907 16.1357C179.488 16.3057 179.12 16.2377 178.802 15.9317C178.496 15.6143 178.428 15.246 178.598 14.8267C178.768 14.4073 179.08 14.1977 179.533 14.1977ZM185.622 25.5197C184.568 25.5197 183.673 25.1343 182.936 24.3637C182.222 23.6043 181.865 22.6467 181.865 21.4907C181.865 20.346 182.222 19.3883 182.936 18.6177C183.673 17.847 184.568 17.4617 185.622 17.4617C186.608 17.4617 187.452 17.796 188.155 18.4647V17.6657H189.685V25.5027C189.685 26.602 189.311 27.5143 188.563 28.2397C187.826 28.9763 186.908 29.3447 185.809 29.3447C185.004 29.3447 184.262 29.1407 183.582 28.7327C182.902 28.3247 182.426 27.7977 182.154 27.1517L183.701 26.6927C183.86 27.0213 184.132 27.2877 184.517 27.4917C184.902 27.707 185.316 27.8147 185.758 27.8147C186.427 27.8147 186.993 27.5937 187.458 27.1517C187.923 26.7097 188.155 26.16 188.155 25.5027V24.5167C187.452 25.1853 186.608 25.5197 185.622 25.5197ZM185.792 19.0087C185.123 19.0087 184.562 19.2467 184.109 19.7227C183.667 20.1987 183.446 20.788 183.446 21.4907C183.446 22.1933 183.667 22.7827 184.109 23.2587C184.562 23.7347 185.123 23.9727 185.792 23.9727C186.449 23.9727 186.999 23.7347 187.441 23.2587C187.894 22.794 188.121 22.2047 188.121 21.4907C188.121 20.7767 187.894 20.1873 187.441 19.7227C186.999 19.2467 186.449 19.0087 185.792 19.0087ZM191.585 25.3157V17.6657H193.115V18.7707C193.693 17.898 194.526 17.4617 195.614 17.4617C196.498 17.4617 197.229 17.7507 197.807 18.3287C198.385 18.884 198.674 19.598 198.674 20.4707V25.3157H197.127V20.9127C197.127 20.346 196.94 19.8757 196.566 19.5017C196.192 19.1277 195.727 18.9407 195.172 18.9407C194.594 18.9407 194.106 19.1333 193.71 19.5187C193.313 19.8927 193.115 20.363 193.115 20.9297V25.3157H191.585Z" fill="black"/>
</svg>
