<svg width="178" height="42" viewBox="0 0 178 42" fill="none" xmlns="http://www.w3.org/2000/svg">
<rect y="0.315674" width="178" height="41" rx="20.5" fill="#F2F2F2"/>
<path d="M29.782 19.5867C29.782 17.898 30.3543 16.4813 31.499 15.3367C32.6437 14.2033 34.083 13.6367 35.817 13.6367C36.973 13.6367 38.0157 13.9087 38.945 14.4527C39.8857 14.9967 40.611 15.7447 41.121 16.6967L39.472 17.3257C39.1093 16.6797 38.605 16.1753 37.959 15.8127C37.313 15.45 36.599 15.2687 35.817 15.2687C34.6043 15.2687 33.5843 15.6823 32.757 16.5097C31.941 17.3257 31.533 18.3513 31.533 19.5867C31.533 20.7993 31.924 21.825 32.706 22.6637C33.5107 23.4797 34.4853 23.8877 35.63 23.8877C36.616 23.8877 37.4773 23.593 38.214 23.0037C38.962 22.403 39.438 21.6437 39.642 20.7257H35.375V19.1447H41.546C41.5687 19.4393 41.58 19.6093 41.58 19.6547C41.5687 21.3093 40.9963 22.7033 39.863 23.8367C38.741 24.9587 37.347 25.5197 35.681 25.5197C34.0037 25.5197 32.5983 24.953 31.465 23.8197C30.343 22.6863 29.782 21.2753 29.782 19.5867ZM44.8297 17.6657V18.7707C45.4077 17.898 46.2407 17.4617 47.3287 17.4617C47.4533 17.4617 47.5327 17.4673 47.5667 17.4787V19.1957C47.3967 19.1163 47.17 19.0767 46.8867 19.0767C46.2973 19.0767 45.8043 19.2637 45.4077 19.6377C45.0223 20.0117 44.8297 20.482 44.8297 21.0487V25.3157H43.2997V17.6657H44.8297ZM49.3281 24.3637C48.5688 23.6043 48.1891 22.6467 48.1891 21.4907C48.1891 20.3347 48.5688 19.377 49.3281 18.6177C50.0988 17.847 51.0565 17.4617 52.2011 17.4617C53.3458 17.4617 54.3035 17.847 55.0741 18.6177C55.8448 19.3883 56.2301 20.346 56.2301 21.4907C56.2301 22.6353 55.8448 23.593 55.0741 24.3637C54.3035 25.1343 53.3458 25.5197 52.2011 25.5197C51.0565 25.5197 50.0988 25.1343 49.3281 24.3637ZM50.4671 19.7227C50.0138 20.1873 49.7871 20.7767 49.7871 21.4907C49.7871 22.2047 50.0138 22.794 50.4671 23.2587C50.9205 23.7347 51.4985 23.9727 52.2011 23.9727C52.8811 23.9727 53.4535 23.7347 53.9181 23.2587C54.3828 22.7713 54.6151 22.182 54.6151 21.4907C54.6151 20.7993 54.3828 20.21 53.9181 19.7227C53.4535 19.2467 52.8811 19.0087 52.2011 19.0087C51.4985 19.0087 50.9205 19.2467 50.4671 19.7227ZM60.6058 25.3157H59.2458L56.6958 17.6657H58.2598L59.9258 22.9357L61.5748 17.6657H62.9518L64.6178 22.9357L66.2668 17.6657H67.8138L65.2808 25.3157H63.9038L62.2718 20.2157L60.6058 25.3157ZM68.2011 19.0257V17.6657H69.3571V16.1357H70.9041V17.6657H72.9781V19.0257H70.9041V22.7827C70.9041 23.0773 71.0004 23.3267 71.1931 23.5307C71.3857 23.7347 71.6237 23.8367 71.9071 23.8367H72.9781V25.3157H71.8051C71.1137 25.3157 70.5301 25.0947 70.0541 24.6527C69.5894 24.188 69.3571 23.627 69.3571 22.9697V19.0257H68.2011ZM74.411 25.3157V12.9907H75.941V18.7707C76.519 17.898 77.369 17.4617 78.491 17.4617C79.375 17.4617 80.1173 17.7507 80.718 18.3287C81.3073 18.884 81.602 19.6037 81.602 20.4877V25.3157H80.055V20.9127C80.055 20.346 79.8623 19.8757 79.477 19.5017C79.103 19.1277 78.627 18.9407 78.049 18.9407C77.4483 18.9407 76.944 19.1333 76.536 19.5187C76.1393 19.8927 75.941 20.363 75.941 20.9297V25.3157H74.411ZM95.8146 16.2037L94.1316 16.6967C94.0296 16.2887 93.7633 15.9487 93.3326 15.6767C92.9133 15.4047 92.4203 15.2687 91.8536 15.2687C91.2416 15.2687 90.7203 15.4217 90.2896 15.7277C89.8703 16.0337 89.6606 16.4133 89.6606 16.8667C89.6606 17.354 89.9553 17.7507 90.5446 18.0567C90.8506 18.204 91.1623 18.323 91.4796 18.4137L92.7546 18.7707C93.548 18.986 94.1543 19.2013 94.5736 19.4167C95.0836 19.6547 95.469 19.9777 95.7296 20.3857C96.0016 20.7937 96.1603 21.3377 96.2056 22.0177C96.2056 23.0717 95.8146 23.9217 95.0326 24.5677C94.2393 25.2023 93.2306 25.5197 92.0066 25.5197C90.896 25.5197 89.9496 25.2647 89.1676 24.7547C88.3743 24.222 87.87 23.559 87.6546 22.7657L89.3376 22.2557C89.4396 22.7203 89.74 23.1113 90.2386 23.4287C90.7373 23.7347 91.3323 23.8877 92.0236 23.8877C92.7376 23.8877 93.327 23.729 93.7916 23.4117C94.2676 23.083 94.5056 22.6637 94.5056 22.1537C94.5056 21.825 94.3753 21.5303 94.1146 21.2697C93.888 21.043 93.6443 20.873 93.3836 20.7597C93.123 20.6463 92.749 20.533 92.2616 20.4197C90.8903 20.023 89.978 19.7 89.5246 19.4507C88.4933 18.8953 87.9776 18.068 87.9776 16.9687C87.9776 15.9827 88.3346 15.1837 89.0486 14.5717C89.774 13.9483 90.6976 13.6367 91.8196 13.6367C92.8283 13.6367 93.6953 13.8803 94.4206 14.3677C95.146 14.855 95.6106 15.467 95.8146 16.2037ZM97.0546 19.0257V17.6657H98.2106V16.1357H99.7576V17.6657H101.832V19.0257H99.7576V22.7827C99.7576 23.0773 99.8539 23.3267 100.047 23.5307C100.239 23.7347 100.477 23.8367 100.761 23.8367H101.832V25.3157H100.659C99.9673 25.3157 99.3836 25.0947 98.9076 24.6527C98.4429 24.188 98.2106 23.627 98.2106 22.9697V19.0257H97.0546ZM104.795 17.6657V18.7707C105.373 17.898 106.206 17.4617 107.294 17.4617C107.418 17.4617 107.498 17.4673 107.532 17.4787V19.1957C107.362 19.1163 107.135 19.0767 106.852 19.0767C106.262 19.0767 105.769 19.2637 105.373 19.6377C104.987 20.0117 104.795 20.482 104.795 21.0487V25.3157H103.265V17.6657H104.795ZM111.911 17.4617C112.897 17.4617 113.741 17.796 114.444 18.4647V17.6657H115.974V25.3157H114.444V24.5167C113.741 25.1853 112.897 25.5197 111.911 25.5197C110.857 25.5197 109.962 25.1343 109.225 24.3637C108.511 23.6043 108.154 22.6467 108.154 21.4907C108.154 20.346 108.511 19.3883 109.225 18.6177C109.962 17.847 110.857 17.4617 111.911 17.4617ZM113.73 19.7227C113.288 19.2467 112.738 19.0087 112.081 19.0087C111.435 19.0087 110.88 19.2467 110.415 19.7227C109.973 20.1987 109.752 20.788 109.752 21.4907C109.752 22.1933 109.973 22.7827 110.415 23.2587C110.88 23.7347 111.435 23.9727 112.081 23.9727C112.738 23.9727 113.288 23.7347 113.73 23.2587C114.183 22.794 114.41 22.2047 114.41 21.4907C114.41 20.7767 114.183 20.1873 113.73 19.7227ZM117.126 19.0257V17.6657H118.282V16.1357H119.829V17.6657H121.903V19.0257H119.829V22.7827C119.829 23.0773 119.925 23.3267 120.118 23.5307C120.311 23.7347 120.549 23.8367 120.832 23.8367H121.903V25.3157H120.73C120.039 25.3157 119.455 25.0947 118.979 24.6527C118.514 24.188 118.282 23.627 118.282 22.9697V19.0257H117.126ZM130.868 22.0517H124.544C124.668 22.641 124.957 23.1283 125.411 23.5137C125.875 23.8877 126.425 24.0747 127.06 24.0747C127.91 24.0747 128.584 23.7573 129.083 23.1227L130.579 23.5817C130.239 24.171 129.751 24.6413 129.117 24.9927C128.493 25.344 127.808 25.5197 127.06 25.5197C125.904 25.5197 124.929 25.1343 124.136 24.3637C123.354 23.593 122.963 22.6353 122.963 21.4907C122.963 20.3347 123.342 19.377 124.102 18.6177C124.872 17.847 125.819 17.4617 126.941 17.4617C128.051 17.4617 128.992 17.847 129.763 18.6177C130.522 19.377 130.902 20.3347 130.902 21.4907C130.902 21.706 130.89 21.893 130.868 22.0517ZM124.561 20.8277H129.321C129.185 20.2497 128.896 19.785 128.454 19.4337C128.012 19.0823 127.496 18.9067 126.907 18.9067C126.34 18.9067 125.836 19.088 125.394 19.4507C124.963 19.802 124.685 20.261 124.561 20.8277ZM135.767 25.5197C134.713 25.5197 133.818 25.1343 133.081 24.3637C132.367 23.6043 132.01 22.6467 132.01 21.4907C132.01 20.346 132.367 19.3883 133.081 18.6177C133.818 17.847 134.713 17.4617 135.767 17.4617C136.753 17.4617 137.598 17.796 138.3 18.4647V17.6657H139.83V25.5027C139.83 26.602 139.456 27.5143 138.708 28.2397C137.972 28.9763 137.054 29.3447 135.954 29.3447C135.15 29.3447 134.407 29.1407 133.727 28.7327C133.047 28.3247 132.571 27.7977 132.299 27.1517L133.846 26.6927C134.005 27.0213 134.277 27.2877 134.662 27.4917C135.048 27.707 135.461 27.8147 135.903 27.8147C136.572 27.8147 137.139 27.5937 137.603 27.1517C138.068 26.7097 138.3 26.16 138.3 25.5027V24.5167C137.598 25.1853 136.753 25.5197 135.767 25.5197ZM135.937 19.0087C135.269 19.0087 134.708 19.2467 134.254 19.7227C133.812 20.1987 133.591 20.788 133.591 21.4907C133.591 22.1933 133.812 22.7827 134.254 23.2587C134.708 23.7347 135.269 23.9727 135.937 23.9727C136.595 23.9727 137.144 23.7347 137.586 23.2587C138.04 22.794 138.266 22.2047 138.266 21.4907C138.266 20.7767 138.04 20.1873 137.586 19.7227C137.144 19.2467 136.595 19.0087 135.937 19.0087ZM143.515 26.2167L143.957 25.1117L140.965 17.6657H142.563L144.739 23.2077L146.966 17.6657H148.564L144.841 26.7437C144.501 27.571 144.076 28.1773 143.566 28.5627C143.056 28.948 142.422 29.1407 141.662 29.1407H141.39V27.6617H141.662C142.512 27.6617 143.13 27.18 143.515 26.2167Z" fill="black"/>
</svg>
