<svg width="191" height="42" viewBox="0 0 191 42" fill="none" xmlns="http://www.w3.org/2000/svg">
<rect y="0.588623" width="191" height="41" rx="20.5" fill="#F2F2F2"/>
<path d="M31.873 21.2876V25.5886H30.173V14.1136H35.239C36.3157 14.1136 37.2167 14.4593 37.942 15.1506C38.6673 15.8306 39.03 16.6806 39.03 17.7006C39.03 18.7206 38.6673 19.5763 37.942 20.2676C37.2167 20.9476 36.3157 21.2876 35.239 21.2876H31.873ZM35.239 15.6946H31.873V19.7236H35.239C35.817 19.7236 36.2987 19.531 36.684 19.1456C37.0807 18.7603 37.279 18.2786 37.279 17.7006C37.279 17.1226 37.0807 16.6466 36.684 16.2726C36.2987 15.8873 35.817 15.6946 35.239 15.6946ZM47.4447 22.3246H41.1207C41.2454 22.914 41.5344 23.4013 41.9877 23.7866C42.4524 24.1606 43.0021 24.3476 43.6367 24.3476C44.4867 24.3476 45.1611 24.0303 45.6597 23.3956L47.1557 23.8546C46.8157 24.444 46.3284 24.9143 45.6937 25.2656C45.0704 25.617 44.3847 25.7926 43.6367 25.7926C42.4807 25.7926 41.5061 25.4073 40.7127 24.6366C39.9307 23.866 39.5397 22.9083 39.5397 21.7636C39.5397 20.6076 39.9194 19.65 40.6787 18.8906C41.4494 18.12 42.3957 17.7346 43.5177 17.7346C44.6284 17.7346 45.5691 18.12 46.3397 18.8906C47.0991 19.65 47.4787 20.6076 47.4787 21.7636C47.4787 21.979 47.4674 22.166 47.4447 22.3246ZM41.1377 21.1006H45.8977C45.7617 20.5226 45.4727 20.058 45.0307 19.7066C44.5887 19.3553 44.0731 19.1796 43.4837 19.1796C42.9171 19.1796 42.4127 19.361 41.9707 19.7236C41.5401 20.075 41.2624 20.534 41.1377 21.1006ZM50.4576 17.9386V19.0436C51.0356 18.171 51.8686 17.7346 52.9566 17.7346C53.0813 17.7346 53.1606 17.7403 53.1946 17.7516V19.4686C53.0246 19.3893 52.7979 19.3496 52.5146 19.3496C51.9253 19.3496 51.4323 19.5366 51.0356 19.9106C50.6503 20.2846 50.4576 20.755 50.4576 21.3216V25.5886H48.9276V17.9386H50.4576ZM59.6631 19.6896L58.2351 19.9446C58.0424 19.378 57.5438 19.0946 56.7391 19.0946C56.3651 19.0946 56.0591 19.174 55.8211 19.3326C55.5831 19.48 55.4641 19.6726 55.4641 19.9106C55.4641 20.228 55.7134 20.483 56.2121 20.6756L57.9291 21.2706C59.1758 21.7126 59.7991 22.4436 59.7991 23.4636C59.7991 24.2003 59.5271 24.7726 58.9831 25.1806C58.4391 25.5886 57.7308 25.7926 56.8581 25.7926C55.9968 25.7926 55.2941 25.6 54.7501 25.2146C54.2061 24.8293 53.8831 24.308 53.7811 23.6506L55.2431 23.4296C55.2998 23.7356 55.4754 23.9793 55.7701 24.1606C56.0761 24.342 56.4501 24.4326 56.8921 24.4326C57.3114 24.4326 57.6571 24.3476 57.9291 24.1776C58.2011 24.0076 58.3371 23.7866 58.3371 23.5146C58.3371 23.1406 58.0254 22.846 57.4021 22.6306L55.7021 22.0696C54.5574 21.673 53.9851 20.993 53.9851 20.0296C53.9851 19.293 54.2458 18.7263 54.7671 18.3296C55.2884 17.933 55.9854 17.7346 56.8581 17.7346C57.6401 17.7346 58.2804 17.9103 58.7791 18.2616C59.2778 18.613 59.5724 19.089 59.6631 19.6896ZM62.0948 24.6366C61.3354 23.8773 60.9558 22.9196 60.9558 21.7636C60.9558 20.6076 61.3354 19.65 62.0948 18.8906C62.8654 18.12 63.8231 17.7346 64.9678 17.7346C66.1124 17.7346 67.0701 18.12 67.8408 18.8906C68.6114 19.6613 68.9968 20.619 68.9968 21.7636C68.9968 22.9083 68.6114 23.866 67.8408 24.6366C67.0701 25.4073 66.1124 25.7926 64.9678 25.7926C63.8231 25.7926 62.8654 25.4073 62.0948 24.6366ZM63.2338 19.9956C62.7804 20.4603 62.5538 21.0496 62.5538 21.7636C62.5538 22.4776 62.7804 23.067 63.2338 23.5316C63.6871 24.0076 64.2651 24.2456 64.9678 24.2456C65.6478 24.2456 66.2201 24.0076 66.6848 23.5316C67.1494 23.0443 67.3818 22.455 67.3818 21.7636C67.3818 21.0723 67.1494 20.483 66.6848 19.9956C66.2201 19.5196 65.6478 19.2816 64.9678 19.2816C64.2651 19.2816 63.6871 19.5196 63.2338 19.9956ZM70.5428 25.5886V17.9386H72.0728V19.0436C72.6508 18.171 73.4838 17.7346 74.5718 17.7346C75.4558 17.7346 76.1868 18.0236 76.7648 18.6016C77.3428 19.157 77.6318 19.871 77.6318 20.7436V25.5886H76.0848V21.1856C76.0848 20.619 75.8978 20.1486 75.5238 19.7746C75.1498 19.4006 74.6852 19.2136 74.1298 19.2136C73.5518 19.2136 73.0645 19.4063 72.6678 19.7916C72.2712 20.1656 72.0728 20.636 72.0728 21.2026V25.5886H70.5428ZM82.9413 17.7346C83.9273 17.7346 84.7716 18.069 85.4743 18.7376V17.9386H87.0043V25.5886H85.4743V24.7896C84.7716 25.4583 83.9273 25.7926 82.9413 25.7926C81.8873 25.7926 80.9919 25.4073 80.2553 24.6366C79.5413 23.8773 79.1843 22.9196 79.1843 21.7636C79.1843 20.619 79.5413 19.6613 80.2553 18.8906C80.9919 18.12 81.8873 17.7346 82.9413 17.7346ZM84.7603 19.9956C84.3183 19.5196 83.7686 19.2816 83.1113 19.2816C82.4653 19.2816 81.9099 19.5196 81.4453 19.9956C81.0033 20.4716 80.7823 21.061 80.7823 21.7636C80.7823 22.4663 81.0033 23.0556 81.4453 23.5316C81.9099 24.0076 82.4653 24.2456 83.1113 24.2456C83.7686 24.2456 84.3183 24.0076 84.7603 23.5316C85.2136 23.067 85.4403 22.4776 85.4403 21.7636C85.4403 21.0496 85.2136 20.4603 84.7603 19.9956ZM90.4341 25.5886H88.9041V13.2636H90.4341V25.5886ZM102.708 25.5886H96.9113V14.1136H102.385C103.349 14.1136 104.148 14.4026 104.782 14.9806C105.428 15.5586 105.751 16.284 105.751 17.1566C105.751 18.1313 105.343 18.9246 104.527 19.5366C105.071 19.8086 105.496 20.194 105.802 20.6926C106.12 21.1913 106.278 21.741 106.278 22.3416C106.278 23.2596 105.938 24.036 105.258 24.6706C104.578 25.2826 103.728 25.5886 102.708 25.5886ZM102.708 20.4376H98.6113V24.0076H102.708C103.23 24.0076 103.66 23.8376 104 23.4976C104.352 23.1576 104.527 22.7326 104.527 22.2226C104.527 21.7126 104.352 21.2876 104 20.9476C103.66 20.6076 103.23 20.4376 102.708 20.4376ZM102.385 15.6946H98.6113V18.8566H102.385C102.85 18.8566 103.235 18.7093 103.541 18.4146C103.847 18.1086 104 17.729 104 17.2756C104 16.8223 103.847 16.4483 103.541 16.1536C103.235 15.8476 102.85 15.6946 102.385 15.6946ZM109.509 17.9386V19.0436C110.087 18.171 110.92 17.7346 112.008 17.7346C112.133 17.7346 112.212 17.7403 112.246 17.7516V19.4686C112.076 19.3893 111.85 19.3496 111.566 19.3496C110.977 19.3496 110.484 19.5366 110.087 19.9106C109.702 20.2846 109.509 20.755 109.509 21.3216V25.5886H107.979V17.9386H109.509ZM116.626 17.7346C117.612 17.7346 118.456 18.069 119.159 18.7376V17.9386H120.689V25.5886H119.159V24.7896C118.456 25.4583 117.612 25.7926 116.626 25.7926C115.572 25.7926 114.677 25.4073 113.94 24.6366C113.226 23.8773 112.869 22.9196 112.869 21.7636C112.869 20.619 113.226 19.6613 113.94 18.8906C114.677 18.12 115.572 17.7346 116.626 17.7346ZM118.445 19.9956C118.003 19.5196 117.453 19.2816 116.796 19.2816C116.15 19.2816 115.595 19.5196 115.13 19.9956C114.688 20.4716 114.467 21.061 114.467 21.7636C114.467 22.4663 114.688 23.0556 115.13 23.5316C115.595 24.0076 116.15 24.2456 116.796 24.2456C117.453 24.2456 118.003 24.0076 118.445 23.5316C118.898 23.067 119.125 22.4776 119.125 21.7636C119.125 21.0496 118.898 20.4603 118.445 19.9956ZM122.589 25.5886V17.9386H124.119V19.0436C124.697 18.171 125.53 17.7346 126.618 17.7346C127.502 17.7346 128.233 18.0236 128.811 18.6016C129.389 19.157 129.678 19.871 129.678 20.7436V25.5886H128.131V21.1856C128.131 20.619 127.944 20.1486 127.57 19.7746C127.196 19.4006 126.731 19.2136 126.176 19.2136C125.598 19.2136 125.11 19.4063 124.714 19.7916C124.317 20.1656 124.119 20.636 124.119 21.2026V25.5886H122.589ZM134.987 17.7346C135.973 17.7346 136.817 18.069 137.52 18.7376V13.2636H139.05V25.5886H137.52V24.7896C136.817 25.4583 135.973 25.7926 134.987 25.7926C133.933 25.7926 133.038 25.4073 132.301 24.6366C131.587 23.8773 131.23 22.9196 131.23 21.7636C131.23 20.619 131.587 19.6613 132.301 18.8906C133.038 18.12 133.933 17.7346 134.987 17.7346ZM136.806 19.9956C136.364 19.5196 135.814 19.2816 135.157 19.2816C134.511 19.2816 133.956 19.5196 133.491 19.9956C133.049 20.4716 132.828 21.061 132.828 21.7636C132.828 22.4663 133.049 23.0556 133.491 23.5316C133.956 24.0076 134.511 24.2456 135.157 24.2456C135.814 24.2456 136.364 24.0076 136.806 23.5316C137.259 23.067 137.486 22.4776 137.486 21.7636C137.486 21.0496 137.259 20.4603 136.806 19.9956ZM142.48 25.5886H140.95V17.9386H142.48V25.5886ZM141.715 14.4706C141.998 14.4706 142.236 14.567 142.429 14.7596C142.622 14.9523 142.718 15.1903 142.718 15.4736C142.718 15.927 142.508 16.2386 142.089 16.4086C141.67 16.5786 141.301 16.5106 140.984 16.2046C140.678 15.8873 140.61 15.519 140.78 15.0996C140.95 14.6803 141.262 14.4706 141.715 14.4706ZM144.387 25.5886V17.9386H145.917V19.0436C146.495 18.171 147.328 17.7346 148.416 17.7346C149.3 17.7346 150.031 18.0236 150.609 18.6016C151.187 19.157 151.476 19.871 151.476 20.7436V25.5886H149.929V21.1856C149.929 20.619 149.742 20.1486 149.368 19.7746C148.994 19.4006 148.529 19.2136 147.974 19.2136C147.396 19.2136 146.908 19.4063 146.512 19.7916C146.115 20.1656 145.917 20.636 145.917 21.2026V25.5886H144.387ZM156.785 25.7926C155.731 25.7926 154.836 25.4073 154.099 24.6366C153.385 23.8773 153.028 22.9196 153.028 21.7636C153.028 20.619 153.385 19.6613 154.099 18.8906C154.836 18.12 155.731 17.7346 156.785 17.7346C157.771 17.7346 158.615 18.069 159.318 18.7376V17.9386H160.848V25.7756C160.848 26.875 160.474 27.7873 159.726 28.5126C158.989 29.2493 158.071 29.6176 156.972 29.6176C156.167 29.6176 155.425 29.4136 154.745 29.0056C154.065 28.5976 153.589 28.0706 153.317 27.4246L154.864 26.9656C155.023 27.2943 155.295 27.5606 155.68 27.7646C156.065 27.98 156.479 28.0876 156.921 28.0876C157.59 28.0876 158.156 27.8666 158.621 27.4246C159.086 26.9826 159.318 26.433 159.318 25.7756V24.7896C158.615 25.4583 157.771 25.7926 156.785 25.7926ZM156.955 19.2816C156.286 19.2816 155.725 19.5196 155.272 19.9956C154.83 20.4716 154.609 21.061 154.609 21.7636C154.609 22.4663 154.83 23.0556 155.272 23.5316C155.725 24.0076 156.286 24.2456 156.955 24.2456C157.612 24.2456 158.162 24.0076 158.604 23.5316C159.057 23.067 159.284 22.4776 159.284 21.7636C159.284 21.0496 159.057 20.4603 158.604 19.9956C158.162 19.5196 157.612 19.2816 156.955 19.2816Z" fill="black"/>
</svg>
